<?xml version="1.0" standalone="no"?>
<!DOCTYPE svg PUBLIC "-//W3C//DTD SVG 1.1//EN" "http://www.w3.org/Graphics/SVG/1.1/DTD/svg11.dtd" >
<svg xmlns="http://www.w3.org/2000/svg" xmlns:xlink="http://www.w3.org/1999/xlink" version="1.1">
<metadata></metadata>
<defs>
<font id="iowanoldst_btroman" horiz-adv-x="556" >
<font-face units-per-em="1000" ascent="760" descent="-240" />
<missing-glyph horiz-adv-x="277" />
<glyph horiz-adv-x="0" />
<glyph unicode="&#xd;" horiz-adv-x="277" />
<glyph unicode=" "  horiz-adv-x="277" />
<glyph unicode="&#x09;" horiz-adv-x="277" />
<glyph unicode="&#xa0;" horiz-adv-x="277" />
<glyph unicode="!" horiz-adv-x="336" d="M152 118l34 -27q14 -10 20 -20t6 -21t-5 -19.5t-18 -18.5l-37 -28l-34 26q-14 11 -20.5 21t-6.5 21t5 19t20 19zM111 697h101q-1 -92 -17 -263t-20 -243h-40q-2 117 -8 243.5t-16 262.5z" />
<glyph unicode="&#x22;" horiz-adv-x="331" d="M253 422h-15l-32 223v3q-1 11 -2 16q0 24 11 37t31 13t30.5 -13t10.5 -36v-11.5t-1 -8.5zM93 422h-16l-31 223q-1 8 -1.5 12.5t-0.5 7.5q0 23 10.5 36t30.5 13t31 -13t11 -36q0 -4 -2 -17v-3z" />
<glyph unicode="#" d="M358 408q-19 1 -35.5 1h-35.5h-50l-40 -124q12 0 22.5 -0.5t21.5 -0.5q15 0 32 0.5t48 1.5zM271 692h56q-16 -49 -33 -103t-40 -131q10 0 21 -0.5t29 -0.5q15 0 32.5 0.5t36.5 0.5q18 54 35.5 111.5t35.5 122.5h56l-74 -234q7 0 19.5 -0.5t19.5 -0.5q17 0 32.5 0.5 t30.5 2.5l-17 -57q-23 2 -48 3t-53 2l-40 -123q8 0 23.5 -0.5t22.5 -0.5q12 0 25.5 0.5t33.5 1.5l-17 -55q-31 2 -49.5 3t-34.5 1h-19l-70 -235h-56q18 57 36 115.5t38 119.5h-58h-63q-9 -29 -26 -83q-33 -107 -46 -152h-57l76 234q-11 0 -22 0.5t-21 0.5q-13 0 -44 -2h-8 l17 55q15 -1 29.5 -2t29.5 -1q6 0 18 0.5t18 0.5l40 122q-40 0 -60.5 -0.5t-38.5 -1.5l17 56q18 -1 36.5 -2t37.5 -1h25z" />
<glyph unicode="$" d="M293 305v-204q41 7 65.5 37t24.5 71q0 32 -21.5 55t-68.5 41zM250 589q-40 -6 -62.5 -29.5t-22.5 -58.5q0 -31 20.5 -53.5t64.5 -40.5v182zM248 747h51l-1 -114q67 -2 105 -21t38 -49q0 -18 -11.5 -30.5t-27.5 -12.5q-12 0 -41.5 33.5t-63.5 35.5l-3 -197 q90 -31 126.5 -69t36.5 -97q0 -65 -44.5 -111.5t-118.5 -56.5v-114h-51l2 112q-74 2 -115 23.5t-41 56.5q0 19 12 33t28 14q17 0 47.5 -42t70.5 -42l2 219q-83 27 -121 65t-38 94q0 60 43.5 102t115.5 51z" />
<glyph unicode="%" horiz-adv-x="879" d="M662 354q-39 0 -58.5 -37t-19.5 -111q0 -88 22 -135.5t64 -47.5q39 0 58.5 37t19.5 110q0 90 -22 137t-64 47zM506 185q0 93 46 150t120 57q69 0 112 -53t43 -139q0 -99 -44.5 -156.5t-120.5 -57.5q-71 0 -113.5 54t-42.5 145zM209 669q-39 0 -58.5 -37.5t-19.5 -111.5 q0 -88 22 -135t64 -47q39 0 58.5 36.5t19.5 109.5q0 90 -22 137.5t-64 47.5zM628 713l39 -21q-187 -316 -271.5 -459.5t-148.5 -255.5l-37 19l397 683q-52 -32 -91.5 -45.5t-76.5 -13.5q-23 0 -47.5 5.5t-55.5 18.5q18 -26 27.5 -61t9.5 -77q0 -92 -45.5 -149t-119.5 -57 q-71 0 -113 54t-42 146q0 91 45 148.5t114 57.5q20 0 37.5 -3t34.5 -10q58 -19 93 -26t64 -7q42 0 89 13.5t98 39.5z" />
<glyph unicode="&#x26;" horiz-adv-x="831" d="M321 412q39 26 60.5 64.5t21.5 80.5q0 44 -24 72.5t-62 28.5q-35 0 -57.5 -24.5t-22.5 -63.5q0 -35 22 -77t62 -81zM451 119l-185 232q-59 -20 -88.5 -56t-29.5 -87q0 -64 45.5 -110t109.5 -46q34 0 70 16t78 51zM476 88q-53 -51 -107.5 -77.5t-107.5 -26.5 q-83 0 -139 56t-56 138q0 72 45.5 124t131.5 79q-40 42 -60.5 82t-20.5 78q0 64 49.5 112.5t114.5 48.5q66 0 109.5 -39t43.5 -99q0 -48 -33 -91.5t-103 -86.5l167 -202q50 55 81.5 119.5t31.5 98.5q0 22 -13 30.5t-50 8.5v36q33 -3 60.5 -5t47.5 -2q15 0 36.5 1.5t70.5 5.5 v-37h-11q-51 0 -75 -52q-1 -3 -2 -5q-37 -78 -73 -133.5t-77 -96.5l20 -24q35 -42 63 -60.5t57 -18.5q23 0 48.5 13t51.5 37l20 -21q-37 -50 -78 -75.5t-83 -25.5q-37 0 -69 21t-91 89z" />
<glyph unicode="'" horiz-adv-x="169" d="M93 422h-16l-32 223q0 4 -0.5 8t-0.5 11q0 24 10.5 37t30.5 13t31 -13t11 -36q0 -4 -2 -17v-3z" />
<glyph unicode="(" horiz-adv-x="418" d="M372 767l25 -26q-90 -100 -136.5 -214.5t-46.5 -238.5t46.5 -234t140.5 -213l-26 -30q-123 95 -183 215t-60 270q0 140 61 260t179 211z" />
<glyph unicode=")" horiz-adv-x="418" d="M48 767q117 -91 178 -211t61 -260q0 -150 -60 -270.5t-182 -214.5l-26 30q94 103 140.5 212.5t46.5 228.5q0 128 -46 243t-137 216z" />
<glyph unicode="*" horiz-adv-x="454" d="M227 713l39 -22q-12 -36 -18 -65t-6 -46q0 -3 1.5 -5.5t3.5 -2.5q8 0 29.5 19t61.5 60l38 -22l1 -44q-60 -16 -86.5 -26.5t-26.5 -18.5q0 -7 30 -19t83 -25l-1 -44l-38 -21q-40 41 -61.5 59.5t-27.5 18.5q-3 0 -5 -2t-2 -6q0 -16 6 -43.5t18 -67.5l-39 -22l-38 22 q11 40 17 69t6 41v2q0 2 -2 4.5t-5 2.5q-6 0 -27.5 -18.5t-61.5 -59.5l-38 21v44q53 13 83 25t30 19t-28 18.5t-85 26.5v44l38 22q42 -43 62 -61t28 -18q2 0 4 2.5t2 6.5q0 12 -6 42t-17 68z" />
<glyph unicode="+" horiz-adv-x="833" d="M388 596h58v-269h263v-57h-263v-270h-58v270h-264v57h264v269z" />
<glyph unicode="," horiz-adv-x="277" d="M130 123q40 -31 52.5 -49t12.5 -40q0 -36 -37 -87t-99 -99l-26 32q32 25 52 54.5t29 64.5q-27 17 -38 29.5t-11 24.5q0 9 6.5 18.5t29.5 28.5z" />
<glyph unicode="-" horiz-adv-x="350" d="M32 207q7 17 13.5 36t12.5 41h15q72 -1 102 -2q48 0 79.5 0.5t62.5 1.5q-8 -21 -14.5 -40.5t-11.5 -36.5q-29 1 -57.5 1.5t-69.5 0.5t-71 -0.5t-61 -1.5z" />
<glyph unicode="." horiz-adv-x="277" d="M130 127l39 -29q16 -12 23.5 -22t7.5 -19q0 -12 -6.5 -21.5t-22.5 -21.5l-38 -28l-36 28q-18 13 -24.5 22.5t-6.5 20.5q0 9 5 17.5t24 23.5z" />
<glyph unicode="/" horiz-adv-x="460" d="M423 761l52 -24q-191 -356 -287.5 -538t-152.5 -292l-52 23q142 260 251 466t189 365z" />
<glyph unicode="0" d="M269 653q-72 0 -107 -69t-35 -210q0 -164 41 -249.5t120 -85.5q71 0 106.5 70t35.5 212q0 161 -41.5 246.5t-119.5 85.5zM38 330q0 171 68 273.5t179 102.5q108 0 170 -92t62 -254q0 -171 -67.5 -272.5t-179.5 -101.5q-108 0 -170 92t-62 252z" />
<glyph unicode="1" d="M337 706q-4 -91 -6.5 -188t-2.5 -258q0 -19 -0.5 -49t-0.5 -42q0 -87 17 -111.5t66 -24.5q3 0 9.5 0.5t10.5 0.5v-34q-44 2 -83 3t-70 1q-25 0 -62.5 -1t-82.5 -3v33h15q52 0 70 10.5t25 40.5q4 19 7 128t3 273q0 26 -1 77t-2 73q-28 0 -60 -3t-68 -8l-6 37 q53 9 108.5 20t113.5 25z" />
<glyph unicode="2" d="M149 84q22 0 59 -1q62 -1 81 -1h61q71 0 94 15t33 58l31 -10q-14 -39 -23.5 -74.5t-14.5 -70.5q-79 2 -136.5 3.5t-103.5 1.5q-40 0 -85.5 -1.5t-105.5 -3.5l-15 33q154 132 241.5 256t87.5 209q0 62 -36.5 102.5t-91.5 40.5q-42 0 -76.5 -24t-69.5 -77l-38 22 q41 73 92.5 108.5t115.5 35.5q83 0 142 -57.5t59 -137.5q0 -75 -64 -167.5t-237 -259.5z" />
<glyph unicode="3" d="M278 387q4 0 9 0.5t14 0.5q80 0 126 -45.5t46 -124.5q0 -93 -79.5 -162.5t-185.5 -69.5q-66 0 -115 26t-49 60q0 15 13.5 28.5t27.5 13.5q18 0 40 -24l9 -9q22 -24 45.5 -34.5t52.5 -10.5q62 0 104.5 45.5t42.5 114.5q0 64 -36 104t-94 40q-21 0 -44 -5t-49 -16l-14 34 q97 42 146 89.5t49 98.5q0 45 -30.5 75.5t-76.5 30.5q-35 0 -67 -20.5t-63 -62.5l-36 21q34 60 81 90.5t108 30.5q74 0 123.5 -44t49.5 -108q0 -54 -37 -95.5t-111 -71.5z" />
<glyph unicode="4" d="M325 590l-216 -305h17q114 -4 164 -4h35v309zM345 702h64q-3 -97 -5 -201.5t-2 -219.5h15q21 0 47 1t62 4q-7 -27 -10.5 -41t-5.5 -26l-54 2t-54 1v-103q0 -58 12.5 -71.5t51.5 -13.5h13v-34q-34 2 -65 3t-55 1q-21 0 -50.5 -1t-66.5 -3v34q3 0 9 -0.5t9 -0.5 q39 0 52 17.5t13 83.5v37v51q-31 0 -74 0.5t-55 0.5q-14 0 -67 -1t-83 -1l-20 45q45 55 80 98.5t52 67.5l48 66q5 7 16 22q78 108 123 182z" />
<glyph unicode="5" d="M471 697q-10 -21 -17 -42.5t-12 -42.5q-47 -4 -87.5 -6t-76.5 -2q-18 0 -68 1q-12 0 -18 1l-33 -211q33 16 63 23.5t60 7.5q86 0 143.5 -57t57.5 -144q0 -99 -76.5 -169t-184.5 -70q-66 0 -115 26t-49 60q0 15 13.5 28.5t27.5 13.5q19 0 42 -26q4 -5 7 -7 q23 -24 45.5 -34.5t50.5 -10.5q64 0 105.5 48t41.5 125q0 69 -39.5 109t-106.5 40q-27 0 -53 -8.5t-51 -24.5l-39 17l44 350q63 -2 101 -3.5t62 -1.5q50 0 90 2.5t72 7.5z" />
<glyph unicode="6" d="M153 318q-1 -8 -1 -16v-24q0 -118 36.5 -180.5t104.5 -62.5q57 0 91 42t34 112q0 81 -38 129.5t-101 48.5q-28 0 -60 -12.5t-66 -36.5zM156 369q49 34 85.5 49t72.5 15q81 0 134.5 -60.5t53.5 -153.5q0 -102 -62.5 -167.5t-159.5 -65.5q-98 0 -158 79.5t-60 213.5 q0 183 98 304t239 121q37 0 56.5 -13t19.5 -37q0 -16 -8.5 -26t-22.5 -10q-5 0 -37 10t-60 10q-83 0 -133.5 -71t-57.5 -198z" />
<glyph unicode="7" d="M128 -4q81 155 156.5 307t147.5 304q-39 0 -99.5 1t-75.5 1h-44q-69 0 -89.5 -15t-29.5 -61l-34 9q9 36 15 72.5t8 77.5q64 -2 107.5 -3.5t75.5 -1.5q61 0 121.5 1t121.5 3l14 -29q-46 -55 -129 -241.5t-162 -424.5h-104z" />
<glyph unicode="8" d="M244 331q-51 -33 -75 -70.5t-24 -83.5q0 -64 37 -104.5t97 -40.5q52 0 88.5 39.5t36.5 95.5t-36 93.5t-124 70.5zM328 379q82 -35 120 -81.5t38 -110.5q0 -83 -65.5 -142.5t-156.5 -59.5q-85 0 -144.5 53.5t-59.5 128.5q0 59 38.5 106.5t114.5 84.5q-67 30 -99.5 72.5 t-32.5 99.5q0 72 59 124.5t140 52.5q76 0 127.5 -46t51.5 -113q0 -53 -33 -95t-98 -74zM298 403q44 27 65.5 62.5t21.5 79.5q0 50 -32 83t-81 33q-46 0 -78 -33t-32 -79q0 -45 34 -81.5t102 -64.5z" />
<glyph unicode="9" d="M391 331q-42 -33 -81 -49t-77 -16q-79 0 -132 60t-53 151q0 100 60.5 164.5t154.5 64.5q104 0 162.5 -78t58.5 -217q0 -184 -96 -304t-239 -120q-36 0 -55.5 12t-19.5 35q0 16 9 24.5t25 8.5q6 0 34.5 -8.5t52.5 -8.5q88 0 136.5 70t59.5 211zM394 384q0 138 -34.5 205 t-104.5 67q-56 0 -89 -40t-33 -109q0 -79 37.5 -126t101.5 -47q29 0 59 12.5t63 37.5z" />
<glyph unicode=":" horiz-adv-x="277" d="M130 127l39 -29q16 -12 23.5 -22t7.5 -19q0 -12 -6.5 -21.5t-22.5 -21.5l-38 -28l-36 28q-18 13 -24.5 22.5t-6.5 20.5q0 9 5 17.5t24 23.5zM130 447l39 -29q16 -12 23.5 -22t7.5 -19q0 -12 -6.5 -21.5t-22.5 -21.5l-38 -28l-36 28q-18 13 -24.5 22.5t-6.5 20.5q0 9 5 17 t24 24z" />
<glyph unicode=";" horiz-adv-x="277" d="M130 123q40 -31 52.5 -49t12.5 -40q0 -36 -37 -87t-99 -99l-26 32q32 25 52 54.5t29 64.5q-27 17 -38 29.5t-11 24.5q0 9 6.5 18.5t29.5 28.5zM130 447l39 -29q16 -12 23.5 -22t7.5 -19q0 -12 -6.5 -21.5t-22.5 -21.5l-38 -28l-36 28q-18 13 -24.5 22.5t-6.5 20.5 q0 9 5 17t24 24z" />
<glyph unicode="&#x3c;" horiz-adv-x="833" d="M704 559v-62l-488 -199l488 -198v-63l-575 236v50z" />
<glyph unicode="=" horiz-adv-x="833" d="M124 233h585v-57h-585v57zM124 420h585v-57h-585v57z" />
<glyph unicode="&#x3e;" horiz-adv-x="833" d="M129 559l575 -236v-50l-575 -236v63l488 198l-488 199v62z" />
<glyph unicode="?" horiz-adv-x="470" d="M144 117l34 -26q14 -10 20 -20t6 -21t-5 -19.5t-18 -18.5l-37 -29l-35 27q-14 11 -20 20.5t-6 20.5t5 19.5t19 18.5zM161 191h-37q0 8 0.5 18t0.5 29q0 28 -1 57.5t-4 60.5q94 22 147 69t53 108q0 48 -33.5 79.5t-83.5 31.5q-35 0 -73.5 -22.5t-47.5 -22.5 q-15 0 -24.5 10.5t-9.5 26.5q0 32 31 53t81 21q97 0 161.5 -58t64.5 -144q0 -67 -37.5 -113t-137.5 -95q-3 -1 -8 -4q-42 -20 -42 -82v-23z" />
<glyph unicode="@" horiz-adv-x="1000" d="M560 164q-84 -80 -118 -103t-57 -23q-31 0 -47 27t-16 79t15.5 104t44.5 97q38 59 88.5 90.5t104.5 31.5q13 0 27 -2.5t28 -7.5l62 26q-33 -139 -50 -227t-17 -124q0 -22 9.5 -33.5t28.5 -11.5q53 0 102.5 83.5t49.5 187.5q0 110 -68.5 174.5t-183.5 64.5 q-74 0 -142.5 -34t-123.5 -98q-53 -62 -81.5 -136.5t-28.5 -150.5q0 -136 84 -219.5t223 -83.5q100 0 199.5 60t174.5 166l18 -29q-81 -118 -187 -182.5t-221 -64.5q-160 0 -260.5 95.5t-100.5 245.5q0 86 35.5 173.5t98.5 152.5q66 69 150.5 107t174.5 38 q133 0 219.5 -79.5t86.5 -201.5q0 -71 -32.5 -137t-93.5 -121q-37 -33 -70 -49.5t-62 -16.5q-32 0 -49.5 23t-17.5 66q0 6 1 16.5t2 26.5zM608 407q-17 11 -30.5 15.5t-26.5 4.5q-29 0 -56 -21t-49 -60q-20 -37 -33.5 -87t-13.5 -88t6.5 -52.5t21.5 -14.5t49 26t92 83 q8 36 17.5 81.5t22.5 112.5z" />
<glyph unicode="A" horiz-adv-x="722" d="M341 605l-112 -292q9 -1 27 -1q55 -1 75 -1q24 -1 88 1q14 0 22 1zM319 697h84q63 -194 120 -354t90 -241q20 -46 34 -57t40 -11h10v-34q-38 2 -69.5 3t-53.5 1q-27 0 -60 -1t-69 -3v34h9q35 0 47.5 8t12.5 30q0 8 -2 17.5t-6 22.5l-48 149q-19 0 -51 1q-59 1 -75 1 h-62.5t-61.5 -1q-35 -87 -47.5 -127.5t-12.5 -57.5q0 -24 12.5 -33.5t45.5 -9.5h13v-34q-36 2 -66.5 3t-55.5 1q-20 0 -49 -1t-63 -3v34q35 1 55 14t35 43q27 57 97 228.5t147 377.5z" />
<glyph unicode="B" horiz-adv-x="622" d="M209 384q11 -1 24 -1h39q28 0 51.5 1t45.5 3q36 25 54 57.5t18 70.5q0 62 -39.5 98t-108.5 36q-15 0 -35 -2t-45 -6q-1 -65 -2.5 -151.5t-1.5 -105.5zM210 63q28 -8 55.5 -12t53.5 -4q80 0 124 39t44 109q0 74 -49.5 110t-151.5 36q-17 0 -33.5 -0.5t-43.5 -1.5 q0 -21 -0.5 -60.5t-0.5 -58.5q0 -30 0.5 -64t1.5 -93zM37 32q3 0 6.5 -0.5t9.5 -0.5q65 0 66 182q0 46 1 72l2 133q0 43 0.5 83.5t0.5 88.5q0 42 -15.5 58t-55.5 16h-4v34q31 -2 61 -3t61 -1q34 0 84 2t65 2q101 0 159 -44.5t58 -120.5q0 -53 -28.5 -92t-94.5 -75 q86 -17 128.5 -58.5t42.5 -110.5q0 -89 -71 -144t-189 -55q-21 0 -80 2.5t-98 2.5q-16 0 -44.5 -1t-64.5 -3v33z" />
<glyph unicode="C" horiz-adv-x="707" d="M641 675v-17q0 -34 2.5 -71t7.5 -77l-36 -6q-10 70 -66.5 109.5t-147.5 39.5q-122 0 -188 -74.5t-66 -211.5q0 -146 76 -236t197 -90q76 0 132 35t87 103l33 -16q-16 -32 -28.5 -65t-22.5 -66q-53 -24 -107.5 -36t-109.5 -12q-162 0 -262.5 100.5t-100.5 263.5 q0 161 106 262.5t274 101.5q50 0 105 -9t115 -28z" />
<glyph unicode="D" horiz-adv-x="780" d="M37 0v34q3 0 6.5 -0.5t9.5 -0.5q65 0 66 181q0 46 1 72l2 130q0 42 0.5 82t0.5 91q0 42 -15.5 58t-55.5 16h-4v34q32 -1 59.5 -2.5t46.5 -1.5q54 0 118.5 4t75.5 4q182 0 286.5 -92t104.5 -251q0 -163 -105 -262.5t-280 -99.5q-26 0 -94.5 4t-110.5 4q-20 0 -49 -1 t-63 -3zM210 59q36 -8 70 -11.5t69 -3.5q138 0 211.5 75t73.5 215q0 149 -79 233.5t-220 84.5q-29 0 -58.5 -2.5t-61.5 -6.5q-3 -178 -4 -280.5t-1 -170.5v-133z" />
<glyph unicode="E" horiz-adv-x="633" d="M48 697q85 -3 152.5 -4.5t116.5 -1.5q54 0 109.5 1.5t112.5 4.5q0 -37 2.5 -75.5t6.5 -76.5l-33 -3q-4 59 -36 79.5t-139 20.5q-27 0 -100 -1q-15 0 -22 -1q-1 -59 -3 -143.5t-2 -110.5h15q29 0 72 -0.5t58 -0.5q71 0 93.5 13t24.5 49l31 -3q-3 -30 -5 -56t-2 -48 q0 -13 2 -55q1 -15 2 -23l-32 -1v4q0 42 -24 56.5t-113 14.5h-87h-35q0 -24 -0.5 -66t-0.5 -61q0 -32 0.5 -67t1.5 -82q24 -3 55.5 -4.5t68.5 -1.5q123 0 161.5 24t61.5 91l35 -12q-15 -41 -26 -79.5t-19 -77.5q-77 3 -143 4.5t-119 1.5q-73 0 -234 -6h-18v32q3 0 6.5 -0.5 t9.5 -0.5q65 0 66 182q0 46 1 72l2 133q0 43 0.5 83.5t0.5 88.5q0 42 -15.5 58t-55.5 16h-4v33z" />
<glyph unicode="F" horiz-adv-x="584" d="M37 32q4 0 7.5 -0.5t11.5 -0.5q39 0 53 25.5t14 114.5q0 15 -0.5 52.5t-0.5 61.5v133q0 27 0.5 84.5t0.5 87.5q0 42 -16 58t-55 16h-8v33q101 -2 164 -3.5t106 -1.5q47 0 102 1t123 4q0 -34 2 -71.5t7 -84.5l-34 -4q-3 62 -34.5 83.5t-139.5 21.5q-38 0 -119 -2h-3 q-1 -72 -3 -160.5t-2 -98.5h16q27 0 67.5 -0.5t55.5 -0.5q72 0 95 13t25 49l31 -2q-4 -37 -5.5 -60.5t-1.5 -43.5q0 -15 1 -35t2 -45l-32 -2v8q0 40 -24 54.5t-111 14.5h-84h-35v-190q0 -70 15.5 -88.5t63.5 -18.5h19v-34q-37 2 -73 3t-70 1q-17 0 -52 -1t-79 -3v32z" />
<glyph unicode="G" horiz-adv-x="742" d="M649 674q1 -36 5 -73.5t11 -76.5l-37 -8q-14 69 -65.5 102.5t-146.5 33.5q-128 0 -198.5 -75.5t-70.5 -212.5q0 -148 80.5 -236.5t213.5 -88.5q28 0 56 5.5t60 17.5q1 38 2 64t1 43q0 83 -18.5 100t-81.5 17h-7v33q42 -2 77 -3t60 -1q36 0 67 1t59 3v-33q-41 0 -53.5 -16 t-12.5 -98v-51q0 -38 1 -58.5t3 -39.5q-16 -3 -49 -11q-126 -28 -191 -28q-169 0 -271 98.5t-102 261.5t109.5 265.5t284.5 102.5q53 0 106.5 -9.5t107.5 -28.5z" />
<glyph unicode="H" horiz-adv-x="793" d="M38 697q35 -2 66.5 -3t57.5 -1q30 0 61 1t64 3v-34h-13q-40 0 -54 -21t-14 -113v-24v-120q32 -1 67.5 -1.5t98.5 -0.5q65 0 113 0.5t98 1.5v136q0 97 -14 119.5t-54 22.5h-13v34q33 -2 64.5 -3t61.5 -1q26 0 57 1t66 3v-34q-2 0 -6.5 0.5t-6.5 0.5q-38 0 -51.5 -23.5 t-13.5 -101.5q0 -15 0.5 -56t0.5 -67v-130q0 -26 -0.5 -67.5t-0.5 -56.5q0 -80 13.5 -104.5t51.5 -24.5q7 0 10.5 0.5t6.5 0.5v-34q-39 2 -72 3t-55 1q-26 0 -59 -1t-71 -3v34q3 0 9 -0.5t8 -0.5q40 0 54 22t14 106v59v107h-6q-125 2 -184 2q-44 0 -84 -1h-6h-45.5t-51.5 -1 v-116v-39q0 -94 14 -116.5t55 -22.5q2 0 8 0.5t9 0.5v-34q-38 2 -71 3t-59 1q-22 0 -55 -1t-72 -3v34q3 0 6.5 -0.5t10.5 -0.5q38 0 51.5 24.5t13.5 104.5q0 15 -0.5 56.5t-0.5 67.5v130q0 24 0.5 62t0.5 52q0 84 -14 109t-52 25q-1 0 -5.5 -0.5t-7.5 -0.5v34z" />
<glyph unicode="I" horiz-adv-x="339" d="M37 697q34 -2 68 -3t66 -1q27 0 61 1t71 3v-34h-8q-32 0 -48 -7.5t-22 -24.5q-4 -11 -5.5 -36t-1.5 -82v-97v-243q0 -58 2.5 -81.5t8.5 -34.5q6 -12 22.5 -17.5t46.5 -5.5h10v-34q-42 2 -77.5 3t-59.5 1q-28 0 -64 -1t-75 -3v34h10q30 0 46 5.5t23 17.5q7 13 9.5 43 t2.5 109v77v191q0 77 -2 109.5t-6 44.5q-6 17 -21.5 24.5t-47.5 7.5h-9v34z" />
<glyph unicode="J" horiz-adv-x="332" d="M33 697q5 0 17 -1q78 -3 110 -3q31 0 108 3q12 0 18 1v-34q-32 -1 -46 -8t-20 -24q-5 -14 -7 -61t-2 -216q0 -58 1 -133t1 -93q0 -84 -11 -129.5t-37 -83.5q-32 -46 -75 -70t-95 -24q-40 0 -59.5 12.5t-19.5 37.5q0 19 11 33t27 14q12 0 41 -15.5t47 -15.5q40 0 57 38 t17 130v526q0 49 -15 65.5t-58 16.5h-10v34z" />
<glyph unicode="K" horiz-adv-x="692" d="M427 697q31 -2 62 -3t60 -1q21 0 48.5 1t59.5 3v-33h-4q-56 0 -107 -48l-5 -5l-242 -232l223 -224l25 -25q94 -97 138 -97q5 0 8 0.5t5 0.5v-34q-8 0 -21 1q-51 3 -69 3q-19 0 -42.5 -1t-50.5 -3q0 1 0.5 2t0.5 3q0 25 -156 180q-94 94 -153 155l188 203q13 14 35 37 q49 53 49 63q0 11 -9.5 16t-30.5 5h-12v33zM38 697q35 -2 66.5 -3t57.5 -1q30 0 61.5 1t63.5 3v-33h-6q-44 0 -59 -22t-15 -113v-357q0 -96 14 -117.5t57 -21.5q2 0 7.5 0.5t8.5 0.5v-34q-37 2 -70.5 3t-61.5 1q-22 0 -55 -1t-72 -3v34q3 0 6.5 -0.5t9.5 -0.5q39 0 52.5 27 t13.5 121q0 13 -0.5 48t-0.5 57v130q0 24 0.5 62t0.5 52q0 84 -14 109t-52 25q-1 0 -5.5 -0.5t-7.5 -0.5v34z" />
<glyph unicode="L" horiz-adv-x="571" d="M48 698q52 -3 79 -4t44 -1q32 0 62.5 1t60.5 4v-34h-15q-39 0 -52.5 -26.5t-13.5 -122.5v-97l1 -358q27 -1 52 -2t47 -1q131 0 169 24t60 94l35 -11q-15 -42 -26.5 -82.5t-20.5 -81.5q-81 2 -149.5 3.5t-127.5 1.5q-42 0 -94 -1.5t-122 -3.5v32q3 0 6.5 -0.5t9.5 -0.5 q66 0 67 188v66l1 133q0 21 0.5 55t0.5 47q0 90 -14.5 117t-55.5 27h-4v34z" />
<glyph unicode="M" horiz-adv-x="910" d="M455 171l141 320l6 13q70 158 70 187q0 1 -0.5 3t-0.5 3q29 -1 52 -2t41 -1q17 0 39.5 0.5t49.5 2.5v-34h-6q-42 0 -58 -14.5t-16 -52.5q0 -15 2 -65.5t5 -109.5l8 -137l1 -13q11 -183 16 -207q3 -14 18 -22t40 -8h12v-34q-39 2 -72 3t-55 1q-26 0 -58 -1t-69 -3v35 q4 0 11 -0.5t10 -0.5q37 0 51.5 13.5t14.5 47.5q0 16 -0.5 32t-1.5 32l-19 420l-200 -460q0 -1 -2 -5q-23 -48 -35 -103h-32q-7 30 -34 93l-2 4l-197 446q-3 -52 -8 -143q-14 -227 -14 -284v-5q0 -62 14 -75t57 -13h10v-34q-32 2 -61 3t-56 1q-20 0 -49 -1t-62 -3v34h14 q28 0 41.5 7t21.5 24q9 20 19 162q2 39 4 62l9 118v2q13 175 13 199q0 31 -15 43t-56 12h-8v34q4 0 13 -1q57 -3 79 -3q17 0 65 3q15 1 23 1v-3q0 -43 165 -410z" />
<glyph unicode="N" horiz-adv-x="808" d="M30 697q23 -2 44.5 -3t42.5 -1q16 0 37 1t45 3q6 -16 17.5 -33.5t28.5 -37.5l403 -477q-1 74 -3 197q-4 257 -9 277q-6 22 -20.5 31t-48.5 9h-15v34q6 0 17 -1q69 -3 98 -3t101 3q10 0 15 1v-34q-3 0 -6.5 0.5t-9.5 0.5q-65 0 -66 -182q0 -46 -1 -72l-2 -130 q-1 -29 -1 -59.5v-83.5q0 -59 1.5 -92t4.5 -53h-54q-8 20 -59 78l-5 6l-419 493v-11q3 -457 10 -484q6 -22 20.5 -31t47.5 -9h15v-34q-7 0 -22 1q-68 3 -93 3q-24 0 -53 -1t-61 -3v34q3 0 6.5 -0.5t9.5 -0.5q65 0 66 181q0 46 1 72l2 130q0 42 0.5 82t0.5 91q0 42 -16 58 t-57 16h-13v34z" />
<glyph unicode="O" horiz-adv-x="801" d="M648 334q0 142 -73.5 233t-184.5 91q-107 0 -171.5 -78t-64.5 -209q0 -146 73.5 -239t183.5 -93q106 0 171.5 80.5t65.5 214.5zM401 713q74 0 132.5 -21.5t105.5 -65.5q57 -54 87 -124.5t30 -150.5q0 -81 -32 -153.5t-90 -124.5q-47 -42 -109.5 -65.5t-124.5 -23.5 q-78 0 -144 29t-116 85q-46 52 -70 116.5t-24 135.5q0 77 29 145.5t84 120.5q50 47 112.5 72t129.5 25z" />
<glyph unicode="P" horiz-adv-x="588" d="M211 338q21 -3 37.5 -4.5t32.5 -1.5q92 0 139.5 41t47.5 119q0 71 -47 113t-127 42q-22 0 -42 -1.5t-39 -5.5q-1 -66 -1.5 -133t-0.5 -169zM37 32q4 0 7.5 -0.5t11.5 -0.5q39 0 53 26.5t14 118.5q0 14 -0.5 50.5t-0.5 58.5v306q0 42 -15 57.5t-55 15.5h-4v34q33 -2 66 -3 t65 -1q36 0 86 2t65 2q107 0 171 -53t64 -140q0 -103 -70 -160.5t-198 -57.5q-13 0 -34.5 1.5t-51.5 4.5v-147q0 -75 15.5 -94.5t61.5 -19.5q1 0 5 0.5t6 0.5h3.5t2.5 -1v-32q-36 2 -72 3t-71 1q-17 0 -50 -1t-75 -3v32z" />
<glyph unicode="Q" horiz-adv-x="801" d="M522 12l112 -67q82 -48 130 -66t92 -18q14 0 33 2.5t46 7.5l6 -30q-69 -20 -102.5 -26t-59.5 -6q-104 0 -348 165l-20 14q-3 0 -10 -0.5t-11 -0.5q-149 0 -246.5 102.5t-97.5 258.5q0 78 29 146.5t84 121.5q49 47 111.5 72t130.5 25q73 0 131.5 -21.5t105.5 -65.5 q57 -54 87.5 -125t30.5 -150q0 -121 -61 -210t-173 -129zM648 334q0 142 -73.5 233t-184.5 91q-107 0 -171.5 -78t-64.5 -209q0 -147 73.5 -239t187.5 -92q104 0 168.5 80.5t64.5 213.5z" />
<glyph unicode="R" horiz-adv-x="703" d="M211 344q23 -2 44 -3t37 -1q14 0 31.5 0.5t37.5 2.5q47 28 69 65.5t22 89.5q0 68 -44 109t-118 41q-20 0 -39 -1.5t-38 -5.5q-1 -61 -1.5 -125t-0.5 -172zM37 32q3 0 6.5 -0.5t9.5 -0.5q65 0 66 182q0 46 1 72l2 133q0 43 0.5 83.5t0.5 88.5q0 42 -15.5 58t-55.5 16h-4 v34q33 -2 65 -3t62 -1q33 0 81.5 2t64.5 2q100 0 164 -52.5t64 -132.5q0 -59 -32 -105t-96 -79l91 -138q5 -8 15 -23q95 -145 155 -144h5v-28q-7 0 -20 -2q-32 -3 -47 -3q-52 0 -82 14t-59 54q-5 6 -54 87t-99 152q-19 -2 -39.5 -3t-46.5 -1h-29v-150q0 -73 15 -92.5 t60 -19.5q1 0 3.5 0.5t4.5 0.5t3 -0.5t2 -0.5v-32q-35 2 -69 3t-68 1q-18 0 -50.5 -1t-74.5 -3v32z" />
<glyph unicode="S" horiz-adv-x="541" d="M459 676q0 -36 4 -71.5t13 -69.5l-38 -7q-8 61 -46.5 90t-108.5 29q-64 0 -104.5 -31.5t-40.5 -80.5q0 -81 172 -139q23 -7 35 -11q79 -27 116 -70t37 -106q0 -97 -73.5 -157.5t-195.5 -60.5q-46 0 -90.5 7.5t-89.5 23.5q0 5 0.5 12t0.5 19q0 35 -4 68.5t-12 67.5l44 10 q8 -80 50 -117t125 -37q72 0 117.5 36.5t45.5 93.5q0 81 -142 126q-20 6 -31 10q-98 32 -140.5 78t-42.5 117q0 84 66.5 140t166.5 56q37 0 74.5 -5.5t91.5 -20.5z" />
<glyph unicode="T" horiz-adv-x="630" d="M163 34h17q35 0 49.5 8.5t20.5 31.5q4 15 6 110t2 295v156h-99q-72 0 -97 -19.5t-37 -81.5l-32 7q9 42 14 83.5t5 80.5q15 -9 59.5 -13t156.5 -4h119q148 0 191 3.5t60 13.5q0 -5 -0.5 -15.5t-0.5 -15.5q0 -31 3 -63.5t8 -67.5l-31 -6q-6 55 -30 75t-102 23h-92 q0 -28 -1 -79q-1 -133 -1 -179q0 -173 2 -234.5t8 -77.5q6 -18 20.5 -24.5t45.5 -6.5h17v-34q-41 2 -76.5 3t-64.5 1q-25 0 -61 -1t-79 -3v34z" />
<glyph unicode="U" horiz-adv-x="787" d="M292 697v-34q-3 0 -8.5 0.5t-7.5 0.5q-39 0 -52.5 -25.5t-13.5 -120.5v-77v-101q0 -79 5 -116.5t16 -62.5q24 -53 70.5 -80.5t112.5 -27.5q49 0 86.5 14.5t63.5 43.5t37 71.5t11 141.5q0 119 -3 200.5t-7 98.5q-7 22 -21.5 31t-46.5 9h-7v34q6 0 17 -1q67 -3 96 -3 q28 0 96 3q12 0 17 1v-34h-6q-29 0 -43.5 -7.5t-20.5 -24.5q-5 -14 -7.5 -74t-2.5 -195v-49q0 -77 -6 -118t-19 -72q-27 -65 -94 -102t-158 -37q-63 0 -116 18.5t-90 53.5q-41 37 -58 87.5t-17 141.5q0 35 1 115t1 125v15q0 84 -14 103.5t-54 19.5h-9v34q35 -2 66 -3t57 -1 q31 0 63.5 1t65.5 3z" />
<glyph unicode="V" horiz-adv-x="716" d="M7 697q37 -2 69.5 -3t57.5 -1q31 0 63.5 1t66.5 3v-31q-41 -3 -54.5 -10.5t-13.5 -25.5q0 -14 5 -34.5t18 -57.5l147 -411q118 295 148.5 383t30.5 115q0 22 -12 30.5t-55 10.5v31q29 -2 57.5 -3t56.5 -1q23 0 52 1t60 3v-31h-7q-54 0 -92 -95q-8 -21 -13 -33 q-138 -331 -177.5 -430.5t-41.5 -115.5h-60q0 12 -45.5 146t-109.5 304q-4 12 -13 35q-71 190 -125 190h-7.5t-5.5 -1v31z" />
<glyph unicode="W" horiz-adv-x="1037" d="M350 122l150 373l-30 96q-16 49 -29 61t-41 12h-12t-8 -1v34q45 -2 72 -3.5t47 -1.5q19 0 48 1t78 4v-34h-13q-35 0 -46.5 -6.5t-11.5 -24.5q0 -11 4 -26.5t17 -56.5l139 -427q19 53 52 148q114 324 114 355q0 22 -12 30t-48 8h-13v34q31 -2 59 -3t51 -1q26 0 54 1t56 3 v-34h-8q-14 0 -23.5 -2.5t-16.5 -7.5q-16 -12 -86 -201l-22 -58l-41 -108q-18 -48 -48 -127q-54 -141 -59 -167h-57q-7 25 -21 69l-7 21l-113 340l-132 -328q-1 -4 -6 -14q-21 -47 -31 -88h-57q-3 24 -58 173q-25 70 -40 111l-53 146q-13 37 -34 98q-49 145 -90 145 q-2 0 -5.5 -0.5t-9.5 -1.5v34q31 -2 59 -3t51 -1q28 0 57.5 1t59.5 3v-34q-35 0 -46.5 -6.5t-11.5 -24.5q0 -20 24 -88l2 -5z" />
<glyph unicode="X" horiz-adv-x="710" d="M45 697q34 -2 64 -3t55 -1q30 0 61 1t64 3v-34h-18q-18 0 -27.5 -5.5t-9.5 -14.5q0 -8 9.5 -26.5t36.5 -59.5l86 -132l75 108q39 56 50.5 76.5t11.5 30.5q0 11 -11.5 17t-32.5 6h-10v34q30 -2 58 -3t49 -1q26 0 53 1t56 3v-34q-2 0 -5 0.5t-9 0.5q-45 0 -110 -90 q-15 -21 -24 -33l-121 -161l168 -246q44 -66 66.5 -83.5t49.5 -17.5q5 0 7.5 0.5t4.5 0.5v-34q-38 2 -71.5 3t-60.5 1q-22 0 -54.5 -1t-71.5 -3v34h13q25 0 37 6t12 18q0 13 -28 54l-4 6l-126 187l-86 -123q-40 -57 -56.5 -85.5t-16.5 -39.5q0 -12 12 -18t36 -6q3 0 8.5 0.5 t8.5 0.5v-34q-36 2 -66 3t-50 1q-24 0 -54.5 -1t-64.5 -3v34q2 0 5.5 -0.5t8.5 -0.5q49 0 114 88l1 1l170 227l-156 236q-1 2 -6 8q-46 70 -92 70h-9v34z" />
<glyph unicode="Y" horiz-adv-x="659" d="M9 697q36 -2 67.5 -3t56.5 -1q26 0 56.5 1t63.5 3v-34h-7q-27 0 -41 -5.5t-14 -16.5q0 -12 24 -53q6 -11 10 -17l118 -210q80 128 120 198t40 81q0 12 -12 17.5t-39 5.5h-8v34q29 -2 55.5 -3t46.5 -1q25 0 51 1t53 3v-34q-1 0 -2.5 0.5t-4.5 0.5h-6q-43 0 -113 -111 q-21 -35 -34 -55l-123 -188l2 -174q1 -68 15.5 -85t58.5 -17h17v-34q-41 2 -77 3t-65 1q-24 0 -60.5 -1t-79.5 -3v34q3 0 10 -0.5t10 -0.5q42 0 57.5 19.5t16.5 81.5l2 173l-158 266q-4 6 -11 19q-43 73 -79 73q-2 0 -6 -0.5t-11 -1.5v34z" />
<glyph unicode="Z" horiz-adv-x="666" d="M76 697q41 -4 95 -6.5t149 -2.5h58h58q59 0 102 2t82 7l14 -27q-19 -17 -37.5 -38.5t-42.5 -52.5l-386 -514q31 0 64.5 -0.5t93.5 -0.5q93 0 142 2.5t73 7.5q28 5 49 32t39 80l33 -10q-16 -46 -26.5 -90t-17.5 -86q-56 5 -130.5 8t-173.5 3h-37q-82 0 -137 -2.5 t-105 -8.5l-16 29q26 21 68 77q5 7 8 11l386 518h-164q-141 0 -182.5 -21t-52.5 -81l-32 9q12 37 18 75t8 80z" />
<glyph unicode="[" horiz-adv-x="418" d="M141 751q24 -2 48.5 -3t65.5 -1h127v-42h-28q-26 0 -59.5 -2t-77.5 -6l-7 -818q30 -5 61 -7.5t64 -2.5q9 0 19 0.5t21 0.5v-42h-116q-21 0 -53 -0.5t-72 -2.5q3 172 5.5 323t2.5 268q0 134 -0.5 203.5t-0.5 131.5z" />
<glyph unicode="\" horiz-adv-x="460" d="M30 761q71 -139 172.5 -330t268.5 -500l-52 -24q-71 140 -349 658l-92 172z" />
<glyph unicode="]" horiz-adv-x="418" d="M283 751q-3 -190 -4 -282.5t-1 -149.5q0 -94 0.5 -222t1.5 -272q-55 1 -93.5 2t-61.5 1h-86v43q9 0 19 -1t12 -1q42 0 129 9l6 1l1 818q-22 1 -59 4q-58 4 -74 4h-31v42h96q51 0 83 1t62 3z" />
<glyph unicode="^" horiz-adv-x="1000" d="M456 714h87l254 -276h-45l-253 213l-254 -213h-44z" />
<glyph unicode="_" horiz-adv-x="500" d="M0 -178h500v-58h-500v58z" />
<glyph unicode="`" horiz-adv-x="500" d="M195 757l129 -198l-37 -12l-164 166z" />
<glyph unicode="a" horiz-adv-x="480" d="M469 71l14 -31q-37 -26 -67 -40.5t-49 -14.5q-31 0 -46.5 18t-17.5 56q-53 -36 -88 -51.5t-63 -15.5q-49 0 -82.5 37t-33.5 91q0 91 197 138q46 11 72 17q0 8 1 24q1 32 1 42q0 51 -21 75t-64 24q-42 0 -66 -15.5t-24 -41.5q0 -2 0.5 -6.5t0.5 -6.5q0 -15 -14.5 -25 t-35.5 -10q-18 0 -26 6t-8 18q0 39 66 87t136 48q68 0 103 -37.5t35 -109.5q0 -39 -4.5 -120t-4.5 -123q0 -32 7 -43t25 -11q8 0 20.5 4.5t36.5 16.5zM303 236q-9 -2 -28 -7q-159 -43 -159 -103q0 -32 20.5 -52.5t54.5 -20.5q21 0 47.5 11t62.5 34z" />
<glyph unicode="b" d="M175 64q22 -12 44.5 -17.5t48.5 -5.5q81 0 127.5 50.5t46.5 139.5q0 87 -42 141t-108 54q-28 0 -57.5 -9.5t-66.5 -29.5q0 -42 -0.5 -80t-0.5 -70q0 -74 2 -115t6 -58zM174 757l-1 -18q-7 -191 -7 -280v-32q50 34 88 48.5t74 14.5q81 0 139 -66.5t58 -161.5 q0 -120 -76.5 -194.5t-204.5 -74.5q-42 0 -82 5.5t-79 16.5q3 164 4.5 260t1.5 124v65q0 25 0.5 64t0.5 53q0 64 -7.5 85t-28.5 21q-5 0 -12 -0.5t-17 -2.5l-5 31q38 8 76.5 18t77.5 24z" />
<glyph unicode="c" horiz-adv-x="446" d="M405 96l24 -37q-47 -36 -93 -54.5t-87 -18.5q-96 0 -156.5 68.5t-60.5 175.5q0 111 77 187.5t187 76.5q57 0 87.5 -16t30.5 -44q0 -21 -12.5 -35.5t-28.5 -14.5q-5 0 -45 24.5t-76 24.5q-63 0 -100.5 -45.5t-37.5 -124.5q0 -99 45 -154.5t125 -55.5q30 0 59.5 10.5 t61.5 32.5z" />
<glyph unicode="d" horiz-adv-x="562" d="M390 401q-33 19 -62 27.5t-59 8.5q-75 0 -116 -47t-41 -132q0 -91 40 -144.5t108 -53.5q27 0 58 10.5t69 31.5zM480 757l-1 -9q-6 -173 -9 -335l-1 -76q-1 -27 -1.5 -71.5t-0.5 -98.5v-19q0 -76 5.5 -94.5t20.5 -18.5q9 0 19 2t21 6l8 -31q-34 -13 -67 -19.5t-66 -6.5 h-14q-3 21 -5 39t-2 34q-56 -36 -92 -49.5t-70 -13.5q-85 0 -139 64.5t-54 168.5q0 115 69 186t179 71q25 0 52.5 -4.5t59.5 -14.5q0 4 1 13q2 85 2 154q0 31 -9.5 43.5t-31.5 12.5q-5 0 -12.5 -1t-19.5 -4l-6 32q36 6 76.5 16t87.5 24z" />
<glyph unicode="e" horiz-adv-x="487" d="M454 273h-238q-28 0 -51.5 -1t-43.5 -3v-18q0 -96 44 -148t125 -52q36 0 70.5 12t73.5 37l19 -31q-50 -41 -100 -62t-99 -21q-95 0 -156.5 67.5t-61.5 173.5q0 113 64.5 189.5t157.5 76.5q86 0 137.5 -57.5t58.5 -162.5zM364 324q-15 60 -44.5 92t-71.5 32 q-47 0 -80.5 -37.5t-43.5 -101.5q97 0 152.5 3.5t87.5 11.5z" />
<glyph unicode="f" horiz-adv-x="319" d="M184 510l1 -41h33q25 0 49.5 1t47.5 2q0 -2 -1 -7q-1 -31 -1 -43h-6q-68 3 -99 4h-21q0 -52 -1 -114v-22q0 -112 1.5 -159.5t5.5 -63.5q5 -20 20.5 -27t58.5 -7v-33q-48 3 -74 4t-43 1q-16 0 -41 -1t-78 -4v33h13q34 0 45.5 20.5t11.5 89.5q0 13 -0.5 53t-0.5 66 q0 36 -0.5 76.5t-0.5 85.5h-32q-1 0 -13 -1t-23 -1v36q21 1 37.5 6t30.5 14v9q0 124 58.5 196.5t159.5 72.5q46 0 71.5 -15t25.5 -42q0 -18 -10 -29.5t-24 -11.5q-9 0 -46 19.5t-60 19.5q-51 0 -73 -39t-22 -139v-9z" />
<glyph unicode="g" horiz-adv-x="516" d="M247 456q-52 0 -81 -32t-29 -91q0 -64 28 -100t79 -36t80.5 32.5t29.5 89.5q0 66 -28 101.5t-79 35.5zM158 7q-24 -27 -35 -49t-11 -42q0 -45 40.5 -76.5t102.5 -31.5q70 0 121 39t51 87q0 40 -25 56t-96 16q-7 0 -32 0.5t-42 0.5h-74zM363 459q33 0 66 1t67 3l-2 -49 q-21 2 -47 3.5t-60 1.5q23 -18 35 -43t12 -55q0 -66 -55 -113.5t-135 -47.5q-8 0 -23 1.5t-22 1.5q-13 -9 -24.5 -18.5t-21.5 -19.5q7 -14 16.5 -25.5t22.5 -21.5q15 0 43 1q68 1 90 1q88 0 127 -27t39 -86q0 -38 -21 -77t-60 -71q-40 -33 -91 -51.5t-102 -18.5 q-76 0 -127 40t-51 97q0 33 21.5 65t74.5 76q-22 20 -36.5 41t-23.5 46q18 17 39 31.5t46 29.5q-49 16 -77 52.5t-28 84.5q0 76 56 128t140 52q31 0 58 -8t54 -25z" />
<glyph unicode="h" horiz-adv-x="585" d="M182 755q-2 -82 -3.5 -167.5t-2.5 -175.5q55 42 98 61.5t78 19.5q72 0 108 -40.5t36 -121.5v-43q-1 -42 -1 -85q0 -18 -0.5 -45t-0.5 -37q0 -55 10 -71.5t37 -16.5q1 0 5.5 0.5t6.5 0.5v-34q-44 3 -66.5 4t-37.5 1q-23 0 -50 -1.5t-57 -3.5v34h7q62 0 64 114v10l1 105v20 q0 89 -21 118t-72 29q-28 0 -62 -13.5t-80 -43.5l-2 -174q0 -15 -0.5 -37.5t-0.5 -31.5q0 -61 9.5 -79t37.5 -18q2 0 6 0.5t7 0.5v-34q-31 2 -58 3.5t-47 1.5q-19 0 -44 -1t-65 -4v34q3 0 8.5 -0.5t7.5 -0.5q34 0 45.5 18t11.5 104v36l2 367v84q0 21 -9 31.5t-27 10.5 q-7 0 -22 -3q-4 -1 -6 -1l-7 32q40 8 78.5 18.5t77.5 24.5z" />
<glyph unicode="i" horiz-adv-x="296" d="M193 499q0 -19 -2 -53q-6 -196 -6 -276v-52q0 -57 11 -71.5t42 -14.5q3 0 7.5 0.5t7.5 0.5v-33q-42 3 -67 4t-43 1q-16 0 -40 -1t-72 -4v34h12q61 0 61 119v27l2 121q0 13 0.5 33t0.5 27q0 40 -7.5 52.5t-27.5 12.5q-4 0 -11.5 -1t-16.5 -2l-5 31q39 7 77 18.5t77 26.5z M140 729l35 -26q14 -10 20 -20.5t6 -21.5t-5 -19t-19 -19l-37 -28l-34 27q-14 11 -20.5 20.5t-6.5 20.5t5 19t20 19z" />
<glyph unicode="j" horiz-adv-x="273" d="M183 499q-3 -75 -4.5 -152t-1.5 -166v-68q0 -123 -4 -170.5t-14 -73.5q-23 -60 -73.5 -95t-114.5 -35h-12l2 39q74 6 105 56.5t31 167.5v353q0 46 -7 58.5t-27 12.5q-4 0 -10.5 -1t-14.5 -2l-6 31q42 8 79.5 19t71.5 26zM130 729l35 -26q13 -10 19.5 -20.5t6.5 -21.5 t-5 -19t-19 -19l-37 -28l-34 27q-15 11 -21 20.5t-6 20.5t5 19t20 19z" />
<glyph unicode="k" horiz-adv-x="545" d="M381 0v10q0 20 -29 52l-12 12l-165 186q27 25 72 66q99 90 98 107q0 6 -9 9.5t-26 3.5h-7v33q31 -1 54 -2t40 -1q22 0 47.5 1t53.5 2v-33q-2 0 -4.5 0.5t-7.5 0.5q-52 0 -179 -117q-33 -30 -51 -46l173 -186q5 -5 14 -16q42 -48 80 -49q5 0 8.5 0.5t5.5 0.5l-1 -34 l-49 3.5t-38 1.5q-8 0 -20 -1zM25 34h7q25 0 38 7t19 25q7 25 9 230v29l1 95q0 32 1.5 87t1.5 76q0 60 -8.5 80.5t-31.5 20.5q-7 0 -22 -3q-4 -1 -6 -1l-7 32q40 8 78.5 18.5t77.5 24.5q-3 -170 -5.5 -304t-2.5 -182v-176q0 -40 12 -49t52 -10v-34q-34 3 -61 4.5t-47 1.5 q-31 0 -56 -1.5t-50 -4.5v34z" />
<glyph unicode="l" horiz-adv-x="291" d="M184 755q-3 -91 -3 -236q0 -56 -1 -81l-1 -100v-76v-102v-40q0 -56 12.5 -71t47.5 -15h11v-34q-34 2 -63.5 3.5t-51.5 1.5q-23 0 -50.5 -1.5t-57.5 -3.5v34q3 0 8.5 -0.5t7.5 -0.5q34 0 45.5 18t11.5 104v36l2 367v84q0 21 -9 31.5t-27 10.5q-7 0 -25 -3q-2 0 -4 -1 l-7 32q41 7 79 17.5t75 25.5z" />
<glyph unicode="m" horiz-adv-x="879" d="M181 499q-2 -20 -3.5 -39t-2.5 -38q66 42 103.5 56.5t71.5 14.5q42 0 71 -19t49 -60q65 43 107 61t75 18q71 0 103.5 -43.5t32.5 -140.5v-10l-2 -161q0 -24 -1 -44v-2q0 -35 11 -46.5t43 -11.5h11v-34q-47 3 -70.5 4t-38.5 1q-16 0 -39 -1t-66 -4v34q3 0 7.5 -0.5 t12.5 -0.5q31 0 41.5 20.5t10.5 98.5v71q0 18 0.5 46.5t0.5 40.5q0 62 -22.5 91.5t-70.5 29.5q-23 0 -54.5 -12t-78.5 -39l-4 -241v-40q0 -44 11 -54.5t45 -10.5h6v-34q-39 2 -64.5 3.5t-44.5 1.5t-43.5 -1.5t-52.5 -3.5v34q34 0 44.5 5.5t14.5 26.5q3 16 5 81.5t2 167.5 q0 61 -22 88.5t-69 27.5q-23 0 -55 -12t-77 -37q-3 -80 -4 -138.5t-1 -106.5q0 -75 10 -89.5t42 -14.5q2 0 7.5 0.5t8.5 0.5v-34q-30 2 -58.5 3.5t-53.5 1.5q-21 0 -47.5 -1.5t-56.5 -3.5v34h9q61 0 62 119v27l1 120v48q0 48 -7.5 63t-26.5 15q-4 0 -10 -1t-13 -3l-6 30 q36 10 73 21.5t73 25.5z" />
<glyph unicode="n" horiz-adv-x="583" d="M184 499l-6 -82q55 40 96 58t75 18q72 0 108 -40.5t36 -121.5l-1 -43v-85q0 -18 -0.5 -45t-0.5 -37q0 -55 10 -71.5t37 -16.5q1 0 5.5 0.5t6.5 0.5v-34q-44 3 -66.5 4t-37.5 1q-23 0 -50.5 -1.5t-56.5 -3.5v34h7q62 0 64 114v10l1 105v18q0 90 -21 119.5t-72 29.5 q-28 0 -62.5 -13.5t-73.5 -39.5q-2 -51 -3 -96t-1 -82v-67q0 -64 9.5 -81.5t37.5 -17.5q2 0 6 0.5t7 0.5v-34q-42 3 -66.5 4t-39.5 1t-39 -1t-67 -4v34h9q61 0 62 119v27l1 120v48q0 48 -7.5 63t-26.5 15q-4 0 -10 -1t-13 -3l-6 30q37 7 73.5 18.5t75.5 28.5z" />
<glyph unicode="o" horiz-adv-x="550" d="M268 442q-65 0 -105 -47.5t-40 -128.5q0 -103 44 -167t115 -64q68 0 109 51t41 138q0 96 -46 157t-118 61zM281 493q103 0 170.5 -69t67.5 -171q0 -112 -71.5 -189t-175.5 -77t-171.5 70t-67.5 178q0 107 73 182.5t175 75.5z" />
<glyph unicode="p" horiz-adv-x="560" d="M168 71q29 -14 58.5 -22t55.5 -8q72 0 113.5 47.5t41.5 132.5q0 92 -40.5 147t-106.5 55q-28 0 -59 -9.5t-60 -26.5q-2 -71 -3 -134.5t-1 -116.5q0 -9 0.5 -30.5t0.5 -34.5zM175 505l-4 -78q44 31 82.5 45t75.5 14q81 0 135 -64.5t54 -159.5q0 -124 -69 -194t-191 -70 q-22 0 -45.5 4.5t-45.5 13.5v-174q0 -58 84 -59h1v-35q-32 2 -62 3.5t-57 1.5q-16 0 -42 -1t-78 -4v35q32 0 43 3.5t17 11.5q13 22 14 199v57l1 111v137v24q0 61 -7 76t-28 15q-5 0 -11.5 -1t-14.5 -3l-5 30q42 12 79.5 27t73.5 35z" />
<glyph unicode="q" horiz-adv-x="558" d="M382 401q-32 20 -61 29t-58 9q-70 0 -109.5 -47.5t-39.5 -131.5q0 -89 44.5 -146.5t111.5 -57.5q23 0 52 9.5t63 28.5q1 42 1.5 80.5t0.5 75.5q0 59 -1 91t-4 60zM472 498q-2 -81 -3.5 -163t-2.5 -168v-110v-65q0 -13 -0.5 -32t-0.5 -25v-60q0 -62 9.5 -78.5t37.5 -16.5 h11t9 1v-32q-8 0 -22 1q-76 1 -105 1q-14 0 -63 -1q-28 0 -45 -1v32h22q30 0 42 6t17 22q6 19 8 214v31q-48 -33 -82 -46t-69 -13q-89 0 -146 64t-57 164q0 114 71 188.5t180 74.5q29 0 61 -6.5t70 -21.5q18 9 32.5 19.5t25.5 20.5z" />
<glyph unicode="r" horiz-adv-x="390" d="M183 499q-3 -33 -5 -67t-3 -72q40 70 73 100.5t69 30.5q28 0 44 -15t16 -40q0 -18 -10.5 -31t-24.5 -13q-9 0 -27.5 9.5t-31.5 9.5q-25 0 -50.5 -22t-53.5 -69v-54q0 -78 1.5 -126.5t3.5 -61.5q4 -25 18.5 -34.5t49.5 -9.5h14v-34q-38 3 -68 4.5t-50 1.5q-28 0 -58 -1.5 t-63 -4.5v34h11q36 0 48.5 17t12.5 80v51v159q0 53 -7.5 68t-26.5 15q-4 0 -8.5 -0.5t-14.5 -1.5l-6 30q35 8 71.5 19.5t75.5 27.5z" />
<glyph unicode="s" horiz-adv-x="442" d="M361 473q0 -30 3 -60t9 -61l-37 -6q-6 51 -32.5 76t-73.5 25q-41 0 -67.5 -22.5t-26.5 -56.5q0 -54 115 -86q20 -5 31 -8q58 -16 84.5 -46t26.5 -78q0 -71 -56 -117.5t-143 -46.5q-32 0 -65 7t-68 20q0 5 0.5 10.5t0.5 16.5q0 22 -2.5 48.5t-8.5 55.5l37 9q8 -61 38 -91 t84 -30q49 0 80 24t31 61q0 53 -104 84q-10 3 -15 5q-74 22 -104 55t-30 87q0 62 49.5 103.5t127.5 41.5q24 0 52 -5t64 -15z" />
<glyph unicode="t" horiz-adv-x="359" d="M154 572l32 -10q-3 -27 -4.5 -48t-2.5 -42h35q28 0 56.5 1t58.5 2l-12 -53q-31 2 -59 3t-55 1h-23q-3 -84 -4 -129t-1 -74q0 -110 15 -143.5t54 -33.5q16 0 36 7t48 22l16 -32q-47 -28 -85 -42.5t-66 -14.5q-52 0 -76 36t-24 115q0 16 2 112t2 176q-4 0 -13 -1 q-41 -1 -55 -1v35q48 7 79 35.5t46 78.5z" />
<glyph unicode="u" horiz-adv-x="587" d="M179 494q-3 -96 -5 -168t-2 -100q0 -104 21.5 -139t73.5 -35q26 0 57.5 12.5t72.5 38.5q1 75 2 124t1 72v33q0 62 -10.5 77.5t-39.5 15.5q-5 0 -10.5 -0.5t-11.5 -0.5l-3 31q42 3 82 9.5t79 15.5q-3 -83 -4.5 -148.5t-1.5 -114.5q0 -20 -0.5 -50t-0.5 -40q0 -45 8 -59.5 t29 -14.5q5 0 11.5 1t17.5 4l4 -30l-149 -38l-2 73q-53 -40 -92.5 -58.5t-72.5 -18.5q-67 0 -104.5 38.5t-37.5 107.5q0 18 1 74q0 23 1 36l1 55q0 14 0.5 35t0.5 29q0 42 -7 55.5t-26 13.5q-6 0 -13.5 -1t-16.5 -2l-3 32q35 6 72 14.5t78 20.5z" />
<glyph unicode="v" horiz-adv-x="491" d="M0 479q37 -2 59 -3.5t37 -1.5t37.5 1t63.5 4v-34h-13q-24 0 -34 -6.5t-10 -23.5q0 -13 48 -143q40 -107 65 -178q79 188 102.5 249.5t23.5 74.5q0 14 -11 20.5t-35 6.5h-7v34q22 -2 42.5 -3t40.5 -1q16 0 37 1t45 3v-34h-5q-33 0 -63 -70q-8 -18 -12 -28l-6 -13 q-142 -316 -146 -346h-54q0 16 -28.5 94.5t-104.5 273.5q-2 5 -7 17q-27 72 -61 72h-4v34z" />
<glyph unicode="w" horiz-adv-x="774" d="M6 479q26 -2 49 -3t41 -1q24 0 50 1t53 3v-33h-7q-27 0 -37.5 -8t-10.5 -27q0 -6 2.5 -16.5t6.5 -22.5l94 -270l129 273l-9 27q-10 28 -21 36t-35 8h-14v33q28 -2 52.5 -3t43.5 -1q26 0 52.5 1t54.5 3v-33q-2 0 -7 -0.5t-7 -0.5q-20 0 -29.5 -6.5t-9.5 -21.5 q0 -9 2.5 -20.5t7.5 -25.5l91 -266l15 40q96 246 96 269q0 19 -10.5 25.5t-39.5 6.5h-9v33q22 -2 44 -3t43 -1q18 0 38.5 1t44.5 3v-33q-16 0 -26 -4t-16 -13q-11 -16 -45 -96.5t-141 -346.5h-35l-115 327q-57 -111 -93 -188.5t-58 -138.5h-33q-39 108 -93 264t-66 176 q-6 11 -15 15.5t-21 4.5h-7v33z" />
<glyph unicode="x" horiz-adv-x="529" d="M9 34q2 0 4.5 -0.5t7.5 -0.5q46 0 165 152q27 35 42 53l-110 151q-25 34 -40.5 46t-31.5 12q-1 0 -3.5 -0.5t-4.5 -0.5v33q6 0 19 -1q58 -3 79 -3q18 0 42.5 1t52.5 3v-33h-4q-17 0 -25 -5.5t-8 -17.5q0 -17 76 -117l6 -9q48 63 66.5 91t18.5 38q0 11 -7 15t-29 5v33 q23 -2 43.5 -3t37.5 -1q21 0 42 1t43 3v-33q-1 0 -3 0.5t-5 0.5q-36 0 -132 -121q-32 -40 -50 -62l131 -175q26 -36 40.5 -45.5t33.5 -9.5h5v-34q-9 0 -24 1q-55 3 -75 3q-14 0 -58 -2q-25 -1 -39 -2v34h6q19 0 27 5t8 16q0 12 -53 83q-30 41 -49 66q-52 -67 -75.5 -103 t-23.5 -48q0 -10 6.5 -14.5t22.5 -4.5h6v-34q-26 2 -50 3t-43 1q-16 0 -38.5 -1t-49.5 -3v34z" />
<glyph unicode="y" horiz-adv-x="485" d="M0 479q37 -2 59 -3.5t37 -1.5t37.5 1t63.5 4v-34h-13q-24 0 -34 -6.5t-10 -23.5q0 -13 43 -129q41 -110 68 -186q68 161 95.5 232.5t27.5 85.5t-10.5 20.5t-35.5 6.5h-7v34q22 -2 43 -3t41 -1q16 0 37 1t45 3v-34h-4q-16 0 -27 -7t-19 -23q-1 -2 -8 -19 q-52 -120 -111 -251q-29 -66 -75 -173q-98 -231 -150 -232q-20 0 -33 13t-13 32q0 27 37 34q15 2 22 5q27 11 79 124q14 32 22 50q-34 87 -83 223q-82 225 -116 225q-3 0 -5 -0.5t-3 -0.5v34z" />
<glyph unicode="z" horiz-adv-x="472" d="M66 479q41 -3 76 -4.5t62 -1.5q98 0 139 1.5t71 4.5l17 -27q-22 -18 -48 -48t-67 -86l-173 -237q27 -2 53.5 -3t50.5 -1h35q72 0 95 14t32 52l31 -9q-8 -31 -14.5 -64.5t-10.5 -69.5q-7 0 -21 1q-130 7 -185 7q-40 0 -81.5 -2t-86.5 -6l-16 31q42 31 113 128l3 4l177 240 q-14 0 -40 1q-60 1 -79 1h-20q-62 0 -79 -12t-24 -46l-32 9q8 29 13.5 59.5t8.5 63.5z" />
<glyph unicode="{" horiz-adv-x="418" d="M420 751v-37q-6 0 -12.5 0.5t-11.5 0.5q-32 0 -53.5 -5.5t-35.5 -17.5q-32 -28 -33 -133q0 -31 -1 -48l-1 -30q-3 -98 -29 -136.5t-88 -54.5v-3q62 -16 88 -55t29 -137l1 -29v-42q0 -101 27 -131q13 -16 36 -23.5t60 -7.5h11t13 1v-38h-46q-95 0 -134.5 43.5t-42.5 176.5 l-2 94q-1 75 -25.5 103t-85.5 28h-10v36h10q61 0 85 28t26 103l2 95q3 133 42.5 176.5t134.5 43.5q5 0 20.5 -0.5t25.5 -0.5z" />
<glyph unicode="|" horiz-adv-x="500" d="M219 764h62v-1000h-62v1000z" />
<glyph unicode="}" horiz-adv-x="418" d="M222 532l3 -95q1 -75 25.5 -103t84.5 -28h11v-36h-10q-61 0 -85 -28t-26 -103l-3 -94q-3 -133 -42.5 -176.5t-134.5 -43.5h-45v38q7 0 13.5 -0.5t10.5 -0.5q32 0 53.5 6t34.5 17q32 28 33 133q0 31 1 48l1 29q3 98 29 137t89 55v3q-63 16 -89 54.5t-29 136.5l-1 30 q0 13 -1 36q-3 167 -121 168q-6 0 -12 -0.5t-12 -0.5v37q3 0 18 0.5t27 0.5q95 0 134.5 -43.5t42.5 -176.5z" />
<glyph unicode="~" horiz-adv-x="833" d="M747 370v-64q-49 -35 -96 -52.5t-93 -17.5q-21 0 -44 4.5t-49 12.5q-15 5 -43 15q-99 35 -147 35q-41 0 -85 -18t-103 -60v65q51 36 98.5 53.5t90.5 17.5q27 0 56.5 -6t85.5 -26q6 -2 17 -6q80 -29 124 -29q42 0 86 17.5t102 58.5z" />
<glyph unicode="&#xa0;" />
<glyph unicode="&#xa1;" horiz-adv-x="336" d="M129 506h40q1 -100 7.5 -227t16.5 -279h-101q1 93 17 265t20 241zM152 713l34 -26q13 -10 19.5 -20.5t6.5 -21.5t-5 -19t-19 -19l-36 -28l-35 26q-14 11 -20 20.5t-6 21.5q0 11 5 19t19 19z" />
<glyph unicode="&#xa2;" d="M226 500q-41 -9 -63.5 -45.5t-22.5 -92.5q0 -57 22 -95t64 -54v287zM223 713h47l-3 -166q3 0 9.5 -0.5t9.5 -0.5q44 0 71.5 -15t27.5 -39q0 -17 -9.5 -28.5t-22.5 -11.5t-37.5 24t-49.5 25v-293q3 0 6.5 -0.5t6.5 -0.5q20 0 44.5 11.5t52.5 34.5l23 -31 q-33 -31 -65 -47.5t-67 -21.5l2 -172h-46l1 172q-72 10 -116 61t-44 126q0 81 43.5 135t118.5 68z" />
<glyph unicode="&#xa3;" d="M259 354h43q38 0 115 2h3v-46h-6q-102 2 -150 2q0 -8 2 -21q2 -23 2 -30q0 -47 -19 -88t-59 -81h19q26 0 79.5 -10t78.5 -10q47 0 69 25t28 83l34 -5l-4 -44q-8 -75 -36 -109t-82 -34q-33 0 -105 18.5t-108 18.5q-24 0 -48 -9.5t-52 -30.5l-22 29q84 52 123.5 104 t39.5 111q0 16 -4 35t-13 48q-14 0 -34 -0.5t-27 -0.5h-7q-25 -1 -48 -1v46q21 0 46.5 -1t59.5 -2q-8 36 -12.5 66.5t-4.5 55.5q0 103 54 168t137 65q45 0 77 -19t32 -44q0 -15 -11 -27t-24 -12q-14 0 -46 26.5t-59 26.5q-37 0 -57 -32.5t-20 -92.5q0 -34 9 -118 q5 -40 7 -62z" />
<glyph unicode="&#xa4;" d="M542 163q-12 -32 -21.5 -64.5t-16.5 -64.5q-42 -25 -77.5 -36.5t-73.5 -11.5q-105 0 -177 78t-88 210h-6q-11 0 -40 -1q-17 0 -28 -1l12 36q18 0 29 -0.5t22 -0.5h8q0 7 -0.5 15t-0.5 24q0 15 0.5 30.5t2.5 29.5h-5q-11 0 -40 -1q-18 0 -28 -1l12 36q17 0 28 -0.5 t23 -0.5h15q22 123 96 195t178 72q33 0 68.5 -8.5t84.5 -27.5v-17q0 -29 1.5 -64t5.5 -78l-26 -5q-8 72 -45.5 109.5t-103.5 37.5q-72 0 -117 -55.5t-57 -158.5h139h73.5t56.5 1l-12 -36q-52 1 -103 1.5t-89 0.5h-68q0 -7 -0.5 -15.5t-0.5 -25.5q0 -25 0.5 -37t1.5 -21h141 q24 0 46 0.5t45 0.5l-12 -36h-32q-73 1 -121 2h-63q16 -108 66.5 -171.5t119.5 -63.5q53 0 90 34t62 106z" />
<glyph unicode="&#xa5;" d="M148 0v33q4 0 10.5 -0.5t9.5 -0.5q37 0 49 16t12 86v141q-50 0 -154 -2h-6v35q15 0 32.5 -0.5t50.5 -0.5h78l-47 97q-24 0 -52.5 -1t-61.5 -2v37h40h33t24 1l-72 152q-19 42 -33.5 55.5t-34.5 13.5h-7.5t-4.5 -1v34q32 -3 59 -4.5t48 -1.5q22 0 49 1.5t58 4.5v-34 q-30 0 -42 -5.5t-12 -18.5q0 -5 4.5 -17.5t17.5 -41.5l91 -205l102 205q14 30 20 43.5t6 17.5q0 11 -10 16.5t-31 5.5h-6v34q22 -2 44.5 -3t43.5 -1q17 0 38.5 1t46.5 3v-34h-11q-34 0 -57 -45q-5 -9 -7 -14l-87 -161h43q14 0 51 1q10 0 15 1v-38q-13 0 -55.5 0.5t-71.5 0.5 l-52 -97h44q33 0 67 1l68 2v-35h-76h-101l1 -129v-9q1 -104 63 -104h17v-33q-42 3 -73 4.5t-53 1.5q-20 0 -79 -4q-25 -1 -39 -2z" />
<glyph unicode="&#xa6;" horiz-adv-x="500" d="M219 199h62v-370h-62v370zM219 699h62v-370h-62v370z" />
<glyph unicode="&#xa7;" horiz-adv-x="500" d="M170 630q-31 -29 -47.5 -67.5t-16.5 -80.5q0 -47 25 -94.5t85 -112.5q7 -7 21 -23q119 -127 119 -200q0 -23 -5.5 -45t-18.5 -46q35 38 51.5 78t16.5 86q0 89 -111 203q-11 12 -17 18q-69 72 -96.5 119.5t-27.5 91.5q0 18 5.5 36t16.5 37zM276 705q58 0 102 -29.5 t44 -64.5q0 -20 -12 -34t-29 -14t-34 29q-7 12 -11 18q-15 23 -34 35t-40 12q-32 0 -53 -24t-21 -59q0 -32 27 -72t99 -111q85 -84 108.5 -132.5t23.5 -108.5q0 -109 -70 -189.5t-160 -80.5q-62 0 -110 31.5t-48 68.5q0 19 13.5 33t30.5 14q21 0 39 -32q4 -7 6 -11 q16 -27 37.5 -41t47.5 -14q35 0 59 26t24 64q0 62 -104 172q-13 14 -20 21q-78 83 -104.5 135.5t-26.5 110.5q0 100 65 173.5t151 73.5z" />
<glyph unicode="&#xa8;" horiz-adv-x="500" d="M354 689q19 0 40.5 -19.5t21.5 -37.5t-21.5 -37.5t-40.5 -19.5q-20 0 -40.5 19.5t-20.5 37.5t21 37.5t40 19.5zM146 689q19 0 40 -19.5t21 -37.5t-21 -37.5t-40 -19.5q-20 0 -40.5 19.5t-20.5 37.5t21 37.5t40 19.5z" />
<glyph unicode="&#xa9;" horiz-adv-x="821" d="M541 144q-36 -15 -68.5 -22.5t-62.5 -7.5q-89 0 -145.5 60t-56.5 154q0 91 61 152.5t153 61.5q31 0 63.5 -6.5t70.5 -20.5v-21q0 -24 1.5 -45.5t3.5 -42.5l-27 -4q-6 52 -35 77t-82 25q-62 0 -99 -44t-37 -120q0 -84 40.5 -136t106.5 -52q43 0 73.5 23.5t44.5 68.5 l25 -11q-10 -24 -17.5 -46t-12.5 -43zM411 641q-128 0 -219 -90.5t-91 -219.5q0 -128 90.5 -218.5t219.5 -90.5q128 0 218.5 91t90.5 218q0 128 -91 219t-218 91zM412 676q57 0 114 -20.5t103 -58.5q59 -48 92.5 -118.5t33.5 -147.5q0 -67 -26.5 -131t-75.5 -113 q-48 -48 -111 -74t-131 -26q-69 0 -131.5 25.5t-111.5 74.5t-75 112t-26 132q0 59 19.5 114.5t57.5 102.5q49 61 119.5 94.5t148.5 33.5z" />
<glyph unicode="&#xaa;" horiz-adv-x="360" d="M352 411l10 -22q-26 -19 -49 -28.5t-38 -9.5q-23 0 -34.5 12.5t-13.5 38.5q-40 -25 -66 -36t-47 -11q-37 0 -62 26t-25 64q0 64 149 97q34 8 53 12q0 10 0.5 20.5t0.5 25.5q0 35 -15.5 52t-47.5 17t-50 -11t-18 -29q0 -1 0.5 -4t0.5 -5q0 -10 -11 -17t-27 -7 q-14 0 -19.5 4t-5.5 12q0 27 49.5 61t101.5 34q51 0 77.5 -26t26.5 -77q0 -27 -3.5 -84t-3.5 -86q0 -22 5 -30t19 -8q10 0 41 14zM227 526q-6 -1 -19 -5q-122 -31 -121 -72q0 -22 15.5 -36.5t40.5 -14.5q16 0 36.5 8t46.5 24z" />
<glyph unicode="&#xab;" horiz-adv-x="417" d="M330 57q-25 42 -79 129q-22 35 -32 52q9 16 30 49q54 88 81 136l40 -18q-6 -15 -29.5 -70.5t-39.5 -95.5q9 -23 31 -78.5t35 -86.5zM178 53q-37 53 -72.5 98.5t-72.5 85.5q39 44 75.5 91t70.5 98l37 -22q-22 -41 -43.5 -82t-41.5 -83q21 -44 42 -85t43 -80z" />
<glyph unicode="&#xac;" horiz-adv-x="833" d="M124 419h585v-245h-56v188h-529v57z" />
<glyph unicode="&#xad;" horiz-adv-x="350" d="M32 207q7 17 13.5 36t12.5 41h15q72 -1 102 -2q48 0 79.5 0.5t62.5 1.5q-8 -21 -14.5 -40.5t-11.5 -36.5q-29 1 -57.5 1.5t-69.5 0.5t-71 -0.5t-61 -1.5z" />
<glyph unicode="&#xae;" horiz-adv-x="821" d="M350 337q13 -1 23.5 -2t17.5 -1q4 0 21 1q10 0 15 1q21 16 30.5 36t9.5 47q0 38 -22.5 64.5t-53.5 26.5q-14 0 -37 -6h-2q0 -30 -1 -63t-1 -36v-68zM233 159q3 0 7 -0.5t6 -0.5q21 0 28.5 13t7.5 57v59v157q0 46 -7 58.5t-27 12.5h-9v28q5 0 14 -1q41 -3 57 -3 q20 0 53 2.5t46 2.5q57 0 92.5 -31.5t35.5 -80.5q0 -33 -16.5 -58.5t-52.5 -47.5l14 -24q86 -150 125 -150q1 0 3.5 0.5t4.5 0.5v-25q-12 -1 -22.5 -2t-18.5 -1q-71 0 -136 120q-20 38 -32 59q-13 -1 -22.5 -1.5t-17.5 -0.5h-16q0 -33 0.5 -68t0.5 -36q0 -24 7.5 -31.5 t30.5 -7.5h8v-27q-29 1 -50 2t-36 1q-11 0 -30.5 -1t-47.5 -2v27zM411 641q-128 0 -219 -90.5t-91 -219.5q0 -128 90.5 -218.5t219.5 -90.5q128 0 218.5 91t90.5 218q0 128 -91 219t-218 91zM412 676q57 0 114 -20.5t103 -58.5q59 -48 92.5 -118.5t33.5 -147.5 q0 -67 -26.5 -131t-75.5 -113q-48 -48 -111 -74t-131 -26q-69 0 -131.5 25.5t-111.5 74.5t-75 112t-26 132q0 59 19.5 114.5t57.5 102.5q49 61 119.5 94.5t148.5 33.5z" />
<glyph unicode="&#xaf;" horiz-adv-x="500" d="M123 663h253v-62h-253v62z" />
<glyph unicode="&#xb0;" horiz-adv-x="329" d="M165 670q-41 0 -70 -28.5t-29 -69.5t29 -70t70 -29t69.5 29t28.5 70t-28.5 69.5t-69.5 28.5zM165 710q57 0 97.5 -40.5t40.5 -97.5t-40.5 -97.5t-98.5 -40.5t-97.5 40t-39.5 98t40 98t98 40z" />
<glyph unicode="&#xb1;" horiz-adv-x="833" d="M124 77h585v-57h-585v57zM388 576h58v-168h263v-57h-263v-168h-58v168h-264v57h264v168z" />
<glyph unicode="&#xb2;" horiz-adv-x="367" d="M98 327q25 0 56 -0.5t37 -0.5h40q46 0 61.5 9t22.5 35l20 -6q-9 -21 -15 -42.5t-10 -44.5q-44 1 -84 2t-74 1q-29 0 -60.5 -1t-65.5 -2l-10 20q102 79 159.5 153t57.5 126q0 37 -24 61.5t-60 24.5q-27 0 -50.5 -14.5t-46.5 -46.5l-25 13q27 44 61 65.5t76 21.5 q55 0 94 -34.5t39 -82.5q0 -45 -42.5 -101.5t-156.5 -155.5z" />
<glyph unicode="&#xb3;" horiz-adv-x="367" d="M183 509q3 1 6.5 1h9.5q52 0 82.5 -27.5t30.5 -74.5q0 -56 -52 -97.5t-123 -41.5q-44 0 -76 15.5t-32 35.5q0 9 9 17t18 8q12 0 27 -14q4 -3 5 -5q15 -14 30.5 -20.5t34.5 -6.5q42 0 69.5 27.5t27.5 68.5q0 38 -24 62t-62 24q-14 0 -29.5 -3t-31.5 -10l-9 21 q63 25 95.5 53.5t32.5 59.5q0 27 -20 45t-50 18q-22 0 -43.5 -12.5t-42.5 -37.5l-24 13q22 37 53.5 55t71.5 18q48 0 81 -27t33 -65q0 -32 -24.5 -57t-73.5 -43z" />
<glyph unicode="&#xb4;" horiz-adv-x="500" d="M307 757l73 -47l-163 -163l-37 13z" />
<glyph unicode="&#xb5;" horiz-adv-x="546" d="M80 94q-13 -66 -25 -165q-17 -133 -55 -133q-18 0 -28.5 11.5t-10.5 31.5t31.5 133.5t51.5 208.5l53 251h72l-51 -240q-3 -15 -4.5 -29t-1.5 -26q0 -41 20.5 -63t57.5 -22q48 0 80 33.5t46 97.5l54 249h73l-56 -259q-6 -29 -8 -43t-2 -24q0 -23 12.5 -38t32.5 -15 q17 0 32 9t25 25t20 45.5t19 29.5q6 0 9.5 -5t3.5 -13q0 -12 -5.5 -32.5t-14.5 -40.5q-19 -40 -46.5 -60t-65.5 -20q-33 0 -53 25t-20 68v11q-22 -54 -56.5 -80t-80.5 -26q-47 0 -74.5 26.5t-34.5 78.5z" />
<glyph unicode="&#xb6;" horiz-adv-x="548" d="M376 659q-42 -5 -60.5 -52.5t-18.5 -150.5q0 -110 19 -166t60 -64v433zM508 697v-34h-11q-33 0 -47.5 -10t-18.5 -36q-2 -15 -3 -98t-1 -207q0 -62 2 -270q1 -117 2 -186h-58l3 336q-3 0 -9 -1q-30 -3 -42 -3q-118 0 -193 70t-75 178q0 111 80.5 185.5t205.5 74.5 q18 0 45.5 -1t37.5 -1q19 0 39 1t43 2z" />
<glyph unicode="&#xb7;" horiz-adv-x="277" d="M139 433q33 0 56.5 -23.5t23.5 -56.5t-23.5 -56.5t-56.5 -23.5q-32 0 -56 24t-24 56q0 33 23.5 56.5t56.5 23.5z" />
<glyph unicode="&#xb8;" horiz-adv-x="500" d="M281 0h37l-48 -59q32 -8 49 -24.5t17 -39.5q0 -33 -32.5 -59t-90.5 -40l-15 29q32 7 49 22.5t17 37.5q0 18 -15 30t-44 17z" />
<glyph unicode="&#xb9;" horiz-adv-x="367" d="M222 701q-3 -55 -4.5 -113t-1.5 -155v-55q0 -52 11.5 -66.5t43.5 -14.5h13v-20q-23 1 -45.5 1.5t-55.5 0.5q-29 0 -51 -0.5t-45 -1.5v20h10q34 0 46 6t17 24q2 11 4 77t2 164q0 23 -1 78q0 8 -1 12q-23 0 -44 -2t-40 -5l-4 23q36 5 72.5 12t73.5 15z" />
<glyph unicode="&#xba;" horiz-adv-x="413" d="M201 670q-49 0 -79 -33t-30 -90q0 -72 33.5 -116.5t86.5 -44.5q52 0 82 35.5t30 96.5q0 67 -34.5 109.5t-88.5 42.5zM211 706q77 0 127.5 -48.5t50.5 -119.5q0 -79 -53.5 -132.5t-131.5 -53.5t-128.5 49t-50.5 125q0 75 54.5 127.5t131.5 52.5z" />
<glyph unicode="&#xbb;" horiz-adv-x="417" d="M89 421q24 -41 51 -85.5t60 -95.5l-5 -8q-71 -114 -107 -177l-39 19q15 36 31 76t37 90l-22 55q-30 74 -43 109zM240 426q31 -46 67.5 -92t78.5 -93q-39 -44 -75.5 -91t-70.5 -98l-37 22q27 50 47.5 90.5t37.5 74.5q-24 50 -44.5 90t-40.5 76z" />
<glyph unicode="&#xbc;" horiz-adv-x="867" d="M722 330l-136 -170q30 -1 58.5 -2t55.5 -1h22v173zM734 393h41q-2 -65 -3.5 -123.5t-1.5 -112.5h10q16 0 33 1t35 2q-1 -5 -4.5 -17.5t-5.5 -19.5q-12 0 -26 0.5t-42 0.5v-57q0 -32 8 -40t33 -8h8v-19q-17 1 -34 1.5t-42 0.5q-21 0 -38 -0.5t-36 -1.5v19q2 0 6 -0.5 t6 -0.5q24 0 32.5 10t8.5 47v21v28q-21 0 -48 0.5t-34 0.5q-3 0 -34.5 -0.5t-59.5 -0.5l-13 25l24 26q50 55 60 67l30 37l12 15q48 59 75 99zM647 711l37 -24q-101 -147 -214.5 -320t-249.5 -388l-38 25q97 141 207.5 308.5t257.5 398.5zM212 700q-3 -51 -4.5 -105 t-1.5 -144v-51q0 -49 11 -63t41 -14q2 0 6 0.5t6 0.5v-19q-21 1 -42.5 1.5t-53.5 0.5q-27 0 -48 -0.5t-43 -1.5v18h9q33 0 44.5 6t15.5 23q3 11 4.5 72t1.5 153q0 21 -2 72v12q-21 -1 -41 -2.5t-39 -4.5l-4 21q38 6 72 12t68 13z" />
<glyph unicode="&#xbd;" horiz-adv-x="867" d="M611 47q21 -1 41 -1h47h39q45 0 59 8t21 33l19 -6q-9 -21 -15 -41t-9 -40q-42 1 -80 2t-71 1q-28 0 -58 -1t-62 -2l-10 18q97 74 152 143.5t55 117.5q0 35 -23 57.5t-57 22.5q-27 0 -49 -13.5t-43 -43.5l-24 13q26 40 58.5 60t72.5 20q53 0 90 -32t37 -77 q0 -42 -40 -93.5t-150 -145.5zM647 711l37 -24q-101 -147 -214.5 -320t-249.5 -388l-38 25q97 141 207.5 308.5t257.5 398.5zM212 700q-3 -51 -4.5 -105t-1.5 -144v-51q0 -49 11 -63t41 -14q2 0 6 0.5t6 0.5v-19q-21 1 -42.5 1.5t-53.5 0.5q-27 0 -48 -0.5t-43 -1.5v18h9 q33 0 44.5 6t15.5 23q3 11 4.5 72t1.5 153q0 21 -2 72v12q-21 -1 -41 -2.5t-39 -4.5l-4 21q38 6 72 12t68 13z" />
<glyph unicode="&#xbe;" horiz-adv-x="868" d="M722 330l-136 -170q30 -1 58.5 -2t55.5 -1h22v173zM734 393h41q-2 -65 -3.5 -123.5t-1.5 -112.5h10q16 0 33 1t35 2q-1 -5 -4.5 -17.5t-5.5 -19.5q-12 0 -26 0.5t-42 0.5v-57q0 -32 8 -40t33 -8h8v-19q-17 1 -34 1.5t-42 0.5q-21 0 -38 -0.5t-36 -1.5v19q2 0 6 -0.5 t6 -0.5q24 0 32.5 10t8.5 47v21v28q-21 0 -48 0.5t-34 0.5q-3 0 -34.5 -0.5t-59.5 -0.5l-13 25l24 26q50 55 60 67l30 37l12 15q48 59 75 99zM647 711l37 -24q-101 -147 -214.5 -320t-249.5 -388l-38 25q97 141 207.5 308.5t257.5 398.5zM175 522h15q50 0 79 -25.5t29 -69.5 q0 -52 -49.5 -91t-117.5 -39q-41 0 -72 14.5t-31 33.5q0 8 8.5 16t17.5 8q10 0 24 -14q3 -3 6 -5q15 -13 29.5 -19t32.5 -6q39 0 66 26t27 64q0 36 -23 58t-59 22q-12 0 -26.5 -2.5t-32.5 -8.5l-9 19q62 24 92.5 50.5t30.5 54.5q0 25 -19 42t-48 17q-22 0 -42 -11t-40 -35 l-23 12q21 34 51 50.5t68 16.5q46 0 77.5 -24.5t31.5 -60.5q0 -31 -23 -54t-70 -39z" />
<glyph unicode="&#xbf;" horiz-adv-x="470" d="M309 504h38q0 -10 -0.5 -21.5t-0.5 -35.5q0 -32 1 -58.5t3 -50.5q-94 -22 -147 -69t-53 -108q0 -48 33.5 -79.5t83.5 -31.5q35 0 73.5 23t47.5 23q14 0 24 -11t10 -27q0 -32 -31 -52.5t-81 -20.5q-97 0 -161.5 57.5t-64.5 143.5q0 67 37.5 113.5t137.5 95.5q3 1 9 4 q42 19 41 83v22zM327 713l34 -26q14 -10 20 -20.5t6 -21.5t-5 -19t-19 -19l-36 -28l-35 26q-14 11 -20 20.5t-6 21.5q0 11 5 19t19 19z" />
<glyph unicode="&#xc0;" horiz-adv-x="722" d="M341 605l-112 -292q9 -1 27 -1q55 -1 75 -1q24 -1 88 1q14 0 22 1zM319 697h84q63 -194 120 -354t90 -241q20 -46 34 -57t40 -11h10v-34q-38 2 -69.5 3t-53.5 1q-27 0 -60 -1t-69 -3v34h9q35 0 47.5 8t12.5 30q0 8 -2 17.5t-6 22.5l-48 149q-19 0 -51 1q-59 1 -75 1 h-62.5t-61.5 -1q-35 -87 -47.5 -127.5t-12.5 -57.5q0 -24 12.5 -33.5t45.5 -9.5h13v-34q-36 2 -66.5 3t-55.5 1q-20 0 -49 -1t-63 -3v34q35 1 55 14t35 43q27 57 97 228.5t147 377.5zM306 977l129 -198l-37 -12l-164 166z" />
<glyph unicode="&#xc1;" horiz-adv-x="722" d="M341 605l-112 -292q9 -1 27 -1q55 -1 75 -1q24 -1 88 1q14 0 22 1zM319 697h84q63 -194 120 -354t90 -241q20 -46 34 -57t40 -11h10v-34q-38 2 -69.5 3t-53.5 1q-27 0 -60 -1t-69 -3v34h9q35 0 47.5 8t12.5 30q0 8 -2 17.5t-6 22.5l-48 149q-19 0 -51 1q-59 1 -75 1 h-62.5t-61.5 -1q-35 -87 -47.5 -127.5t-12.5 -57.5q0 -24 12.5 -33.5t45.5 -9.5h13v-34q-36 2 -66.5 3t-55.5 1q-20 0 -49 -1t-63 -3v34q35 1 55 14t35 43q27 57 97 228.5t147 377.5zM418 977l73 -47l-163 -163l-37 13z" />
<glyph unicode="&#xc2;" horiz-adv-x="722" d="M341 605l-112 -292q9 -1 27 -1q55 -1 75 -1q24 -1 88 1q14 0 22 1zM319 697h84q63 -194 120 -354t90 -241q20 -46 34 -57t40 -11h10v-34q-38 2 -69.5 3t-53.5 1q-27 0 -60 -1t-69 -3v34h9q35 0 47.5 8t12.5 30q0 8 -2 17.5t-6 22.5l-48 149q-19 0 -51 1q-59 1 -75 1 h-62.5t-61.5 -1q-35 -87 -47.5 -127.5t-12.5 -57.5q0 -24 12.5 -33.5t45.5 -9.5h13v-34q-36 2 -66.5 3t-55.5 1q-20 0 -49 -1t-63 -3v34q35 1 55 14t35 43q27 57 97 228.5t147 377.5zM347 939h30l133 -157l-30 -15l-119 99l-119 -99l-29 15z" />
<glyph unicode="&#xc3;" horiz-adv-x="722" d="M341 605l-112 -292q9 -1 27 -1q55 -1 75 -1q24 -1 88 1q14 0 22 1zM319 697h84q63 -194 120 -354t90 -241q20 -46 34 -57t40 -11h10v-34q-38 2 -69.5 3t-53.5 1q-27 0 -60 -1t-69 -3v34h9q35 0 47.5 8t12.5 30q0 8 -2 17.5t-6 22.5l-48 149q-19 0 -51 1q-59 1 -75 1 h-62.5t-61.5 -1q-35 -87 -47.5 -127.5t-12.5 -57.5q0 -24 12.5 -33.5t45.5 -9.5h13v-34q-36 2 -66.5 3t-55.5 1q-20 0 -49 -1t-63 -3v34q35 1 55 14t35 43q27 57 97 228.5t147 377.5zM522 927l26 -21q-26 -34 -52.5 -58t-56.5 -42q-35 2 -85 10t-65 8q-29 0 -52 -11.5 t-42 -35.5l-24 23q25 33 53.5 58t61.5 42q35 -3 85 -11t66 -8q25 0 46 11.5t39 34.5z" />
<glyph unicode="&#xc4;" horiz-adv-x="722" d="M341 605l-112 -292q9 -1 27 -1q55 -1 75 -1q24 -1 88 1q14 0 22 1zM319 697h84q63 -194 120 -354t90 -241q20 -46 34 -57t40 -11h10v-34q-38 2 -69.5 3t-53.5 1q-27 0 -60 -1t-69 -3v34h9q35 0 47.5 8t12.5 30q0 8 -2 17.5t-6 22.5l-48 149q-19 0 -51 1q-59 1 -75 1 h-62.5t-61.5 -1q-35 -87 -47.5 -127.5t-12.5 -57.5q0 -24 12.5 -33.5t45.5 -9.5h13v-34q-36 2 -66.5 3t-55.5 1q-20 0 -49 -1t-63 -3v34q35 1 55 14t35 43q27 57 97 228.5t147 377.5zM465 909q19 0 40.5 -19.5t21.5 -37.5t-21.5 -37.5t-40.5 -19.5q-20 0 -40.5 19.5 t-20.5 37.5t21 37.5t40 19.5zM257 909q19 0 40 -19.5t21 -37.5t-21 -37.5t-40 -19.5q-20 0 -40.5 19.5t-20.5 37.5t21 37.5t40 19.5z" />
<glyph unicode="&#xc5;" horiz-adv-x="722" d="M341 605l-112 -292q9 -1 27 -1q55 -1 75 -1q24 -1 88 1q14 0 22 1zM319 697h84q63 -194 120 -354t90 -241q20 -46 34 -57t40 -11h10v-34q-38 2 -69.5 3t-53.5 1q-27 0 -60 -1t-69 -3v34h9q35 0 47.5 8t12.5 30q0 8 -2 17.5t-6 22.5l-48 149q-19 0 -51 1q-59 1 -75 1 h-62.5t-61.5 -1q-35 -87 -47.5 -127.5t-12.5 -57.5q0 -24 12.5 -33.5t45.5 -9.5h13v-34q-36 2 -66.5 3t-55.5 1q-20 0 -49 -1t-63 -3v34q35 1 55 14t35 43q27 57 97 228.5t147 377.5zM361 913q-26 0 -45.5 -19.5t-19.5 -46.5q0 -26 19.5 -46t45.5 -20t46 20t20 46 q0 27 -19.5 46.5t-46.5 19.5zM361 963q49 0 83 -33.5t34 -82.5q0 -48 -34 -82.5t-83 -34.5q-48 0 -82.5 34.5t-34.5 82.5t34 82t83 34z" />
<glyph unicode="&#xc6;" horiz-adv-x="1050" d="M545 645l-225 -336q32 0 60.5 -0.5t54.5 -0.5q36 0 59 0.5t45 0.5q0 65 2 150t4 186zM397 697q61 -3 128 -5t142 -2q61 0 130.5 1.5t158.5 5.5q0 -37 2.5 -75.5t6.5 -76.5l-34 -3q-4 59 -36 79.5t-139 20.5q-26 0 -96 -1q-18 0 -26 -1q-1 -83 -3 -204q0 -35 -1 -50h15 q29 0 72 -0.5t58 -0.5q71 0 93.5 13t24.5 49l31 -3q-3 -30 -5 -56t-2 -48q0 -13 0.5 -33t2.5 -45l-32 -1v4q0 42 -24 56.5t-112 14.5h-87h-35q0 -24 -0.5 -66t-0.5 -61q0 -32 0.5 -67t1.5 -82q24 -3 55.5 -4.5t68.5 -1.5q123 0 161.5 24t61.5 91l35 -12q-15 -41 -26 -79.5 t-19 -77.5h-6q-188 6 -280 6q-49 0 -105.5 -1.5t-121.5 -4.5v33h3q15 -1 21 -2q35 0 47.5 21t12.5 109v34q0 25 0.5 39t0.5 26q-40 1 -81.5 2.5t-43.5 1.5q-23 0 -67.5 -1.5t-61.5 -1.5q-18 -28 -47 -75q-66 -104 -66 -120q0 -19 12.5 -26t46.5 -7h10v-33q-42 3 -72 4.5 t-50 1.5q-21 0 -51 -1.5t-68 -4.5v32h8q57 0 128 104l15 21q76 110 191 272q136 191 136 207q0 15 -12.5 21.5t-45.5 6.5h-24v33z" />
<glyph unicode="&#xc7;" horiz-adv-x="707" d="M641 675v-17q0 -34 2.5 -71t7.5 -77l-36 -6q-10 70 -66.5 109.5t-147.5 39.5q-122 0 -188 -74.5t-66 -211.5q0 -146 76 -236t197 -90q76 0 132 35t87 103l33 -16q-16 -32 -28.5 -65t-22.5 -66q-53 -24 -107.5 -36t-109.5 -12q-162 0 -262.5 100.5t-100.5 263.5 q0 161 106 262.5t274 101.5q50 0 105 -9t115 -28zM398 0h37l-48 -59q32 -8 49 -24.5t17 -39.5q0 -33 -32.5 -59t-90.5 -40l-15 29q32 7 49 22.5t17 37.5q0 18 -15 30t-44 17z" />
<glyph unicode="&#xc8;" horiz-adv-x="633" d="M48 697q85 -3 152.5 -4.5t116.5 -1.5q54 0 109.5 1.5t112.5 4.5q0 -37 2.5 -75.5t6.5 -76.5l-33 -3q-4 59 -36 79.5t-139 20.5q-27 0 -100 -1q-15 0 -22 -1q-1 -59 -3 -143.5t-2 -110.5h15q29 0 72 -0.5t58 -0.5q71 0 93.5 13t24.5 49l31 -3q-3 -30 -5 -56t-2 -48 q0 -13 2 -55q1 -15 2 -23l-32 -1v4q0 42 -24 56.5t-113 14.5h-87h-35q0 -24 -0.5 -66t-0.5 -61q0 -32 0.5 -67t1.5 -82q24 -3 55.5 -4.5t68.5 -1.5q123 0 161.5 24t61.5 91l35 -12q-15 -41 -26 -79.5t-19 -77.5q-77 3 -143 4.5t-119 1.5q-73 0 -234 -6h-18v32q3 0 6.5 -0.5 t9.5 -0.5q65 0 66 182q0 46 1 72l2 133q0 43 0.5 83.5t0.5 88.5q0 42 -15.5 58t-55.5 16h-4v33zM262 977l129 -198l-37 -12l-164 166z" />
<glyph unicode="&#xc9;" horiz-adv-x="633" d="M48 697q85 -3 152.5 -4.5t116.5 -1.5q54 0 109.5 1.5t112.5 4.5q0 -37 2.5 -75.5t6.5 -76.5l-33 -3q-4 59 -36 79.5t-139 20.5q-27 0 -100 -1q-15 0 -22 -1q-1 -59 -3 -143.5t-2 -110.5h15q29 0 72 -0.5t58 -0.5q71 0 93.5 13t24.5 49l31 -3q-3 -30 -5 -56t-2 -48 q0 -13 2 -55q1 -15 2 -23l-32 -1v4q0 42 -24 56.5t-113 14.5h-87h-35q0 -24 -0.5 -66t-0.5 -61q0 -32 0.5 -67t1.5 -82q24 -3 55.5 -4.5t68.5 -1.5q123 0 161.5 24t61.5 91l35 -12q-15 -41 -26 -79.5t-19 -77.5q-77 3 -143 4.5t-119 1.5q-73 0 -234 -6h-18v32q3 0 6.5 -0.5 t9.5 -0.5q65 0 66 182q0 46 1 72l2 133q0 43 0.5 83.5t0.5 88.5q0 42 -15.5 58t-55.5 16h-4v33zM374 977l73 -47l-163 -163l-37 13z" />
<glyph unicode="&#xca;" horiz-adv-x="633" d="M48 697q85 -3 152.5 -4.5t116.5 -1.5q54 0 109.5 1.5t112.5 4.5q0 -37 2.5 -75.5t6.5 -76.5l-33 -3q-4 59 -36 79.5t-139 20.5q-27 0 -100 -1q-15 0 -22 -1q-1 -59 -3 -143.5t-2 -110.5h15q29 0 72 -0.5t58 -0.5q71 0 93.5 13t24.5 49l31 -3q-3 -30 -5 -56t-2 -48 q0 -13 2 -55q1 -15 2 -23l-32 -1v4q0 42 -24 56.5t-113 14.5h-87h-35q0 -24 -0.5 -66t-0.5 -61q0 -32 0.5 -67t1.5 -82q24 -3 55.5 -4.5t68.5 -1.5q123 0 161.5 24t61.5 91l35 -12q-15 -41 -26 -79.5t-19 -77.5q-77 3 -143 4.5t-119 1.5q-73 0 -234 -6h-18v32q3 0 6.5 -0.5 t9.5 -0.5q65 0 66 182q0 46 1 72l2 133q0 43 0.5 83.5t0.5 88.5q0 42 -15.5 58t-55.5 16h-4v33zM303 939h30l133 -157l-30 -15l-119 99l-119 -99l-29 15z" />
<glyph unicode="&#xcb;" horiz-adv-x="633" d="M48 697q85 -3 152.5 -4.5t116.5 -1.5q54 0 109.5 1.5t112.5 4.5q0 -37 2.5 -75.5t6.5 -76.5l-33 -3q-4 59 -36 79.5t-139 20.5q-27 0 -100 -1q-15 0 -22 -1q-1 -59 -3 -143.5t-2 -110.5h15q29 0 72 -0.5t58 -0.5q71 0 93.5 13t24.5 49l31 -3q-3 -30 -5 -56t-2 -48 q0 -13 2 -55q1 -15 2 -23l-32 -1v4q0 42 -24 56.5t-113 14.5h-87h-35q0 -24 -0.5 -66t-0.5 -61q0 -32 0.5 -67t1.5 -82q24 -3 55.5 -4.5t68.5 -1.5q123 0 161.5 24t61.5 91l35 -12q-15 -41 -26 -79.5t-19 -77.5q-77 3 -143 4.5t-119 1.5q-73 0 -234 -6h-18v32q3 0 6.5 -0.5 t9.5 -0.5q65 0 66 182q0 46 1 72l2 133q0 43 0.5 83.5t0.5 88.5q0 42 -15.5 58t-55.5 16h-4v33zM421 909q19 0 40.5 -19.5t21.5 -37.5t-21.5 -37.5t-40.5 -19.5q-20 0 -40.5 19.5t-20.5 37.5t21 37.5t40 19.5zM213 909q19 0 40 -19.5t21 -37.5t-21 -37.5t-40 -19.5 q-20 0 -40.5 19.5t-20.5 37.5t21 37.5t40 19.5z" />
<glyph unicode="&#xcc;" horiz-adv-x="339" d="M37 697q34 -2 68 -3t66 -1q27 0 61 1t71 3v-34h-8q-32 0 -48 -7.5t-22 -24.5q-4 -11 -5.5 -36t-1.5 -82v-97v-243q0 -58 2.5 -81.5t8.5 -34.5q6 -12 22.5 -17.5t46.5 -5.5h10v-34q-42 2 -77.5 3t-59.5 1q-28 0 -64 -1t-75 -3v34h10q30 0 46 5.5t23 17.5q7 13 9.5 43 t2.5 109v77v191q0 77 -2 109.5t-6 44.5q-6 17 -21.5 24.5t-47.5 7.5h-9v34zM115 977l129 -198l-37 -12l-164 166z" />
<glyph unicode="&#xcd;" horiz-adv-x="339" d="M37 697q34 -2 68 -3t66 -1q27 0 61 1t71 3v-34h-8q-32 0 -48 -7.5t-22 -24.5q-4 -11 -5.5 -36t-1.5 -82v-97v-243q0 -58 2.5 -81.5t8.5 -34.5q6 -12 22.5 -17.5t46.5 -5.5h10v-34q-42 2 -77.5 3t-59.5 1q-28 0 -64 -1t-75 -3v34h10q30 0 46 5.5t23 17.5q7 13 9.5 43 t2.5 109v77v191q0 77 -2 109.5t-6 44.5q-6 17 -21.5 24.5t-47.5 7.5h-9v34zM227 977l73 -47l-163 -163l-37 13z" />
<glyph unicode="&#xce;" horiz-adv-x="339" d="M37 697q34 -2 68 -3t66 -1q27 0 61 1t71 3v-34h-8q-32 0 -48 -7.5t-22 -24.5q-4 -11 -5.5 -36t-1.5 -82v-97v-243q0 -58 2.5 -81.5t8.5 -34.5q6 -12 22.5 -17.5t46.5 -5.5h10v-34q-42 2 -77.5 3t-59.5 1q-28 0 -64 -1t-75 -3v34h10q30 0 46 5.5t23 17.5q7 13 9.5 43 t2.5 109v77v191q0 77 -2 109.5t-6 44.5q-6 17 -21.5 24.5t-47.5 7.5h-9v34zM156 939h30l133 -157l-30 -15l-119 99l-119 -99l-29 15z" />
<glyph unicode="&#xcf;" horiz-adv-x="339" d="M37 697q34 -2 68 -3t66 -1q27 0 61 1t71 3v-34h-8q-32 0 -48 -7.5t-22 -24.5q-4 -11 -5.5 -36t-1.5 -82v-97v-243q0 -58 2.5 -81.5t8.5 -34.5q6 -12 22.5 -17.5t46.5 -5.5h10v-34q-42 2 -77.5 3t-59.5 1q-28 0 -64 -1t-75 -3v34h10q30 0 46 5.5t23 17.5q7 13 9.5 43 t2.5 109v77v191q0 77 -2 109.5t-6 44.5q-6 17 -21.5 24.5t-47.5 7.5h-9v34zM274 909q19 0 40.5 -19.5t21.5 -37.5t-21.5 -37.5t-40.5 -19.5q-20 0 -40.5 19.5t-20.5 37.5t21 37.5t40 19.5zM66 909q19 0 40 -19.5t21 -37.5t-21 -37.5t-40 -19.5q-20 0 -40.5 19.5t-20.5 37.5 t21 37.5t40 19.5z" />
<glyph unicode="&#xd0;" horiz-adv-x="787" d="M46 0v34q3 0 7.5 -0.5t10.5 -0.5q39 0 53 27.5t14 126.5v99v45h-50h-37h-35v49q11 0 31 -0.5t29 -0.5h62v37q0 28 0.5 70t0.5 57q0 74 -14 97t-52 23h-9v34q35 -1 63 -2.5t43 -1.5q55 0 120 4t76 4q182 0 286.5 -92t104.5 -251q0 -163 -104.5 -262.5t-280.5 -99.5 q-25 0 -94 4t-113 4q-20 0 -48.5 -1t-63.5 -3zM221 59q35 -8 70 -11.5t69 -3.5q138 0 211.5 75t73.5 215q0 149 -79 233.5t-219 84.5q-29 0 -59.5 -2.5t-61.5 -6.5q-1 -46 -2 -100.5t-2 -163.5h93q16 0 47.5 0.5t47.5 0.5v-50q-32 0 -60 0.5t-53 0.5h-75q0 -39 -0.5 -74 t-0.5 -65v-133z" />
<glyph unicode="&#xd1;" horiz-adv-x="808" d="M30 697q23 -2 44.5 -3t42.5 -1q16 0 37 1t45 3q6 -16 17.5 -33.5t28.5 -37.5l403 -477q-1 74 -3 197q-4 257 -9 277q-6 22 -20.5 31t-48.5 9h-15v34q6 0 17 -1q69 -3 98 -3t101 3q10 0 15 1v-34q-3 0 -6.5 0.5t-9.5 0.5q-65 0 -66 -182q0 -46 -1 -72l-2 -130 q-1 -29 -1 -59.5v-83.5q0 -59 1.5 -92t4.5 -53h-54q-8 20 -59 78l-5 6l-419 493v-11q3 -457 10 -484q6 -22 20.5 -31t47.5 -9h15v-34q-7 0 -22 1q-68 3 -93 3q-24 0 -53 -1t-61 -3v34q3 0 6.5 -0.5t9.5 -0.5q65 0 66 181q0 46 1 72l2 130q0 42 0.5 82t0.5 91q0 42 -16 58 t-57 16h-13v34zM565 927l26 -21q-26 -34 -52.5 -58t-56.5 -42q-35 2 -85 10t-65 8q-29 0 -52 -11.5t-42 -35.5l-24 23q25 33 53.5 58t61.5 42q35 -3 85 -11t66 -8q25 0 46 11.5t39 34.5z" />
<glyph unicode="&#xd2;" horiz-adv-x="801" d="M648 334q0 142 -73.5 233t-184.5 91q-107 0 -171.5 -78t-64.5 -209q0 -146 73.5 -239t183.5 -93q106 0 171.5 80.5t65.5 214.5zM401 713q74 0 132.5 -21.5t105.5 -65.5q57 -54 87 -124.5t30 -150.5q0 -81 -32 -153.5t-90 -124.5q-47 -42 -109.5 -65.5t-124.5 -23.5 q-78 0 -144 29t-116 85q-46 52 -70 116.5t-24 135.5q0 77 29 145.5t84 120.5q50 47 112.5 72t129.5 25zM346 977l129 -198l-37 -12l-164 166z" />
<glyph unicode="&#xd3;" horiz-adv-x="801" d="M648 334q0 142 -73.5 233t-184.5 91q-107 0 -171.5 -78t-64.5 -209q0 -146 73.5 -239t183.5 -93q106 0 171.5 80.5t65.5 214.5zM401 713q74 0 132.5 -21.5t105.5 -65.5q57 -54 87 -124.5t30 -150.5q0 -81 -32 -153.5t-90 -124.5q-47 -42 -109.5 -65.5t-124.5 -23.5 q-78 0 -144 29t-116 85q-46 52 -70 116.5t-24 135.5q0 77 29 145.5t84 120.5q50 47 112.5 72t129.5 25zM458 977l73 -47l-163 -163l-37 13z" />
<glyph unicode="&#xd4;" horiz-adv-x="801" d="M648 334q0 142 -73.5 233t-184.5 91q-107 0 -171.5 -78t-64.5 -209q0 -146 73.5 -239t183.5 -93q106 0 171.5 80.5t65.5 214.5zM401 713q74 0 132.5 -21.5t105.5 -65.5q57 -54 87 -124.5t30 -150.5q0 -81 -32 -153.5t-90 -124.5q-47 -42 -109.5 -65.5t-124.5 -23.5 q-78 0 -144 29t-116 85q-46 52 -70 116.5t-24 135.5q0 77 29 145.5t84 120.5q50 47 112.5 72t129.5 25zM387 939h30l133 -157l-30 -15l-119 99l-119 -99l-29 15z" />
<glyph unicode="&#xd5;" horiz-adv-x="801" d="M648 334q0 142 -73.5 233t-184.5 91q-107 0 -171.5 -78t-64.5 -209q0 -146 73.5 -239t183.5 -93q106 0 171.5 80.5t65.5 214.5zM401 713q74 0 132.5 -21.5t105.5 -65.5q57 -54 87 -124.5t30 -150.5q0 -81 -32 -153.5t-90 -124.5q-47 -42 -109.5 -65.5t-124.5 -23.5 q-78 0 -144 29t-116 85q-46 52 -70 116.5t-24 135.5q0 77 29 145.5t84 120.5q50 47 112.5 72t129.5 25zM562 927l26 -21q-26 -34 -52.5 -58t-56.5 -42q-35 2 -85 10t-65 8q-29 0 -52 -11.5t-42 -35.5l-24 23q25 33 53.5 58t61.5 42q35 -3 85 -11t66 -8q25 0 46 11.5t39 34.5 z" />
<glyph unicode="&#xd6;" horiz-adv-x="801" d="M648 334q0 142 -73.5 233t-184.5 91q-107 0 -171.5 -78t-64.5 -209q0 -146 73.5 -239t183.5 -93q106 0 171.5 80.5t65.5 214.5zM401 713q74 0 132.5 -21.5t105.5 -65.5q57 -54 87 -124.5t30 -150.5q0 -81 -32 -153.5t-90 -124.5q-47 -42 -109.5 -65.5t-124.5 -23.5 q-78 0 -144 29t-116 85q-46 52 -70 116.5t-24 135.5q0 77 29 145.5t84 120.5q50 47 112.5 72t129.5 25zM505 909q19 0 40.5 -19.5t21.5 -37.5t-21.5 -37.5t-40.5 -19.5q-20 0 -40.5 19.5t-20.5 37.5t21 37.5t40 19.5zM297 909q19 0 40 -19.5t21 -37.5t-21 -37.5t-40 -19.5 q-20 0 -40.5 19.5t-20.5 37.5t21 37.5t40 19.5z" />
<glyph unicode="&#xd7;" horiz-adv-x="833" d="M186 571l233 -233l232 233l40 -40l-232 -233l232 -232l-40 -40l-232 232l-233 -232l-39 40l232 232l-232 233z" />
<glyph unicode="&#xd8;" horiz-adv-x="801" d="M537 612q-34 26 -70 38.5t-76 12.5q-110 0 -177 -79.5t-67 -212.5q0 -75 20 -136t59 -107q66 96 214 331q63 100 97 153zM567 584q-69 -103 -146 -222t-167 -266q37 -31 77.5 -46t84.5 -15q105 0 172 82.5t67 217.5q0 77 -22.5 140t-65.5 109zM638 785l41 -26 q-28 -42 -43 -65t-28 -43q72 -55 110 -132t38 -168q0 -81 -32 -153.5t-90 -124.5q-47 -42 -109.5 -65.5t-124.5 -23.5q-54 0 -98.5 12t-82.5 37q-16 -25 -33 -53t-37 -64l-39 24q32 48 47.5 72t28.5 44q-66 49 -103 126.5t-37 167.5q0 154 104.5 258.5t259.5 104.5 q43 0 83 -9.5t79 -28.5q20 31 53 88q9 15 13 22z" />
<glyph unicode="&#xd9;" horiz-adv-x="787" d="M292 697v-34q-3 0 -8.5 0.5t-7.5 0.5q-39 0 -52.5 -25.5t-13.5 -120.5v-77v-101q0 -79 5 -116.5t16 -62.5q24 -53 70.5 -80.5t112.5 -27.5q49 0 86.5 14.5t63.5 43.5t37 71.5t11 141.5q0 119 -3 200.5t-7 98.5q-7 22 -21.5 31t-46.5 9h-7v34q6 0 17 -1q67 -3 96 -3 q28 0 96 3q12 0 17 1v-34h-6q-29 0 -43.5 -7.5t-20.5 -24.5q-5 -14 -7.5 -74t-2.5 -195v-49q0 -77 -6 -118t-19 -72q-27 -65 -94 -102t-158 -37q-63 0 -116 18.5t-90 53.5q-41 37 -58 87.5t-17 141.5q0 35 1 115t1 125v15q0 84 -14 103.5t-54 19.5h-9v34q35 -2 66 -3t57 -1 q31 0 63.5 1t65.5 3zM354 977l129 -198l-37 -12l-164 166z" />
<glyph unicode="&#xda;" horiz-adv-x="787" d="M292 697v-34q-3 0 -8.5 0.5t-7.5 0.5q-39 0 -52.5 -25.5t-13.5 -120.5v-77v-101q0 -79 5 -116.5t16 -62.5q24 -53 70.5 -80.5t112.5 -27.5q49 0 86.5 14.5t63.5 43.5t37 71.5t11 141.5q0 119 -3 200.5t-7 98.5q-7 22 -21.5 31t-46.5 9h-7v34q6 0 17 -1q67 -3 96 -3 q28 0 96 3q12 0 17 1v-34h-6q-29 0 -43.5 -7.5t-20.5 -24.5q-5 -14 -7.5 -74t-2.5 -195v-49q0 -77 -6 -118t-19 -72q-27 -65 -94 -102t-158 -37q-63 0 -116 18.5t-90 53.5q-41 37 -58 87.5t-17 141.5q0 35 1 115t1 125v15q0 84 -14 103.5t-54 19.5h-9v34q35 -2 66 -3t57 -1 q31 0 63.5 1t65.5 3zM466 977l73 -47l-163 -163l-37 13z" />
<glyph unicode="&#xdb;" horiz-adv-x="787" d="M292 697v-34q-3 0 -8.5 0.5t-7.5 0.5q-39 0 -52.5 -25.5t-13.5 -120.5v-77v-101q0 -79 5 -116.5t16 -62.5q24 -53 70.5 -80.5t112.5 -27.5q49 0 86.5 14.5t63.5 43.5t37 71.5t11 141.5q0 119 -3 200.5t-7 98.5q-7 22 -21.5 31t-46.5 9h-7v34q6 0 17 -1q67 -3 96 -3 q28 0 96 3q12 0 17 1v-34h-6q-29 0 -43.5 -7.5t-20.5 -24.5q-5 -14 -7.5 -74t-2.5 -195v-49q0 -77 -6 -118t-19 -72q-27 -65 -94 -102t-158 -37q-63 0 -116 18.5t-90 53.5q-41 37 -58 87.5t-17 141.5q0 35 1 115t1 125v15q0 84 -14 103.5t-54 19.5h-9v34q35 -2 66 -3t57 -1 q31 0 63.5 1t65.5 3zM395 939h30l133 -157l-30 -15l-119 99l-119 -99l-29 15z" />
<glyph unicode="&#xdc;" horiz-adv-x="787" d="M292 697v-34q-3 0 -8.5 0.5t-7.5 0.5q-39 0 -52.5 -25.5t-13.5 -120.5v-77v-101q0 -79 5 -116.5t16 -62.5q24 -53 70.5 -80.5t112.5 -27.5q49 0 86.5 14.5t63.5 43.5t37 71.5t11 141.5q0 119 -3 200.5t-7 98.5q-7 22 -21.5 31t-46.5 9h-7v34q6 0 17 -1q67 -3 96 -3 q28 0 96 3q12 0 17 1v-34h-6q-29 0 -43.5 -7.5t-20.5 -24.5q-5 -14 -7.5 -74t-2.5 -195v-49q0 -77 -6 -118t-19 -72q-27 -65 -94 -102t-158 -37q-63 0 -116 18.5t-90 53.5q-41 37 -58 87.5t-17 141.5q0 35 1 115t1 125v15q0 84 -14 103.5t-54 19.5h-9v34q35 -2 66 -3t57 -1 q31 0 63.5 1t65.5 3zM513 909q19 0 40.5 -19.5t21.5 -37.5t-21.5 -37.5t-40.5 -19.5q-20 0 -40.5 19.5t-20.5 37.5t21 37.5t40 19.5zM305 909q19 0 40 -19.5t21 -37.5t-21 -37.5t-40 -19.5q-20 0 -40.5 19.5t-20.5 37.5t21 37.5t40 19.5z" />
<glyph unicode="&#xdd;" horiz-adv-x="659" d="M9 697q36 -2 67.5 -3t56.5 -1q26 0 56.5 1t63.5 3v-34h-7q-27 0 -41 -5.5t-14 -16.5q0 -12 24 -53q6 -11 10 -17l118 -210q80 128 120 198t40 81q0 12 -12 17.5t-39 5.5h-8v34q29 -2 55.5 -3t46.5 -1q25 0 51 1t53 3v-34q-1 0 -2.5 0.5t-4.5 0.5h-6q-43 0 -113 -111 q-21 -35 -34 -55l-123 -188l2 -174q1 -68 15.5 -85t58.5 -17h17v-34q-41 2 -77 3t-65 1q-24 0 -60.5 -1t-79.5 -3v34q3 0 10 -0.5t10 -0.5q42 0 57.5 19.5t16.5 81.5l2 173l-158 266q-4 6 -11 19q-43 73 -79 73q-2 0 -6 -0.5t-11 -1.5v34zM387 977l73 -47l-163 -163l-37 13z " />
<glyph unicode="&#xde;" horiz-adv-x="580" d="M206 213q16 -3 34 -4t37 -1q92 0 139 41t47 119q0 71 -46.5 113t-126.5 42q-19 0 -39 -2t-42 -6q-1 -95 -2 -171t-1 -131zM48 698q12 0 34 -2q65 -4 89 -4q18 0 48 1.5t72 4.5v-34h-10q-40 0 -56 -15t-17 -54l-1 -26q32 2 60.5 3t51.5 1q112 0 176.5 -51.5t64.5 -140.5 q0 -104 -70.5 -161.5t-197.5 -57.5q-16 0 -80 6l-6 1v-33q0 -67 15.5 -84.5t66.5 -17.5h12v-34q-36 2 -71 3t-69 1q-17 0 -49.5 -1t-73.5 -3v32q4 0 7.5 -0.5t11.5 -0.5q39 0 52.5 25.5t13.5 120.5v68v40l1 133v172q0 42 -15.5 58t-55.5 16h-4v34z" />
<glyph unicode="&#xdf;" horiz-adv-x="585" d="M34 33h2q11 -1 17 -2q30 0 41.5 25t11.5 108q0 13 -0.5 50t-0.5 60v204q0 135 56.5 206.5t164.5 71.5q72 0 120.5 -42.5t48.5 -104.5q0 -31 -15.5 -60t-50.5 -66l-6 -6q-46 -47 -46 -68q0 -10 7.5 -21t34.5 -37q12 -11 34 -30q98 -87 98 -157q0 -71 -52.5 -122 t-123.5 -51q-45 0 -71.5 19.5t-26.5 52.5q0 15 10 25t26 10t38 -29.5t52 -29.5q35 0 57 23.5t22 60.5q0 52 -94 137q-17 16 -26 24q-27 24 -41.5 47.5t-14.5 42.5q0 30 43 76q7 7 11 12q32 35 47.5 67.5t15.5 63.5q0 54 -32.5 86.5t-85.5 32.5q-61 0 -90 -47t-29 -144v-309 q0 -18 -0.5 -46.5t-0.5 -38.5q0 -59 8.5 -77t31.5 -18q1 0 4.5 0.5t5.5 0.5v-33q-40 3 -64 4t-41 1q-19 0 -43.5 -1.5t-52.5 -3.5v33z" />
<glyph unicode="&#xe0;" horiz-adv-x="480" d="M469 71l14 -31q-37 -26 -67 -40.5t-49 -14.5q-31 0 -46.5 18t-17.5 56q-53 -36 -88 -51.5t-63 -15.5q-49 0 -82.5 37t-33.5 91q0 91 197 138q46 11 72 17q0 8 1 24q1 32 1 42q0 51 -21 75t-64 24q-42 0 -66 -15.5t-24 -41.5q0 -2 0.5 -6.5t0.5 -6.5q0 -15 -14.5 -25 t-35.5 -10q-18 0 -26 6t-8 18q0 39 66 87t136 48q68 0 103 -37.5t35 -109.5q0 -39 -4.5 -120t-4.5 -123q0 -32 7 -43t25 -11q8 0 20.5 4.5t36.5 16.5zM303 236q-9 -2 -28 -7q-159 -43 -159 -103q0 -32 20.5 -52.5t54.5 -20.5q21 0 47.5 11t62.5 34zM186 757l129 -198 l-37 -12l-164 166z" />
<glyph unicode="&#xe1;" horiz-adv-x="480" d="M469 71l14 -31q-37 -26 -67 -40.5t-49 -14.5q-31 0 -46.5 18t-17.5 56q-53 -36 -88 -51.5t-63 -15.5q-49 0 -82.5 37t-33.5 91q0 91 197 138q46 11 72 17q0 8 1 24q1 32 1 42q0 51 -21 75t-64 24q-42 0 -66 -15.5t-24 -41.5q0 -2 0.5 -6.5t0.5 -6.5q0 -15 -14.5 -25 t-35.5 -10q-18 0 -26 6t-8 18q0 39 66 87t136 48q68 0 103 -37.5t35 -109.5q0 -39 -4.5 -120t-4.5 -123q0 -32 7 -43t25 -11q8 0 20.5 4.5t36.5 16.5zM303 236q-9 -2 -28 -7q-159 -43 -159 -103q0 -32 20.5 -52.5t54.5 -20.5q21 0 47.5 11t62.5 34zM298 757l73 -47 l-163 -163l-37 13z" />
<glyph unicode="&#xe2;" horiz-adv-x="480" d="M469 71l14 -31q-37 -26 -67 -40.5t-49 -14.5q-31 0 -46.5 18t-17.5 56q-53 -36 -88 -51.5t-63 -15.5q-49 0 -82.5 37t-33.5 91q0 91 197 138q46 11 72 17q0 8 1 24q1 32 1 42q0 51 -21 75t-64 24q-42 0 -66 -15.5t-24 -41.5q0 -2 0.5 -6.5t0.5 -6.5q0 -15 -14.5 -25 t-35.5 -10q-18 0 -26 6t-8 18q0 39 66 87t136 48q68 0 103 -37.5t35 -109.5q0 -39 -4.5 -120t-4.5 -123q0 -32 7 -43t25 -11q8 0 20.5 4.5t36.5 16.5zM303 236q-9 -2 -28 -7q-159 -43 -159 -103q0 -32 20.5 -52.5t54.5 -20.5q21 0 47.5 11t62.5 34zM227 719h30l133 -157 l-30 -15l-119 99l-119 -99l-29 15z" />
<glyph unicode="&#xe3;" horiz-adv-x="480" d="M469 71l14 -31q-37 -26 -67 -40.5t-49 -14.5q-31 0 -46.5 18t-17.5 56q-53 -36 -88 -51.5t-63 -15.5q-49 0 -82.5 37t-33.5 91q0 91 197 138q46 11 72 17q0 8 1 24q1 32 1 42q0 51 -21 75t-64 24q-42 0 -66 -15.5t-24 -41.5q0 -2 0.5 -6.5t0.5 -6.5q0 -15 -14.5 -25 t-35.5 -10q-18 0 -26 6t-8 18q0 39 66 87t136 48q68 0 103 -37.5t35 -109.5q0 -39 -4.5 -120t-4.5 -123q0 -32 7 -43t25 -11q8 0 20.5 4.5t36.5 16.5zM303 236q-9 -2 -28 -7q-159 -43 -159 -103q0 -32 20.5 -52.5t54.5 -20.5q21 0 47.5 11t62.5 34zM402 707l26 -21 q-26 -34 -52.5 -58t-56.5 -42q-35 2 -85 10t-65 8q-29 0 -52 -11.5t-42 -35.5l-24 23q25 33 53.5 58t61.5 42q35 -3 85 -11t66 -8q25 0 46 11.5t39 34.5z" />
<glyph unicode="&#xe4;" horiz-adv-x="480" d="M469 71l14 -31q-37 -26 -67 -40.5t-49 -14.5q-31 0 -46.5 18t-17.5 56q-53 -36 -88 -51.5t-63 -15.5q-49 0 -82.5 37t-33.5 91q0 91 197 138q46 11 72 17q0 8 1 24q1 32 1 42q0 51 -21 75t-64 24q-42 0 -66 -15.5t-24 -41.5q0 -2 0.5 -6.5t0.5 -6.5q0 -15 -14.5 -25 t-35.5 -10q-18 0 -26 6t-8 18q0 39 66 87t136 48q68 0 103 -37.5t35 -109.5q0 -39 -4.5 -120t-4.5 -123q0 -32 7 -43t25 -11q8 0 20.5 4.5t36.5 16.5zM303 236q-9 -2 -28 -7q-159 -43 -159 -103q0 -32 20.5 -52.5t54.5 -20.5q21 0 47.5 11t62.5 34zM345 689q19 0 40.5 -19.5 t21.5 -37.5t-21.5 -37.5t-40.5 -19.5q-20 0 -40.5 19.5t-20.5 37.5t21 37.5t40 19.5zM137 689q19 0 40 -19.5t21 -37.5t-21 -37.5t-40 -19.5q-20 0 -40.5 19.5t-20.5 37.5t21 37.5t40 19.5z" />
<glyph unicode="&#xe5;" horiz-adv-x="480" d="M462 70l16 -28q-43 -30 -69.5 -44t-41.5 -14q-31 0 -46.5 18.5t-17.5 56.5q-55 -37 -89.5 -52.5t-61.5 -15.5q-49 0 -82.5 37t-33.5 91q0 92 203 140q42 10 66 16q0 8 1 24q1 32 1 42q0 51 -21 75t-64 24q-44 0 -64.5 -15t-24.5 -55q-1 -20 -11 -28t-34 -8q-20 0 -29.5 6 t-9.5 19q0 39 66 87t136 48q68 0 103 -37.5t35 -109.5q0 -38 -4.5 -119t-4.5 -124q0 -31 7 -42.5t24 -11.5q8 0 19 4.5t32 15.5zM303 236q-9 -2 -28 -7q-159 -43 -159 -103q0 -32 20.5 -52.5t54.5 -20.5q21 0 48 11t62 33zM241 724q-28 0 -48 -20t-20 -48q0 -27 20 -47.5 t48 -20.5q27 0 47.5 20t20.5 48q0 29 -20 48.5t-48 19.5zM241 775q49 0 84 -34.5t35 -84.5q0 -49 -34.5 -83.5t-84.5 -34.5t-84 34t-34 84t34.5 84.5t83.5 34.5z" />
<glyph unicode="&#xe6;" horiz-adv-x="755" d="M391 309q97 0 152.5 3.5t87.5 11.5q-15 60 -44.5 92t-71.5 32q-47 0 -80.5 -37.5t-43.5 -101.5zM307 100l2 136q-8 -2 -26 -7q-167 -43 -168 -101q0 -31 22 -52t56 -21q22 0 49 10.5t65 34.5zM343 84q-67 -49 -111.5 -70.5t-77.5 -21.5q-50 0 -84.5 37t-34.5 91 q0 91 201 137q48 11 75 18q0 9 1 24q1 32 1 42q0 51 -21 75t-67 24q-43 0 -67.5 -14.5t-24.5 -40.5v-10q0 -19 -14.5 -29.5t-39.5 -10.5q-15 0 -22.5 6t-7.5 18q0 39 67.5 87t136.5 48q42 0 71.5 -18t42.5 -54q31 37 70 54.5t88 17.5q86 0 137 -58t59 -163h-238 q-28 0 -51.5 -1t-43.5 -3v-18q0 -96 44.5 -148t124.5 -52q36 0 71.5 12t73.5 37l19 -31q-50 -41 -100.5 -62t-98.5 -21q-57 0 -104.5 26t-74.5 72z" />
<glyph unicode="&#xe7;" horiz-adv-x="446" d="M405 96l24 -37q-47 -36 -93 -54.5t-87 -18.5q-96 0 -156.5 68.5t-60.5 175.5q0 111 77 187.5t187 76.5q57 0 87.5 -16t30.5 -44q0 -21 -12.5 -35.5t-28.5 -14.5q-5 0 -45 24.5t-76 24.5q-63 0 -100.5 -45.5t-37.5 -124.5q0 -99 45 -154.5t125 -55.5q30 0 59.5 10.5 t61.5 32.5zM255 0h37l-48 -59q32 -8 49 -24.5t17 -39.5q0 -33 -32.5 -59t-90.5 -40l-15 29q32 7 49 22.5t17 37.5q0 18 -15 30t-44 17z" />
<glyph unicode="&#xe8;" horiz-adv-x="487" d="M454 273h-238q-28 0 -51.5 -1t-43.5 -3v-18q0 -96 44 -148t125 -52q36 0 70.5 12t73.5 37l19 -31q-50 -41 -100 -62t-99 -21q-95 0 -156.5 67.5t-61.5 173.5q0 113 64.5 189.5t157.5 76.5q86 0 137.5 -57.5t58.5 -162.5zM364 324q-15 60 -44.5 92t-71.5 32 q-47 0 -80.5 -37.5t-43.5 -101.5q97 0 152.5 3.5t87.5 11.5zM189 757l129 -198l-37 -12l-164 166z" />
<glyph unicode="&#xe9;" horiz-adv-x="487" d="M454 273h-238q-28 0 -51.5 -1t-43.5 -3v-18q0 -96 44 -148t125 -52q36 0 70.5 12t73.5 37l19 -31q-50 -41 -100 -62t-99 -21q-95 0 -156.5 67.5t-61.5 173.5q0 113 64.5 189.5t157.5 76.5q86 0 137.5 -57.5t58.5 -162.5zM364 324q-15 60 -44.5 92t-71.5 32 q-47 0 -80.5 -37.5t-43.5 -101.5q97 0 152.5 3.5t87.5 11.5zM301 757l73 -47l-163 -163l-37 13z" />
<glyph unicode="&#xea;" horiz-adv-x="487" d="M454 273h-238q-28 0 -51.5 -1t-43.5 -3v-18q0 -96 44 -148t125 -52q36 0 70.5 12t73.5 37l19 -31q-50 -41 -100 -62t-99 -21q-95 0 -156.5 67.5t-61.5 173.5q0 113 64.5 189.5t157.5 76.5q86 0 137.5 -57.5t58.5 -162.5zM364 324q-15 60 -44.5 92t-71.5 32 q-47 0 -80.5 -37.5t-43.5 -101.5q97 0 152.5 3.5t87.5 11.5zM230 719h30l133 -157l-30 -15l-119 99l-119 -99l-29 15z" />
<glyph unicode="&#xeb;" horiz-adv-x="487" d="M454 273h-238q-28 0 -51.5 -1t-43.5 -3v-18q0 -96 44 -148t125 -52q36 0 70.5 12t73.5 37l19 -31q-50 -41 -100 -62t-99 -21q-95 0 -156.5 67.5t-61.5 173.5q0 113 64.5 189.5t157.5 76.5q86 0 137.5 -57.5t58.5 -162.5zM364 324q-15 60 -44.5 92t-71.5 32 q-47 0 -80.5 -37.5t-43.5 -101.5q97 0 152.5 3.5t87.5 11.5zM348 689q19 0 40.5 -19.5t21.5 -37.5t-21.5 -37.5t-40.5 -19.5q-20 0 -40.5 19.5t-20.5 37.5t21 37.5t40 19.5zM140 689q19 0 40 -19.5t21 -37.5t-21 -37.5t-40 -19.5q-20 0 -40.5 19.5t-20.5 37.5t21 37.5 t40 19.5z" />
<glyph unicode="&#xec;" horiz-adv-x="296" d="M193 499q0 -19 -2 -53q-6 -196 -6 -276v-52q0 -56 10.5 -70t42.5 -14h10h5v-34q-42 3 -67 4t-43 1q-16 0 -40 -1t-72 -4v34h12q61 0 61 119v27l2 121q0 13 0.5 33t0.5 27q0 40 -7.5 52.5t-27.5 12.5q-4 0 -11.5 -1t-16.5 -2l-5 31q39 7 77 18.5t77 26.5zM94 757l129 -198 l-37 -12l-164 166z" />
<glyph unicode="&#xed;" horiz-adv-x="296" d="M193 499q0 -19 -2 -53q-6 -196 -6 -276v-52q0 -56 10.5 -70t42.5 -14h10h5v-34q-42 3 -67 4t-43 1q-16 0 -40 -1t-72 -4v34h12q61 0 61 119v27l2 121q0 13 0.5 33t0.5 27q0 40 -7.5 52.5t-27.5 12.5q-4 0 -11.5 -1t-16.5 -2l-5 31q39 7 77 18.5t77 26.5zM206 757l73 -47 l-163 -163l-37 13z" />
<glyph unicode="&#xee;" horiz-adv-x="296" d="M193 499q0 -19 -2 -53q-6 -196 -6 -276v-52q0 -56 10.5 -70t42.5 -14h10h5v-34q-42 3 -67 4t-43 1q-16 0 -40 -1t-72 -4v34h12q61 0 61 119v27l2 121q0 13 0.5 33t0.5 27q0 40 -7.5 52.5t-27.5 12.5q-4 0 -11.5 -1t-16.5 -2l-5 31q39 7 77 18.5t77 26.5zM135 719h30 l133 -157l-30 -15l-119 99l-119 -99l-29 15z" />
<glyph unicode="&#xef;" horiz-adv-x="296" d="M193 499q0 -19 -2 -53q-6 -196 -6 -276v-52q0 -56 10.5 -70t42.5 -14h10h5v-34q-42 3 -67 4t-43 1q-16 0 -40 -1t-72 -4v34h12q61 0 61 119v27l2 121q0 13 0.5 33t0.5 27q0 40 -7.5 52.5t-27.5 12.5q-4 0 -11.5 -1t-16.5 -2l-5 31q39 7 77 18.5t77 26.5zM253 689 q19 0 40.5 -19.5t21.5 -37.5t-21.5 -37.5t-40.5 -19.5q-20 0 -40.5 19.5t-20.5 37.5t21 37.5t40 19.5zM45 689q19 0 40 -19.5t21 -37.5t-21 -37.5t-40 -19.5q-20 0 -40.5 19.5t-20.5 37.5t21 37.5t40 19.5z" />
<glyph unicode="&#xf0;" horiz-adv-x="550" d="M404 409q-31 18 -59.5 27t-54.5 9q-83 0 -126.5 -48.5t-43.5 -140.5q0 -100 44.5 -160.5t117.5 -60.5q69 0 109.5 55t40.5 151q0 41 -7 83.5t-21 84.5zM203 762q30 -19 57 -38.5t53 -41.5q21 14 45.5 31.5t54.5 40.5l24 -37q-17 -11 -36.5 -24.5t-57.5 -40.5 q89 -89 133 -183.5t44 -198.5q0 -123 -70 -203t-175 -80t-173.5 70.5t-68.5 177.5t74.5 182.5t182.5 75.5q27 0 51 -5t47 -16q-21 40 -47 75t-58 67q-40 -26 -62 -41t-41 -29l-23 35q19 11 41.5 26t56.5 38q-31 27 -62 51t-63 45z" />
<glyph unicode="&#xf1;" horiz-adv-x="583" d="M184 499l-6 -82q55 40 96 58t75 18q72 0 108 -40.5t36 -121.5l-1 -43v-85q0 -18 -0.5 -45t-0.5 -37q0 -55 10 -71.5t37 -16.5q1 0 5.5 0.5t6.5 0.5v-34q-44 3 -66.5 4t-37.5 1q-23 0 -50.5 -1.5t-56.5 -3.5v34h7q62 0 64 114v10l1 105v18q0 90 -21 119.5t-72 29.5 q-28 0 -62.5 -13.5t-73.5 -39.5q-2 -51 -3 -96t-1 -82v-67q0 -64 9.5 -81.5t37.5 -17.5q2 0 6 0.5t7 0.5v-34q-42 3 -66.5 4t-39.5 1t-39 -1t-67 -4v34h9q61 0 62 119v27l1 120v48q0 48 -7.5 63t-26.5 15q-4 0 -10 -1t-13 -3l-6 30q37 7 73.5 18.5t75.5 28.5zM453 707 l26 -21q-26 -34 -52.5 -58t-56.5 -42q-35 2 -85 10t-65 8q-29 0 -52 -11.5t-42 -35.5l-24 23q25 33 53.5 58t61.5 42q35 -3 85 -11t66 -8q25 0 46 11.5t39 34.5z" />
<glyph unicode="&#xf2;" horiz-adv-x="550" d="M268 442q-65 0 -105 -47.5t-40 -128.5q0 -103 44 -167t115 -64q68 0 109 51t41 138q0 96 -46 157t-118 61zM281 493q103 0 170.5 -69t67.5 -171q0 -112 -71.5 -189t-175.5 -77t-171.5 70t-67.5 178q0 107 73 182.5t175 75.5zM221 757l129 -198l-37 -12l-164 166z" />
<glyph unicode="&#xf3;" horiz-adv-x="550" d="M268 442q-65 0 -105 -47.5t-40 -128.5q0 -103 44 -167t115 -64q68 0 109 51t41 138q0 96 -46 157t-118 61zM281 493q103 0 170.5 -69t67.5 -171q0 -112 -71.5 -189t-175.5 -77t-171.5 70t-67.5 178q0 107 73 182.5t175 75.5zM333 757l73 -47l-163 -163l-37 13z" />
<glyph unicode="&#xf4;" horiz-adv-x="550" d="M268 442q-65 0 -105 -47.5t-40 -128.5q0 -103 44 -167t115 -64q68 0 109 51t41 138q0 96 -46 157t-118 61zM281 493q103 0 170.5 -69t67.5 -171q0 -112 -71.5 -189t-175.5 -77t-171.5 70t-67.5 178q0 107 73 182.5t175 75.5zM262 719h30l133 -157l-30 -15l-119 99 l-119 -99l-29 15z" />
<glyph unicode="&#xf5;" horiz-adv-x="550" d="M268 442q-65 0 -105 -47.5t-40 -128.5q0 -103 44 -167t115 -64q68 0 109 51t41 138q0 96 -46 157t-118 61zM281 493q103 0 170.5 -69t67.5 -171q0 -112 -71.5 -189t-175.5 -77t-171.5 70t-67.5 178q0 107 73 182.5t175 75.5zM437 707l26 -21q-26 -34 -52.5 -58t-56.5 -42 q-35 2 -85 10t-65 8q-29 0 -52 -11.5t-42 -35.5l-24 23q25 33 53.5 58t61.5 42q35 -3 85 -11t66 -8q25 0 46 11.5t39 34.5z" />
<glyph unicode="&#xf6;" horiz-adv-x="550" d="M268 442q-65 0 -105 -47.5t-40 -128.5q0 -103 44 -167t115 -64q68 0 109 51t41 138q0 96 -46 157t-118 61zM281 493q103 0 170.5 -69t67.5 -171q0 -112 -71.5 -189t-175.5 -77t-171.5 70t-67.5 178q0 107 73 182.5t175 75.5zM380 689q19 0 40.5 -19.5t21.5 -37.5 t-21.5 -37.5t-40.5 -19.5q-20 0 -40.5 19.5t-20.5 37.5t21 37.5t40 19.5zM172 689q19 0 40 -19.5t21 -37.5t-21 -37.5t-40 -19.5q-20 0 -40.5 19.5t-20.5 37.5t21 37.5t40 19.5z" />
<glyph unicode="&#xf7;" horiz-adv-x="833" d="M417 178q23 0 39.5 -16.5t16.5 -39.5t-16.5 -39.5t-39.5 -16.5t-39.5 16.5t-16.5 39.5t16.5 39.5t39.5 16.5zM124 327h585v-57h-585v57zM417 530q23 0 39.5 -16.5t16.5 -39.5t-16.5 -39.5t-39.5 -16.5q-24 0 -40 16.5t-16 39.5t16.5 39.5t39.5 16.5z" />
<glyph unicode="&#xf8;" horiz-adv-x="550" d="M384 391l-201 -312q17 -22 43 -34t57 -12q70 0 111.5 51t41.5 140q0 46 -13.5 90t-38.5 77zM357 416q-20 15 -42 22t-47 7q-69 0 -109 -49.5t-40 -136.5q0 -44 10.5 -83t30.5 -69zM444 556l30 -18l-55 -88q48 -35 74 -86.5t26 -110.5q0 -112 -71.5 -189t-175.5 -77 q-39 0 -69 8t-55 25l-54 -85l-28 18l54 87q-42 35 -64.5 86t-22.5 109q0 109 74 183.5t181 74.5q26 0 51 -6t50 -18z" />
<glyph unicode="&#xf9;" horiz-adv-x="587" d="M179 494q-3 -96 -5 -168t-2 -100q0 -104 21.5 -139t73.5 -35q26 0 57.5 12.5t72.5 38.5q1 75 2 124t1 72v33q0 62 -10.5 77.5t-39.5 15.5q-5 0 -10.5 -0.5t-11.5 -0.5l-3 31q42 3 82 9.5t79 15.5q-3 -83 -4.5 -148.5t-1.5 -114.5q0 -20 -0.5 -50t-0.5 -40q0 -45 8 -59.5 t29 -14.5q5 0 11.5 1t17.5 4l4 -30l-149 -38l-2 73q-53 -40 -92.5 -58.5t-72.5 -18.5q-67 0 -104.5 38.5t-37.5 107.5q0 18 1 74q0 23 1 36l1 55q0 14 0.5 35t0.5 29q0 42 -7 55.5t-26 13.5q-6 0 -13.5 -1t-16.5 -2l-3 32q35 6 72 14.5t78 20.5zM239 757l129 -198l-37 -12 l-164 166z" />
<glyph unicode="&#xfa;" horiz-adv-x="587" d="M179 494q-3 -96 -5 -168t-2 -100q0 -104 21.5 -139t73.5 -35q26 0 57.5 12.5t72.5 38.5q1 75 2 124t1 72v33q0 62 -10.5 77.5t-39.5 15.5q-5 0 -10.5 -0.5t-11.5 -0.5l-3 31q42 3 82 9.5t79 15.5q-3 -83 -4.5 -148.5t-1.5 -114.5q0 -20 -0.5 -50t-0.5 -40q0 -45 8 -59.5 t29 -14.5q5 0 11.5 1t17.5 4l4 -30l-149 -38l-2 73q-53 -40 -92.5 -58.5t-72.5 -18.5q-67 0 -104.5 38.5t-37.5 107.5q0 18 1 74q0 23 1 36l1 55q0 14 0.5 35t0.5 29q0 42 -7 55.5t-26 13.5q-6 0 -13.5 -1t-16.5 -2l-3 32q35 6 72 14.5t78 20.5zM351 757l73 -47l-163 -163 l-37 13z" />
<glyph unicode="&#xfb;" horiz-adv-x="587" d="M179 494q-3 -96 -5 -168t-2 -100q0 -104 21.5 -139t73.5 -35q26 0 57.5 12.5t72.5 38.5q1 75 2 124t1 72v33q0 62 -10.5 77.5t-39.5 15.5q-5 0 -10.5 -0.5t-11.5 -0.5l-3 31q42 3 82 9.5t79 15.5q-3 -83 -4.5 -148.5t-1.5 -114.5q0 -20 -0.5 -50t-0.5 -40q0 -45 8 -59.5 t29 -14.5q5 0 11.5 1t17.5 4l4 -30l-149 -38l-2 73q-53 -40 -92.5 -58.5t-72.5 -18.5q-67 0 -104.5 38.5t-37.5 107.5q0 18 1 74q0 23 1 36l1 55q0 14 0.5 35t0.5 29q0 42 -7 55.5t-26 13.5q-6 0 -13.5 -1t-16.5 -2l-3 32q35 6 72 14.5t78 20.5zM280 719h30l133 -157 l-30 -15l-119 99l-119 -99l-29 15z" />
<glyph unicode="&#xfc;" horiz-adv-x="587" d="M179 494q-3 -96 -5 -168t-2 -100q0 -104 21.5 -139t73.5 -35q26 0 57.5 12.5t72.5 38.5q1 75 2 124t1 72v33q0 62 -10.5 77.5t-39.5 15.5q-5 0 -10.5 -0.5t-11.5 -0.5l-3 31q42 3 82 9.5t79 15.5q-3 -83 -4.5 -148.5t-1.5 -114.5q0 -20 -0.5 -50t-0.5 -40q0 -45 8 -59.5 t29 -14.5q5 0 11.5 1t17.5 4l4 -30l-149 -38l-2 73q-53 -40 -92.5 -58.5t-72.5 -18.5q-67 0 -104.5 38.5t-37.5 107.5q0 18 1 74q0 23 1 36l1 55q0 14 0.5 35t0.5 29q0 42 -7 55.5t-26 13.5q-6 0 -13.5 -1t-16.5 -2l-3 32q35 6 72 14.5t78 20.5zM398 689q19 0 40.5 -19.5 t21.5 -37.5t-21.5 -37.5t-40.5 -19.5q-20 0 -40.5 19.5t-20.5 37.5t21 37.5t40 19.5zM190 689q19 0 40 -19.5t21 -37.5t-21 -37.5t-40 -19.5q-20 0 -40.5 19.5t-20.5 37.5t21 37.5t40 19.5z" />
<glyph unicode="&#xfd;" horiz-adv-x="485" d="M0 479q37 -2 59 -3.5t37 -1.5t37.5 1t63.5 4v-34h-13q-24 0 -34 -6.5t-10 -23.5q0 -13 43 -129q41 -110 68 -186q68 161 95.5 232.5t27.5 85.5t-10.5 20.5t-35.5 6.5h-7v34q22 -2 43 -3t41 -1q16 0 37 1t45 3v-34h-4q-16 0 -27 -7t-19 -23q-1 -2 -8 -19 q-52 -120 -111 -251q-29 -66 -75 -173q-98 -231 -150 -232q-20 0 -33 13t-13 32q0 27 37 34q15 2 22 5q27 11 79 124q14 32 22 50q-34 87 -83 223q-82 225 -116 225q-3 0 -5 -0.5t-3 -0.5v34zM300 757l73 -47l-163 -163l-37 13z" />
<glyph unicode="&#xfe;" horiz-adv-x="560" d="M168 71q29 -14 58.5 -22t55.5 -8q72 0 113.5 47.5t41.5 132.5q0 92 -40.5 147t-106.5 55q-28 0 -59 -9.5t-60 -26.5q-2 -71 -3 -134.5t-1 -116.5q0 -10 0.5 -31.5t0.5 -33.5zM172 755q-2 -97 -3.5 -172.5t-1.5 -139.5v-18q51 33 88.5 47t72.5 14q81 0 135.5 -64.5 t54.5 -159.5q0 -124 -69 -194t-191 -70q-22 0 -45.5 4.5t-45.5 13.5v-174q0 -58 84 -59h1v-34q-34 2 -64.5 3t-54.5 1q-16 0 -42 -1t-78 -4v33q31 1 42.5 5t17.5 12q7 13 10.5 52t3.5 154v50l2 504v85q0 21 -9 31t-27 10q-7 0 -22 -3q-4 -1 -6 -1l-7 32q41 7 79 17.5 t75 25.5z" />
<glyph unicode="&#xff;" horiz-adv-x="485" d="M0 479q37 -2 59 -3.5t37 -1.5t37.5 1t63.5 4v-34h-13q-24 0 -34 -6.5t-10 -23.5q0 -13 43 -129q41 -110 68 -186q68 161 95.5 232.5t27.5 85.5t-10.5 20.5t-35.5 6.5h-7v34q22 -2 43 -3t41 -1q16 0 37 1t45 3v-34h-4q-16 0 -27 -7t-19 -23q-1 -2 -8 -19 q-52 -120 -111 -251q-29 -66 -75 -173q-98 -231 -150 -232q-20 0 -33 13t-13 32q0 27 37 34q15 2 22 5q27 11 79 124q14 32 22 50q-34 87 -83 223q-82 225 -116 225q-3 0 -5 -0.5t-3 -0.5v34zM347 689q19 0 40.5 -19.5t21.5 -37.5t-21.5 -37.5t-40.5 -19.5q-20 0 -40.5 19.5 t-20.5 37.5t21 37.5t40 19.5zM139 689q19 0 40 -19.5t21 -37.5t-21 -37.5t-40 -19.5q-20 0 -40.5 19.5t-20.5 37.5t21 37.5t40 19.5z" />
<glyph unicode="&#x131;" horiz-adv-x="296" d="M193 499q0 -19 -2 -53q-6 -196 -6 -276v-52q0 -56 10.5 -70t42.5 -14h10h5v-34q-42 3 -67 4t-43 1q-16 0 -40 -1t-72 -4v34h12q61 0 61 119v27l2 121q0 13 0.5 33t0.5 27q0 40 -7.5 52.5t-27.5 12.5q-4 0 -11.5 -1t-16.5 -2l-5 31q39 7 77 18.5t77 26.5z" />
<glyph unicode="&#x152;" horiz-adv-x="1085" d="M619 315q0 161 -62 251.5t-171 90.5q-107 0 -173 -79.5t-66 -212.5q0 -144 74 -235t189 -91q94 0 151.5 75.5t57.5 200.5zM999 698v-19q0 -37 2.5 -70t7.5 -65l-35 -4q-6 51 -27 70.5t-94 25.5q-45 4 -208 6q-54 0 -83 1q70 -50 109.5 -116t47.5 -148h17h9q29 -1 54 -1 q103 0 125 13.5t23 51.5l32 -2q-4 -36 -5.5 -59t-1.5 -40q0 -15 3 -58q1 -14 1 -22l-32 -2v2q0 40 -26 54.5t-120 14.5h-59h-19q-2 -91 -39.5 -161t-110.5 -119q7 0 61 0.5t101 0.5h51q86 0 119 4.5t50 14.5q19 11 33.5 33.5t26.5 58.5l35 -11q-15 -41 -25.5 -79t-17.5 -75 q-69 3 -148 5t-168 2q-83 0 -177.5 -9.5t-108.5 -9.5q-158 0 -259.5 101.5t-101.5 257.5q0 155 104 258t266 103q5 0 123 -8.5t232 -8.5q93 0 144 2t89 7z" />
<glyph unicode="&#x153;" horiz-adv-x="876" d="M512 309q97 0 152.5 3.5t87.5 11.5q-15 60 -44.5 92t-71.5 32q-47 0 -80.5 -37.5t-43.5 -101.5zM123 258q0 -98 44.5 -160.5t114.5 -62.5q68 0 109 51t41 138q0 96 -46 157t-118 61q-67 0 -106 -49t-39 -135zM464 88q-38 -50 -87.5 -76t-106.5 -26q-104 0 -170.5 70.5 t-66.5 178.5q0 107 73 182.5t174 75.5q63 0 110.5 -25t83.5 -77q30 48 76 75t96 27q86 0 137 -57.5t59 -162.5h-238q-28 0 -51.5 -1t-43.5 -3v-18q0 -96 44.5 -148t124.5 -52q36 0 71.5 12t73.5 37l18 -31q-49 -41 -99.5 -62t-98.5 -21q-56 0 -101.5 26t-77.5 76z" />
<glyph unicode="&#x178;" horiz-adv-x="659" d="M9 697q36 -2 67.5 -3t56.5 -1q26 0 56.5 1t63.5 3v-34h-7q-27 0 -41 -5.5t-14 -16.5q0 -12 24 -53q6 -11 10 -17l118 -210q80 128 120 198t40 81q0 12 -12 17.5t-39 5.5h-8v34q29 -2 55.5 -3t46.5 -1q25 0 51 1t53 3v-34q-1 0 -2.5 0.5t-4.5 0.5h-6q-43 0 -113 -111 q-21 -35 -34 -55l-123 -188l2 -174q1 -68 15.5 -85t58.5 -17h17v-34q-41 2 -77 3t-65 1q-24 0 -60.5 -1t-79.5 -3v34q3 0 10 -0.5t10 -0.5q42 0 57.5 19.5t16.5 81.5l2 173l-158 266q-4 6 -11 19q-43 73 -79 73q-2 0 -6 -0.5t-11 -1.5v34zM434 909q19 0 40.5 -19.5 t21.5 -37.5t-21.5 -37.5t-40.5 -19.5q-20 0 -40.5 19.5t-20.5 37.5t21 37.5t40 19.5zM226 909q19 0 40 -19.5t21 -37.5t-21 -37.5t-40 -19.5q-20 0 -40.5 19.5t-20.5 37.5t21 37.5t40 19.5z" />
<glyph unicode="&#x2c6;" horiz-adv-x="500" d="M236 719h30l133 -157l-30 -15l-119 99l-119 -99l-29 15z" />
<glyph unicode="&#x2dc;" horiz-adv-x="500" d="M411 707l26 -21q-26 -34 -52.5 -58t-56.5 -42q-35 2 -85 10t-65 8q-29 0 -52 -11.5t-42 -35.5l-24 23q25 33 53.5 58t61.5 42q35 -3 85 -11t66 -8q25 0 46 11.5t39 34.5z" />
<glyph unicode="&#x2013;" horiz-adv-x="500" d="M17 272h483l-17 -53h-483z" />
<glyph unicode="&#x2014;" horiz-adv-x="1000" d="M17 272h983l-17 -53h-983z" />
<glyph unicode="&#x2018;" horiz-adv-x="277" d="M193 729l27 -32q-33 -25 -52.5 -54.5t-28.5 -64.5q27 -18 37.5 -29.5t10.5 -24.5q0 -10 -6.5 -19.5t-28.5 -27.5l-29 -23q-40 30 -53 48.5t-13 40.5q0 36 37 87t99 99z" />
<glyph unicode="&#x2019;" horiz-adv-x="277" d="M143 712q41 -31 53.5 -49t12.5 -40q0 -36 -37 -87t-99 -99l-26 32q32 25 51.5 54t28.5 65q-26 17 -37 29t-11 25q0 10 6.5 19t29.5 28z" />
<glyph unicode="&#x201a;" horiz-adv-x="277" d="M135 123q41 -31 53 -49t12 -40q0 -36 -36.5 -87t-98.5 -99l-27 32q32 25 52 54.5t29 64.5q-28 17 -38.5 29.5t-10.5 24.5q0 9 6.5 18.5t29.5 28.5z" />
<glyph unicode="&#x201c;" horiz-adv-x="474" d="M390 729l26 -32q-32 -25 -52 -53.5t-29 -65.5q29 -18 39 -29.5t10 -24.5q0 -10 -6.5 -19t-29.5 -28l-29 -23q-39 30 -52 48.5t-13 40.5q0 36 37 87t99 99zM193 729l26 -32q-32 -25 -51.5 -54t-28.5 -65q27 -18 37.5 -29.5t10.5 -24.5q0 -10 -6.5 -19t-29.5 -28l-28 -23 q-40 30 -53 48.5t-13 40.5q0 36 37 87t99 99z" />
<glyph unicode="&#x201d;" horiz-adv-x="474" d="M340 712q40 -30 52.5 -48.5t12.5 -40.5q0 -36 -36.5 -87t-98.5 -99l-27 32q32 25 51.5 54t29.5 65q-28 17 -38.5 29t-10.5 25q0 10 6.5 19t29.5 28zM143 712q41 -31 53.5 -49t12.5 -40q0 -36 -37 -87t-99 -99l-26 32q32 25 51.5 54t28.5 65q-26 17 -37 29t-11 25 q0 10 6.5 19t29.5 28z" />
<glyph unicode="&#x201e;" horiz-adv-x="474" d="M331 123q41 -31 53.5 -49t12.5 -40q0 -36 -37 -87t-99 -99l-26 32q33 25 52.5 54.5t28.5 64.5q-27 17 -38 29.5t-11 24.5q0 9 6.5 18.5t29.5 28.5zM135 123q41 -31 53 -49t12 -40q0 -36 -36.5 -87t-98.5 -99l-27 32q32 25 52 54.5t29 64.5q-28 17 -38.5 29.5t-10.5 24.5 q0 9 6.5 18.5t29.5 28.5z" />
<glyph unicode="&#x2022;" horiz-adv-x="589" d="M150 372q0 60 42.5 102t102.5 42t102 -42t42 -102t-42.5 -102.5t-102.5 -42.5t-102 42.5t-42 102.5z" />
<glyph unicode="&#x2026;" horiz-adv-x="1000" d="M158 127l39 -29q16 -12 23.5 -22t7.5 -19q0 -12 -6.5 -21.5t-22.5 -21.5l-38 -28l-36 28q-18 13 -24.5 22.5t-6.5 20.5q0 9 5 17.5t24 23.5zM491 127l39 -29q16 -12 23.5 -22t7.5 -19q0 -12 -6.5 -21.5t-22.5 -21.5l-38 -28l-36 28q-18 13 -24.5 22.5t-6.5 20.5 q0 9 5 17.5t24 23.5zM825 127l39 -29q16 -12 23.5 -22t7.5 -19q0 -12 -6.5 -21.5t-22.5 -21.5l-38 -28l-36 28q-18 13 -24.5 22.5t-6.5 20.5q0 9 5 17.5t24 23.5z" />
<glyph unicode="&#x2039;" horiz-adv-x="265" d="M178 53q-37 53 -72.5 98.5t-72.5 85.5q39 44 75.5 91t70.5 98l37 -22q-22 -41 -43.5 -82t-41.5 -83q21 -44 42 -85t43 -80z" />
<glyph unicode="&#x203a;" horiz-adv-x="265" d="M86 426q31 -46 67 -92t79 -93q-39 -44 -75.5 -91t-70.5 -98l-37 22q27 50 47.5 90.5t37.5 74.5q-23 50 -44 90t-41 76z" />
<glyph unicode="&#x20ac;" d="M542 163q-12 -32 -21.5 -64.5t-16.5 -64.5q-42 -25 -77.5 -36.5t-73.5 -11.5q-105 0 -177 78t-88 210h-6q-11 0 -40 -1q-17 0 -28 -1l12 36q18 0 29 -0.5t22 -0.5h8q0 7 -0.5 15t-0.5 24q0 15 0.5 30.5t2.5 29.5h-5q-11 0 -40 -1q-18 0 -28 -1l12 36q17 0 28 -0.5 t23 -0.5h15q22 123 96 195t178 72q33 0 68.5 -8.5t84.5 -27.5v-17q0 -29 1.5 -64t5.5 -78l-26 -5q-8 72 -45.5 109.5t-103.5 37.5q-72 0 -117 -55.5t-57 -158.5h139h73.5t56.5 1l-12 -36q-52 1 -103 1.5t-89 0.5h-68q0 -7 -0.5 -15.5t-0.5 -25.5q0 -25 0.5 -37t1.5 -21h141 q24 0 46 0.5t45 0.5l-12 -36h-32q-73 1 -121 2h-63q16 -108 66.5 -171.5t119.5 -63.5q53 0 90 34t62 106z" />
<glyph unicode="&#x2122;" horiz-adv-x="821" d="M385 702h89l69 -195l72 195h85v-12l-14 -1q-11 -1 -17 -7.5t-6 -18.5v-182q0 -12 6 -18.5t17 -7.5l14 -1v-13h-115v13l15 1q10 1 16 8t6 18v193l-87 -234h-7l-85 234v-193q0 -11 6 -18t17 -8l15 -1v-13h-96v13l16 1q10 1 16 8t6 18v181q0 11 -6 18t-17 8l-15 1v13z M125 702h215l5 -87h-12q-4 39 -20 56.5t-47 17.5h-10v-208q0 -11 6 -18t16 -8l15 -1v-13h-121v13l15 1q10 0 16 7.5t6 18.5v208h-10q-31 0 -47 -17.5t-20 -56.5h-13z" />
<glyph unicode="&#x25fc;" horiz-adv-x="478" d="M0 479h479v-479h-479v479z" />
</font>
</defs>
</svg>
