<?xml version="1.0" standalone="no"?>
<!DOCTYPE svg PUBLIC "-//W3C//DTD SVG 1.1//EN" "http://www.w3.org/Graphics/SVG/1.1/DTD/svg11.dtd" >
<svg xmlns="http://www.w3.org/2000/svg" xmlns:xlink="http://www.w3.org/1999/xlink" version="1.1">
<metadata></metadata>
<defs>
<font id="iowanoldst_btbold" horiz-adv-x="594" >
<font-face units-per-em="1000" ascent="760" descent="-240" />
<missing-glyph horiz-adv-x="296" />
<glyph horiz-adv-x="0" />
<glyph unicode="&#xd;" horiz-adv-x="296" />
<glyph unicode=" "  horiz-adv-x="296" />
<glyph unicode="&#x09;" horiz-adv-x="296" />
<glyph unicode="&#xa0;" horiz-adv-x="296" />
<glyph unicode="!" horiz-adv-x="339" d="M155 140l44 -30q16 -11 24.5 -23.5t8.5 -26.5q0 -15 -6.5 -25.5t-22.5 -21.5l-47 -32l-44 29q-17 12 -26 24t-9 26q0 15 7 26t25 23zM99 697h133q0 -101 -29 -334q-13 -107 -19 -164h-53q-3 105 -11 231t-21 267z" />
<glyph unicode="&#x22;" horiz-adv-x="338" d="M242 418l-36 224q0 4 -0.5 8t-0.5 11q0 25 12.5 39t34.5 14t34.5 -13.5t12.5 -38.5q0 -6 -2 -17v-3l-36 -224h-19zM78 418l-36 224q0 3 -0.5 7.5t-0.5 11.5q0 25 12 39t34 14q23 0 35 -13.5t12 -39.5q0 -8 -0.5 -12t-0.5 -7l-36 -224h-19z" />
<glyph unicode="#" horiz-adv-x="615" d="M388 407h-70h-50l-40 -122q12 0 22.5 -0.5t20.5 -0.5q17 0 63 2h16zM294 691h64q-21 -66 -38 -119t-31 -98q8 0 22.5 -0.5t20.5 -0.5h14q22 0 35.5 0.5t26.5 0.5q24 71 39.5 122t27.5 95h64l-68 -217q9 0 19.5 -0.5t31.5 -0.5q24 0 36 0.5t22 1.5l-22 -72q-27 2 -53 3 t-55 1l-40 -122q8 0 24 -0.5t24 -0.5q12 0 25.5 0.5t38.5 1.5l-22 -70q-21 1 -41.5 2t-41.5 1h-27l-66 -219h-65q20 61 42.5 134t26.5 85h-120q-16 -53 -46 -156q-13 -42 -19 -63h-68l71 219h-29q-15 0 -31 -0.5t-45 -1.5l22 71q21 -1 38.5 -1.5t34.5 -0.5h32l39 121 q-27 0 -53.5 -0.5t-53.5 -1.5l21 72q31 -1 48 -1.5t31 -0.5h28z" />
<glyph unicode="$" d="M270 590q-39 -6 -61 -28t-22 -54q0 -29 20 -49.5t63 -36.5v168zM320 287l1 -186q40 8 63 35t23 64q0 29 -21 50t-66 37zM266 747h61l-2 -101q74 -2 116 -23t42 -56q0 -20 -13.5 -34.5t-31.5 -14.5q-16 0 -48 33.5t-66 38.5l-2 -186q102 -33 141 -72t39 -101 q0 -69 -48.5 -119.5t-129.5 -64.5v-103h-62l3 99q-85 3 -134 28.5t-49 66.5q0 21 14 36t33 15q22 0 47 -34q7 -10 11 -15q17 -21 36 -31t42 -11l3 205q-99 30 -140 69t-41 100q0 65 50.5 113.5t129.5 57.5z" />
<glyph unicode="%" horiz-adv-x="917" d="M695 343q-33 0 -50 -35t-17 -103q0 -85 20 -129.5t58 -44.5q36 0 53.5 33t17.5 101q0 91 -20 134.5t-62 43.5zM703 391q81 0 127 -53.5t46 -147.5q0 -91 -48.5 -148.5t-123.5 -57.5q-81 0 -127.5 53.5t-46.5 145.5q0 90 49.5 149t123.5 59zM207 663q-33 0 -50 -35.5 t-17 -104.5q0 -83 20.5 -127.5t58.5 -44.5q36 0 53.5 33.5t17.5 102.5q0 89 -20.5 132.5t-62.5 43.5zM639 715l54 -23q-144 -243 -241 -409.5t-176 -305.5l-54 21l395 675q-42 -31 -83.5 -47.5t-79.5 -16.5q-21 0 -45.5 5.5t-50.5 15.5q15 -25 22 -55t7 -63q0 -89 -51 -148 t-127 -59t-121 53t-45 141q0 95 50.5 153t133.5 58q15 0 33 -4t38 -13q44 -16 84 -24t72 -8q43 0 91 14t94 40z" />
<glyph unicode="&#x26;" horiz-adv-x="856" d="M351 420q35 26 54 62t19 77q0 40 -24.5 66t-61.5 26q-32 0 -53.5 -22.5t-21.5 -56.5q0 -31 22 -69.5t66 -82.5zM456 125l-188 222q-48 -20 -71 -50t-23 -72q0 -63 45.5 -109.5t106.5 -46.5q31 0 64 14t66 42zM490 86q-56 -51 -112.5 -77.5t-108.5 -26.5q-94 0 -154 57 t-60 144q0 72 45.5 122.5t136.5 77.5q-39 36 -59 74t-20 79q0 72 56.5 122t140.5 50q70 0 113.5 -37.5t43.5 -96.5q0 -58 -33 -104.5t-99 -80.5l159 -182q46 51 75 107.5t29 88.5q0 10 -4 17.5t-11 11.5q-6 3 -17 4.5t-28 1.5v44q12 0 35 -2q60 -4 80 -4q19 0 47.5 1.5 t64.5 4.5v-44h-16q-26 0 -40.5 -9.5t-31.5 -43.5q-35 -71 -70.5 -124t-76.5 -92l21 -24q39 -44 64.5 -60t50.5 -16q21 0 45 13.5t48 37.5l28 -27q-38 -55 -82.5 -83t-94.5 -28q-40 0 -76.5 22.5t-88.5 81.5z" />
<glyph unicode="'" horiz-adv-x="174" d="M78 418l-36 224q0 3 -0.5 7.5t-0.5 11.5q0 25 12 39t34 14q23 0 35 -13.5t12 -39.5q0 -8 -0.5 -12t-0.5 -7l-36 -224h-19z" />
<glyph unicode="(" horiz-adv-x="453" d="M382 767l42 -29q-90 -100 -135 -212.5t-45 -240.5q0 -124 45.5 -234t137.5 -208l-42 -33q-128 101 -192.5 221.5t-64.5 257.5q0 138 64.5 258.5t189.5 219.5z" />
<glyph unicode=")" horiz-adv-x="453" d="M70 767q127 -101 191 -219.5t64 -252.5q0 -142 -64 -263t-191 -222l-43 32q92 100 137 209.5t45 232.5q0 129 -45 242.5t-135 210.5z" />
<glyph unicode="*" horiz-adv-x="501" d="M251 715l47 -28q-15 -42 -22.5 -67.5t-7.5 -34.5q0 -4 2 -7.5t5 -3.5q12 0 52 45q19 22 31 35l47 -27l1 -54q-16 -3 -42 -9q-69 -15 -69 -28t73 -29q24 -5 38 -8l-1 -54l-47 -27q-12 13 -31 35q-40 45 -50 45q-4 0 -6.5 -3t-2.5 -8q0 -9 7.5 -35.5t22.5 -67.5l-47 -27 l-46 27q3 10 9 29q21 64 21 74q0 5 -2.5 8t-6.5 3q-10 0 -48 -43q-20 -23 -33 -37l-48 27v54q8 2 24 5q87 19 87 32t-71 28q-26 6 -40 9v54l48 27q11 -12 28 -31q42 -48 54 -49q4 0 6 3.5t2 10.5q0 6 -21 70q-6 19 -9 30z" />
<glyph unicode="+" horiz-adv-x="833" d="M458 596v-257h251v-81h-251v-258h-83v258h-251v81h251v257h83z" />
<glyph unicode="," horiz-adv-x="296" d="M141 151q50 -33 66.5 -55.5t16.5 -52.5q0 -44 -41 -98t-115 -106l-35 37q37 27 59 58t30 66q-38 20 -51 34t-13 32q0 14 9.5 27t32.5 29z" />
<glyph unicode="-" horiz-adv-x="371" d="M33 198q10 26 18 51t14 49q15 0 42 -1q64 -1 84 -1q52 0 84 0.5t63 1.5q-11 -27 -18.5 -51.5t-13.5 -48.5q-48 1 -81 2t-51 1q-24 0 -59.5 -1t-81.5 -2z" />
<glyph unicode="." horiz-adv-x="296" d="M143 153l48 -32q19 -12 28 -25t9 -27q0 -15 -8.5 -27t-28.5 -26l-46 -32l-48 33q-21 14 -28.5 25.5t-7.5 26.5t8.5 27.5t27.5 25.5z" />
<glyph unicode="/" horiz-adv-x="472" d="M418 745l60 -30q-89 -159 -195.5 -356t-241.5 -453l-59 30q96 170 203.5 370.5t232.5 438.5z" />
<glyph unicode="0" d="M291 647q-63 0 -94 -67.5t-31 -207.5q0 -162 34.5 -243.5t103.5 -81.5q64 0 95 68t31 208q0 160 -35 242t-104 82zM301 711q120 0 188.5 -92.5t68.5 -254.5q0 -173 -74 -277t-197 -104q-115 0 -183.5 94t-68.5 253q0 168 75 274.5t191 106.5z" />
<glyph unicode="1" d="M375 711q-4 -88 -6.5 -175t-2.5 -175q0 -28 -0.5 -73.5t-0.5 -63.5q0 -71 4 -105t13 -49q9 -14 27.5 -20t52.5 -6h11v-44q-58 3 -103 4.5t-77 1.5q-31 0 -122 -4q-32 -1 -48 -2v44q62 0 81.5 7.5t28.5 26.5q8 17 11.5 79.5t3.5 289.5q0 48 -2 132q-1 31 -1 45h-17 q-14 0 -45 -2.5t-69 -6.5l-7 48q65 9 132.5 21t135.5 27z" />
<glyph unicode="2" d="M189 112q45 0 98 -1t60 -1h15q88 0 112 15.5t35 60.5l43 -12q-16 -44 -27 -88t-17 -86q-87 4 -144 5.5t-103 1.5q-43 0 -94 -1.5t-124 -5.5l-19 44q157 126 241.5 240.5t84.5 201.5q0 61 -34 96.5t-91 35.5q-38 0 -72.5 -24.5t-66.5 -74.5l-50 31q44 80 102.5 120 t130.5 40q87 0 149.5 -60t62.5 -143q0 -80 -61 -165t-231 -230z" />
<glyph unicode="3" d="M324 383q9 0 17.5 0.5t17.5 0.5q72 0 117 -44.5t45 -114.5q0 -101 -84 -171t-206 -70q-79 0 -133.5 33.5t-54.5 78.5q0 24 18.5 41.5t42.5 17.5q25 0 49 -38q4 -7 7 -10q19 -28 38.5 -39.5t47.5 -11.5q61 0 101.5 41t40.5 102q0 59 -33 93.5t-89 34.5q-16 0 -36 -4.5 t-54 -15.5l-17 44q96 39 142 81.5t46 92.5q0 45 -27.5 73t-72.5 28q-38 0 -71 -20.5t-66 -65.5l-46 30q40 69 95.5 104.5t124.5 35.5q81 0 135.5 -47t54.5 -116q0 -54 -37 -94.5t-113 -69.5z" />
<glyph unicode="4" d="M328 566l-207 -274q52 -1 103.5 -2t102.5 -1zM357 704h89q-3 -134 -5 -232t-2 -182q34 0 66 1t62 3q-9 -36 -18 -75q-1 -5 -1 -7q-26 1 -54 2t-55 1v-69q0 -70 12.5 -86.5t51.5 -16.5h16v-43q-63 3 -93 4t-48 1q-19 0 -50 -1t-89 -4v43q3 0 8.5 -0.5t8.5 -0.5 q41 0 55 18.5t15 90.5v64l-131 1q-7 0 -56.5 -1t-90.5 -1l-28 61q38 42 69.5 78.5t59.5 72.5l61 77q46 59 81.5 107t65.5 94z" />
<glyph unicode="5" d="M96 336l45 358q64 -3 106 -5t74 -2q54 0 101.5 2.5t90.5 8.5q-12 -38 -21 -69t-12 -44q-45 -4 -89.5 -6t-87.5 -2q-28 0 -89 2h-12l-30 -185q37 17 70.5 25.5t62.5 8.5q99 0 160.5 -57.5t61.5 -149.5q0 -100 -82 -168.5t-203 -68.5q-80 0 -134.5 33.5t-54.5 78.5 q0 24 18 41.5t43 17.5q26 0 52 -41q3 -5 4 -7q17 -27 38 -39t50 -12q62 0 101 43.5t39 111.5q0 62 -39 99t-104 37q-28 0 -56 -9.5t-53 -27.5z" />
<glyph unicode="6" d="M186 314q0 -5 -0.5 -15.5t-0.5 -15.5q0 -114 32 -172.5t94 -58.5q50 0 78.5 37.5t28.5 103.5q0 72 -33 116t-87 44q-24 0 -51 -9.5t-61 -29.5zM188 369q35 32 78.5 49.5t84.5 17.5q84 0 139.5 -58.5t55.5 -147.5q0 -107 -69.5 -177t-176.5 -70q-111 0 -177.5 82 t-66.5 221q0 95 27.5 173t82.5 137q49 53 113 83t129 30q51 0 80 -18.5t29 -50.5q0 -21 -12.5 -34.5t-30.5 -13.5q-14 0 -53 18t-67 18q-75 0 -119 -68.5t-47 -190.5z" />
<glyph unicode="7" d="M141 -3q93 171 166.5 313.5t131.5 263.5q-37 0 -99.5 1t-77.5 1h-20q-87 0 -110 -17t-32 -68l-44 9q12 48 19.5 97t10.5 100q47 -5 97 -8t110 -3q53 0 115 2.5t138 8.5l22 -47q-61 -76 -141 -253.5t-150 -399.5h-136z" />
<glyph unicode="8" d="M258 315q-47 -29 -70 -63t-23 -77q0 -57 35.5 -93.5t92.5 -36.5q51 0 85.5 34.5t34.5 85.5q0 49 -34 83t-121 67zM376 385q83 -36 120.5 -82t37.5 -109q0 -88 -73 -149.5t-180 -61.5q-100 0 -163.5 52.5t-63.5 134.5q0 58 39 103.5t113 73.5q-67 31 -99 73.5t-32 100.5 q0 79 65 135t156 56q94 0 152.5 -46.5t58.5 -118.5q0 -52 -33 -92.5t-98 -69.5zM325 415q41 26 61.5 58.5t20.5 72.5q0 47 -30.5 76.5t-78.5 29.5q-44 0 -75 -29t-31 -71t31.5 -74.5t101.5 -62.5z" />
<glyph unicode="9" d="M400 385v17l-1 9q0 117 -31 175t-93 58q-49 0 -78 -37.5t-29 -102.5q0 -75 32.5 -118.5t88.5 -43.5q26 0 55 11t56 32zM397 326q-42 -33 -80 -48t-78 -15q-84 0 -138 57.5t-54 147.5q0 104 68 173t170 69q113 0 179 -82t66 -223q0 -180 -102 -300t-248 -120q-52 0 -82 19 t-30 51q0 20 12.5 34t31.5 14q14 0 52.5 -18t66.5 -18q75 0 119 68.5t47 190.5z" />
<glyph unicode=":" horiz-adv-x="296" d="M142 153l48 -32q20 -13 28.5 -25.5t8.5 -26.5t-8 -26t-29 -27l-46 -32l-48 33q-20 13 -28 25t-8 27t8.5 27.5t27.5 25.5zM142 469l49 -34q18 -13 27 -26t9 -26q0 -15 -9 -28t-29 -27l-45 -31l-45 31q-21 14 -30 27t-9 28t8.5 27.5t27.5 25.5z" />
<glyph unicode=";" horiz-adv-x="296" d="M142 151q49 -32 66 -55t17 -53q0 -44 -40.5 -97.5t-115.5 -106.5l-35 37q37 27 58.5 57.5t29.5 66.5q-38 21 -50 34.5t-12 31.5q0 15 9.5 28t30.5 28zM142 469l49 -34q18 -13 27 -26t9 -26q0 -15 -9 -28t-29 -27l-45 -31l-45 31q-21 14 -30 27t-9 28t8.5 27.5t27.5 25.5z " />
<glyph unicode="&#x3c;" horiz-adv-x="833" d="M704 484l-456 -186l456 -186v-89l-575 236v78l575 237v-90z" />
<glyph unicode="=" horiz-adv-x="833" d="M709 238v-81h-585v81h585zM709 440v-82h-585v82h585z" />
<glyph unicode="&#x3e;" horiz-adv-x="833" d="M704 337v-78l-575 -236v89l456 186l-456 186v90z" />
<glyph unicode="?" horiz-adv-x="480" d="M177 197h-44q0 7 0.5 16.5t0.5 27.5q0 31 -1.5 64t-4.5 67q90 17 136.5 55.5t46.5 96.5q0 42 -29 70.5t-70 28.5q-33 0 -71.5 -25.5t-51.5 -25.5q-18 0 -30.5 14.5t-12.5 35.5q0 40 35.5 64t94.5 24q98 0 167 -63.5t69 -152.5q0 -65 -40 -114.5t-121 -83.5q-4 -1 -12 -5 q-59 -24 -62 -94zM156 140l44 -30q17 -11 25.5 -23.5t8.5 -27.5q0 -13 -7 -24t-23 -22l-47 -32l-44 28q-18 12 -26.5 24t-8.5 28q0 14 8 25.5t24 22.5z" />
<glyph unicode="@" horiz-adv-x="1000" d="M561 164q-8 -7 -22 -20q-105 -96 -148 -96q-36 0 -56 30t-20 83t18.5 105t52.5 96q39 51 87 79t97 28q19 0 37 -4.5t34 -13.5l72 27q-29 -122 -45.5 -206t-16.5 -114q0 -20 10 -32.5t25 -12.5q47 0 93 75.5t46 167.5q0 105 -67 168t-179 63q-71 0 -135.5 -26.5 t-118.5 -77.5q-65 -61 -100 -140t-35 -164q0 -126 83.5 -207t214.5 -81q105 0 197 49t172 147l21 -34q-88 -113 -191.5 -169.5t-223.5 -56.5q-161 0 -264 96t-103 246q0 94 41 182.5t115 155.5q69 63 157 96.5t184 33.5q140 0 228.5 -75.5t88.5 -192.5q0 -70 -35 -136 t-102 -124q-40 -33 -74.5 -50t-65.5 -17q-34 0 -54 25t-20 68q0 6 2 23v6zM606 396q-14 10 -28.5 15.5t-27.5 5.5q-50 0 -91 -73t-41 -162q0 -27 6.5 -40t20.5 -13t39 17.5t84 71.5q1 6 14 65t24 113z" />
<glyph unicode="A" horiz-adv-x="775" d="M363 583l-107 -270q19 0 39.5 -0.5t55.5 -0.5h62.5t42.5 1zM336 700h119q70 -206 134 -378.5t89 -229.5q11 -26 27.5 -37t43.5 -11h11v-44q-62 3 -95.5 4t-55.5 1q-21 0 -55.5 -1t-99.5 -4v44h9q39 0 52.5 9t13.5 31q0 7 -2 16t-7 26l-40 118q-28 0 -73.5 1t-56.5 1 q-21 0 -84 -1q-23 0 -36 -1l-2 -5q-48 -117 -48 -147q0 -25 14.5 -36.5t47.5 -11.5h9v-44q-56 3 -86.5 4t-50.5 1q-17 0 -44 -1t-79 -4v44q35 0 56 12t36 41q21 38 95 213t158 390z" />
<glyph unicode="B" horiz-adv-x="680" d="M251 390q9 0 19 -0.5t31 -0.5q28 0 51.5 1t44.5 3q33 23 50 53t17 64q0 58 -36.5 90.5t-101.5 32.5q-17 0 -35.5 -2t-37.5 -5q0 -43 -1 -124t-1 -112zM251 77q29 -8 52.5 -11.5t44.5 -3.5q72 0 113.5 36t41.5 99q0 67 -46 101.5t-136 34.5q-23 0 -39 -0.5t-32 -1.5v-86 q0 -78 0.5 -111t0.5 -57zM34 43q3 0 6.5 -0.5t10.5 -0.5q67 0 68 167v77v263q0 72 -14.5 88t-54.5 16h-7v45q39 -3 72.5 -4.5t63.5 -1.5q44 0 97.5 2.5t61.5 2.5h2q7 0 13 1q114 0 178.5 -45t64.5 -123q0 -51 -33.5 -91t-103.5 -71q89 -14 136 -57t47 -111q0 -90 -79 -146 t-209 -56q-20 0 -87.5 3t-115.5 3q-13 0 -42.5 -1.5t-74.5 -4.5v45z" />
<glyph unicode="C" horiz-adv-x="729" d="M669 673q0 -5 -0.5 -15.5t-0.5 -15.5q0 -33 3 -69.5t9 -80.5l-48 -8q-8 73 -62 113t-143 40q-113 0 -175.5 -70.5t-62.5 -199.5q0 -139 70.5 -221.5t188.5 -82.5q74 0 126.5 33.5t85.5 102.5l43 -20q-20 -39 -34.5 -75.5t-24.5 -72.5q-59 -24 -115.5 -36.5t-108.5 -12.5 q-170 0 -275.5 100.5t-105.5 262.5q0 160 110.5 264t280.5 104q61 0 120 -9.5t119 -30.5z" />
<glyph unicode="D" horiz-adv-x="826" d="M255 78q30 -7 59.5 -10t60.5 -3q126 0 194.5 70t68.5 199q0 142 -73 220.5t-205 78.5q-19 0 -43.5 -2t-57.5 -6q-2 -119 -3 -226t-1 -194v-127zM34 0v44q3 0 7 -0.5t12 -0.5q41 0 55 27t14 139v35v52l1 116q0 8 1 24q1 72 1 99q0 73 -14 96t-52 23q-7 0 -11 -0.5t-7 -0.5 v44l73.5 -3.5t56.5 -1.5q45 0 116 4t97 4q188 0 295 -93.5t107 -256.5q0 -158 -112.5 -255.5t-299.5 -97.5q-15 0 -89.5 4t-133.5 4q-14 0 -96 -4z" />
<glyph unicode="E" horiz-adv-x="674" d="M42 698q83 -3 153.5 -5t123.5 -2q89 0 151 1.5t115 5.5q1 -42 4 -83.5t8 -83.5l-44 -6q-7 61 -40.5 82.5t-133.5 21.5q-18 0 -48 -1t-74 -2q-1 -64 -1.5 -123.5t-1.5 -113.5h14q28 0 70.5 -0.5t56.5 -0.5q67 0 88 13.5t23 50.5l36 -4q0 -24 -1.5 -61t-1.5 -50t1 -33.5 t2 -49.5l-41 -3v6q0 42 -24 56.5t-114 14.5h-73h-37v-56q0 -43 0.5 -89t1.5 -109q22 -3 55 -4.5t72 -1.5q117 0 155.5 24.5t62.5 93.5l45 -14q-16 -47 -27.5 -89.5t-19.5 -82.5q-115 4 -183.5 5.5t-121.5 1.5q-60 0 -192 -5q-45 -1 -69 -2v43q3 0 6.5 -0.5t11.5 -0.5 q41 0 55.5 25t14.5 132v49v45l1 109q0 7 1 22q1 60 1 82t-0.5 46t-0.5 26q0 42 -15.5 59t-53.5 17h-11v44z" />
<glyph unicode="F" horiz-adv-x="624" d="M33 43q3 0 7.5 -0.5t12.5 -0.5q40 0 54.5 24.5t14.5 114.5v50v35t-1 23v125q0 28 0.5 80.5t0.5 78.5q0 48 -15.5 64.5t-57.5 16.5h-9v43q81 -3 150.5 -4.5t130.5 -1.5t126 1.5t135 4.5q0 -38 3 -80t9 -90l-43 -6q-6 63 -39.5 85.5t-137.5 22.5q-21 0 -51 -1t-67 -2 q-1 -75 -1.5 -135.5t-1.5 -107.5q26 0 66.5 -0.5t55.5 -0.5q74 0 97.5 13.5t25.5 51.5l41 -3q-4 -39 -6 -65.5t-2 -47.5q0 -12 2 -54q1 -21 2 -33l-41 -2v9q0 42 -23 56.5t-103 14.5q-12 0 -44.5 -0.5t-53.5 -0.5h-17v-125v-41q0 -75 16 -93.5t63 -18.5q3 0 9 0.5t10 0.5 v-44q-10 0 -29 1q-96 4 -135 5q-18 0 -83 -3q-44 -2 -71 -3v43z" />
<glyph unicode="G" horiz-adv-x="793" d="M686 675q0 -43 4.5 -85.5t12.5 -83.5l-49 -10q-13 69 -65.5 104.5t-142.5 35.5q-122 0 -189 -72t-67 -203q0 -139 73 -222t194 -83q27 0 54 5t53 16q0 22 1 58t1 45q0 71 -17 89t-75 18h-14v44q51 -2 86 -3.5t64 -1.5q31 0 68 1t91 4v-44h-14q-39 0 -51 -17.5t-12 -97.5 v-48q0 -27 1 -52t3 -49q-115 -25 -170 -33t-99 -8q-175 0 -281 98.5t-106 261.5q0 167 115 269.5t301 102.5q58 0 115.5 -9.5t114.5 -29.5z" />
<glyph unicode="H" horiz-adv-x="845" d="M38 697q14 0 41 -2q75 -4 102 -4q34 0 121 4q20 1 30 2v-44h-11q-42 0 -57 -20.5t-15 -109.5v-22v-107q41 -1 81 -2t79 -1q37 0 83 1t101 2v129q0 89 -15 109.5t-57 20.5h-11v44q47 -3 84.5 -4.5t66.5 -1.5q27 0 102 4q26 1 41 2v-44q-3 0 -6.5 0.5t-9.5 0.5 q-39 0 -52.5 -25t-13.5 -112q0 -15 0.5 -53t0.5 -62v-103q0 -29 -0.5 -73.5t-0.5 -59.5q0 -77 14 -100t54 -23h11t7 1v-44q-17 1 -47 2q-76 3 -101 4q-28 0 -67 -1.5t-89 -4.5v44q4 0 10 -0.5t8 -0.5q42 0 56.5 22t14.5 113v37v104q-49 1 -91 1.5t-82 0.5q-69 0 -104.5 -0.5 t-66.5 -1.5v-141q0 -91 14.5 -113t56.5 -22q2 0 8 0.5t10 0.5v-44q-51 3 -90 4.5t-66 1.5q-25 0 -100 -4q-30 -1 -48 -2v44q3 0 7 -0.5t12 -0.5q39 0 53 25.5t14 110.5q0 15 -0.5 54.5t-0.5 64.5v104q0 27 0.5 69t0.5 57q0 78 -14 102t-52 24q-6 0 -9.5 -0.5t-6.5 -0.5v44z " />
<glyph unicode="I" horiz-adv-x="382" d="M35 697q48 -3 88 -4.5t71 -1.5t69 1.5t85 4.5v-44h-10q-34 0 -48.5 -7t-20.5 -25q-5 -15 -7.5 -59.5t-2.5 -159.5v-201q0 -69 2.5 -95.5t9.5 -38.5t23 -17.5t48 -5.5h12v-44q-54 3 -94.5 4.5t-68.5 1.5q-26 0 -67 -1.5t-95 -4.5v44h12q33 0 49 5.5t22 17.5q7 14 10 45 t3 112v74v212q0 61 -2.5 85t-9.5 35q-6 12 -22 17.5t-46 5.5h-10v44z" />
<glyph unicode="J" horiz-adv-x="366" d="M26 697q46 -3 85 -4.5t70 -1.5q33 0 118 4q21 1 32 2v-44h-10q-42 0 -56 -20t-14 -108v-15q0 -47 0.5 -126.5t0.5 -112.5q0 -137 -7.5 -205t-24.5 -110q-30 -73 -92 -117.5t-134 -44.5q-48 0 -74.5 16.5t-26.5 46.5q0 26 13 41t36 15q17 0 49.5 -22t52.5 -22 q39 0 55.5 40t16.5 146l-1 513q0 50 -16 67.5t-60 17.5h-13v44z" />
<glyph unicode="K" horiz-adv-x="764" d="M456 697q9 0 26 -2q80 -4 112 -4q25 0 98 4q19 1 30 2v-44h-9q-58 0 -131 -70l-1 -1l-201 -193l216 -226q10 -11 29 -31q83 -89 128 -89h9t5 1v-44q-10 0 -30 2q-64 4 -87 4q-14 0 -64 -3q-31 -2 -49 -3q0 1 0.5 2.5t0.5 4.5q0 32 -161 200q-80 83 -128 134l180 190l7 8 q73 77 73 90t-10 18.5t-32 5.5h-11v44zM37 697q52 -3 90 -4.5t60 -1.5q21 0 54.5 1t91.5 4v-43h-10q-45 0 -59.5 -21.5t-14.5 -118.5v-330q0 -98 14.5 -119t57.5 -21q2 0 8 0.5t10 0.5v-44q-15 0 -44 2q-82 4 -111 4q-24 0 -62.5 -1.5t-89.5 -4.5v44q3 0 7 -0.5t12 -0.5 q40 0 53.5 25.5t13.5 121.5v50v35.5t-1 23.5v107q0 26 0.5 65.5t0.5 54.5q0 83 -14 105.5t-53 22.5q-1 0 -6 -0.5t-8 -0.5v44z" />
<glyph unicode="L" horiz-adv-x="623" d="M44 697q42 -2 78.5 -3.5t65.5 -1.5q30 0 67 1t85 4v-44q-3 0 -8.5 0.5t-7.5 0.5q-41 0 -55.5 -24.5t-14.5 -110.5q0 -13 0.5 -46t0.5 -54l1 -343h3q63 -4 95 -4q123 0 161 25.5t62 96.5l45 -14q-15 -44 -27 -89t-21 -91q-86 3 -160.5 4.5t-135.5 1.5t-123 -1.5t-123 -4.5 v43h14q26 0 40.5 5.5t20.5 17.5q14 27 15 201v34l1 106q0 21 0.5 56.5t0.5 48.5q0 88 -14.5 115t-54.5 27h-11v43z" />
<glyph unicode="M" horiz-adv-x="948" d="M476 217l128 288q41 92 54 129.5t13 57.5v5q5 0 15 -1q75 -3 107 -3q18 0 75 2q23 1 36 2v-44q-50 0 -66.5 -13t-16.5 -53q0 -20 2 -65.5t5 -99.5l7 -119q8 -130 12 -172t8 -56q4 -15 20 -23t42 -8h12v-44q-42 2 -81 3.5t-72 1.5q-19 0 -50.5 -1t-93.5 -4v44h15 q40 0 55.5 13.5t15.5 48.5q0 12 -0.5 24.5t-1.5 31.5l-20 390l-177 -400q-25 -58 -35.5 -88t-15.5 -57h-53q-4 20 -12 43t-24 61l-179 429q-14 -158 -21.5 -265.5t-7.5 -145.5q0 -52 14 -68.5t56 -16.5h14v-44q-48 3 -78 4t-52 1q-12 0 -33.5 -1t-87.5 -4v44q1 0 3 -1 q13 -1 18 -1q64 0 79 180q4 49 6 77l11 117q6 69 9.5 115.5t3.5 59.5q0 36 -14 49t-54 13h-13v44q31 -2 60.5 -3t53.5 -1q20 0 82 2q25 1 40 2v-4q0 -38 114 -305q46 -108 73 -171z" />
<glyph unicode="N" horiz-adv-x="842" d="M23 696q19 0 58.5 -2.5t56.5 -2.5q15 0 53 2t56 3q7 -18 20 -38.5t35 -45.5l359 -424q0 63 -2 170q-2 233 -7 254q-7 23 -21.5 32t-48.5 9h-16v43q53 -2 81 -3.5t46 -1.5q21 0 51.5 1t76.5 4v-43h-9q-31 0 -46 -7t-21 -25q-8 -23 -11 -220v-8l-2 -106q-1 -61 -1.5 -114.5 t-0.5 -89.5q0 -24 1.5 -46.5t5.5 -43.5h-96q-6 12 -17 28t-43 53l-394 461q0 -231 2.5 -331t7.5 -119q7 -23 21.5 -32t48.5 -9h15v-44q-56 3 -84.5 4t-46.5 1q-16 0 -43 -1t-86 -4v44q4 0 8 -0.5t12 -0.5q70 0 71 192q0 42 1 66l1 104q0 32 1 91t1 76q0 47 -16.5 64.5 t-59.5 17.5q-3 0 -9 -0.5t-9 -0.5v43z" />
<glyph unicode="O" horiz-adv-x="837" d="M644 336q0 138 -64 222t-168 84q-100 0 -159 -74.5t-59 -202.5q0 -139 64.5 -223.5t168.5 -84.5q100 0 158.5 75t58.5 204zM420 715q78 0 139 -21.5t112 -65.5q60 -52 92 -123.5t32 -151.5q0 -159 -108 -265t-270 -106q-84 0 -152.5 27.5t-121.5 82.5q-49 51 -74.5 116.5 t-25.5 139.5q0 82 32 152t93 122q51 44 117.5 68.5t134.5 24.5z" />
<glyph unicode="P" horiz-adv-x="647" d="M251 342q18 -3 33.5 -4t28.5 -1q85 0 130 39t45 111q0 67 -42.5 106t-116.5 39q-17 0 -35 -1.5t-41 -5.5q-1 -61 -1.5 -123.5t-0.5 -159.5zM33 43q4 0 8.5 -0.5t13.5 -0.5q39 0 53 24t14 110v42q0 29 -0.5 45t-1.5 31l-1 118v172q0 38 -15.5 54t-51.5 16h-10v45 q40 -3 74 -4.5t63 -1.5q45 0 103.5 3t70.5 3q125 0 197 -55t72 -150q0 -100 -74 -158t-204 -58q-21 0 -76 5q-11 1 -16 1v-121q0 -80 15.5 -99.5t61.5 -19.5h17v-44q-48 3 -90 4.5t-78 1.5q-16 0 -52 -1.5t-93 -4.5v43z" />
<glyph unicode="Q" horiz-adv-x="837" d="M644 336q0 138 -64 222t-168 84q-100 0 -159 -74.5t-59 -202.5q0 -140 64.5 -224t170.5 -84q99 0 157 75t58 204zM554 15l99 -59q98 -59 154 -81t100 -22q16 0 32.5 1.5t34.5 5.5l7 -42q-61 -18 -104 -26t-76 -8q-125 0 -392 195l-13 10q-153 0 -252.5 100t-99.5 253 q0 159 111 266t277 107q70 0 132 -23t110 -66q59 -52 90 -122.5t31 -150.5q0 -121 -63 -209.5t-178 -128.5z" />
<glyph unicode="R" horiz-adv-x="754" d="M253 351q26 -1 44 -2t30 -1q15 0 32 1t36 2q42 27 62 62t20 82q0 61 -41 99t-110 38q-21 0 -38 -1.5t-34 -4.5q0 -53 -0.5 -111.5t-0.5 -163.5zM34 43q4 0 7.5 -0.5t11.5 -0.5q40 0 54 26.5t14 139.5v36v34v18l2 109q0 35 0.5 69t0.5 82q0 62 -15 80t-56 18h-10v43 q52 -2 86.5 -3.5t59.5 -1.5q36 0 90 2.5t72 2.5q121 0 191 -50.5t70 -136.5q0 -58 -35 -102t-105 -75l96 -135q68 -106 99.5 -133.5t67.5 -27.5q2 0 5.5 0.5t5.5 0.5v-41q-30 -2 -52 -3.5t-38 -1.5q-60 0 -93.5 13.5t-60.5 45.5q-13 15 -62.5 97t-87.5 141 q-30 -1 -53.5 -1.5t-45.5 -0.5v-130q0 -75 14.5 -94t57.5 -19h14v-44q-40 2 -80 3.5t-82 1.5q-14 0 -40.5 -1t-102.5 -4v43z" />
<glyph unicode="S" horiz-adv-x="603" d="M514 676v-11q0 -36 4 -73t13 -77l-51 -8q-8 63 -47 95.5t-107 32.5q-63 0 -98.5 -25t-35.5 -69q0 -29 14.5 -50.5t45.5 -37.5q24 -13 83 -32.5t87 -30.5q64 -26 96 -68.5t32 -101.5q0 -106 -81.5 -169.5t-221.5 -63.5q-46 0 -93 9t-91 26q0 5 0.5 14t0.5 14q0 38 -4.5 77 t-14.5 80l53 13q19 -90 60 -125.5t123 -35.5q66 0 104 29.5t38 78.5q0 70 -134 118q-30 10 -46 16q-93 35 -133 80.5t-40 114.5q0 95 73 153t194 58q42 0 85 -7.5t92 -23.5z" />
<glyph unicode="T" horiz-adv-x="688" d="M175 44h18q33 0 48 7t22 25q5 14 7 66.5t2 195.5v279h-84q-77 0 -105 -21.5t-39 -82.5l-46 10q11 48 17 92.5t8 87.5q19 -6 52.5 -9t113.5 -3h108h61h124q90 0 125.5 2.5t51.5 9.5v-15q0 -38 3.5 -79t9.5 -86l-44 -7q-8 60 -33.5 80.5t-100.5 20.5h-12h-74 q-1 -78 -1.5 -153.5t-0.5 -176.5v-91q0 -64 3 -90t9 -39q7 -12 23 -17.5t44 -5.5h17v-44q-12 0 -36 1q-96 4 -131 5q-25 0 -65 -1.5t-95 -4.5v44z" />
<glyph unicode="U" horiz-adv-x="824" d="M333 697v-44q-3 0 -8.5 0.5t-7.5 0.5q-42 0 -56.5 -24.5t-14.5 -122.5v-39v-73q0 -99 3.5 -140t11.5 -65q19 -58 66 -89t115 -31q56 0 95.5 18.5t64.5 57.5q17 26 24 67.5t7 124.5q0 16 -0.5 52t-0.5 57v51q0 103 -14.5 129.5t-56.5 26.5q-6 0 -9.5 -0.5t-6.5 -0.5v44 q45 -2 75 -3.5t52 -1.5q20 0 48.5 1t74.5 4v-44h-8q-29 0 -43.5 -6.5t-20.5 -23.5q-9 -24 -12 -212v-42v-27q-1 -167 -36 -229t-103.5 -96.5t-159.5 -34.5q-83 0 -148 27.5t-102 78.5q-28 38 -39.5 88t-11.5 148q0 26 1.5 93.5t1.5 108.5q0 85 -14 106t-55 21h-12v44 q55 -2 89.5 -3.5t59.5 -1.5q23 0 57.5 1.5t93.5 3.5z" />
<glyph unicode="V" horiz-adv-x="764" d="M5 697q17 0 46 -2q77 -4 103 -4q34 0 126 4q23 1 36 2v-43q-46 -1 -60 -9.5t-14 -33.5q0 -9 3.5 -23.5t13.5 -43.5l141 -398l3 8q168 420 169 460q0 23 -14.5 31.5t-57.5 9.5v42q8 0 23 -1q75 -5 105 -5q24 0 95 4q21 1 33 2v-44q-19 0 -33.5 -3t-24.5 -9 q-19 -12 -64 -120q-19 -45 -30 -72q-101 -236 -144 -341.5t-43 -115.5h-100q0 12 -56 170t-132 350l-12 30q-45 114 -100 114q-2 0 -6 -0.5t-6 -0.5v42z" />
<glyph unicode="W" horiz-adv-x="1078" d="M377 157l135 343l-28 88q-13 41 -26.5 53.5t-40.5 12.5q-3 0 -9.5 -0.5t-9.5 -0.5v44q8 0 25 -1q87 -5 120 -5q22 0 56.5 1.5t82.5 4.5v-44q-4 0 -10 0.5t-9 0.5q-28 0 -39.5 -9t-11.5 -31q0 -11 5.5 -31.5t16.5 -55.5l118 -369l27 77q119 341 119 378q0 22 -12.5 31 t-44.5 9h-14v44q11 0 30 -2q68 -4 93 -4q23 0 92 4q20 1 30 2v-44q-2 0 -5.5 0.5t-9.5 0.5q-52 0 -109 -164q-22 -62 -36 -100l-42 -110l-21 -54q-63 -164 -82 -233h-92q-5 21 -11 43.5t-16 50.5l-103 310l-120 -303q-15 -37 -22 -58.5t-12 -42.5h-92q-6 33 -77 230l-17 46 l-49 136q-11 33 -30 88q-55 162 -104 162q-4 0 -14 -2h-2v44q49 -3 84 -4.5t56 -1.5q25 0 98 4q27 1 41 2v-44h-11q-25 0 -37 -9t-12 -28q0 -17 20 -73l1 -3z" />
<glyph unicode="X" horiz-adv-x="736" d="M35 697q14 0 39 -2q78 -4 105 -4q28 0 65 1.5t80 4.5v-44h-7q-25 0 -36 -5.5t-11 -17.5q0 -15 35 -69q5 -8 8 -12l72 -110l72 102q24 36 34 56t10 33q0 12 -9 17.5t-29 5.5h-12v44q41 -2 69.5 -3.5t50.5 -1.5q21 0 50 1t71 4v-44q-2 0 -5.5 0.5t-5.5 0.5q-49 0 -112 -84 q-13 -17 -19 -26l-122 -160l176 -253q41 -58 62 -73t46 -15q2 0 6 0.5t6 0.5v-44q-60 3 -97 4t-63 1q-28 0 -65 -1.5t-80 -3.5v44q2 0 7 -0.5t7 -0.5q23 0 35 7t12 20q0 10 -6 22.5t-23 37.5l-107 157l-88 -125q-23 -33 -34 -54.5t-11 -35.5q0 -15 9.5 -22t31.5 -7 q2 0 7 0.5t8 0.5v-44q-56 3 -85 4t-47 1q-19 0 -47 -1t-80 -4v44q2 0 6 -0.5t6 -0.5q29 0 52.5 15t57.5 60l172 224l-157 230q-3 4 -8 12q-45 69 -97 69h-5v44z" />
<glyph unicode="Y" horiz-adv-x="695" d="M6 697q53 -2 90 -3.5t66 -1.5q21 0 53.5 1t88.5 4v-44q-33 0 -48 -5.5t-15 -18.5q0 -18 20 -53q5 -10 8 -15l108 -193l33 57q104 180 103 201q0 14 -11 20.5t-35 6.5h-11v44q43 -2 70 -3.5t46 -1.5q20 0 47.5 1t70.5 4v-43q-2 0 -4.5 0.5t-7.5 0.5q-47 0 -114 -109 q-15 -25 -23 -38l-131 -210l1 -156q1 -62 15.5 -80.5t57.5 -18.5q3 0 9.5 0.5t10.5 0.5v-44q-54 3 -96 4.5t-71 1.5q-26 0 -106 -4q-33 -1 -52 -2v44q4 0 11 -0.5t10 -0.5q43 0 58.5 19t16.5 78l1 154l-163 273q-3 6 -10 17q-42 70 -83 70q-5 0 -8.5 -0.5t-5.5 -0.5v44z" />
<glyph unicode="Z" horiz-adv-x="736" d="M88 697q30 -3 67.5 -5t95.5 -2q23 0 73.5 0.5t77.5 0.5q19 0 58.5 -0.5t61.5 -0.5q45 0 79 1.5t64 5.5l21 -40q-19 -16 -38 -37t-47 -59l-363 -482q29 0 63.5 -0.5t103.5 -0.5q94 0 142.5 7t69.5 22q16 12 30 36t26 62l46 -12q-18 -49 -30.5 -97.5t-19.5 -95.5 q-62 4 -139.5 6.5t-183.5 2.5q-117 0 -177.5 -2t-112.5 -7l-24 40q20 15 39.5 35.5t48.5 59.5l363 482q-27 0 -72 0.5t-64 0.5q-78 0 -120 -4.5t-67 -13.5q-21 -9 -35.5 -29.5t-23.5 -58.5l-46 11q13 43 21.5 86.5t11.5 87.5z" />
<glyph unicode="[" horiz-adv-x="465" d="M155 753q36 -2 69.5 -3.5t67.5 -1.5h132v-50h-25q-30 0 -63 -1.5t-75 -5.5l-5 -804q34 -5 67 -7.5t70 -2.5h5q14 0 26 1v-51h-123q-43 0 -80 -1t-71 -3q3 127 5 274t2 319q0 88 -1 169t-1 168z" />
<glyph unicode="\" horiz-adv-x="472" d="M46 745q143 -273 246.5 -465t189.5 -344l-59 -30q-129 245 -236.5 444t-199.5 365z" />
<glyph unicode="]" horiz-adv-x="465" d="M314 753q-2 -171 -3.5 -277t-1.5 -180q0 -118 1 -236.5t2 -236.5q-66 2 -102.5 3t-67.5 1h-104v51q9 0 16.5 -0.5t15.5 -0.5q42 0 130 9l6 1l1 804q-43 3 -77 5t-58 2h-34v50h119q37 0 75.5 1.5t81.5 3.5z" />
<glyph unicode="^" horiz-adv-x="1000" d="M552 714l245 -276h-51l-247 194l-247 -194h-51l246 276h105z" />
<glyph unicode="_" horiz-adv-x="500" d="M500 -152v-84h-500v84h500z" />
<glyph unicode="`" horiz-adv-x="500" d="M203 769l129 -199l-48 -17l-175 165z" />
<glyph unicode="a" horiz-adv-x="524" d="M314 233q-11 -3 -31 -9q-140 -39 -140 -91q0 -29 19 -49t48 -20q19 0 42.5 9.5t61.5 31.5v128zM509 83l18 -37q-44 -29 -79.5 -43.5t-63.5 -14.5q-34 0 -52 17t-20 53q-53 -37 -90 -53.5t-66 -16.5q-51 0 -87.5 39.5t-36.5 95.5q0 94 210 142q45 11 71 17q0 12 0.5 23.5 t0.5 22.5q0 52 -20.5 76t-64.5 24q-29 0 -49.5 -11.5t-22.5 -27.5v-6q-3 -49 -62 -49q-22 0 -33.5 7.5t-11.5 21.5q0 39 72 87.5t151 48.5q77 0 117 -40.5t40 -117.5q0 -23 -3.5 -97t-3.5 -124q0 -30 7.5 -43t24.5 -13q9 0 23 5t31 14z" />
<glyph unicode="b" horiz-adv-x="595" d="M207 75q21 -12 41.5 -17.5t41.5 -5.5q70 0 110 47t40 128q0 86 -38.5 137.5t-102.5 51.5q-23 0 -47.5 -8t-50.5 -24q0 -27 -0.5 -54.5t-0.5 -71.5q0 -90 1.5 -129t5.5 -54zM207 757q-4 -90 -6 -170t-2 -151q42 31 80 45.5t75 14.5q88 0 148.5 -67.5t60.5 -166.5 q0 -120 -83.5 -196.5t-219.5 -76.5q-46 0 -91 6.5t-88 20.5q3 165 4.5 271.5t1.5 154.5v62q0 111 -10 142t-37 31q-2 0 -7 -1t-14 -2l-4 41q47 7 95 17t97 25z" />
<glyph unicode="c" horiz-adv-x="481" d="M432 113l27 -48q-55 -41 -104.5 -61t-94.5 -20q-101 0 -165 69t-64 177q0 114 80 191.5t199 77.5q67 0 101.5 -20t34.5 -58q0 -22 -16 -39.5t-37 -17.5q-18 0 -56 30.5t-71 30.5q-51 0 -81.5 -42.5t-30.5 -114.5q0 -92 42 -144t116 -52q28 0 57.5 10t62.5 31z" />
<glyph unicode="d" horiz-adv-x="602" d="M394 396q-27 16 -52 23.5t-49 7.5q-66 0 -103 -44t-37 -124q0 -85 37 -136.5t98 -51.5q21 0 47 8.5t58 27.5zM517 757q-3 -108 -5.5 -223.5t-4.5 -245.5v-124v-21q0 -61 8 -77.5t29 -16.5q7 0 15 1.5t18 5.5l9 -39q-43 -17 -88.5 -25.5t-96.5 -9.5q-3 15 -5 32.5t-3 40.5 q-44 -33 -82.5 -48.5t-73.5 -15.5q-90 0 -148 66.5t-58 170.5q0 117 72.5 189.5t189.5 72.5q25 0 50.5 -4.5t53.5 -13.5v9q1 68 2 98q0 69 -10 85t-36 16q-4 0 -11.5 -0.5t-18.5 -2.5l-4 40q46 6 95 16t103 24z" />
<glyph unicode="e" horiz-adv-x="529" d="M487 260h-204q-52 0 -78 -1t-48 -3q0 -87 43.5 -137t119.5 -50q37 0 72.5 11.5t72.5 34.5l22 -42q-57 -45 -111.5 -67t-108.5 -22q-102 0 -167.5 68t-65.5 175q0 116 71 194t174 78q92 0 149.5 -65.5t58.5 -173.5zM371 320q-10 57 -37 89t-65 32q-45 0 -74 -34.5 t-37 -97.5h31q60 0 104.5 3t77.5 8z" />
<glyph unicode="f" horiz-adv-x="358" d="M216 504v-35h32q25 0 50 1l50 2q0 -6 -0.5 -17.5t-0.5 -14.5v-30q-3 0 -9 1q-69 3 -99 3h-22q-1 -30 -1 -63v-95q0 -19 -0.5 -49.5t-0.5 -41.5q0 -80 14 -102.5t54 -22.5q9 0 15 0.5t10 0.5v-41q-45 3 -80.5 4.5t-61.5 1.5q-23 0 -57 -1.5t-82 -4.5v41h15q35 0 47 20.5 t12 89.5q0 11 -0.5 41.5t-0.5 49.5v171h-35q-1 0 -13.5 -0.5t-24.5 -1.5v46q23 1 40.5 7.5t31.5 19.5q3 126 72.5 198.5t184.5 72.5q47 0 75 -18t28 -49q0 -22 -13 -36.5t-33 -14.5q-18 0 -57.5 21t-61.5 21q-42 0 -60 -37t-18 -138z" />
<glyph unicode="g" horiz-adv-x="557" d="M261 453q-44 0 -70 -31t-26 -86q0 -60 26 -94t72 -34t72 30.5t26 85.5q0 64 -25.5 96.5t-74.5 32.5zM174 -8q-20 -21 -29 -39t-9 -37q0 -43 38.5 -72t98.5 -29q69 0 115.5 32.5t46.5 78.5q0 37 -28 51.5t-115 14.5h-118zM391 466q56 0 86 1t57 3l-1 -58q-21 2 -46.5 3.5 t-58.5 1.5q22 -20 32.5 -43t10.5 -51q0 -68 -57.5 -113.5t-143.5 -45.5q-9 0 -33 2h-7q-10 -6 -20.5 -14t-24.5 -21q10 -15 20.5 -26t21.5 -19h53h93q79 0 117 -29t38 -89q0 -40 -24.5 -81.5t-69.5 -74.5q-42 -31 -96.5 -49t-107.5 -18q-85 0 -139 39t-54 98q0 36 23.5 67.5 t78.5 70.5q-22 21 -36 42t-23 46q18 19 42 36t54 33q-61 15 -93 52t-32 93q0 74 61 125.5t149 51.5q40 0 70.5 -7.5t59.5 -25.5z" />
<glyph unicode="h" horiz-adv-x="622" d="M217 756q0 -25 -2 -77q-5 -172 -6 -260q56 41 99 59.5t81 18.5q73 0 110.5 -44t37.5 -132q0 -15 -1 -74.5t-1 -102.5v-14q0 -61 11 -75t42 -14h9v-41q-43 3 -74 4.5t-50 1.5q-21 0 -50.5 -1.5t-69.5 -4.5v41h6q61 0 62 122v6l1 86v15q0 84 -20 114.5t-66 30.5 q-25 0 -54 -10t-70 -35l-2 -122v-70v-44q0 -61 10.5 -77t41.5 -16h7v-41q-43 3 -73.5 4.5t-50.5 1.5q-25 0 -55.5 -1.5t-68.5 -4.5v41q3 0 6.5 -0.5t10.5 -0.5q34 0 46 22t12 101v88v19l1 277v32q0 64 -8 80t-32 16q-11 0 -17 -0.5t-12 -1.5l-4 39q46 6 94.5 17t98.5 27z " />
<glyph unicode="i" horiz-adv-x="321" d="M155 745l44 -30q17 -11 25 -23.5t8 -26.5q0 -15 -6.5 -25.5t-22.5 -21.5l-47 -32l-44 29q-18 11 -26.5 23.5t-8.5 25.5q0 15 7 26t25 24zM223 500q-3 -105 -4.5 -184t-1.5 -129v-57q0 -57 11.5 -73t43.5 -16q2 0 7.5 0.5t8.5 0.5v-42q-45 3 -78.5 4.5t-55.5 1.5 q-19 0 -50.5 -1.5t-74.5 -4.5v42h10q62 0 63 115v29l1 104v43q0 55 -9 70.5t-34 15.5q-3 0 -16 -1q-5 0 -8 -1l-7 39q52 7 99.5 17.5t94.5 26.5z" />
<glyph unicode="j" horiz-adv-x="297" d="M146 745l44 -30q18 -11 26 -23.5t8 -27.5q0 -13 -7 -24t-23 -22l-47 -33l-44 30q-18 12 -26 24t-8 27q0 14 7 25.5t24 22.5zM215 499q-4 -142 -5.5 -205.5t-1.5 -106.5q0 -2 0.5 -29t0.5 -52v-45q0 -108 -12 -157t-42 -85q-29 -36 -76 -58t-94 -22l-7 1h-16v48 q74 6 103 49.5t29 166.5l1 319q0 65 -8.5 80.5t-33.5 15.5q-4 0 -10 -1t-15 -2l-4 40q50 7 98 17.5t93 25.5z" />
<glyph unicode="k" horiz-adv-x="597" d="M399 0v9q0 11 -7 23.5t-30 39.5l-154 184q89 83 124 120t35 48q0 9 -7 13t-24 4h-13v43q45 -3 69.5 -4t39.5 -1q21 0 49 1t65 4v-43q-2 0 -4.5 0.5t-8.5 0.5q-52 0 -163 -104q-32 -30 -51 -46l157 -177q5 -6 14 -16q50 -58 89 -58q1 0 4.5 0.5t5.5 0.5l-1 -42 q-29 3 -56 4.5t-52 1.5q-7 0 -26 -1.5t-55 -4.5zM22 42h9q22 0 36.5 7t18.5 20q10 28 12 268v25l1 90v78v34q0 75 -9 93t-35 18q-4 0 -10 -1t-15 -2l-8 41q52 7 100.5 17.5t95.5 25.5q-4 -175 -7 -302.5t-3 -184.5v-178q0 -26 12 -37.5t41 -11.5h11v-42q-41 3 -73 4.5 t-55 1.5q-29 0 -59 -1.5t-63 -4.5v42z" />
<glyph unicode="l" horiz-adv-x="318" d="M219 756q-3 -91 -4.5 -173.5t-1.5 -157.5v-217q0 -75 2.5 -104.5t7.5 -40.5t18 -16t34 -5h11v-42q-47 3 -81.5 4.5t-56.5 1.5q-21 0 -52 -1.5t-73 -4.5v42q2 0 7.5 -0.5t7.5 -0.5q61 0 61 151v38l1 223v132q0 55 -8.5 73t-31.5 18q-6 0 -13.5 -1t-14.5 -2l-5 39 q52 8 99.5 19t92.5 25z" />
<glyph unicode="m" horiz-adv-x="916" d="M212 499q-2 -16 -4 -51q-1 -17 -2 -25q60 41 99.5 58.5t72.5 17.5q45 0 76.5 -20.5t51.5 -61.5q60 44 102 63t79 19q68 0 105.5 -46t37.5 -131v-42l-2 -123q0 -3 -0.5 -19.5t-0.5 -29.5q0 -42 11 -54.5t43 -12.5h12v-41q-39 3 -70.5 4.5t-55.5 1.5q-17 0 -46 -1.5 t-69 -4.5v41q2 0 6 -0.5t10 -0.5q30 0 40 20t10 99v55q0 17 0.5 45t0.5 39q0 61 -21 89t-65 28q-21 0 -49.5 -10.5t-63.5 -31.5l-2 -225q0 -22 -1 -44v-3q0 -38 9.5 -49t36.5 -11h12v-41q-39 3 -70 4.5t-56 1.5q-14 0 -40 -1.5t-65 -4.5v41q3 0 6.5 -0.5t9.5 -0.5 q28 0 37.5 20.5t9.5 91.5v73v75q0 61 -20 88t-64 27q-22 0 -50 -10t-63 -30q0 -16 -1 -46q-3 -139 -3 -192q0 -67 9.5 -81.5t39.5 -14.5h14v-41q-42 3 -74 4.5t-54 1.5q-21 0 -84 -4q-21 -1 -33 -2v41h12q60 0 61 120v23v146q0 56 -8.5 72.5t-31.5 16.5q-3 0 -9 -1t-14 -2 l-4 38q35 7 75.5 17t106.5 28z" />
<glyph unicode="n" horiz-adv-x="621" d="M215 500l-8 -80q59 42 100.5 61t73.5 19q77 0 115.5 -44.5t38.5 -132.5q0 -17 -1 -77t-1 -104q0 -72 10.5 -86.5t42.5 -14.5h10l-1 -41q-43 3 -74 4.5t-50 1.5q-21 0 -50.5 -1.5t-69.5 -4.5v41h6q61 0 62 122v6v103q0 84 -19.5 113.5t-66.5 29.5q-25 0 -54.5 -10.5 t-64.5 -32.5q-2 -44 -3 -91.5t-1 -101.5v-40q0 -66 10.5 -82t41.5 -16h8v-41q-41 3 -72 4.5t-52 1.5t-52 -1.5t-71 -4.5v41h11q61 0 62 123v22l1 101v43q0 55 -8.5 71.5t-31.5 16.5q-4 0 -19 -1q-3 0 -5 -1l-3 38q41 6 86 17.5t99 28.5z" />
<glyph unicode="o" horiz-adv-x="588" d="M287 435q-60 0 -93 -44.5t-33 -126.5q0 -99 37.5 -157t101.5 -58q61 0 95.5 47t34.5 128q0 97 -39 154t-104 57zM297 499q115 0 188 -70.5t73 -178.5q0 -113 -76.5 -189t-190.5 -76t-186.5 71t-72.5 183q0 109 77.5 184.5t187.5 75.5z" />
<glyph unicode="p" horiz-adv-x="601" d="M203 83q23 -14 50 -22t53 -8q64 0 101 45t37 123q0 88 -37.5 139.5t-100.5 51.5q-27 0 -52.5 -7.5t-47.5 -21.5q-1 -63 -2 -120t-1 -104v-76zM211 512l-5 -79q44 31 81.5 45.5t74.5 14.5q87 0 144.5 -66t57.5 -164q0 -121 -71.5 -194.5t-187.5 -73.5q-28 0 -53.5 4.5 t-48.5 13.5l-1 -98v-39q0 -57 13 -71t55 -14h19v-43q-51 2 -86.5 3.5t-62.5 1.5q-16 0 -43.5 -1t-84.5 -4v43h8q25 0 38.5 5t18.5 15q8 16 11 61t3 171v54v194q0 80 -9.5 102.5t-34.5 22.5q-3 0 -15 -1q-6 -1 -9 -1l-5 37q51 10 99 25t94 36z" />
<glyph unicode="q" horiz-adv-x="595" d="M389 399q-27 17 -51.5 25t-48.5 8q-63 0 -99 -44.5t-36 -123.5q0 -85 40 -139.5t101 -54.5q21 0 45 8t52 25q0 62 1 127v18q0 59 -1 91t-3 60zM514 508q0 -18 -1 -56q-6 -200 -6 -305v-174q0 -19 -0.5 -47t-0.5 -39q0 -62 10.5 -80t41.5 -18q7 0 11.5 0.5t8.5 0.5v-42 q-43 2 -80 3t-62 1q-28 0 -62 -1t-72 -3v42q4 0 9.5 -0.5t15.5 -0.5q39 0 52.5 20.5t13.5 106.5v36v97q-49 -32 -83.5 -45t-69.5 -13q-90 0 -149.5 67t-59.5 169q0 114 76 190.5t189 76.5q32 0 66 -7.5t76 -24.5q18 9 36.5 20t39.5 26z" />
<glyph unicode="r" horiz-adv-x="424" d="M215 503q-3 -46 -5 -78.5t-3 -57.5q43 73 74.5 100t68.5 27q26 0 45 -19t19 -46q0 -25 -12 -39.5t-32 -14.5q-11 0 -31 8t-32 8q-22 0 -44 -16.5t-51 -55.5q0 -16 -0.5 -48t-0.5 -49v-54q0 -84 15 -106t59 -22q3 0 9.5 0.5t10.5 0.5v-41h-1q-109 7 -142 7q-26 0 -131 -7 h-10v42h13q37 0 50 18t13 86v59v106q0 73 -9 90.5t-34 17.5q-3 0 -10.5 -1t-12.5 -2l-4 39q46 7 92.5 19t95.5 29z" />
<glyph unicode="s" horiz-adv-x="480" d="M400 475q0 -31 3 -62.5t9 -63.5l-48 -9q-6 54 -32.5 79t-76.5 25q-40 0 -64.5 -20t-24.5 -51q0 -43 114 -78l3 -1q85 -26 116 -57t31 -85q0 -72 -61 -119.5t-157 -47.5q-39 0 -77 7.5t-73 22.5q0 5 0.5 12t0.5 21q0 27 -2.5 54t-7.5 53l45 11q11 -67 41.5 -97t85.5 -30 q47 0 74.5 21t27.5 57q0 43 -120 84q-20 7 -31 10q-58 20 -83.5 49.5t-25.5 76.5q0 73 54.5 117.5t146.5 44.5q27 0 59.5 -6t72.5 -18z" />
<glyph unicode="t" horiz-adv-x="395" d="M174 584l43 -12q-3 -27 -5.5 -52t-2.5 -47q64 0 95 1t58 3l-13 -67q-31 2 -66 3.5t-74 1.5q-1 -64 -2 -110t-1 -72q0 -107 15.5 -139.5t54.5 -32.5q16 0 36 6.5t45 19.5l19 -41q-54 -30 -96 -46t-69 -16q-62 0 -92 39t-30 122q0 16 2.5 106t2.5 164q-1 0 -23 -1t-52 -2 v47q57 8 95.5 39t59.5 86z" />
<glyph unicode="u" horiz-adv-x="622" d="M207 497q-3 -87 -5 -157.5t-2 -117.5q0 -85 20 -118.5t67 -33.5q23 0 52.5 10.5t63.5 31.5q1 70 2 118.5t1 77.5v22q0 61 -11 76t-41 15q-5 0 -10.5 -0.5t-11.5 -0.5l-3 39q51 5 100 12t96 16q-3 -113 -4.5 -172t-1.5 -110v-45q0 -63 8 -79.5t31 -16.5q6 0 13 1t15 3 l5 -40l-187 -42v75q-56 -41 -96 -58t-78 -17q-73 0 -109 45.5t-36 138.5v32.5t1 25.5l2 66q0 10 0.5 25t0.5 22q0 48 -8.5 65t-29.5 17q-9 0 -26 -2h-3l-3 40q46 6 93 15t95 21z" />
<glyph unicode="v" horiz-adv-x="538" d="M-1 484q41 -3 69.5 -4.5t46.5 -1.5q33 0 64 1.5t62 4.5v-43h-11q-24 0 -34.5 -7t-10.5 -22q0 -20 42 -131q37 -96 59 -159l28 69q83 200 84 225q0 14 -10.5 20t-34.5 6h-7v42q28 -3 53 -4.5t45 -1.5q19 0 71 4q14 1 21 2v-43h-8q-19 0 -32.5 -12.5t-30.5 -49.5 q-79 -173 -121.5 -271.5t-46.5 -117.5h-83q-2 15 -28.5 85.5t-108.5 274.5q-2 6 -7 18q-29 73 -64 73h-7v43z" />
<glyph unicode="w" horiz-adv-x="833" d="M2 484q46 -2 72 -3.5t41 -1.5q21 0 50 1t70 4v-42h-17q-19 0 -28.5 -8t-9.5 -25q0 -6 2.5 -16t6.5 -22l87 -248l112 253l-8 24q-10 27 -20.5 34.5t-31.5 7.5h-13v42q49 -3 74 -4t41 -1q20 0 48 1t73 4v-42h-16q-20 0 -29 -7t-9 -23q0 -6 1.5 -13.5t7.5 -25.5l86 -249 l22 57q80 208 80 233q0 15 -10.5 21.5t-35.5 6.5h-12v42q35 -2 59 -3.5t42 -1.5q12 0 42 2t48 3v-41h-2q-6 1 -9 2q-38 0 -122 -215q-58 -146 -99 -241h-70l-111 312q-46 -96 -81.5 -178.5t-53.5 -133.5h-70q-39 105 -90.5 254.5t-65.5 173.5q-8 14 -17.5 20t-23.5 6 q-1 0 -4.5 -0.5t-5.5 -0.5v42z" />
<glyph unicode="x" horiz-adv-x="579" d="M13 42q2 0 4.5 -0.5t6.5 -0.5q42 0 157 132q34 40 54 62l-119 154v1q-40 52 -66 52q-4 0 -6.5 -0.5t-4.5 -0.5v43q45 -2 71 -3.5t43 -1.5q22 0 51.5 1t72.5 4v-42h-5q-20 0 -28.5 -5.5t-8.5 -17.5q0 -10 13.5 -31t63.5 -84q47 57 65 82.5t18 35.5q0 12 -7.5 16t-30.5 4 v42q22 -2 45.5 -3.5t47.5 -1.5q21 0 44.5 1t48.5 4v-43h-1q-6 1 -10 2q-33 0 -132 -113q-34 -39 -54 -62l138 -175q25 -33 39 -42.5t30 -9.5q1 0 4.5 0.5t5.5 0.5v-42q-50 3 -80 4t-50 1q-15 0 -39.5 -1t-77.5 -4v42h6q21 0 30.5 5.5t9.5 17.5t-50 77q-26 34 -42 55 q-57 -69 -76.5 -97.5t-19.5 -37.5q0 -11 7 -15.5t23 -4.5h11v-42q-40 3 -63 4t-40 1q-14 0 -35.5 -1t-63.5 -4v42z" />
<glyph unicode="y" horiz-adv-x="535" d="M-1 484q41 -3 69.5 -4.5t46.5 -1.5q33 0 64 1.5t62 4.5v-43h-11q-24 0 -34.5 -7t-10.5 -22q0 -18 38 -118.5t62 -168.5q11 27 31 76q79 189 79 215q0 13 -9 19.5t-27 6.5h-16v42q28 -3 52.5 -4.5t45.5 -1.5q18 0 69 4q16 1 24 2v-43h-8q-18 0 -30 -9t-25 -33l-43 -95 q-43 -96 -87 -195q-17 -39 -47 -107q-115 -263 -174 -263q-24 0 -40 15t-16 37q0 32 45 41q18 3 24 6q24 12 70 108q12 26 19 41q-16 40 -65.5 163.5t-83.5 208.5q-2 5 -7 16q-26 66 -60 66h-7v43z" />
<glyph unicode="z" horiz-adv-x="509" d="M70 484q33 -2 72 -3.5t117 -1.5q104 0 140 1t55 4l17 -39q-33 -25 -100 -110l-12 -14l-172 -217q28 -2 57.5 -3t61.5 -1q83 0 106 15t31 56l40 -10q-11 -39 -18 -79t-10 -82q-64 4 -121 6.5t-104 2.5q-37 0 -80.5 -2t-101.5 -7l-18 40q34 22 93 95q10 12 14 18l186 230 q-38 0 -81 1t-49 1q-63 0 -81.5 -12.5t-25.5 -50.5l-41 10q9 37 15.5 75t9.5 77z" />
<glyph unicode="{" horiz-adv-x="453" d="M447 750v-47q-6 0 -12.5 0.5t-11.5 0.5q-115 0 -119 -171v-16l-1 -33q-2 -100 -29.5 -140.5t-95.5 -52.5v-6q66 -13 94 -52.5t31 -140.5l1 -33q0 -14 1 -27v-3q0 -98 24.5 -127.5t95.5 -29.5q5 0 10.5 0.5t11.5 0.5v-47q-2 0 -18.5 -0.5t-29.5 -0.5q-112 0 -154 40.5 t-46 185.5l-2 65q-2 90 -25 120.5t-80 30.5q-3 0 -9 -0.5t-9 -0.5v44q3 0 9.5 -0.5t9.5 -0.5q57 0 79.5 31.5t24.5 119.5l1 65q2 143 45 184.5t157 41.5q7 0 23 -0.5t24 -0.5z" />
<glyph unicode="|" horiz-adv-x="500" d="M294 764v-1000h-87v1000h87z" />
<glyph unicode="}" horiz-adv-x="453" d="M255 525l1 -65q2 -89 25 -120t81 -31q2 0 8 0.5t9 0.5v-44q-3 0 -10 0.5t-10 0.5q-56 0 -78.5 -31.5t-24.5 -119.5l-1 -65q-3 -144 -45.5 -185t-158.5 -41q-12 0 -27 0.5t-17 0.5v47q6 0 11.5 -0.5t11.5 -0.5q115 0 119 174v13l1 33q2 100 30 141t95 53v5q-67 12 -95 53 t-30 140l-1 34q0 18 -0.5 34t-0.5 37q0 63 -26.5 89t-92.5 26h-10t-12 -1v47q3 0 19 0.5t28 0.5q114 0 156.5 -41.5t44.5 -184.5z" />
<glyph unicode="~" horiz-adv-x="833" d="M747 293q-50 -35 -96.5 -52t-89.5 -17q-21 0 -45 4t-48 13q-12 4 -37 13q-104 36 -156 36q-40 0 -85 -18.5t-103 -59.5v91q52 35 98.5 52.5t90.5 17.5q30 0 61 -6t82 -23q6 -2 21 -8q80 -28 122 -28t86.5 18t98.5 57v-90z" />
<glyph unicode="&#xa0;" />
<glyph unicode="&#xa1;" horiz-adv-x="339" d="M135 498h52q3 -107 11.5 -232.5t20.5 -265.5h-133q0 91 29 324q14 112 20 174zM163 716l43 -29q17 -11 26 -24t9 -26q0 -16 -7 -26.5t-24 -22.5l-46 -32l-44 30q-18 11 -26 23.5t-8 26.5t6.5 24.5t23.5 22.5z" />
<glyph unicode="&#xa2;" d="M256 493q-38 -8 -61 -43.5t-23 -88.5t21.5 -89.5t61.5 -50.5zM253 709h56l-3 -158q64 -3 95.5 -19t31.5 -47q0 -19 -12 -33t-28 -14t-41 24.5t-46 30.5v-276h6q24 0 50 10.5t55 32.5l26 -41q-35 -30 -69.5 -47.5t-67.5 -22.5l2 -164h-58l3 163q-83 7 -134.5 61t-51.5 135 q0 80 50.5 135t137.5 69z" />
<glyph unicode="&#xa3;" d="M292 356h46q22 0 47 0.5t69 1.5v-57q-40 1 -80.5 2t-79.5 1q0 -5 0.5 -11t0.5 -17q0 -48 -18.5 -88t-56.5 -74q5 0 11.5 -0.5t7.5 -0.5q21 0 74 -9t82 -9q48 0 72 24t31 79l43 -5l-4 -34q-10 -92 -42.5 -132.5t-95.5 -40.5q-36 0 -107.5 19.5t-106.5 19.5q-28 0 -57 -11 t-57 -32l-27 40q79 42 119.5 93t40.5 108q0 15 -4 34t-12 46q-29 0 -57 -0.5t-57 -1.5v56q9 0 28 -1q47 -2 73 -2q-8 32 -12.5 61t-4.5 55q0 105 61.5 173.5t155.5 68.5q51 0 86.5 -23t35.5 -54q0 -21 -14.5 -36t-35.5 -15q-18 0 -48 30.5t-59 30.5q-30 0 -47 -28t-17 -78 q0 -23 6.5 -84.5t9.5 -98.5z" />
<glyph unicode="&#xa4;" d="M578 179q-15 -38 -26 -74.5t-19 -73.5q-44 -23 -86 -35.5t-81 -12.5q-109 0 -184 75.5t-94 204.5h-6q-12 0 -53 -1q-14 0 -21 -1l15 45l45 -1h6h9q0 6 -0.5 14.5t-0.5 24.5q0 8 0.5 17.5l1.5 28.5h-6q-11 0 -44 -1q-17 0 -26 -1l15 45q16 0 27.5 -0.5t23.5 -0.5h15 q22 126 100 202.5t185 76.5q46 0 90 -10t88 -30q0 -5 -0.5 -15.5t-0.5 -15.5q0 -42 8 -123l1 -9l-36 -7q-5 68 -46 107t-107 39q-63 0 -103.5 -56t-51.5 -159h134q40 0 74 0.5t56 0.5l-15 -45q-52 1 -102.5 1.5t-89.5 0.5h-60v-24q0 -16 0.5 -31.5t2.5 -29.5h134 q24 0 46 0.5t45 0.5l-15 -45q-11 0 -32 1q-73 1 -121 1h-51q16 -100 60 -156t105 -56q53 0 93 37.5t65 110.5z" />
<glyph unicode="&#xa5;" d="M144 0v44q4 0 8.5 -0.5t13.5 -0.5q39 0 52 17t13 75v122q-29 0 -84.5 -1t-74.5 -1v43h83h76l-41 86q-16 0 -56.5 -1.5t-61.5 -1.5v45h67h29l-77 159q-19 40 -33.5 53t-35.5 13q-5 0 -8 -0.5t-5 -0.5v44q41 -3 74.5 -4.5t57.5 -1.5t56.5 1.5t73.5 4.5v-44h-7 q-26 0 -37.5 -6t-11.5 -20q0 -9 21 -57l2 -5l84 -185l87 182q12 25 18.5 43t6.5 24q0 13 -9.5 18.5t-32.5 5.5h-7v44q27 -2 52.5 -3t50.5 -1q19 0 43.5 1t52.5 3v-44q-2 0 -6 0.5t-6 0.5q-36 0 -64 -52q-2 -5 -4 -7l-86 -166h41q14 0 29.5 0.5t33.5 1.5v-46q-17 0 -33.5 0.5 t-40.5 0.5h-8q-22 0 -43 1l-45 -86q21 -1 64 -1q7 0 33 0.5t73 2.5v-44q-23 0 -46.5 0.5t-54.5 0.5h-68v-115q0 -63 13 -81.5t52 -18.5q3 0 9.5 0.5t9.5 0.5v-43q-48 3 -86.5 4.5t-68.5 1.5q-21 0 -55 -1.5t-83 -4.5z" />
<glyph unicode="&#xa6;" horiz-adv-x="500" d="M294 199v-370h-87v370h87zM294 699v-370h-87v370h87z" />
<glyph unicode="&#xa7;" horiz-adv-x="530" d="M176 614q-26 -26 -39 -57.5t-13 -69.5q0 -51 22 -96t96 -123q81 -86 105.5 -129.5t24.5 -87.5q0 -17 -4 -35t-13 -40q30 36 44 72t14 75q0 90 -113 206q-23 23 -35 36q-58 62 -81 104.5t-23 82.5q0 14 3.5 28t11.5 34zM228 -122q-65 0 -113.5 32.5t-48.5 72.5 q0 20 14.5 34.5t34.5 14.5q11 0 19 -5.5t20 -23.5q24 -38 44 -51t47 -13q34 0 55 22t21 59q0 48 -101 158l-2 2l-5 6q-147 159 -147 271q0 103 68.5 177.5t159.5 74.5q62 0 107 -30t45 -68q0 -21 -13.5 -35.5t-31.5 -14.5t-44 35q-3 5 -5 7q-18 24 -36 35t-40 11 q-28 0 -47 -20t-19 -50q0 -49 110 -162l13 -13l10 -10q128 -130 128 -242q0 -109 -74 -191.5t-169 -82.5z" />
<glyph unicode="&#xa8;" horiz-adv-x="500" d="M369 707q23 0 48 -23t25 -45q0 -21 -25 -43.5t-48 -22.5t-47.5 23t-24.5 43q0 22 24.5 45t47.5 23zM131 707q23 0 47.5 -23t24.5 -45q0 -21 -24.5 -43.5t-47.5 -22.5t-48 23t-25 43q0 22 25 45t48 23z" />
<glyph unicode="&#xa9;" horiz-adv-x="821" d="M569 537l1 -156h-23q-16 65 -50 99t-84 34q-57 0 -86 -46t-29 -134q0 -90 31.5 -137.5t92.5 -47.5q40 0 73.5 21t61.5 64l21 -13q-31 -53 -73.5 -78.5t-97.5 -25.5q-86 0 -145 60.5t-59 149.5q0 90 58.5 151t144.5 61q39 0 75 -16t38 -16q14 0 20.5 7t9.5 23h20zM715 331 q0 61 -23.5 118t-66.5 100q-42 42 -97.5 65t-115.5 23q-62 0 -118 -23.5t-98 -66.5q-43 -44 -66 -99.5t-23 -116.5q0 -62 23 -117t67 -99t98 -66.5t116 -22.5t117 23t97 66q43 43 66.5 99.5t23.5 116.5zM412 684q68 0 133 -27t114 -76q49 -50 76.5 -115t27.5 -135 q0 -69 -27 -133.5t-77 -115.5q-49 -50 -112.5 -76t-135.5 -26q-71 0 -134 26t-114 76q-51 51 -77.5 114.5t-26.5 134.5q0 70 26.5 134t76.5 115q50 50 115 77t135 27z" />
<glyph unicode="&#xaa;" horiz-adv-x="394" d="M236 522q-9 -2 -25 -6q-104 -27 -104 -64q0 -21 14.5 -34.5t36.5 -13.5q14 0 32.5 6.5t45.5 22.5v89zM382 417l13 -26q-32 -20 -58.5 -30t-48.5 -10q-26 0 -39 12t-15 37q-40 -26 -67.5 -37.5t-49.5 -11.5q-39 0 -66 27.5t-27 66.5q0 66 158 100q34 7 53 11q0 9 0.5 17.5 t0.5 15.5q0 37 -15.5 53.5t-48.5 16.5q-21 0 -37 -8t-17 -20v-5q-3 -33 -47 -33q-16 0 -24.5 5.5t-8.5 14.5q0 28 54 61.5t113 33.5q58 0 88 -28t30 -82q0 -17 -3 -68.5t-3 -86.5q0 -21 6 -30t18 -9q7 0 17 3t24 10z" />
<glyph unicode="&#xab;" horiz-adv-x="446" d="M348 58q-26 42 -55.5 87t-65.5 99q27 40 56.5 85.5t64.5 102.5l47 -21q-11 -28 -33 -83.5t-33 -82.5q19 -49 56 -142l9 -24zM186 54q-37 50 -75.5 97.5t-78.5 92.5q46 53 83.5 99.5t70.5 91.5l43 -26q-23 -44 -44 -85.5t-40 -79.5q21 -44 67 -133l16 -30z" />
<glyph unicode="&#xac;" horiz-adv-x="833" d="M709 421v-245h-81v164h-504v81h585z" />
<glyph unicode="&#xad;" horiz-adv-x="371" d="M33 198q10 26 18 51t14 49q15 0 42 -1q64 -1 84 -1q52 0 84 0.5t63 1.5q-11 -27 -18.5 -51.5t-13.5 -48.5q-48 1 -81 2t-51 1q-24 0 -59.5 -1t-81.5 -2z" />
<glyph unicode="&#xae;" horiz-adv-x="821" d="M365 479v-126q7 0 13.5 -0.5t12.5 -0.5q49 0 75.5 21.5t26.5 61.5q0 34 -22.5 55.5t-59.5 21.5q-23 0 -34.5 -8.5t-11.5 -24.5zM423 535q71 0 113.5 -27t42.5 -69q0 -41 -32 -65t-106 -37q47 -12 72 -35.5t34 -62.5q3 -12 5 -32q4 -44 26 -45q14 0 21.5 16.5t7.5 48.5h24 v-11q0 -42 -21 -63.5t-62 -21.5q-22 0 -39 7t-26 21q-12 19 -13.5 54.5t-3.5 45.5q-8 36 -29.5 53.5t-59.5 17.5h-12v-120q0 -24 11 -34t42 -13v-23h-190v23q31 2 43 12t12 35v254q0 25 -11.5 35t-43.5 12v24h195zM715 331q0 60 -24 117.5t-66 100.5q-42 42 -97.5 65 t-115.5 23q-62 0 -118 -23.5t-98 -66.5q-43 -44 -66 -99t-23 -117t23 -117t67 -99t98 -66.5t116 -22.5t117 23t97 66q43 44 66.5 100t23.5 116zM412 684q70 0 136 -28t115 -78q48 -50 74 -115t26 -136q0 -67 -29 -133t-81 -117q-49 -49 -111.5 -73t-137.5 -24 q-66 0 -129 26.5t-112 75.5q-51 51 -77.5 114.5t-26.5 134.5q0 70 26.5 134.5t76.5 114.5t115 77t135 27z" />
<glyph unicode="&#xaf;" horiz-adv-x="500" d="M97 678h306v-77h-306v77z" />
<glyph unicode="&#xb0;" horiz-adv-x="329" d="M255 569q0 38 -26 64t-64 26t-64.5 -26.5t-26.5 -63.5t26.5 -64t64.5 -27t64 26.5t26 64.5zM165 713q60 0 102 -42.5t42 -102.5q0 -59 -42.5 -101.5t-102.5 -42.5t-101.5 41.5t-41.5 102.5t42 103t102 42z" />
<glyph unicode="&#xb1;" horiz-adv-x="833" d="M709 89v-82h-585v82h585zM458 589v-163h251v-81h-251v-163h-83v163h-251v81h251v163h83z" />
<glyph unicode="&#xb2;" horiz-adv-x="392" d="M125 345q40 0 87 -1h17h10q59 0 74.5 9.5t22.5 36.5l28 -8q-9 -23 -16.5 -49t-12.5 -55q-6 0 -18 1q-101 3 -145 3q-40 0 -132 -4h-12l-12 26q104 76 159.5 145t55.5 121q0 36 -22 57.5t-60 21.5q-25 0 -48.5 -15t-43.5 -45l-33 19q29 48 67.5 72t86.5 24q57 0 98 -36 t41 -86q0 -48 -40 -99t-152 -138z" />
<glyph unicode="&#xb3;" horiz-adv-x="392" d="M214 508h23q47 0 77 -26.5t30 -68.5q0 -61 -55.5 -103t-136.5 -42q-52 0 -88 20.5t-36 47.5q0 14 12.5 24.5t28.5 10.5t32 -22q3 -4 5 -7q12 -16 24.5 -23t31.5 -7q40 0 67 24.5t27 60.5t-22 56.5t-58 20.5q-11 0 -25.5 -3t-34.5 -9l-11 27q63 23 93.5 48.5t30.5 55.5 q0 27 -18.5 44t-47.5 17q-25 0 -46.5 -12.5t-43.5 -39.5l-31 18q26 42 62.5 63t82.5 21q54 0 90 -28t36 -70q0 -32 -24 -56t-75 -42z" />
<glyph unicode="&#xb4;" horiz-adv-x="500" d="M296 769l95 -53l-174 -163l-48 18z" />
<glyph unicode="&#xb5;" horiz-adv-x="578" d="M33 182l53 250h101l-49 -228q-5 -22 -7.5 -40t-2.5 -28q0 -31 18 -49t50 -18q42 0 67.5 26t37.5 82l54 255h102l-55 -260q0 -2 -2 -7q-7 -34 -7 -54q0 -21 11 -32.5t31 -11.5t35 10.5t28 33.5q4 8 11 24q12 29 25 29q5 0 8 -3.5t3 -11.5q0 -14 -8.5 -42t-19.5 -49 q-20 -35 -46.5 -52.5t-60.5 -17.5q-41 0 -63 27t-23 76q-21 -51 -54 -77t-76 -26q-48 0 -76.5 28t-33.5 82q-11 -61 -23 -154q-19 -149 -66 -149q-23 0 -35.5 13t-12.5 36q0 25 33.5 138t52.5 200z" />
<glyph unicode="&#xb6;" horiz-adv-x="569" d="M391 656q-45 -3 -66 -52t-21 -153q0 -98 23 -153.5t65 -60.5zM544 705v-44h-14q-34 0 -48.5 -8.5t-20.5 -32.5q-4 -17 -5.5 -82.5t-1.5 -306.5q0 -60 1 -154t2 -221h-69l4 337q-21 -2 -37.5 -3.5t-29.5 -1.5q-124 0 -201 70t-77 181q0 117 83.5 191t216.5 74 q13 0 49.5 -1.5t60.5 -1.5q11 0 51 2q22 2 36 2z" />
<glyph unicode="&#xb7;" horiz-adv-x="296" d="M148 443q37 0 63 -26t26 -63t-26 -63t-63 -26q-36 0 -62.5 26.5t-26.5 62.5t26.5 62.5t62.5 26.5z" />
<glyph unicode="&#xb8;" horiz-adv-x="500" d="M262 9h50l-46 -69q39 -7 58 -25t19 -45q0 -40 -42.5 -70t-115.5 -42l-20 38q40 7 61.5 23t21.5 39q0 20 -16 32.5t-46 15.5z" />
<glyph unicode="&#xb9;" horiz-adv-x="392" d="M247 705q-2 -61 -3.5 -112t-1.5 -98q0 -17 -0.5 -44.5t-0.5 -38.5q0 -42 2.5 -62.5t8.5 -29.5q6 -8 18.5 -12t34.5 -4h7v-26q-12 0 -34 1q-63 3 -85 3q-20 0 -81 -3q-21 -1 -31 -1v26q40 0 53 4.5t20 16.5q6 10 8 47.5t2 173.5q0 21 -1 56.5t-1 49.5h-12q-9 0 -29.5 -1.5 t-45.5 -3.5l-4 29q41 5 85.5 12.5t90.5 16.5z" />
<glyph unicode="&#xba;" horiz-adv-x="441" d="M215 664q-44 0 -69 -31.5t-25 -88.5q0 -69 28 -110t76 -41q45 0 71.5 32.5t26.5 90.5q0 68 -29 108t-79 40zM223 708q85 0 140.5 -49.5t55.5 -124.5q0 -79 -57.5 -132t-143.5 -53q-85 0 -139.5 49.5t-54.5 127.5q0 77 58 129.5t141 52.5z" />
<glyph unicode="&#xbb;" horiz-adv-x="446" d="M99 431q1 -1 36.5 -55t85.5 -131q-37 -52 -67.5 -100t-53.5 -88l-47 21q16 42 32.5 83t33.5 83q-16 42 -32.5 83.5t-32.5 82.5zM262 435q47 -61 87.5 -111t66.5 -79q-48 -54 -88 -103.5t-66 -87.5l-44 27q35 65 56 106t29 58q-20 40 -40.5 80.5t-43.5 82.5z" />
<glyph unicode="&#xbc;" horiz-adv-x="915" d="M748 317l-131 -153q23 -1 50 -1.5t80 -0.5zM766 394h56q-2 -54 -3 -111t-1 -121q19 0 39 1t41 2q-3 -12 -7 -27.5t-5 -18.5q-12 0 -26 0.5t-42 0.5v-38q0 -41 7.5 -49.5t32.5 -8.5h10v-24q-30 1 -52.5 2t-36.5 1t-36 -1t-51 -2v24h10q26 0 35 10.5t9 50.5v35l-82 1h-15 q-41 0 -78 -1l-17 34q21 21 41 42t40 43l38 43q29 32 51.5 59t41.5 53zM654 713l53 -25q-93 -141 -201 -313t-244 -396l-56 24q129 194 441 699zM236 704q-3 -49 -4.5 -98t-1.5 -98v-77q0 -38 2.5 -57.5t7.5 -28.5q6 -7 17.5 -10.5t33.5 -3.5h7v-25q-37 1 -65.5 2t-48.5 1 q-19 0 -46 -0.5t-61 -2.5v25q41 0 52.5 4t17.5 15q5 9 7 44t2 162q0 21 -0.5 43.5t-1.5 55.5h-11q-9 0 -28.5 -1.5t-42.5 -3.5l-5 27q42 6 84.5 12.5t84.5 14.5z" />
<glyph unicode="&#xbd;" horiz-adv-x="915" d="M660 63q28 0 52.5 -0.5t47.5 -0.5h9q56 0 70.5 8.5t22.5 33.5l27 -7q-11 -26 -17.5 -50t-10.5 -47h-15q-98 3 -141 4q-40 0 -127 -4h-10l-12 25q99 70 152.5 134.5t53.5 112.5q0 34 -21.5 54t-57.5 20q-24 0 -46 -13.5t-42 -41.5l-31 17q28 45 64.5 67.5t81.5 22.5 q56 0 95 -33.5t39 -80.5q0 -45 -38.5 -92.5t-145.5 -128.5zM654 713l53 -25q-93 -141 -201 -313t-244 -396l-56 24q129 194 441 699zM236 704q-3 -49 -4.5 -98t-1.5 -98v-77q0 -38 2.5 -57.5t7.5 -28.5q6 -7 17.5 -10.5t33.5 -3.5h7v-25q-37 1 -65.5 2t-48.5 1 q-19 0 -46 -0.5t-61 -2.5v25q41 0 52.5 4t17.5 15q5 9 7 44t2 162q0 21 -0.5 43.5t-1.5 55.5h-11q-9 0 -28.5 -1.5t-42.5 -3.5l-5 27q42 6 84.5 12.5t84.5 14.5z" />
<glyph unicode="&#xbe;" horiz-adv-x="915" d="M748 317l-131 -153q23 -1 50 -1.5t80 -0.5zM766 394h56q-2 -54 -3 -111t-1 -121q19 0 39 1t41 2q-3 -12 -7 -27.5t-5 -18.5q-12 0 -26 0.5t-42 0.5v-38q0 -41 7.5 -49.5t32.5 -8.5h10v-24q-30 1 -52.5 2t-36.5 1t-36 -1t-51 -2v24h10q26 0 35 10.5t9 50.5v35l-82 1h-15 q-41 0 -78 -1l-17 34q21 21 41 42t40 43l38 43q29 32 51.5 59t41.5 53zM654 713l53 -25q-93 -141 -201 -313t-244 -396l-56 24q129 194 441 699zM204 520q6 0 11.5 0.5t10.5 0.5q44 0 73 -25t29 -64q0 -56 -53 -95.5t-129 -39.5q-50 0 -84.5 19t-34.5 44q0 14 11.5 23.5 t27.5 9.5q15 0 29 -19l6 -8q11 -15 23.5 -22t30.5 -7q38 0 63.5 23t25.5 57q0 33 -20.5 52.5t-55.5 19.5q-10 0 -22.5 -2.5t-34.5 -8.5l-11 25q61 21 90 45t29 52q0 25 -17.5 41t-45.5 16q-24 0 -45 -12t-42 -37l-29 17q25 39 60.5 59t78.5 20q51 0 85.5 -26.5t34.5 -65.5 q0 -30 -23.5 -52.5t-71.5 -39.5z" />
<glyph unicode="&#xbf;" horiz-adv-x="480" d="M324 712l44 -28q18 -12 26.5 -24.5t8.5 -27.5q0 -14 -7.5 -25t-23.5 -22l-47 -32l-44 30q-17 11 -25.5 23.5t-8.5 27.5q0 14 6.5 24t23.5 22zM304 495h44q0 -7 -0.5 -16t-0.5 -27q0 -32 1.5 -65t4.5 -67q-90 -17 -136.5 -55.5t-46.5 -96.5q0 -41 29 -69.5t70 -28.5 q33 0 71.5 25.5t51.5 25.5q18 0 30 -14t12 -36q0 -39 -35.5 -64t-93.5 -25q-98 0 -167 63t-69 153q0 65 40 115t121 84q4 2 13 5q58 23 61 93z" />
<glyph unicode="&#xc0;" horiz-adv-x="775" d="M363 583l-107 -270q19 0 39.5 -0.5t55.5 -0.5h62.5t42.5 1zM336 700h119q70 -206 134 -378.5t89 -229.5q11 -26 27.5 -37t43.5 -11h11v-44q-62 3 -95.5 4t-55.5 1q-21 0 -55.5 -1t-99.5 -4v44h9q39 0 52.5 9t13.5 31q0 7 -2 16t-7 26l-40 118q-28 0 -73.5 1t-56.5 1 q-21 0 -84 -1q-23 0 -36 -1l-2 -5q-48 -117 -48 -147q0 -25 14.5 -36.5t47.5 -11.5h9v-44q-56 3 -86.5 4t-50.5 1q-17 0 -44 -1t-79 -4v44q35 0 56 12t36 41q21 38 95 213t158 390zM349 982l129 -199l-48 -17l-175 165z" />
<glyph unicode="&#xc1;" horiz-adv-x="775" d="M363 583l-107 -270q19 0 39.5 -0.5t55.5 -0.5h62.5t42.5 1zM336 700h119q70 -206 134 -378.5t89 -229.5q11 -26 27.5 -37t43.5 -11h11v-44q-62 3 -95.5 4t-55.5 1q-21 0 -55.5 -1t-99.5 -4v44h9q39 0 52.5 9t13.5 31q0 7 -2 16t-7 26l-40 118q-28 0 -73.5 1t-56.5 1 q-21 0 -84 -1q-23 0 -36 -1l-2 -5q-48 -117 -48 -147q0 -25 14.5 -36.5t47.5 -11.5h9v-44q-56 3 -86.5 4t-50.5 1q-17 0 -44 -1t-79 -4v44q35 0 56 12t36 41q21 38 95 213t158 390zM442 982l95 -53l-174 -163l-48 18z" />
<glyph unicode="&#xc2;" horiz-adv-x="775" d="M363 583l-107 -270q19 0 39.5 -0.5t55.5 -0.5h62.5t42.5 1zM336 700h119q70 -206 134 -378.5t89 -229.5q11 -26 27.5 -37t43.5 -11h11v-44q-62 3 -95.5 4t-55.5 1q-21 0 -55.5 -1t-99.5 -4v44h9q39 0 52.5 9t13.5 31q0 7 -2 16t-7 26l-40 118q-28 0 -73.5 1t-56.5 1 q-21 0 -84 -1q-23 0 -36 -1l-2 -5q-48 -117 -48 -147q0 -25 14.5 -36.5t47.5 -11.5h9v-44q-56 3 -86.5 4t-50.5 1q-17 0 -44 -1t-79 -4v44q35 0 56 12t36 41q21 38 95 213t158 390zM371 954h49l145 -169l-41 -19l-128 99l-128 -99l-41 20z" />
<glyph unicode="&#xc3;" horiz-adv-x="775" d="M363 583l-107 -270q19 0 39.5 -0.5t55.5 -0.5h62.5t42.5 1zM336 700h119q70 -206 134 -378.5t89 -229.5q11 -26 27.5 -37t43.5 -11h11v-44q-62 3 -95.5 4t-55.5 1q-21 0 -55.5 -1t-99.5 -4v44h9q39 0 52.5 9t13.5 31q0 7 -2 16t-7 26l-40 118q-28 0 -73.5 1t-56.5 1 q-21 0 -84 -1q-23 0 -36 -1l-2 -5q-48 -117 -48 -147q0 -25 14.5 -36.5t47.5 -11.5h9v-44q-56 3 -86.5 4t-50.5 1q-17 0 -44 -1t-79 -4v44q35 0 56 12t36 41q21 38 95 213t158 390zM575 932l29 -25q-27 -36 -59 -63.5t-71 -47.5q-37 5 -93 16t-75 11q-26 0 -48.5 -11.5 t-44.5 -36.5l-27 25q29 38 61 65.5t71 46.5q37 -5 93.5 -16t74.5 -11q25 0 46.5 11.5t42.5 35.5z" />
<glyph unicode="&#xc4;" horiz-adv-x="775" d="M363 583l-107 -270q19 0 39.5 -0.5t55.5 -0.5h62.5t42.5 1zM336 700h119q70 -206 134 -378.5t89 -229.5q11 -26 27.5 -37t43.5 -11h11v-44q-62 3 -95.5 4t-55.5 1q-21 0 -55.5 -1t-99.5 -4v44h9q39 0 52.5 9t13.5 31q0 7 -2 16t-7 26l-40 118q-28 0 -73.5 1t-56.5 1 q-21 0 -84 -1q-23 0 -36 -1l-2 -5q-48 -117 -48 -147q0 -25 14.5 -36.5t47.5 -11.5h9v-44q-56 3 -86.5 4t-50.5 1q-17 0 -44 -1t-79 -4v44q35 0 56 12t36 41q21 38 95 213t158 390zM515 920q23 0 48 -23t25 -45q0 -21 -25 -43.5t-48 -22.5t-47.5 23t-24.5 43q0 22 24.5 45 t47.5 23zM277 920q23 0 47.5 -23t24.5 -45q0 -21 -24.5 -43.5t-47.5 -22.5t-48 23t-25 43q0 22 25 45t48 23z" />
<glyph unicode="&#xc5;" horiz-adv-x="775" d="M363 583l-107 -270q19 0 39.5 -0.5t55.5 -0.5h62.5t42.5 1zM335 697h121q71 -207 135 -379.5t87 -225.5q11 -26 27.5 -37t43.5 -11h11v-44q-62 3 -95.5 4t-55.5 1q-21 0 -55.5 -1t-99.5 -4v44h9q39 0 52.5 9t13.5 31q0 7 -2 16t-7 26l-40 118q-28 0 -73.5 1t-56.5 1 q-21 0 -84 -1q-23 0 -36 -1q-28 -66 -39 -100t-11 -52q0 -25 14.5 -36.5t47.5 -11.5h9v-44q-56 3 -86.5 4t-50.5 1q-17 0 -44 -1t-79 -4v44q35 0 56.5 12t35.5 40q25 50 97.5 222t154.5 379zM396 907q-25 0 -43.5 -18.5t-18.5 -43.5t18.5 -43.5t42.5 -18.5q25 0 43.5 18 t18.5 43q0 26 -18 44.5t-43 18.5zM396 963q49 0 83 -34.5t34 -85.5q0 -48 -35 -82t-85 -34q-47 0 -81 34.5t-34 83.5t34.5 83.5t83.5 34.5z" />
<glyph unicode="&#xc6;" horiz-adv-x="1120" d="M582 642l-220 -332q23 0 43.5 -0.5t39.5 -0.5q50 0 78 0.5t54 0.5q1 52 2.5 167t2.5 165zM405 698q65 -3 143 -5t197 -2q96 0 163 1.5t125 5.5q0 -47 3 -88.5t8 -78.5l-43 -6q-6 60 -40.5 82t-131.5 22q-21 0 -50 -1t-69 -2q0 -79 -1 -138t-2 -99q15 0 46 -0.5t47 -0.5 h30q79 0 99 13t24 51l41 -4q-3 -31 -5 -59t-2 -47q0 -20 0.5 -42.5t2.5 -45.5l-41 -3v6q0 42 -24 56.5t-111 14.5h-87h-20q0 -18 -0.5 -53.5t-0.5 -52.5q0 -27 0.5 -57t1.5 -91q26 -3 55 -4.5t60 -1.5q118 0 159 24.5t64 93.5l45 -14q-15 -44 -27 -87t-21 -85 q-83 3 -162 4.5t-153 1.5q-44 0 -94.5 -1.5t-146.5 -4.5v44q4 0 9 -0.5t13 -0.5q40 0 54 25t14 123v56q-36 0 -67.5 0.5t-60.5 0.5h-70.5t-59.5 -1q-14 -21 -38 -58q-58 -90 -58 -114q0 -16 13.5 -23.5t42.5 -7.5h12v-44q-36 3 -69.5 4.5t-67.5 1.5q-28 0 -61.5 -1.5 t-70.5 -4.5v43q2 0 7 -0.5t7 -0.5q57 0 129 104q6 8 9 13q48 69 128 182q185 263 185 283q0 16 -13.5 22.5t-46.5 6.5h-22v45z" />
<glyph unicode="&#xc7;" horiz-adv-x="729" d="M669 673q0 -5 -0.5 -15.5t-0.5 -15.5q0 -33 3 -69.5t9 -80.5l-48 -8q-8 73 -62 113t-143 40q-113 0 -175.5 -70.5t-62.5 -199.5q0 -139 70.5 -221.5t188.5 -82.5q74 0 126.5 33.5t85.5 102.5l43 -20q-20 -39 -34.5 -75.5t-24.5 -72.5q-59 -24 -115.5 -36.5t-108.5 -12.5 q-170 0 -275.5 100.5t-105.5 262.5q0 160 110.5 264t280.5 104q61 0 120 -9.5t119 -30.5zM377 9h50l-46 -69q39 -7 58 -25t19 -45q0 -40 -42.5 -70t-115.5 -42l-20 38q40 7 61.5 23t21.5 39q0 20 -16 32.5t-46 15.5z" />
<glyph unicode="&#xc8;" horiz-adv-x="674" d="M42 698q83 -3 153.5 -5t123.5 -2q89 0 151 1.5t115 5.5q1 -42 4 -83.5t8 -83.5l-44 -6q-7 61 -40.5 82.5t-133.5 21.5q-18 0 -48 -1t-74 -2q-1 -64 -1.5 -123.5t-1.5 -113.5h14q28 0 70.5 -0.5t56.5 -0.5q67 0 88 13.5t23 50.5l36 -4q0 -24 -1.5 -61t-1.5 -50t1 -33.5 t2 -49.5l-41 -3v6q0 42 -24 56.5t-114 14.5h-73h-37v-56q0 -43 0.5 -89t1.5 -109q22 -3 55 -4.5t72 -1.5q117 0 155.5 24.5t62.5 93.5l45 -14q-16 -47 -27.5 -89.5t-19.5 -82.5q-115 4 -183.5 5.5t-121.5 1.5q-60 0 -192 -5q-45 -1 -69 -2v43q3 0 6.5 -0.5t11.5 -0.5 q41 0 55.5 25t14.5 132v49v45l1 109q0 7 1 22q1 60 1 82t-0.5 46t-0.5 26q0 42 -15.5 59t-53.5 17h-11v44zM291 982l129 -199l-48 -17l-175 165z" />
<glyph unicode="&#xc9;" horiz-adv-x="674" d="M42 698q83 -3 153.5 -5t123.5 -2q89 0 151 1.5t115 5.5q1 -42 4 -83.5t8 -83.5l-44 -6q-7 61 -40.5 82.5t-133.5 21.5q-18 0 -48 -1t-74 -2q-1 -64 -1.5 -123.5t-1.5 -113.5h14q28 0 70.5 -0.5t56.5 -0.5q67 0 88 13.5t23 50.5l36 -4q0 -24 -1.5 -61t-1.5 -50t1 -33.5 t2 -49.5l-41 -3v6q0 42 -24 56.5t-114 14.5h-73h-37v-56q0 -43 0.5 -89t1.5 -109q22 -3 55 -4.5t72 -1.5q117 0 155.5 24.5t62.5 93.5l45 -14q-16 -47 -27.5 -89.5t-19.5 -82.5q-115 4 -183.5 5.5t-121.5 1.5q-60 0 -192 -5q-45 -1 -69 -2v43q3 0 6.5 -0.5t11.5 -0.5 q41 0 55.5 25t14.5 132v49v45l1 109q0 7 1 22q1 60 1 82t-0.5 46t-0.5 26q0 42 -15.5 59t-53.5 17h-11v44zM384 982l95 -53l-174 -163l-48 18z" />
<glyph unicode="&#xca;" horiz-adv-x="674" d="M42 698q83 -3 153.5 -5t123.5 -2q89 0 151 1.5t115 5.5q1 -42 4 -83.5t8 -83.5l-44 -6q-7 61 -40.5 82.5t-133.5 21.5q-18 0 -48 -1t-74 -2q-1 -64 -1.5 -123.5t-1.5 -113.5h14q28 0 70.5 -0.5t56.5 -0.5q67 0 88 13.5t23 50.5l36 -4q0 -24 -1.5 -61t-1.5 -50t1 -33.5 t2 -49.5l-41 -3v6q0 42 -24 56.5t-114 14.5h-73h-37v-56q0 -43 0.5 -89t1.5 -109q22 -3 55 -4.5t72 -1.5q117 0 155.5 24.5t62.5 93.5l45 -14q-16 -47 -27.5 -89.5t-19.5 -82.5q-115 4 -183.5 5.5t-121.5 1.5q-60 0 -192 -5q-45 -1 -69 -2v43q3 0 6.5 -0.5t11.5 -0.5 q41 0 55.5 25t14.5 132v49v45l1 109q0 7 1 22q1 60 1 82t-0.5 46t-0.5 26q0 42 -15.5 59t-53.5 17h-11v44zM313 954h49l145 -169l-41 -19l-128 99l-128 -99l-41 20z" />
<glyph unicode="&#xcb;" horiz-adv-x="674" d="M42 698q83 -3 153.5 -5t123.5 -2q89 0 151 1.5t115 5.5q1 -42 4 -83.5t8 -83.5l-44 -6q-7 61 -40.5 82.5t-133.5 21.5q-18 0 -48 -1t-74 -2q-1 -64 -1.5 -123.5t-1.5 -113.5h14q28 0 70.5 -0.5t56.5 -0.5q67 0 88 13.5t23 50.5l36 -4q0 -24 -1.5 -61t-1.5 -50t1 -33.5 t2 -49.5l-41 -3v6q0 42 -24 56.5t-114 14.5h-73h-37v-56q0 -43 0.5 -89t1.5 -109q22 -3 55 -4.5t72 -1.5q117 0 155.5 24.5t62.5 93.5l45 -14q-16 -47 -27.5 -89.5t-19.5 -82.5q-115 4 -183.5 5.5t-121.5 1.5q-60 0 -192 -5q-45 -1 -69 -2v43q3 0 6.5 -0.5t11.5 -0.5 q41 0 55.5 25t14.5 132v49v45l1 109q0 7 1 22q1 60 1 82t-0.5 46t-0.5 26q0 42 -15.5 59t-53.5 17h-11v44zM457 920q23 0 48 -23t25 -45q0 -21 -25 -43.5t-48 -22.5t-47.5 23t-24.5 43q0 22 24.5 45t47.5 23zM219 920q23 0 47.5 -23t24.5 -45q0 -21 -24.5 -43.5t-47.5 -22.5 t-48 23t-25 43q0 22 25 45t48 23z" />
<glyph unicode="&#xcc;" horiz-adv-x="382" d="M35 697q48 -3 88 -4.5t71 -1.5t69 1.5t85 4.5v-44h-10q-34 0 -48.5 -7t-20.5 -25q-5 -15 -7.5 -59.5t-2.5 -159.5v-201q0 -69 2.5 -95.5t9.5 -38.5t23 -17.5t48 -5.5h12v-44q-54 3 -94.5 4.5t-68.5 1.5q-26 0 -67 -1.5t-95 -4.5v44h12q33 0 49 5.5t22 17.5q7 14 10 45 t3 112v74v212q0 61 -2.5 85t-9.5 35q-6 12 -22 17.5t-46 5.5h-10v44zM145 982l129 -199l-48 -17l-175 165z" />
<glyph unicode="&#xcd;" horiz-adv-x="382" d="M35 697q48 -3 88 -4.5t71 -1.5t69 1.5t85 4.5v-44h-10q-34 0 -48.5 -7t-20.5 -25q-5 -15 -7.5 -59.5t-2.5 -159.5v-201q0 -69 2.5 -95.5t9.5 -38.5t23 -17.5t48 -5.5h12v-44q-54 3 -94.5 4.5t-68.5 1.5q-26 0 -67 -1.5t-95 -4.5v44h12q33 0 49 5.5t22 17.5q7 14 10 45 t3 112v74v212q0 61 -2.5 85t-9.5 35q-6 12 -22 17.5t-46 5.5h-10v44zM238 982l95 -53l-174 -163l-48 18z" />
<glyph unicode="&#xce;" horiz-adv-x="382" d="M35 697q48 -3 88 -4.5t71 -1.5t69 1.5t85 4.5v-44h-10q-34 0 -48.5 -7t-20.5 -25q-5 -15 -7.5 -59.5t-2.5 -159.5v-201q0 -69 2.5 -95.5t9.5 -38.5t23 -17.5t48 -5.5h12v-44q-54 3 -94.5 4.5t-68.5 1.5q-26 0 -67 -1.5t-95 -4.5v44h12q33 0 49 5.5t22 17.5q7 14 10 45 t3 112v74v212q0 61 -2.5 85t-9.5 35q-6 12 -22 17.5t-46 5.5h-10v44zM167 954h49l145 -169l-41 -19l-128 99l-128 -99l-41 20z" />
<glyph unicode="&#xcf;" horiz-adv-x="382" d="M35 697q48 -3 88 -4.5t71 -1.5t69 1.5t85 4.5v-44h-10q-34 0 -48.5 -7t-20.5 -25q-5 -15 -7.5 -59.5t-2.5 -159.5v-201q0 -69 2.5 -95.5t9.5 -38.5t23 -17.5t48 -5.5h12v-44q-54 3 -94.5 4.5t-68.5 1.5q-26 0 -67 -1.5t-95 -4.5v44h12q33 0 49 5.5t22 17.5q7 14 10 45 t3 112v74v212q0 61 -2.5 85t-9.5 35q-6 12 -22 17.5t-46 5.5h-10v44zM311 920q23 0 48 -23t25 -45q0 -21 -25 -43.5t-48 -22.5t-47.5 23t-24.5 43q0 22 24.5 45t47.5 23zM73 920q23 0 47.5 -23t24.5 -45q0 -21 -24.5 -43.5t-47.5 -22.5t-48 23t-25 43q0 22 25 45t48 23z" />
<glyph unicode="&#xd0;" horiz-adv-x="833" d="M265 78q30 -7 59.5 -10t60.5 -3q127 0 195.5 70t68.5 199q0 142 -73.5 220.5t-205.5 78.5q-19 0 -43.5 -2t-57.5 -6q-1 -61 -1.5 -140t-1.5 -98q35 0 75 -1h12q14 0 44.5 0.5t47.5 0.5v-60q-30 0 -57 0.5t-51 0.5h-71q0 -35 -0.5 -67t-0.5 -60v-123zM43 44q4 0 8.5 -0.5 t12.5 -0.5q41 0 55 26.5t14 123.5v100v35h-52h-34t-38 -1v60q11 0 31 -0.5t30 -0.5h9q29 1 54 1v50q0 21 0.5 55t0.5 47q0 72 -14 93.5t-53 21.5q-6 0 -10 -0.5t-7 -0.5v44q44 -2 75.5 -3.5t55.5 -1.5q45 0 116.5 4t97.5 4q188 0 295 -93.5t107 -256.5q0 -74 -29.5 -140 t-83.5 -115q-55 -50 -129.5 -74t-177.5 -24q-13 0 -85.5 4t-131.5 4q-14 0 -96 -4l-21 -1v44z" />
<glyph unicode="&#xd1;" horiz-adv-x="842" d="M23 696q19 0 58.5 -2.5t56.5 -2.5q15 0 53 2t56 3q7 -18 20 -38.5t35 -45.5l359 -424q0 63 -2 170q-2 233 -7 254q-7 23 -21.5 32t-48.5 9h-16v43q53 -2 81 -3.5t46 -1.5q21 0 51.5 1t76.5 4v-43h-9q-31 0 -46 -7t-21 -25q-8 -23 -11 -220v-8l-2 -106q-1 -61 -1.5 -114.5 t-0.5 -89.5q0 -24 1.5 -46.5t5.5 -43.5h-96q-6 12 -17 28t-43 53l-394 461q0 -231 2.5 -331t7.5 -119q7 -23 21.5 -32t48.5 -9h15v-44q-56 3 -84.5 4t-46.5 1q-16 0 -43 -1t-86 -4v44q4 0 8 -0.5t12 -0.5q70 0 71 192q0 42 1 66l1 104q0 32 1 91t1 76q0 47 -16.5 64.5 t-59.5 17.5q-3 0 -9 -0.5t-9 -0.5v43zM601 932l29 -25q-27 -36 -59 -63.5t-71 -47.5q-37 5 -93 16t-75 11q-26 0 -48.5 -11.5t-44.5 -36.5l-27 25q29 38 61 65.5t71 46.5q37 -5 93.5 -16t74.5 -11q25 0 46.5 11.5t42.5 35.5z" />
<glyph unicode="&#xd2;" horiz-adv-x="837" d="M644 336q0 138 -64 222t-168 84q-100 0 -159 -74.5t-59 -202.5q0 -139 64.5 -223.5t168.5 -84.5q100 0 158.5 75t58.5 204zM420 715q78 0 139 -21.5t112 -65.5q60 -52 92 -123.5t32 -151.5q0 -159 -108 -265t-270 -106q-84 0 -152.5 27.5t-121.5 82.5q-49 51 -74.5 116.5 t-25.5 139.5q0 82 32 152t93 122q51 44 117.5 68.5t134.5 24.5zM372 982l129 -199l-48 -17l-175 165z" />
<glyph unicode="&#xd3;" horiz-adv-x="837" d="M644 336q0 138 -64 222t-168 84q-100 0 -159 -74.5t-59 -202.5q0 -139 64.5 -223.5t168.5 -84.5q100 0 158.5 75t58.5 204zM420 715q78 0 139 -21.5t112 -65.5q60 -52 92 -123.5t32 -151.5q0 -159 -108 -265t-270 -106q-84 0 -152.5 27.5t-121.5 82.5q-49 51 -74.5 116.5 t-25.5 139.5q0 82 32 152t93 122q51 44 117.5 68.5t134.5 24.5zM465 982l95 -53l-174 -163l-48 18z" />
<glyph unicode="&#xd4;" horiz-adv-x="837" d="M644 336q0 138 -64 222t-168 84q-100 0 -159 -74.5t-59 -202.5q0 -139 64.5 -223.5t168.5 -84.5q100 0 158.5 75t58.5 204zM420 715q78 0 139 -21.5t112 -65.5q60 -52 92 -123.5t32 -151.5q0 -159 -108 -265t-270 -106q-84 0 -152.5 27.5t-121.5 82.5q-49 51 -74.5 116.5 t-25.5 139.5q0 82 32 152t93 122q51 44 117.5 68.5t134.5 24.5zM394 954h49l145 -169l-41 -19l-128 99l-128 -99l-41 20z" />
<glyph unicode="&#xd5;" horiz-adv-x="837" d="M644 336q0 138 -64 222t-168 84q-100 0 -159 -74.5t-59 -202.5q0 -139 64.5 -223.5t168.5 -84.5q100 0 158.5 75t58.5 204zM420 715q78 0 139 -21.5t112 -65.5q60 -52 92 -123.5t32 -151.5q0 -159 -108 -265t-270 -106q-84 0 -152.5 27.5t-121.5 82.5q-49 51 -74.5 116.5 t-25.5 139.5q0 82 32 152t93 122q51 44 117.5 68.5t134.5 24.5zM598 932l29 -25q-27 -36 -59 -63.5t-71 -47.5q-37 5 -93 16t-75 11q-26 0 -48.5 -11.5t-44.5 -36.5l-27 25q29 38 61 65.5t71 46.5q37 -5 93.5 -16t74.5 -11q25 0 46.5 11.5t42.5 35.5z" />
<glyph unicode="&#xd6;" horiz-adv-x="837" d="M644 336q0 138 -64 222t-168 84q-100 0 -159 -74.5t-59 -202.5q0 -139 64.5 -223.5t168.5 -84.5q100 0 158.5 75t58.5 204zM420 715q78 0 139 -21.5t112 -65.5q60 -52 92 -123.5t32 -151.5q0 -159 -108 -265t-270 -106q-84 0 -152.5 27.5t-121.5 82.5q-49 51 -74.5 116.5 t-25.5 139.5q0 82 32 152t93 122q51 44 117.5 68.5t134.5 24.5zM538 920q23 0 48 -23t25 -45q0 -21 -25 -43.5t-48 -22.5t-47.5 23t-24.5 43q0 22 24.5 45t47.5 23zM300 920q23 0 47.5 -23t24.5 -45q0 -21 -24.5 -43.5t-47.5 -22.5t-48 23t-25 43q0 22 25 45t48 23z" />
<glyph unicode="&#xd7;" horiz-adv-x="833" d="M421 356l225 224l57 -57l-224 -225l224 -224l-57 -58l-225 225l-224 -225l-57 58l224 224l-224 225l57 57z" />
<glyph unicode="&#xd8;" horiz-adv-x="837" d="M578 567q-62 -93 -131.5 -205t-157.5 -258q26 -23 64.5 -37t78.5 -14q99 0 158.5 76.5t59.5 204.5q0 72 -18 131t-54 102zM541 604q-31 21 -62 31.5t-62 10.5q-106 0 -167.5 -74.5t-61.5 -205.5q0 -69 16.5 -125t49.5 -99q67 100 258 414zM648 786l50 -31 q-19 -27 -58 -90l-6 -9q78 -53 119.5 -132t41.5 -171q0 -161 -108 -265.5t-275 -104.5q-49 0 -91.5 10t-79.5 30q-7 -12 -20 -34q-33 -54 -46 -78l-48 29q25 37 40.5 61t29.5 47q-73 50 -113.5 128t-40.5 172q0 156 109.5 261t272.5 105q43 0 83.5 -8t76.5 -24 q11 18 24 39.5z" />
<glyph unicode="&#xd9;" horiz-adv-x="824" d="M333 697v-44q-3 0 -8.5 0.5t-7.5 0.5q-42 0 -56.5 -24.5t-14.5 -122.5v-39v-73q0 -99 3.5 -140t11.5 -65q19 -58 66 -89t115 -31q56 0 95.5 18.5t64.5 57.5q17 26 24 67.5t7 124.5q0 16 -0.5 52t-0.5 57v51q0 103 -14.5 129.5t-56.5 26.5q-6 0 -9.5 -0.5t-6.5 -0.5v44 q45 -2 75 -3.5t52 -1.5q20 0 48.5 1t74.5 4v-44h-8q-29 0 -43.5 -6.5t-20.5 -23.5q-9 -24 -12 -212v-42v-27q-1 -167 -36 -229t-103.5 -96.5t-159.5 -34.5q-83 0 -148 27.5t-102 78.5q-28 38 -39.5 88t-11.5 148q0 26 1.5 93.5t1.5 108.5q0 85 -14 106t-55 21h-12v44 q55 -2 89.5 -3.5t59.5 -1.5q23 0 57.5 1.5t93.5 3.5zM388 982l129 -199l-48 -17l-175 165z" />
<glyph unicode="&#xda;" horiz-adv-x="824" d="M333 697v-44q-3 0 -8.5 0.5t-7.5 0.5q-42 0 -56.5 -24.5t-14.5 -122.5v-39v-73q0 -99 3.5 -140t11.5 -65q19 -58 66 -89t115 -31q56 0 95.5 18.5t64.5 57.5q17 26 24 67.5t7 124.5q0 16 -0.5 52t-0.5 57v51q0 103 -14.5 129.5t-56.5 26.5q-6 0 -9.5 -0.5t-6.5 -0.5v44 q45 -2 75 -3.5t52 -1.5q20 0 48.5 1t74.5 4v-44h-8q-29 0 -43.5 -6.5t-20.5 -23.5q-9 -24 -12 -212v-42v-27q-1 -167 -36 -229t-103.5 -96.5t-159.5 -34.5q-83 0 -148 27.5t-102 78.5q-28 38 -39.5 88t-11.5 148q0 26 1.5 93.5t1.5 108.5q0 85 -14 106t-55 21h-12v44 q55 -2 89.5 -3.5t59.5 -1.5q23 0 57.5 1.5t93.5 3.5zM481 982l95 -53l-174 -163l-48 18z" />
<glyph unicode="&#xdb;" horiz-adv-x="824" d="M333 697v-44q-3 0 -8.5 0.5t-7.5 0.5q-42 0 -56.5 -24.5t-14.5 -122.5v-39v-73q0 -99 3.5 -140t11.5 -65q19 -58 66 -89t115 -31q56 0 95.5 18.5t64.5 57.5q17 26 24 67.5t7 124.5q0 16 -0.5 52t-0.5 57v51q0 103 -14.5 129.5t-56.5 26.5q-6 0 -9.5 -0.5t-6.5 -0.5v44 q45 -2 75 -3.5t52 -1.5q20 0 48.5 1t74.5 4v-44h-8q-29 0 -43.5 -6.5t-20.5 -23.5q-9 -24 -12 -212v-42v-27q-1 -167 -36 -229t-103.5 -96.5t-159.5 -34.5q-83 0 -148 27.5t-102 78.5q-28 38 -39.5 88t-11.5 148q0 26 1.5 93.5t1.5 108.5q0 85 -14 106t-55 21h-12v44 q55 -2 89.5 -3.5t59.5 -1.5q23 0 57.5 1.5t93.5 3.5zM410 954h49l145 -169l-41 -19l-128 99l-128 -99l-41 20z" />
<glyph unicode="&#xdc;" horiz-adv-x="824" d="M333 697v-44q-3 0 -8.5 0.5t-7.5 0.5q-42 0 -56.5 -24.5t-14.5 -122.5v-39v-73q0 -99 3.5 -140t11.5 -65q19 -58 66 -89t115 -31q56 0 95.5 18.5t64.5 57.5q17 26 24 67.5t7 124.5q0 16 -0.5 52t-0.5 57v51q0 103 -14.5 129.5t-56.5 26.5q-6 0 -9.5 -0.5t-6.5 -0.5v44 q45 -2 75 -3.5t52 -1.5q20 0 48.5 1t74.5 4v-44h-8q-29 0 -43.5 -6.5t-20.5 -23.5q-9 -24 -12 -212v-42v-27q-1 -167 -36 -229t-103.5 -96.5t-159.5 -34.5q-83 0 -148 27.5t-102 78.5q-28 38 -39.5 88t-11.5 148q0 26 1.5 93.5t1.5 108.5q0 85 -14 106t-55 21h-12v44 q55 -2 89.5 -3.5t59.5 -1.5q23 0 57.5 1.5t93.5 3.5zM554 920q23 0 48 -23t25 -45q0 -21 -25 -43.5t-48 -22.5t-47.5 23t-24.5 43q0 22 24.5 45t47.5 23zM316 920q23 0 47.5 -23t24.5 -45q0 -21 -24.5 -43.5t-47.5 -22.5t-48 23t-25 43q0 22 25 45t48 23z" />
<glyph unicode="&#xdd;" horiz-adv-x="695" d="M6 697q53 -2 90 -3.5t66 -1.5q21 0 53.5 1t88.5 4v-44q-33 0 -48 -5.5t-15 -18.5q0 -18 20 -53q5 -10 8 -15l108 -193l33 57q104 180 103 201q0 14 -11 20.5t-35 6.5h-11v44q43 -2 70 -3.5t46 -1.5q20 0 47.5 1t70.5 4v-43q-2 0 -4.5 0.5t-7.5 0.5q-47 0 -114 -109 q-15 -25 -23 -38l-131 -210l1 -156q1 -62 15.5 -80.5t57.5 -18.5q3 0 9.5 0.5t10.5 0.5v-44q-54 3 -96 4.5t-71 1.5q-26 0 -106 -4q-33 -1 -52 -2v44q4 0 11 -0.5t10 -0.5q43 0 58.5 19t16.5 78l1 154l-163 273q-3 6 -10 17q-42 70 -83 70q-5 0 -8.5 -0.5t-5.5 -0.5v44z M394 982l95 -53l-174 -163l-48 18z" />
<glyph unicode="&#xde;" horiz-adv-x="642" d="M249 225q20 -3 34.5 -4t27.5 -1q85 0 129.5 37.5t44.5 108.5q0 65 -43 103.5t-117 38.5q-21 0 -39 -2t-36 -5q0 -38 -0.5 -78t-0.5 -103v-95zM33 0v43q4 0 8.5 -0.5t13.5 -0.5q40 0 54.5 25t14.5 109q0 14 -0.5 53.5t-0.5 64.5v290q0 37 -17 53.5t-54 16.5h-10v43 q24 0 71 -2.5t65 -2.5q31 0 69.5 1t87.5 4v-44q-3 0 -8.5 0.5t-8.5 0.5q-35 0 -51 -14t-17 -46l-1 -24h5q86 5 105 5q120 0 190.5 -53t70.5 -142q0 -103 -74.5 -160.5t-209.5 -57.5q-16 0 -36.5 1.5t-50.5 3.5v-30q0 -59 15 -76t63 -17h16v-44q-47 3 -88.5 4.5t-77.5 1.5 q-15 0 -51 -1.5t-93 -4.5z" />
<glyph unicode="&#xdf;" horiz-adv-x="643" d="M28 41q3 0 7 -0.5t10 -0.5q33 0 45 24t12 101q0 13 -0.5 48.5t-0.5 57.5v171q0 99 11.5 144t38.5 80q34 44 82.5 66.5t109.5 22.5q85 0 137 -41t52 -107q0 -26 -12.5 -51.5t-40.5 -58.5q-5 -6 -15 -17q-34 -39 -34 -57q0 -12 11.5 -28.5t34.5 -36.5q11 -10 33 -28 q99 -83 99 -153q0 -77 -58.5 -131t-140.5 -54q-47 0 -78 22.5t-31 54.5q0 21 11.5 33.5t31.5 12.5q21 0 40 -30q3 -5 5 -7q11 -16 22 -22.5t27 -6.5q29 0 49 21.5t20 52.5q0 48 -80 120q-7 7 -11 10q-43 39 -61 65.5t-18 50.5q0 27 42 82l1 1q33 42 46.5 74t13.5 66 q0 48 -29.5 78t-75.5 30q-63 0 -90.5 -44.5t-27.5 -153.5v-336v-34q0 -59 8.5 -75t33.5 -16h8v-41q-44 2 -73.5 3.5t-52.5 1.5q-19 0 -109 -5h-3v41z" />
<glyph unicode="&#xe0;" horiz-adv-x="524" d="M314 233q-11 -3 -31 -9q-140 -39 -140 -91q0 -29 19 -49t48 -20q19 0 42.5 9.5t61.5 31.5v128zM509 83l18 -37q-44 -29 -79.5 -43.5t-63.5 -14.5q-34 0 -52 17t-20 53q-53 -37 -90 -53.5t-66 -16.5q-51 0 -87.5 39.5t-36.5 95.5q0 94 210 142q45 11 71 17q0 12 0.5 23.5 t0.5 22.5q0 52 -20.5 76t-64.5 24q-29 0 -49.5 -11.5t-22.5 -27.5v-6q-3 -49 -62 -49q-22 0 -33.5 7.5t-11.5 21.5q0 39 72 87.5t151 48.5q77 0 117 -40.5t40 -117.5q0 -23 -3.5 -97t-3.5 -124q0 -30 7.5 -43t24.5 -13q9 0 23 5t31 14zM216 769l129 -199l-48 -17l-175 165z " />
<glyph unicode="&#xe1;" horiz-adv-x="524" d="M314 233q-11 -3 -31 -9q-140 -39 -140 -91q0 -29 19 -49t48 -20q19 0 42.5 9.5t61.5 31.5v128zM509 83l18 -37q-44 -29 -79.5 -43.5t-63.5 -14.5q-34 0 -52 17t-20 53q-53 -37 -90 -53.5t-66 -16.5q-51 0 -87.5 39.5t-36.5 95.5q0 94 210 142q45 11 71 17q0 12 0.5 23.5 t0.5 22.5q0 52 -20.5 76t-64.5 24q-29 0 -49.5 -11.5t-22.5 -27.5v-6q-3 -49 -62 -49q-22 0 -33.5 7.5t-11.5 21.5q0 39 72 87.5t151 48.5q77 0 117 -40.5t40 -117.5q0 -23 -3.5 -97t-3.5 -124q0 -30 7.5 -43t24.5 -13q9 0 23 5t31 14zM309 769l95 -53l-174 -163l-48 18z " />
<glyph unicode="&#xe2;" horiz-adv-x="524" d="M314 233q-11 -3 -31 -9q-140 -39 -140 -91q0 -29 19 -49t48 -20q19 0 42.5 9.5t61.5 31.5v128zM509 83l18 -37q-44 -29 -79.5 -43.5t-63.5 -14.5q-34 0 -52 17t-20 53q-53 -37 -90 -53.5t-66 -16.5q-51 0 -87.5 39.5t-36.5 95.5q0 94 210 142q45 11 71 17q0 12 0.5 23.5 t0.5 22.5q0 52 -20.5 76t-64.5 24q-29 0 -49.5 -11.5t-22.5 -27.5v-6q-3 -49 -62 -49q-22 0 -33.5 7.5t-11.5 21.5q0 39 72 87.5t151 48.5q77 0 117 -40.5t40 -117.5q0 -23 -3.5 -97t-3.5 -124q0 -30 7.5 -43t24.5 -13q9 0 23 5t31 14zM238 741h49l145 -169l-41 -19l-128 99 l-128 -99l-41 20z" />
<glyph unicode="&#xe3;" horiz-adv-x="524" d="M314 233q-11 -3 -31 -9q-140 -39 -140 -91q0 -29 19 -49t48 -20q19 0 42.5 9.5t61.5 31.5v128zM509 83l18 -37q-44 -29 -79.5 -43.5t-63.5 -14.5q-34 0 -52 17t-20 53q-53 -37 -90 -53.5t-66 -16.5q-51 0 -87.5 39.5t-36.5 95.5q0 94 210 142q45 11 71 17q0 12 0.5 23.5 t0.5 22.5q0 52 -20.5 76t-64.5 24q-29 0 -49.5 -11.5t-22.5 -27.5v-6q-3 -49 -62 -49q-22 0 -33.5 7.5t-11.5 21.5q0 39 72 87.5t151 48.5q77 0 117 -40.5t40 -117.5q0 -23 -3.5 -97t-3.5 -124q0 -30 7.5 -43t24.5 -13q9 0 23 5t31 14zM442 719l29 -25q-27 -36 -59 -63.5 t-71 -47.5q-37 5 -93 16t-75 11q-26 0 -48.5 -11.5t-44.5 -36.5l-27 25q29 38 61 65.5t71 46.5q37 -5 93.5 -16t74.5 -11q25 0 46.5 11.5t42.5 35.5z" />
<glyph unicode="&#xe4;" horiz-adv-x="524" d="M314 233q-11 -3 -31 -9q-140 -39 -140 -91q0 -29 19 -49t48 -20q19 0 42.5 9.5t61.5 31.5v128zM509 83l18 -37q-44 -29 -79.5 -43.5t-63.5 -14.5q-34 0 -52 17t-20 53q-53 -37 -90 -53.5t-66 -16.5q-51 0 -87.5 39.5t-36.5 95.5q0 94 210 142q45 11 71 17q0 12 0.5 23.5 t0.5 22.5q0 52 -20.5 76t-64.5 24q-29 0 -49.5 -11.5t-22.5 -27.5v-6q-3 -49 -62 -49q-22 0 -33.5 7.5t-11.5 21.5q0 39 72 87.5t151 48.5q77 0 117 -40.5t40 -117.5q0 -23 -3.5 -97t-3.5 -124q0 -30 7.5 -43t24.5 -13q9 0 23 5t31 14zM382 707q23 0 48 -23t25 -45 q0 -21 -25 -43.5t-48 -22.5t-47.5 23t-24.5 43q0 22 24.5 45t47.5 23zM144 707q23 0 47.5 -23t24.5 -45q0 -21 -24.5 -43.5t-47.5 -22.5t-48 23t-25 43q0 22 25 45t48 23z" />
<glyph unicode="&#xe5;" horiz-adv-x="524" d="M262 731q-27 0 -46 -19t-19 -45q0 -27 19 -46.5t45 -19.5q27 0 46 19t19 45q0 28 -19 47t-45 19zM262 789q52 0 87 -36t35 -89q0 -50 -36 -85t-89 -35q-49 0 -84.5 36t-35.5 86q0 51 36 87t87 36zM314 234q-9 -2 -27 -7q-144 -40 -144 -94q0 -29 19 -48.5t48 -19.5 q19 0 42.5 9t61.5 32v128zM509 84l18 -37q-45 -30 -80.5 -44.5t-61.5 -14.5q-34 0 -52.5 17t-20.5 53q-53 -37 -90 -53.5t-66 -16.5q-51 0 -87.5 39.5t-36.5 95.5q0 95 213 144q44 10 68 16q0 12 0.5 23.5t0.5 22.5q0 52 -20.5 76t-64.5 24q-29 0 -49.5 -11.5t-22.5 -27.5 v-6q-3 -49 -62 -49q-22 0 -33.5 7.5t-11.5 21.5q0 39 72 87.5t151 48.5q76 0 116.5 -40t40.5 -116q0 -25 -3.5 -97.5t-3.5 -119.5q0 -36 7.5 -49t24.5 -13q9 0 23 5t31 14z" />
<glyph unicode="&#xe6;" horiz-adv-x="804" d="M434 306q67 0 120 3t91 9q-9 57 -36 89.5t-65 32.5q-45 0 -74.5 -35.5t-35.5 -98.5zM315 106l1 129q-15 -4 -43 -12q-130 -37 -130 -89q0 -28 19.5 -48t48.5 -20q21 0 46 9.5t58 30.5zM359 81q-69 -49 -116 -71t-83 -22q-55 0 -91.5 39t-36.5 98q0 93 219 142q42 9 66 15 q0 12 0.5 23.5t0.5 22.5q0 52 -20.5 76t-64.5 24q-29 0 -49.5 -11.5t-22.5 -27.5v-6q-3 -49 -62 -49q-22 0 -33.5 7.5t-11.5 21.5q0 39 72 87.5t151 48.5q47 0 76.5 -17t45.5 -52q31 35 68.5 52t83.5 17q95 0 151 -64t59 -177h-213q-27 0 -56.5 -1t-59.5 -2v-3 q0 -87 44 -136.5t120 -49.5q35 0 70.5 12t72.5 37l22 -42q-56 -42 -110.5 -63.5t-108.5 -21.5q-61 0 -108.5 24t-74.5 69z" />
<glyph unicode="&#xe7;" horiz-adv-x="481" d="M432 113l27 -48q-55 -41 -104.5 -61t-94.5 -20q-101 0 -165 69t-64 177q0 114 80 191.5t199 77.5q67 0 101.5 -20t34.5 -58q0 -22 -16 -39.5t-37 -17.5q-18 0 -56 30.5t-71 30.5q-51 0 -81.5 -42.5t-30.5 -114.5q0 -92 42 -144t116 -52q28 0 57.5 10t62.5 31zM253 9h50 l-46 -69q39 -7 58 -25t19 -45q0 -40 -42.5 -70t-115.5 -42l-20 38q40 7 61.5 23t21.5 39q0 20 -16 32.5t-46 15.5z" />
<glyph unicode="&#xe8;" horiz-adv-x="529" d="M487 260h-204q-52 0 -78 -1t-48 -3q0 -87 43.5 -137t119.5 -50q37 0 72.5 11.5t72.5 34.5l22 -42q-57 -45 -111.5 -67t-108.5 -22q-102 0 -167.5 68t-65.5 175q0 116 71 194t174 78q92 0 149.5 -65.5t58.5 -173.5zM371 320q-10 57 -37 89t-65 32q-45 0 -74 -34.5 t-37 -97.5h31q60 0 104.5 3t77.5 8zM218 769l129 -199l-48 -17l-175 165z" />
<glyph unicode="&#xe9;" horiz-adv-x="529" d="M487 260h-204q-52 0 -78 -1t-48 -3q0 -87 43.5 -137t119.5 -50q37 0 72.5 11.5t72.5 34.5l22 -42q-57 -45 -111.5 -67t-108.5 -22q-102 0 -167.5 68t-65.5 175q0 116 71 194t174 78q92 0 149.5 -65.5t58.5 -173.5zM371 320q-10 57 -37 89t-65 32q-45 0 -74 -34.5 t-37 -97.5h31q60 0 104.5 3t77.5 8zM311 769l95 -53l-174 -163l-48 18z" />
<glyph unicode="&#xea;" horiz-adv-x="529" d="M487 260h-204q-52 0 -78 -1t-48 -3q0 -87 43.5 -137t119.5 -50q37 0 72.5 11.5t72.5 34.5l22 -42q-57 -45 -111.5 -67t-108.5 -22q-102 0 -167.5 68t-65.5 175q0 116 71 194t174 78q92 0 149.5 -65.5t58.5 -173.5zM371 320q-10 57 -37 89t-65 32q-45 0 -74 -34.5 t-37 -97.5h31q60 0 104.5 3t77.5 8zM240 741h49l145 -169l-41 -19l-128 99l-128 -99l-41 20z" />
<glyph unicode="&#xeb;" horiz-adv-x="529" d="M487 260h-204q-52 0 -78 -1t-48 -3q0 -87 43.5 -137t119.5 -50q37 0 72.5 11.5t72.5 34.5l22 -42q-57 -45 -111.5 -67t-108.5 -22q-102 0 -167.5 68t-65.5 175q0 116 71 194t174 78q92 0 149.5 -65.5t58.5 -173.5zM371 320q-10 57 -37 89t-65 32q-45 0 -74 -34.5 t-37 -97.5h31q60 0 104.5 3t77.5 8zM384 707q23 0 48 -23t25 -45q0 -21 -25 -43.5t-48 -22.5t-47.5 23t-24.5 43q0 22 24.5 45t47.5 23zM146 707q23 0 47.5 -23t24.5 -45q0 -21 -24.5 -43.5t-47.5 -22.5t-48 23t-25 43q0 22 25 45t48 23z" />
<glyph unicode="&#xec;" horiz-adv-x="321" d="M223 500q-3 -105 -4.5 -184t-1.5 -129v-57q0 -57 11.5 -73t43.5 -16q2 0 7.5 0.5t8.5 0.5v-42q-45 3 -78.5 4.5t-55.5 1.5q-19 0 -50.5 -1.5t-73.5 -4.5v42h9q62 0 63 115v29l1 104v43q0 55 -9 70.5t-34 15.5q-3 0 -16 -1q-5 0 -8 -1l-6 39q51 7 98.5 18t94.5 26z M114 769l129 -199l-48 -17l-175 165z" />
<glyph unicode="&#xed;" horiz-adv-x="321" d="M223 500q-3 -105 -4.5 -184t-1.5 -129v-57q0 -57 11.5 -73t43.5 -16q2 0 7.5 0.5t8.5 0.5v-42q-45 3 -78.5 4.5t-55.5 1.5q-19 0 -50.5 -1.5t-73.5 -4.5v42h9q62 0 63 115v29l1 104v43q0 55 -9 70.5t-34 15.5q-3 0 -16 -1q-5 0 -8 -1l-6 39q51 7 98.5 18t94.5 26z M207 769l95 -53l-174 -163l-48 18z" />
<glyph unicode="&#xee;" horiz-adv-x="321" d="M223 500q-3 -105 -4.5 -184t-1.5 -129v-57q0 -57 11.5 -73t43.5 -16q2 0 7.5 0.5t8.5 0.5v-42q-45 3 -78.5 4.5t-55.5 1.5q-19 0 -50.5 -1.5t-73.5 -4.5v42h9q62 0 63 115v29l1 104v43q0 55 -9 70.5t-34 15.5q-3 0 -16 -1q-5 0 -8 -1l-6 39q51 7 98.5 18t94.5 26z M136 741h49l145 -169l-41 -19l-128 99l-128 -99l-41 20z" />
<glyph unicode="&#xef;" horiz-adv-x="321" d="M223 500q-3 -105 -4.5 -184t-1.5 -129v-57q0 -57 11.5 -73t43.5 -16q2 0 7.5 0.5t8.5 0.5v-42q-45 3 -78.5 4.5t-55.5 1.5q-19 0 -50.5 -1.5t-73.5 -4.5v42h9q62 0 63 115v29l1 104v43q0 55 -9 70.5t-34 15.5q-3 0 -16 -1q-5 0 -8 -1l-6 39q51 7 98.5 18t94.5 26z M280 707q23 0 48 -23t25 -45q0 -21 -25 -43.5t-48 -22.5t-47.5 23t-24.5 43q0 22 24.5 45t47.5 23zM42 707q23 0 47.5 -23t24.5 -45q0 -21 -24.5 -43.5t-47.5 -22.5t-48 23t-25 43q0 22 25 45t48 23z" />
<glyph unicode="&#xf0;" horiz-adv-x="588" d="M405 401q-27 16 -52 23t-52 7q-67 0 -103.5 -45.5t-36.5 -129.5q0 -95 37.5 -151t100.5 -56q62 0 97.5 51t35.5 141q0 40 -6.5 80t-20.5 80zM231 763q31 -18 57 -35.5t50 -36.5q19 11 41 27l55 40l28 -41q-31 -20 -51 -33.5t-37 -25.5q92 -85 137 -178t45 -200 q0 -128 -75.5 -211.5t-192.5 -83.5q-107 0 -181 72.5t-74 177.5q0 109 75 183.5t181 74.5q30 0 53 -4.5t46 -13.5q-21 39 -44.5 72t-50.5 59q-23 -16 -47.5 -32.5t-52.5 -36.5l-28 39l15 9q53 33 80 52q-28 24 -59 46t-63 41z" />
<glyph unicode="&#xf1;" horiz-adv-x="621" d="M215 500l-8 -80q59 42 100.5 61t73.5 19q77 0 115.5 -44.5t38.5 -132.5q0 -17 -1 -77t-1 -104q0 -72 10.5 -86.5t42.5 -14.5h10l-1 -41q-43 3 -74 4.5t-50 1.5q-21 0 -50.5 -1.5t-69.5 -4.5v41h6q61 0 62 122v6v103q0 84 -19.5 113.5t-66.5 29.5q-25 0 -54.5 -10.5 t-64.5 -32.5q-2 -44 -3 -91.5t-1 -101.5v-40q0 -66 10.5 -82t41.5 -16h8v-41q-41 3 -72 4.5t-52 1.5t-52 -1.5t-71 -4.5v41h11q61 0 62 123v22l1 101v43q0 55 -8.5 71.5t-31.5 16.5q-4 0 -19 -1q-3 0 -5 -1l-3 38q41 6 86 17.5t99 28.5zM490 719l29 -25q-27 -36 -59 -63.5 t-71 -47.5q-37 5 -93 16t-75 11q-26 0 -48.5 -11.5t-44.5 -36.5l-27 25q29 38 61 65.5t71 46.5q37 -5 93.5 -16t74.5 -11q25 0 46.5 11.5t42.5 35.5z" />
<glyph unicode="&#xf2;" horiz-adv-x="588" d="M287 435q-60 0 -93 -44.5t-33 -126.5q0 -99 37.5 -157t101.5 -58q61 0 95.5 47t34.5 128q0 97 -39 154t-104 57zM297 499q115 0 188 -70.5t73 -178.5q0 -113 -76.5 -189t-190.5 -76t-186.5 71t-72.5 183q0 109 77.5 184.5t187.5 75.5zM248 769l129 -199l-48 -17l-175 165 z" />
<glyph unicode="&#xf3;" horiz-adv-x="588" d="M287 435q-60 0 -93 -44.5t-33 -126.5q0 -99 37.5 -157t101.5 -58q61 0 95.5 47t34.5 128q0 97 -39 154t-104 57zM297 499q115 0 188 -70.5t73 -178.5q0 -113 -76.5 -189t-190.5 -76t-186.5 71t-72.5 183q0 109 77.5 184.5t187.5 75.5zM341 769l95 -53l-174 -163l-48 18z " />
<glyph unicode="&#xf4;" horiz-adv-x="588" d="M287 435q-60 0 -93 -44.5t-33 -126.5q0 -99 37.5 -157t101.5 -58q61 0 95.5 47t34.5 128q0 97 -39 154t-104 57zM297 499q115 0 188 -70.5t73 -178.5q0 -113 -76.5 -189t-190.5 -76t-186.5 71t-72.5 183q0 109 77.5 184.5t187.5 75.5zM270 741h49l145 -169l-41 -19 l-128 99l-128 -99l-41 20z" />
<glyph unicode="&#xf5;" horiz-adv-x="588" d="M287 435q-60 0 -93 -44.5t-33 -126.5q0 -99 37.5 -157t101.5 -58q61 0 95.5 47t34.5 128q0 97 -39 154t-104 57zM297 499q115 0 188 -70.5t73 -178.5q0 -113 -76.5 -189t-190.5 -76t-186.5 71t-72.5 183q0 109 77.5 184.5t187.5 75.5zM474 719l29 -25q-27 -36 -59 -63.5 t-71 -47.5q-37 5 -93 16t-75 11q-26 0 -48.5 -11.5t-44.5 -36.5l-27 25q29 38 61 65.5t71 46.5q37 -5 93.5 -16t74.5 -11q25 0 46.5 11.5t42.5 35.5z" />
<glyph unicode="&#xf6;" horiz-adv-x="588" d="M287 435q-60 0 -93 -44.5t-33 -126.5q0 -99 37.5 -157t101.5 -58q61 0 95.5 47t34.5 128q0 97 -39 154t-104 57zM297 499q115 0 188 -70.5t73 -178.5q0 -113 -76.5 -189t-190.5 -76t-186.5 71t-72.5 183q0 109 77.5 184.5t187.5 75.5zM414 707q23 0 48 -23t25 -45 q0 -21 -25 -43.5t-48 -22.5t-47.5 23t-24.5 43q0 22 24.5 45t47.5 23zM176 707q23 0 47.5 -23t24.5 -45q0 -21 -24.5 -43.5t-47.5 -22.5t-48 23t-25 43q0 22 25 45t48 23z" />
<glyph unicode="&#xf7;" horiz-adv-x="833" d="M417 179q28 0 47.5 -19.5t19.5 -47.5q0 -27 -19.5 -46.5t-47.5 -19.5t-47.5 19t-19.5 47t20 47.5t47 19.5zM709 339v-81h-585v81h585zM417 551q28 0 47.5 -20t19.5 -48q0 -27 -19.5 -46.5t-47.5 -19.5t-47.5 19t-19.5 47t20 48t47 20z" />
<glyph unicode="&#xf8;" horiz-adv-x="588" d="M394 374l-181 -288q16 -19 38 -29.5t49 -10.5q61 0 97.5 47.5t36.5 127.5q0 42 -10.5 82.5t-29.5 70.5zM368 409q-17 15 -36.5 22t-44.5 7q-60 0 -95 -45.5t-35 -124.5q0 -43 8 -80t24 -65zM462 559l35 -22l-49 -80q51 -36 80.5 -89.5t29.5 -112.5q0 -118 -76 -194 t-194 -76q-34 0 -63 7t-57 21l-52 -83l-35 22l51 82q-47 33 -73.5 86.5t-26.5 116.5q0 110 77 186t188 76q32 0 59.5 -5.5t54.5 -16.5z" />
<glyph unicode="&#xf9;" horiz-adv-x="622" d="M207 497q-3 -87 -5 -157.5t-2 -117.5q0 -85 20 -118.5t67 -33.5q23 0 52.5 10.5t63.5 31.5q1 70 2 118.5t1 77.5v22q0 61 -11 76t-41 15q-5 0 -10.5 -0.5t-11.5 -0.5l-3 39q51 5 100 12t96 16q-3 -113 -4.5 -172t-1.5 -110v-45q0 -63 8 -79.5t31 -16.5q6 0 13 1t15 3 l5 -40l-187 -42v75q-56 -41 -96 -58t-78 -17q-73 0 -109 45.5t-36 138.5v32.5t1 25.5l2 66q0 10 0.5 25t0.5 22q0 48 -8.5 65t-29.5 17q-9 0 -26 -2h-3l-3 40q46 6 93 15t95 21zM264 769l129 -199l-48 -17l-175 165z" />
<glyph unicode="&#xfa;" horiz-adv-x="622" d="M207 497q-3 -87 -5 -157.5t-2 -117.5q0 -85 20 -118.5t67 -33.5q23 0 52.5 10.5t63.5 31.5q1 70 2 118.5t1 77.5v22q0 61 -11 76t-41 15q-5 0 -10.5 -0.5t-11.5 -0.5l-3 39q51 5 100 12t96 16q-3 -113 -4.5 -172t-1.5 -110v-45q0 -63 8 -79.5t31 -16.5q6 0 13 1t15 3 l5 -40l-187 -42v75q-56 -41 -96 -58t-78 -17q-73 0 -109 45.5t-36 138.5v32.5t1 25.5l2 66q0 10 0.5 25t0.5 22q0 48 -8.5 65t-29.5 17q-9 0 -26 -2h-3l-3 40q46 6 93 15t95 21zM357 769l95 -53l-174 -163l-48 18z" />
<glyph unicode="&#xfb;" horiz-adv-x="622" d="M207 497q-3 -87 -5 -157.5t-2 -117.5q0 -85 20 -118.5t67 -33.5q23 0 52.5 10.5t63.5 31.5q1 70 2 118.5t1 77.5v22q0 61 -11 76t-41 15q-5 0 -10.5 -0.5t-11.5 -0.5l-3 39q51 5 100 12t96 16q-3 -113 -4.5 -172t-1.5 -110v-45q0 -63 8 -79.5t31 -16.5q6 0 13 1t15 3 l5 -40l-187 -42v75q-56 -41 -96 -58t-78 -17q-73 0 -109 45.5t-36 138.5v32.5t1 25.5l2 66q0 10 0.5 25t0.5 22q0 48 -8.5 65t-29.5 17q-9 0 -26 -2h-3l-3 40q46 6 93 15t95 21zM286 741h49l145 -169l-41 -19l-128 99l-128 -99l-41 20z" />
<glyph unicode="&#xfc;" horiz-adv-x="622" d="M207 497q-3 -87 -5 -157.5t-2 -117.5q0 -85 20 -118.5t67 -33.5q23 0 52.5 10.5t63.5 31.5q1 70 2 118.5t1 77.5v22q0 61 -11 76t-41 15q-5 0 -10.5 -0.5t-11.5 -0.5l-3 39q51 5 100 12t96 16q-3 -113 -4.5 -172t-1.5 -110v-45q0 -63 8 -79.5t31 -16.5q6 0 13 1t15 3 l5 -40l-187 -42v75q-56 -41 -96 -58t-78 -17q-73 0 -109 45.5t-36 138.5v32.5t1 25.5l2 66q0 10 0.5 25t0.5 22q0 48 -8.5 65t-29.5 17q-9 0 -26 -2h-3l-3 40q46 6 93 15t95 21zM430 707q23 0 48 -23t25 -45q0 -21 -25 -43.5t-48 -22.5t-47.5 23t-24.5 43q0 22 24.5 45 t47.5 23zM192 707q23 0 47.5 -23t24.5 -45q0 -21 -24.5 -43.5t-47.5 -22.5t-48 23t-25 43q0 22 25 45t48 23z" />
<glyph unicode="&#xfd;" horiz-adv-x="535" d="M-1 484q41 -3 69.5 -4.5t46.5 -1.5q33 0 64 1.5t62 4.5v-43h-11q-24 0 -34.5 -7t-10.5 -22q0 -18 38 -118.5t62 -168.5q11 27 31 76q79 189 79 215q0 13 -9 19.5t-27 6.5h-16v42q28 -3 52.5 -4.5t45.5 -1.5q18 0 69 4q16 1 24 2v-43h-8q-18 0 -30 -9t-25 -33l-43 -95 q-43 -96 -87 -195q-17 -39 -47 -107q-115 -263 -174 -263q-24 0 -40 15t-16 37q0 32 45 41q18 3 24 6q24 12 70 108q12 26 19 41q-16 40 -65.5 163.5t-83.5 208.5q-2 5 -7 16q-26 66 -60 66h-7v43zM314 769l95 -53l-174 -163l-48 18z" />
<glyph unicode="&#xfe;" horiz-adv-x="601" d="M203 83q23 -14 50 -22t53 -8q64 0 101 45t37 123q0 88 -37.5 141t-100.5 53q-25 0 -51 -8.5t-49 -23.5q-1 -63 -2 -120t-1 -104v-76zM209 756q-2 -83 -3.5 -161.5t-1.5 -146.5v-16q50 34 86.5 47.5t73.5 13.5q85 0 142.5 -66.5t57.5 -163.5q0 -122 -71 -195t-190 -73 q-27 0 -51.5 4.5t-48.5 13.5l-1 -98v-39q0 -57 13 -71t55 -14h19v-43q-51 2 -86.5 3.5t-62.5 1.5q-16 0 -43.5 -1t-84.5 -4v43h8q25 0 38.5 5t18.5 15q13 27 14 224v62l1 356v132q0 55 -8.5 73t-31.5 18q-6 0 -13.5 -1t-14.5 -2l-5 39q47 7 94.5 17.5t95.5 26.5z" />
<glyph unicode="&#xff;" horiz-adv-x="535" d="M-1 484q41 -3 69.5 -4.5t46.5 -1.5q33 0 64 1.5t62 4.5v-43h-11q-24 0 -34.5 -7t-10.5 -22q0 -18 38 -118.5t62 -168.5q11 27 31 76q79 189 79 215q0 13 -9 19.5t-27 6.5h-16v42q28 -3 52.5 -4.5t45.5 -1.5q18 0 69 4q16 1 24 2v-43h-8q-18 0 -30 -9t-25 -33l-43 -95 q-43 -96 -87 -195q-17 -39 -47 -107q-115 -263 -174 -263q-24 0 -40 15t-16 37q0 32 45 41q18 3 24 6q24 12 70 108q12 26 19 41q-16 40 -65.5 163.5t-83.5 208.5q-2 5 -7 16q-26 66 -60 66h-7v43zM387 707q23 0 48 -23t25 -45q0 -21 -25 -43.5t-48 -22.5t-47.5 23t-24.5 43 q0 22 24.5 45t47.5 23zM149 707q23 0 47.5 -23t24.5 -45q0 -21 -24.5 -43.5t-47.5 -22.5t-48 23t-25 43q0 22 25 45t48 23z" />
<glyph unicode="&#x131;" horiz-adv-x="321" d="M223 500q-3 -105 -4.5 -184t-1.5 -129v-57q0 -57 11.5 -73t43.5 -16q2 0 7.5 0.5t8.5 0.5v-42q-45 3 -78.5 4.5t-55.5 1.5q-19 0 -50.5 -1.5t-73.5 -4.5v42h9q62 0 63 115v29l1 104v43q0 55 -9 70.5t-34 15.5q-3 0 -16 -1q-5 0 -8 -1l-6 39q51 7 98.5 18t94.5 26z" />
<glyph unicode="&#x152;" horiz-adv-x="1140" d="M408 641q-101 0 -159 -74.5t-58 -204.5q0 -136 62 -220.5t162 -84.5q91 0 144 70.5t53 191.5q0 152 -54.5 237t-149.5 85zM1048 698v-18q0 -38 3 -75.5t9 -74.5l-44 -6q-4 62 -47.5 83.5t-220.5 21.5h-56h-86q66 -46 102.5 -107t43.5 -137q3 0 9 -0.5t9 -0.5h63h9 q93 0 114 13.5t22 52.5l41 -4q-4 -45 -5.5 -68.5t-1.5 -40.5t1 -37t2 -46l-41 -4q0 44 -23.5 59.5t-120.5 15.5h-60h-17q-4 -85 -38 -148.5t-101 -108.5q13 0 35.5 -0.5t33.5 -0.5h29h101h7q138 0 176.5 24t59.5 92l44 -14q-15 -42 -26.5 -84t-19.5 -85q-65 2 -143.5 3.5 t-186.5 1.5q-86 0 -185 -8t-113 -8q-173 0 -279.5 98.5t-106.5 255.5q0 73 27 138.5t77 115.5q56 56 127 82.5t166 26.5q5 0 120 -7.5t225 -7.5h63q78 0 124 2t79 5z" />
<glyph unicode="&#x153;" horiz-adv-x="914" d="M542 309h31q56 0 101 2.5t81 7.5q-10 58 -37.5 90t-64.5 32q-44 0 -74 -35t-37 -97zM161 264q0 -99 37.5 -157t100.5 -58q60 0 95.5 47t35.5 127q0 97 -38.5 154.5t-102.5 57.5q-60 0 -94 -45.5t-34 -125.5zM477 80q-36 -47 -84 -70.5t-110 -23.5q-110 0 -180.5 71 t-70.5 180q0 111 77 186.5t190 75.5q60 0 108 -23.5t82 -70.5q30 45 75.5 69.5t99.5 24.5q92 0 149 -65t58 -174l-199 1q-40 0 -71.5 -1t-59.5 -4v-3q0 -85 43.5 -134.5t119.5 -49.5q37 0 72.5 11.5t72.5 34.5l23 -42q-55 -44 -109.5 -66t-106.5 -22q-56 0 -101 23.5 t-78 71.5z" />
<glyph unicode="&#x178;" horiz-adv-x="695" d="M6 697q53 -2 90 -3.5t66 -1.5q21 0 53.5 1t88.5 4v-44q-33 0 -48 -5.5t-15 -18.5q0 -18 20 -53q5 -10 8 -15l108 -193l33 57q104 180 103 201q0 14 -11 20.5t-35 6.5h-11v44q43 -2 70 -3.5t46 -1.5q20 0 47.5 1t70.5 4v-43q-2 0 -4.5 0.5t-7.5 0.5q-47 0 -114 -109 q-15 -25 -23 -38l-131 -210l1 -156q1 -62 15.5 -80.5t57.5 -18.5q3 0 9.5 0.5t10.5 0.5v-44q-54 3 -96 4.5t-71 1.5q-26 0 -106 -4q-33 -1 -52 -2v44q4 0 11 -0.5t10 -0.5q43 0 58.5 19t16.5 78l1 154l-163 273q-3 6 -10 17q-42 70 -83 70q-5 0 -8.5 -0.5t-5.5 -0.5v44z M467 920q23 0 48 -23t25 -45q0 -21 -25 -43.5t-48 -22.5t-47.5 23t-24.5 43q0 22 24.5 45t47.5 23zM229 920q23 0 47.5 -23t24.5 -45q0 -21 -24.5 -43.5t-47.5 -22.5t-48 23t-25 43q0 22 25 45t48 23z" />
<glyph unicode="&#x2c6;" horiz-adv-x="500" d="M225 741h49l145 -169l-41 -19l-128 99l-128 -99l-41 20z" />
<glyph unicode="&#x2dc;" horiz-adv-x="500" d="M429 719l29 -25q-27 -36 -59 -63.5t-71 -47.5q-37 5 -93 16t-75 11q-26 0 -48.5 -11.5t-44.5 -36.5l-27 25q29 38 61 65.5t71 46.5q37 -5 93.5 -16t74.5 -11q25 0 46.5 11.5t42.5 35.5z" />
<glyph unicode="&#x2013;" horiz-adv-x="500" d="M24 284h476l-24 -72h-476z" />
<glyph unicode="&#x2014;" horiz-adv-x="1000" d="M24 284h976l-24 -72h-976z" />
<glyph unicode="&#x2018;" horiz-adv-x="296" d="M211 739l36 -38q-38 -28 -60 -59t-29 -65q37 -20 50 -34t13 -32q0 -15 -9.5 -27.5t-31.5 -28.5l-41 -29q-50 33 -67 56t-17 52q0 44 41 98.5t115 106.5z" />
<glyph unicode="&#x2019;" horiz-adv-x="296" d="M151 728q50 -33 67 -56t17 -52q0 -43 -41.5 -97.5t-115.5 -106.5l-35 37q37 27 59.5 58t29.5 66q-38 20 -50.5 33.5t-12.5 31.5q0 14 9 27.5t32 29.5z" />
<glyph unicode="&#x201a;" horiz-adv-x="296" d="M142 151q50 -32 67 -55.5t17 -52.5q0 -44 -41 -98t-115 -106l-36 37q38 28 59.5 58.5t29.5 65.5q-37 20 -50 34t-13 32q0 14 9 26.5t32 29.5z" />
<glyph unicode="&#x201c;" horiz-adv-x="533" d="M447 739l35 -38q-38 -28 -60 -58.5t-29 -65.5q40 -22 51.5 -35t11.5 -30q0 -15 -9.5 -28.5t-31.5 -28.5l-41 -29q-49 32 -66 55t-17 53q0 44 41 98.5t115 106.5zM211 739l35 -38q-40 -31 -61 -60.5t-28 -63.5q37 -20 50 -34t13 -32q0 -15 -9.5 -27.5t-31.5 -28.5l-41 -29 q-49 32 -66 55t-17 53q0 44 41.5 99t114.5 106z" />
<glyph unicode="&#x201d;" horiz-adv-x="533" d="M387 728q50 -33 66.5 -55.5t16.5 -52.5q0 -44 -41 -98.5t-115 -105.5l-35 37q39 29 60.5 59t28.5 65q-38 20 -50.5 33.5t-12.5 31.5q0 14 9 27.5t32 29.5zM151 728q50 -33 67 -56t17 -52q0 -43 -41.5 -97.5t-115.5 -106.5l-35 37q39 29 60.5 59t28.5 65 q-38 20 -50.5 33.5t-12.5 31.5q0 15 9 28t32 29z" />
<glyph unicode="&#x201e;" horiz-adv-x="533" d="M378 151q50 -32 67 -55.5t17 -52.5q0 -44 -41 -98t-115 -106l-36 37q39 28 60.5 58.5t28.5 65.5q-38 21 -50.5 34.5t-12.5 30.5q0 15 9 28t32 29zM142 151q50 -32 67 -55.5t17 -52.5q0 -44 -41 -98t-115 -106l-36 37q38 28 59.5 58.5t29.5 65.5q-37 20 -50 34t-13 32 q0 14 9 26.5t32 29.5z" />
<glyph unicode="&#x2022;" horiz-adv-x="589" d="M150 372q0 60 42.5 102t102.5 42t102 -42t42 -102t-42.5 -102.5t-102.5 -42.5t-102 42.5t-42 102.5z" />
<glyph unicode="&#x2026;" horiz-adv-x="1000" d="M161 153l48 -32q19 -12 28 -25t9 -27q0 -15 -8.5 -27t-28.5 -26l-46 -32l-48 33q-21 14 -28.5 25.5t-7.5 26.5t8.5 27.5t27.5 25.5zM494 153l48 -32q19 -12 28 -25t9 -27q0 -15 -8.5 -27t-28.5 -26l-46 -32l-48 33q-21 14 -28.5 25.5t-7.5 26.5t8.5 27.5t27.5 25.5z M828 153l48 -32q19 -12 28 -25t9 -27q0 -15 -8.5 -27t-28.5 -26l-46 -32l-48 33q-21 14 -28.5 25.5t-7.5 26.5t8.5 27.5t27.5 25.5z" />
<glyph unicode="&#x2039;" horiz-adv-x="276" d="M186 54q-37 50 -75.5 97.5t-78.5 92.5q46 53 83.5 99.5t70.5 91.5l43 -26q-23 -44 -44 -85.5t-40 -79.5q21 -44 67 -133l16 -30z" />
<glyph unicode="&#x203a;" horiz-adv-x="276" d="M92 435q47 -62 84.5 -108t69.5 -82q-48 -54 -88 -103.5t-66 -87.5l-44 27q29 55 52 98.5t33 65.5q-17 36 -37 75t-46 88z" />
<glyph unicode="&#x20ac;" d="M578 179q-15 -38 -26 -74.5t-19 -73.5q-44 -23 -86 -35.5t-81 -12.5q-109 0 -184 75.5t-94 204.5h-6q-12 0 -53 -1q-14 0 -21 -1l15 45l45 -1h6h9q0 6 -0.5 14.5t-0.5 24.5q0 8 0.5 17.5l1.5 28.5h-6q-11 0 -44 -1q-17 0 -26 -1l15 45q16 0 27.5 -0.5t23.5 -0.5h15 q22 126 100 202.5t185 76.5q46 0 90 -10t88 -30q0 -5 -0.5 -15.5t-0.5 -15.5q0 -42 8 -123l1 -9l-36 -7q-5 68 -46 107t-107 39q-63 0 -103.5 -56t-51.5 -159h134q40 0 74 0.5t56 0.5l-15 -45q-52 1 -102.5 1.5t-89.5 0.5h-60v-24q0 -16 0.5 -31.5t2.5 -29.5h134 q24 0 46 0.5t45 0.5l-15 -45q-11 0 -32 1q-73 1 -121 1h-51q16 -100 60 -156t105 -56q53 0 93 37.5t65 110.5z" />
<glyph unicode="&#x2122;" horiz-adv-x="821" d="M473 707l66 -186l67 186h92v-13l-13 -1q-9 -1 -14.5 -8t-5.5 -18v-183q0 -11 5 -18t15 -8l13 -2v-14h-120v14l15 2q10 1 14.5 7.5t4.5 18.5v183l-80 -226h-13l-83 229v-186q0 -12 5 -19t14 -7l17 -2v-14h-96v14l16 2q10 1 15 7.5t5 17.5v182q0 11 -5.5 18t-14.5 8l-16 1 v15h97zM338 707l5 -92h-15q-4 39 -19.5 57t-45.5 18h-5v-206q0 -11 5 -18t14 -8l15 -2v-14h-127v14l16 2q9 1 13.5 7.5t4.5 18.5v206h-7q-29 0 -44.5 -18.5t-19.5 -56.5h-14l5 92h219z" />
<glyph unicode="&#x25fc;" horiz-adv-x="483" d="M0 483h483v-483h-483v483z" />
</font>
</defs>
</svg>
