<?xml version="1.0" standalone="no"?>
<!DOCTYPE svg PUBLIC "-//W3C//DTD SVG 1.1//EN" "http://www.w3.org/Graphics/SVG/1.1/DTD/svg11.dtd" >
<svg xmlns="http://www.w3.org/2000/svg" xmlns:xlink="http://www.w3.org/1999/xlink" version="1.1">
<metadata></metadata>
<defs>
<font id="iowanoldst_btbold_italic" horiz-adv-x="581" >
<font-face units-per-em="1000" ascent="760" descent="-240" />
<missing-glyph horiz-adv-x="291" />
<glyph horiz-adv-x="0" />
<glyph unicode="&#xd;" horiz-adv-x="291" />
<glyph unicode=" "  horiz-adv-x="291" />
<glyph unicode="&#x09;" horiz-adv-x="291" />
<glyph unicode="&#xa0;" horiz-adv-x="291" />
<glyph unicode="!" horiz-adv-x="332" d="M294 681q-17 -99 -83 -310q-34 -110 -51 -168l-59 -14q21 127 36 243t26 225zM122 137l34 -33q15 -14 21 -25.5t6 -24.5q0 -17 -10.5 -30t-35.5 -26l-46 -24l-35 34q-15 15 -20 25t-5 22q0 18 10.5 31.5t35.5 26.5z" />
<glyph unicode="&#x22;" horiz-adv-x="338" d="M242 418l-36 224q0 4 -0.5 8t-0.5 11q0 25 12.5 39t34.5 14t34.5 -13.5t12.5 -38.5q0 -6 -2 -17v-3l-36 -224h-19zM78 418l-36 224q0 3 -0.5 7.5t-0.5 11.5q0 25 12 39t34 14q23 0 35 -13.5t12 -39.5q0 -8 -0.5 -12t-0.5 -7l-36 -224h-19z" />
<glyph unicode="#" horiz-adv-x="579" d="M252 400l-39 -119l121 -1l38 119zM279 667h62l-69 -205h120l65 205h60l-68 -206l108 1l-20 -65l-109 2l-38 -118h110l-21 -64l-110 2l-68 -219h-61l73 219l-122 2l-66 -221h-63l73 221l-109 -1l22 63l107 -2l39 120l-106 -2l21 65l106 -1z" />
<glyph unicode="$" d="M308 584q-42 -3 -69 -27t-27 -56q0 -26 14.5 -44.5t53.5 -39.5zM302 283l-30 -180q45 6 73 34t28 64q0 25 -16.5 44.5t-54.5 37.5zM333 753h53l-20 -112q59 -4 93.5 -23t34.5 -47q0 -11 -6 -22t-16 -19l-26 -20q-21 31 -44 49.5t-47 22.5l-31 -185q83 -40 113 -75t30 -87 q0 -64 -58 -119t-144 -68l-16 -110h-53l19 109q-71 1 -115 24t-44 58q0 11 4.5 19t21.5 21l29 22q22 -38 49.5 -59.5t64.5 -28.5l33 201q-77 33 -108 69t-31 88q0 65 55 116t143 64z" />
<glyph unicode="%" horiz-adv-x="853" d="M610 41q39 0 68.5 60.5t29.5 145.5q0 44 -13.5 65.5t-42.5 21.5q-40 0 -69.5 -59t-29.5 -141q0 -46 14.5 -69.5t42.5 -23.5zM593 -8q-62 0 -97 38.5t-35 106.5q0 99 63.5 172t146.5 73q59 0 93.5 -39t34.5 -105q0 -99 -61.5 -172.5t-144.5 -73.5zM206 345q41 0 70.5 61 t29.5 149q0 41 -14 61.5t-42 20.5q-40 0 -70 -59t-30 -140q0 -45 14.5 -69t41.5 -24zM146 9l481 638q-38 -27 -78.5 -41.5t-77.5 -14.5q-20 0 -41 4.5t-45 13.5q6 -12 9 -28.5t3 -37.5q0 -97 -63.5 -171.5t-148.5 -74.5q-60 0 -93.5 37t-33.5 103q0 102 64.5 175t154.5 73 q19 0 84.5 -22.5t118.5 -22.5q41 0 84.5 13t90.5 39l52 -25l-510 -681z" />
<glyph unicode="&#x26;" horiz-adv-x="766" d="M567 264q5 -12 7.5 -23.5t2.5 -24.5q0 -91 -92 -164t-214 -73q-107 0 -178 62t-71 154q0 86 59.5 140.5t173.5 70.5q-48 11 -75.5 42t-27.5 77q0 68 62 115.5t153 47.5q62 0 105 -27t43 -63q0 -15 -9 -25.5t-28 -17.5l-29 -10q-14 42 -37 63t-56 21q-41 0 -67.5 -27 t-26.5 -68q0 -40 24.5 -67.5t68.5 -37.5l-9 -42q-90 -8 -141.5 -54.5t-51.5 -119.5q0 -69 46.5 -114.5t118.5 -45.5q77 0 128.5 46t51.5 112q0 14 -3 27t-9 26q-2 0 -7 1q-26 1 -35 1q-59 0 -85 -11.5t-26 -36.5q0 -12 6.5 -23t20.5 -21l-15 -18q-4 -5 -11 -8t-15 -3 q-20 0 -33 16.5t-13 42.5q0 59 58 98.5t159 48.5q24 2 72 4q146 7 146 69q0 25 -18 39.5t-49 14.5q-6 0 -23 -1q-5 0 -8 -1q0 1 -1.5 10t-1.5 14q0 23 15.5 36t43.5 13q42 0 70.5 -32t28.5 -81q0 -74 -51.5 -123.5t-129.5 -49.5q-2 0 -8 0.5t-9 0.5z" />
<glyph unicode="'" horiz-adv-x="174" d="M78 418l-36 224q0 3 -0.5 7.5t-0.5 11.5q0 25 12 39t34 14q23 0 35 -13.5t12 -39.5q0 -8 -0.5 -12t-0.5 -7l-36 -224h-19z" />
<glyph unicode="(" horiz-adv-x="402" d="M442 765l30 -42q-128 -88 -197 -216t-69 -279q0 -103 32 -198.5t97 -186.5l-43 -32q-100 101 -147.5 203.5t-47.5 216.5q0 164 90 303.5t255 230.5z" />
<glyph unicode=")" horiz-adv-x="402" d="M93 764q100 -101 148 -203.5t48 -216.5q0 -164 -90 -303t-255 -230l-31 42q128 87 197.5 216.5t69.5 278.5q0 101 -32.5 197.5t-97.5 187.5z" />
<glyph unicode="*" horiz-adv-x="462" d="M295 697l42 -27q-26 -51 -37.5 -75t-11.5 -30q0 -3 2 -6t4 -3q13 0 60 46q23 22 37 35l43 -28l-9 -53q-12 -3 -34 -7q-84 -18 -84 -32q0 -12 67 -27q24 -5 38 -9l-11 -53l-52 -28q-11 15 -27 38q-30 43 -41 43q-4 0 -7 -4.5t-3 -13.5q0 -11 3 -32.5t10 -63.5l-52 -27 l-41 27q24 46 36 72.5t12 32.5q0 4 -2.5 6.5t-5.5 2.5q-10 0 -60 -48q-21 -21 -34 -33l-44 28l10 53q10 2 28 6q89 19 89 33q0 12 -66 27q-24 6 -38 9l9 53l53 28q8 -12 22 -31q34 -50 45 -50q5 0 8 5t3 13q0 10 -3 35t-9 62z" />
<glyph unicode="+" horiz-adv-x="833" d="M458 596v-257h251v-81h-251v-258h-83v258h-251v81h251v257h83z" />
<glyph unicode="," horiz-adv-x="291" d="M122 171l32 -31q18 -17 25 -32.5t7 -34.5q0 -46 -46.5 -101t-123.5 -98l-32 34q50 34 69 56.5t19 45.5q0 17 -19.5 43.5t-19.5 39.5q0 16 8.5 27.5t29.5 23.5z" />
<glyph unicode="-" horiz-adv-x="326" d="M3 191q1 5 6 16q18 50 26 77h9q74 -1 108 -2q25 0 53 0.5t85 1.5q-9 -25 -16.5 -48.5t-13.5 -45.5q-50 1 -82 2t-42 1q-24 0 -52 -0.5t-81 -1.5z" />
<glyph unicode="." horiz-adv-x="291" d="M124 171l34 -34q14 -14 20.5 -25.5t6.5 -25.5q0 -19 -10.5 -31.5t-37.5 -26.5l-46 -28l-35 38q-17 17 -22 27t-5 22q0 19 11 33t35 26z" />
<glyph unicode="/" horiz-adv-x="365" d="M332 675l52 -26q-87 -159 -183.5 -343t-205.5 -399l-54 24q92 169 222 420t169 324z" />
<glyph unicode="0" d="M333 632q-38 0 -68.5 -31.5t-56.5 -97.5q-24 -63 -38 -138t-14 -146q0 -84 23 -126.5t68 -42.5q33 0 61.5 25t51.5 75q29 62 47 150t18 165q0 83 -23 125t-69 42zM358 695q91 0 142.5 -64.5t51.5 -178.5q0 -91 -27.5 -180t-77.5 -156q-48 -65 -104.5 -98t-119.5 -33 q-90 0 -142 65t-52 179q0 91 28 179t78 156q46 63 104 97t119 34z" />
<glyph unicode="1" d="M87 44q5 0 14.5 -0.5t13.5 -0.5q32 0 47 8t24 29q7 17 15.5 54t26.5 136l16 89q29 161 42 242h-21q-22 0 -49 -1t-59 -4l-2 46q69 4 135 14.5t129 25.5q-21 -104 -36 -181t-24 -128l-18 -106l-5 -27q-21 -127 -21 -145q0 -32 15.5 -42.5t63.5 -10.5h10l-8 -42 q-48 3 -87 5t-67 2q-23 0 -57 -1.5t-108 -5.5z" />
<glyph unicode="2" d="M204 147l-52 -41h193q63 0 82.5 16t31.5 61l43 -11q-15 -46 -26 -88.5t-17 -83.5q-63 3 -121 5t-109 2q-84 0 -134 -2t-88 -6l-19 52q196 143 289 253.5t93 200.5q0 52 -29 85t-74 33q-40 0 -69 -26.5t-45 -77.5l-29 13q-18 8 -26 19t-8 28q0 46 52 78t131 32 q98 0 158.5 -52t60.5 -136q0 -127 -267 -337z" />
<glyph unicode="3" d="M314 365q77 -3 119 -39.5t42 -100.5q0 -95 -89.5 -166t-213.5 -71q-73 0 -121.5 25.5t-48.5 61.5q0 10 6.5 20t19.5 20l38 30q30 -46 65 -69t74 -23q58 0 99 45t41 108q0 59 -36 91t-102 32q-4 0 -19.5 -1t-23.5 -1l10 49q85 1 139 43t54 106q0 46 -27.5 76t-69.5 30 q-39 0 -66 -24.5t-43 -74.5l-28 13q-16 7 -24 19t-8 29q0 40 54.5 70.5t134.5 30.5q91 0 146.5 -42t55.5 -111q0 -60 -45.5 -105t-132.5 -71z" />
<glyph unicode="4" d="M101 279h212l53 298zM184 49q5 0 10.5 -0.5t15.5 -0.5q37 0 50.5 12t24.5 69l16 83h-159q-8 0 -33.5 -1t-69.5 -2l-23 64q21 20 42.5 41t44.5 47l177 197l9 10q62 69 88 107l115 16l-74 -412h80t49 1l-27 -71q-28 1 -57 2t-57 1l-13 -87q-1 -6 -2 -15q-2 -15 -2 -18 q0 -26 14 -35t62 -9l-7 -42l-11 1q-96 6 -121 6q-24 0 -57.5 -1.5t-93.5 -5.5z" />
<glyph unicode="5" d="M531 674l-36 -106q-44 -6 -90 -9t-100 -3q-8 0 -37.5 1t-47.5 1l-51 -182q42 22 78 32.5t70 10.5q79 0 127.5 -45.5t48.5 -119.5q0 -107 -91 -186t-218 -79q-68 0 -110.5 23t-42.5 58q0 12 5.5 21.5t17.5 19.5l39 31q31 -47 61.5 -67.5t68.5 -20.5q60 0 102 50.5 t42 121.5q0 54 -28 86t-77 32q-25 0 -55.5 -9t-69.5 -29l-39 28l84 340q54 -5 97.5 -7.5t81.5 -2.5q35 0 76 2.5t94 7.5z" />
<glyph unicode="6" d="M178 275q-3 -23 -4 -39t-1 -30q0 -76 26 -115t75 -39q53 0 87 51t34 129q0 53 -23 82t-65 29q-29 0 -61.5 -17t-67.5 -51zM531 565l-27 -22q-29 45 -57.5 63.5t-67.5 18.5q-72 0 -120.5 -73t-71.5 -215q48 44 90.5 65t84.5 21q67 0 108 -44t41 -118q0 -108 -79.5 -191 t-186.5 -83q-93 0 -144.5 61.5t-51.5 172.5q0 91 31 181.5t86 158.5q50 63 114.5 96.5t136.5 33.5q60 0 100 -24t40 -58q0 -12 -5.5 -22t-20.5 -22z" />
<glyph unicode="7" d="M81 0l377 555q-36 2 -79 3t-96 1q-84 0 -110.5 -17.5t-36.5 -67.5l-46 9q14 46 23.5 93.5t15.5 96.5q72 -4 117 -5.5t79 -1.5q48 0 107.5 1.5t146.5 5.5l19 -45q-97 -127 -194.5 -284.5t-194.5 -343.5h-128z" />
<glyph unicode="8" d="M332 399q55 30 80 62.5t25 71.5q0 44 -30 72.5t-78 28.5q-44 0 -75.5 -28.5t-31.5 -68.5q0 -31 23.5 -61.5t86.5 -76.5zM255 310q-61 -33 -90.5 -69.5t-29.5 -78.5q0 -47 34 -79.5t84 -32.5q53 0 89 33t36 79q0 35 -26 67.5t-97 80.5zM376 368q62 -41 89.5 -81t27.5 -89 q0 -82 -79 -147t-184 -65q-87 0 -143.5 47t-56.5 118q0 60 44 105t139 84q-53 39 -77 78t-24 84q0 80 68.5 136t167.5 56q83 0 136 -42t53 -107q0 -51 -39.5 -94.5t-121.5 -82.5z" />
<glyph unicode="9" d="M403 406q3 27 4 42.5t1 26.5q0 74 -24.5 113.5t-71.5 39.5q-57 0 -91.5 -49.5t-34.5 -130.5q0 -53 23 -81.5t65 -28.5q29 0 62 17.5t67 50.5zM48 119l34 27q26 -46 56 -68.5t66 -22.5q70 0 118.5 74t71.5 214q-49 -44 -91 -64.5t-84 -20.5q-67 0 -108 43t-41 114 q0 114 78 196t187 82q94 0 145 -61t51 -174q0 -88 -32 -180t-87 -161q-49 -62 -112.5 -94.5t-134.5 -32.5q-61 0 -103 25.5t-42 58.5q0 12 6 22.5t22 22.5z" />
<glyph unicode=":" horiz-adv-x="292" d="M118 148l35 -34q15 -13 21 -25t6 -26q0 -18 -11 -31t-38 -27l-45 -24l-36 35q-18 18 -22.5 27.5t-4.5 20.5q0 18 11 32.5t35 26.5zM173 461l37 -36q14 -14 19.5 -25t5.5 -24q0 -18 -11 -31.5t-36 -26.5l-47 -24l-37 35q-13 12 -18.5 23t-5.5 24q0 19 10.5 32.5t32.5 25.5 z" />
<glyph unicode=";" horiz-adv-x="292" d="M111 148l32 -31q17 -17 24.5 -32.5t7.5 -34.5q0 -45 -46 -100t-124 -99l-31 34q50 35 69 57t19 45q0 17 -19.5 43.5t-19.5 39.5q0 16 8.5 27.5t29.5 23.5zM166 461l37 -36q14 -13 20 -24.5t6 -24.5q0 -19 -10.5 -32.5t-36.5 -25.5l-48 -24l-37 35q-13 12 -18.5 23 t-5.5 24q0 19 10 32t33 26z" />
<glyph unicode="&#x3c;" horiz-adv-x="833" d="M704 484l-456 -186l456 -186v-89l-575 236v78l575 237v-90z" />
<glyph unicode="=" horiz-adv-x="833" d="M709 238v-81h-585v81h585zM709 440v-82h-585v82h585z" />
<glyph unicode="&#x3e;" horiz-adv-x="833" d="M704 337v-78l-575 -236v89l456 186l-456 186v90z" />
<glyph unicode="?" horiz-adv-x="436" d="M159 199l-54 -13q11 53 17.5 93.5t9.5 75.5q104 43 150 83t46 87q0 40 -26 65t-67 25q-26 0 -52.5 -17t-55.5 -52l-27 25q-11 10 -16 19.5t-5 18.5q0 32 37 55t92 23q85 0 144.5 -59t59.5 -142q0 -53 -33 -96t-101 -78q-9 -5 -28 -14q-91 -45 -91 -95v-4zM124 137l34 -33 q14 -14 20.5 -25.5t6.5 -24.5q0 -18 -10.5 -31t-35.5 -25l-46 -24l-35 34q-16 16 -20.5 25.5t-4.5 21.5q0 18 10.5 31.5t35.5 26.5z" />
<glyph unicode="@" horiz-adv-x="1000" d="M558 218q8 36 18 80.5t21 97.5q-14 10 -28 15.5t-28 5.5q-50 0 -91 -73t-41 -162q0 -28 6.5 -40.5t20.5 -12.5q13 0 36.5 16.5t85.5 72.5zM551 164l-27 -24q-101 -92 -143 -92q-35 0 -55 30t-20 84q0 52 18.5 103.5t52.5 96.5q40 52 87.5 79.5t96.5 27.5q19 0 36 -4.5 t34 -13.5l73 27q-31 -131 -47 -211t-16 -109q0 -22 9 -33.5t27 -11.5q47 0 92.5 76t45.5 167q0 105 -67 168t-178 63q-72 0 -138.5 -27.5t-120.5 -79.5q-62 -59 -96 -137.5t-34 -162.5q0 -129 82.5 -209t215.5 -80q105 0 197 49t172 147l21 -34q-87 -113 -191 -169.5 t-224 -56.5q-161 0 -264 96t-103 246q0 92 40.5 180.5t114.5 155.5q71 64 159 98t183 34q140 0 228.5 -75.5t88.5 -192.5q0 -70 -35 -136.5t-103 -123.5q-40 -34 -74.5 -50.5t-64.5 -16.5q-34 0 -54 25t-20 68q0 10 0.5 16.5t0.5 12.5z" />
<glyph unicode="A" horiz-adv-x="738" d="M246 297h58h86t53 1l-41 269zM-45 41q8 -1 11 -1.5t6 -0.5q49 0 118 116q18 31 29 48l134 220q52 86 90.5 153.5t55.5 101.5h108q4 -41 10 -83t18 -110l48 -278q2 -14 6 -38q21 -129 69 -129q6 0 9 0.5t6 0.5l-6 -41q-45 3 -79.5 4.5t-56.5 1.5q-26 0 -61.5 -1.5 t-81.5 -4.5l7 41h13q38 0 51.5 11t13.5 41q0 6 -0.5 11.5t-1.5 11.5l-19 126q-31 0 -71.5 1t-47.5 1h-59.5t-59.5 -1l-60 -109q-12 -21 -17.5 -36t-5.5 -26q0 -15 13.5 -23t38.5 -8h11l-7 -41q-40 3 -70 4.5t-50 1.5t-49.5 -1.5t-69.5 -4.5z" />
<glyph unicode="B" horiz-adv-x="640" d="M243 375q21 -2 32.5 -2h22.5q82 0 125.5 34.5t43.5 98.5q0 51 -30.5 77t-88.5 26q-11 0 -26.5 -1t-35.5 -2q-10 -51 -20.5 -107.5t-22.5 -123.5zM193 69q23 -5 42.5 -8t38.5 -3q83 0 128.5 38.5t45.5 107.5q0 60 -39.5 87t-126.5 27h-48q-9 -49 -19 -107.5t-22 -141.5z M419 352q77 -7 118.5 -44t41.5 -97q0 -92 -84.5 -151.5t-221.5 -59.5q-27 0 -88 3t-94 3q-19 0 -47.5 -1.5t-65.5 -4.5l8 41q3 0 7.5 -0.5t11.5 -0.5q36 0 52.5 24.5t35.5 137.5l53 308q6 35 8 51.5t2 25.5q0 20 -14 29t-43 9h-9l7 44q28 -3 57 -4.5t63 -1.5q25 0 83 3t90 3 q95 0 147.5 -40.5t52.5 -112.5q0 -59 -45.5 -103t-125.5 -61z" />
<glyph unicode="C" horiz-adv-x="679" d="M570 43q-64 -33 -120 -48.5t-110 -15.5q-135 0 -218 82.5t-83 216.5q0 82 33.5 159.5t93.5 135.5q58 55 132 84.5t157 29.5q55 0 106 -12t103 -38q-13 -43 -21.5 -85t-13.5 -83l-44 6q1 12 2 20t1 12q0 52 -41.5 79.5t-118.5 27.5q-114 0 -181.5 -88t-67.5 -237 q0 -111 50.5 -173.5t140.5 -62.5q70 0 119 35t68 98l42 -9q-11 -37 -18 -70t-11 -64z" />
<glyph unicode="D" horiz-adv-x="766" d="M197 71q34 -5 54.5 -7.5t36.5 -2.5q75 0 124 16t85 52q41 42 64.5 110t23.5 145q0 108 -56 163.5t-166 55.5q-19 0 -65 -3q-8 0 -11 -1q-28 -144 -50.5 -275.5t-39.5 -252.5zM-14 41q3 0 7 -0.5t10 -0.5q36 0 53.5 26.5t36.5 140.5l51 303q6 33 8 50t2 27q0 19 -13.5 28 t-42.5 9h-10l7 42q42 -3 68.5 -4t46.5 -1q46 0 105.5 2.5t72.5 2.5q164 0 250 -70t86 -203q0 -80 -31 -154t-87 -129t-132.5 -82.5t-173.5 -27.5q-23 0 -92.5 3t-115.5 3q-8 0 -35.5 -1.5t-78.5 -4.5z" />
<glyph unicode="E" horiz-adv-x="611" d="M-14 41q3 0 7.5 -0.5t11.5 -0.5q36 0 52.5 24.5t35.5 137.5l52 308q6 33 8 50t2 27q0 20 -14.5 29t-43.5 9h-9l7 42q38 -2 83.5 -3.5t139.5 -1.5q85 0 151.5 1.5t134.5 3.5q-9 -39 -15.5 -77t-9.5 -76l-44 -2q0 4 0.5 8.5t0.5 12.5q0 41 -25.5 57t-94.5 16h-132 q-5 -27 -19 -105.5t-22 -124.5q28 -1 56 -1.5t71 -0.5q63 0 81 13t25 50l41 -6q-13 -46 -21 -91.5t-11 -90.5l-41 -1q0 6 0.5 12.5t0.5 12.5q0 27 -18.5 36.5t-91.5 9.5h-43h-31h-27q-11 -61 -21.5 -123.5t-20.5 -127.5q34 -3 71 -4.5t86 -1.5q86 0 115.5 21.5t46.5 88.5 l44 -7q-12 -43 -20.5 -84t-14.5 -81q-76 3 -148.5 4.5t-141.5 1.5q-56 0 -118.5 -1.5t-133.5 -4.5z" />
<glyph unicode="F" horiz-adv-x="562" d="M-15 41q3 0 7 -0.5t10 -0.5q62 0 89 165l1 4l51 302q6 39 8 53t2 23q0 20 -14 29t-46 9h-5l8 42q72 -2 124.5 -3.5t93.5 -1.5q56 0 123 1.5t155 3.5q-10 -40 -17 -79t-10 -78l-44 -2q0 8 0.5 15t0.5 13q0 40 -22 53.5t-129 13.5q-4 0 -33 -0.5t-53 -1.5q-7 -39 -21 -119 t-22 -121q9 0 29 -1q66 -1 91 -1q51 0 67.5 12.5t24.5 50.5l43 -6q-14 -48 -22 -94.5t-11 -92.5l-43 -1q0 5 0.5 11t0.5 17q0 28 -19.5 38.5t-81.5 10.5q-10 0 -40.5 -0.5t-49.5 -0.5l-26 -151q-3 -19 -5 -33.5t-2 -23.5q0 -31 14.5 -43t52.5 -12h16l-6 -41q-45 3 -82.5 5 t-64.5 2q-21 0 -53.5 -1.5t-96.5 -5.5z" />
<glyph unicode="G" horiz-adv-x="730" d="M599 28q-75 -24 -138 -36.5t-110 -12.5q-146 0 -228 79t-82 219q0 92 39.5 175t110.5 142q56 46 126.5 69.5t151.5 23.5q54 0 107.5 -11.5t110.5 -35.5q-12 -43 -20.5 -83t-13.5 -77l-46 6q1 12 2 20t1 10q0 48 -44 74t-127 26q-120 0 -189.5 -89t-69.5 -242 q0 -115 54.5 -176t155.5 -61q25 0 48 4.5t45 12.5q12 66 18 105t6 53q0 22 -13.5 31.5t-47.5 9.5h-14l9 43q38 -2 71.5 -3t59.5 -1q33 0 111 3q12 0 18 1l-7 -43q-7 1 -11 1.5t-6 0.5q-46 0 -65 -146q-8 -57 -13 -92z" />
<glyph unicode="H" horiz-adv-x="778" d="M-13 41q3 0 7 -0.5t10 -0.5q62 0 88 160l2 9l52 302q6 35 8 51t2 25q0 20 -14 29t-43 9h-9l7 42q62 -4 88 -5.5t44 -1.5q23 0 55 1.5t86 5.5l-6 -42h-13q-36 0 -52 -16.5t-27 -75.5l-28 -157q37 -1 71 -2t66 -1q33 0 75.5 1t96.5 2l22 134q5 31 7.5 48.5t2.5 28.5 q0 20 -14 29t-46 9h-5l7 42h4q96 -6 125 -7q24 0 54.5 1.5t86.5 5.5l-7 -42h-8q-28 0 -42.5 -7t-22.5 -23q-6 -13 -16.5 -64.5t-32.5 -180.5l-7 -38q-18 -105 -26 -157.5t-8 -66.5q0 -25 11.5 -35.5t41.5 -10.5h15l-7 -42q-42 3 -78.5 5t-64.5 2q-24 0 -59.5 -2t-77.5 -5 l8 41q3 0 7.5 -0.5t12.5 -0.5q57 0 77 110l1 8l27 154q-29 1 -60.5 1.5t-88.5 0.5q-61 0 -95 -0.5t-65 -1.5l-30 -173q-2 -15 -3.5 -27t-1.5 -22q0 -26 12.5 -37.5t41.5 -11.5q7 0 10.5 0.5t6.5 0.5l-7 -41q-45 3 -81.5 4.5t-63.5 1.5q-21 0 -56.5 -2t-80.5 -5z" />
<glyph unicode="I" horiz-adv-x="365" d="M-13 43q1 0 3 -1q15 -1 21 -1q57 0 81 140q2 14 4 21l55 309q5 26 7.5 45.5t2.5 30.5q0 20 -14.5 29t-47.5 9h-11l7 42q43 -3 76.5 -4.5t56.5 -1.5q41 0 78 1.5t73 3.5l-9 -41q-3 0 -8.5 0.5t-7.5 0.5q-34 0 -49 -17t-28 -88l-53 -291q-11 -58 -15 -89t-4 -47 q0 -30 13.5 -40.5t52.5 -10.5h7l-8 -43q-68 4 -97.5 5.5t-50.5 1.5q-29 0 -133 -7h-10z" />
<glyph unicode="J" horiz-adv-x="365" d="M-136 -158q97 2 143 54t73 209l71 406q6 37 8 52t2 24q0 21 -14 29.5t-47 8.5h-11l7 42q39 -3 73 -4.5t59 -1.5q41 0 78 1.5t73 3.5l-8 -41q-3 0 -9 0.5t-8 0.5q-29 0 -43.5 -12t-23.5 -46q-16 -52 -38.5 -206t-40.5 -243q-35 -179 -107 -248.5t-217 -76.5z" />
<glyph unicode="K" horiz-adv-x="693" d="M238 332l232 206q31 28 42 41.5t11 23.5q0 12 -12.5 17t-42.5 5l9 42q41 -3 72 -4.5t51 -1.5q38 0 71 1.5t65 3.5l-9 -41h-11q-47 0 -105 -48q-5 -5 -9 -8l-242 -203l179 -259q27 -40 47 -52t52 -12h15l-8 -43q-43 3 -64 4t-34 1q-15 0 -37.5 -1t-68.5 -4 q-1 17 -7.5 33.5t-25.5 45.5zM-14 41h3q12 -1 18 -2q58 0 81 137q3 17 5 26l54 309q6 37 8 52t2 24q0 20 -14 29t-43 9h-9l7 42q42 -3 76 -4.5t61 -1.5q31 0 66 1.5t73 3.5l-9 -41q-3 0 -8 0.5t-8 0.5q-34 0 -49 -17t-28 -88l-53 -291q-11 -58 -15 -89t-4 -47q0 -31 14 -41 t57 -10l-8 -43q-64 4 -95 5.5t-52 1.5q-26 0 -126 -6l-12 -1z" />
<glyph unicode="L" horiz-adv-x="559" d="M-18 41q3 0 7.5 -0.5t13.5 -0.5q36 0 52.5 24.5t35.5 137.5l52 309q6 37 8 52t2 24q0 20 -13.5 29t-42.5 9h-10l7 42q42 -3 77 -4.5t62 -1.5q24 0 95 4q28 1 44 2l-7 -42h-10q-33 0 -48.5 -11t-23.5 -41q-12 -48 -36.5 -188t-50.5 -314q26 -2 56.5 -3.5t69.5 -1.5 q75 0 106.5 23.5t44.5 87.5l46 -7q-12 -41 -21 -83.5t-16 -86.5q-106 4 -171 5.5t-115 1.5q-39 0 -90 -1.5t-132 -5.5z" />
<glyph unicode="M" horiz-adv-x="899" d="M-29 41q2 0 6.5 -0.5t7.5 -0.5q34 0 50.5 17.5t32.5 86.5l92 389q3 14 5 26t2 20q0 27 -12.5 36.5t-48.5 9.5h-7l8 42q31 -2 59.5 -3t53.5 -1q27 0 55.5 1t58.5 3q0 -1 -0.5 -3t-0.5 -7q0 -34 24 -150t72 -316q31 55 86 150q166 289 171 326q45 -3 71.5 -4t42.5 -1t40 1 t72 4l-7 -42q-3 0 -9 0.5t-8 0.5q-35 0 -49 -15.5t-22 -79.5l-49 -385q-2 -15 -3 -28t-1 -20q0 -33 13 -45t46 -12h5l-8 -41q-36 3 -70.5 4.5t-66.5 1.5q-23 0 -58.5 -1.5t-83.5 -4.5l9 41q3 0 7 -0.5t6 -0.5q69 0 91 148l1 10l54 371l-252 -440q-1 -2 -4 -7 q-38 -66 -59 -122h-54q-5 65 -25 148l-1 6l-90 391l-86 -402q-4 -21 -6 -32.5t-2 -18.5q0 -27 13.5 -39t44.5 -12h12l-7 -41q-37 3 -67.5 4.5t-52.5 1.5q-19 0 -46 -1.5t-62 -4.5z" />
<glyph unicode="N" horiz-adv-x="751" d="M-32 44q3 0 7 -0.5t12 -0.5q38 0 56.5 24.5t36.5 124.5l61 319q4 23 6.5 43t2.5 33q0 21 -14.5 30t-46.5 9q-2 0 -8 -0.5t-9 -0.5l7 42q28 -1 52 -2t44 -1q25 0 51 1t56 2q2 -19 14.5 -47t38.5 -71l227 -383l52 324q5 30 8 54.5t3 37.5q0 21 -14.5 31t-46.5 10h-10l8 45 q31 -2 58.5 -3t51.5 -1q27 0 56 1t61 2l-6 -44q-4 0 -8.5 0.5t-12.5 0.5q-31 0 -44.5 -15t-25.5 -81q-52 -268 -69.5 -374t-17.5 -147v-11h-94q-19 46 -53 101q-3 5 -4 7l-250 422l-60 -368q-4 -26 -6.5 -44t-2.5 -28q0 -25 11 -34.5t40 -9.5h12.5t8.5 1l-5 -45q-38 3 -70 5 t-54 2q-27 0 -56.5 -1.5t-60.5 -3.5z" />
<glyph unicode="O" horiz-adv-x="765" d="M423 620q-113 0 -179.5 -98t-66.5 -265q0 -101 43 -154t125 -53q111 0 177.5 101t66.5 271q0 98 -42 148t-124 50zM38 259q0 87 34 169.5t96 144.5q55 55 127.5 84.5t152.5 29.5q130 0 204 -74.5t74 -205.5q0 -86 -33.5 -169t-92.5 -144q-55 -56 -127.5 -85.5 t-155.5 -29.5q-130 0 -204.5 75t-74.5 205z" />
<glyph unicode="P" horiz-adv-x="613" d="M234 323q8 -1 20 -2q28 -2 38 -2q87 0 137 45t50 123q0 58 -35.5 89t-99.5 31q-22 0 -35 -0.5t-24 -1.5q-6 -35 -18.5 -106t-32.5 -176zM225 270l-19 -114q-3 -21 -5 -37.5t-2 -25.5q0 -29 13.5 -40t49.5 -11h18l-6 -42q-47 3 -86 5t-69 2q-17 0 -44.5 -1.5t-96.5 -5.5 l6 41q3 0 7 -0.5t11 -0.5q62 0 89 160l2 9l52 303q5 26 7.5 46t2.5 30q0 20 -14 29t-44 9h-10l7 42h2q86 -5 107 -5q36 0 94 2.5t80 2.5q112 0 171 -44t59 -129q0 -105 -84.5 -167t-231.5 -62q-13 0 -29.5 1t-36.5 3z" />
<glyph unicode="Q" horiz-adv-x="765" d="M422 620q-113 0 -179 -98t-66 -265q0 -101 43 -154t125 -53q111 0 177.5 101t66.5 271q0 97 -42.5 147.5t-124.5 50.5zM323 -13q-4 0 -11.5 -0.5t-10.5 -0.5q-121 0 -192 74t-71 199q0 88 34 170.5t96 143.5q56 55 128.5 84.5t152.5 29.5q129 0 203 -74.5t74 -205.5 q0 -139 -72 -246.5t-195 -150.5l48 -48q49 -49 95 -73.5t90 -24.5q17 0 37.5 3.5t47.5 11.5l11 -41q-53 -22 -100 -33t-88 -11q-65 0 -118 31.5t-119 112.5z" />
<glyph unicode="R" horiz-adv-x="702" d="M236 332q5 0 11 -0.5t17 -0.5q97 0 150.5 42t53.5 118q0 57 -34 86.5t-99 29.5q-6 0 -27 -1q-14 0 -24 -1q-15 -77 -38 -214q-7 -40 -10 -59zM-14 41q3 0 7.5 -0.5t11.5 -0.5q59 0 84 146q2 11 3 17l50 283q6 37 9.5 63.5t3.5 38.5q0 20 -14 28.5t-46 8.5h-11l7 44 q38 -3 66 -4.5t46 -1.5q37 0 95 3t80 3q102 0 158.5 -43t56.5 -121q0 -64 -43.5 -117t-119.5 -80l63 -124q4 -8 12 -23q62 -125 133 -125q6 0 10.5 0.5t7.5 0.5l-9 -43q-17 -3 -35 -4.5t-36 -1.5q-49 0 -83.5 14t-58.5 43q-27 33 -76 144q-26 61 -42 95q-15 -1 -29.5 -2 t-28.5 -1q-5 0 -15.5 0.5t-15.5 0.5l-19 -120q-4 -25 -6.5 -45t-2.5 -30q0 -25 13 -36t43 -11h12l-6 -41q-50 3 -86.5 4.5t-58.5 1.5q-20 0 -50 -1t-88 -4z" />
<glyph unicode="S" horiz-adv-x="585" d="M538 644q-11 -40 -18 -77.5t-11 -74.5l-43 4q1 11 2 20t1 16q0 40 -36.5 64.5t-95.5 24.5q-56 0 -88.5 -26.5t-32.5 -71.5q0 -37 22.5 -63t103.5 -69q104 -56 133.5 -93t29.5 -89q0 -95 -83 -162t-205 -67q-46 0 -92.5 12t-94.5 36q11 43 17 83.5t8 80.5l46 -3v-3 q-1 -18 -2 -27q0 -50 42.5 -81t110.5 -31q60 0 99 32.5t39 81.5q0 64 -119 125q-11 6 -17 9q-83 42 -118 83.5t-35 95.5q0 87 78 150t191 63q38 0 79.5 -10.5t88.5 -32.5z" />
<glyph unicode="T" horiz-adv-x="622" d="M111 41h24q58 0 85 156l2 12l68 391h-85q-54 0 -79 -22t-36 -81l-45 6q12 44 20 85t12 79q38 -4 71 -6t62 -2q22 0 42.5 1t40.5 2h150q13 0 40.5 -0.5t42.5 -0.5q38 0 67.5 1.5t56.5 4.5q-8 -38 -13.5 -79t-8.5 -85l-45 -3q0 5 0.5 11.5t0.5 21.5q0 33 -20.5 48.5 t-69.5 18.5h-79l-79 -473l-2 -16t-1 -18q0 -28 13 -40t46 -12h14l-8 -41q-72 4 -102 5.5t-51 1.5q-17 0 -44 -1.5l-99 -5.5z" />
<glyph unicode="U" horiz-adv-x="737" d="M88 667h1q102 -7 129 -7q23 0 54.5 1.5t85.5 5.5l-8 -42q-3 0 -8.5 0.5t-7.5 0.5q-58 0 -77 -120q-4 -26 -7 -40l-26 -149q-7 -39 -10.5 -68t-3.5 -55q0 -60 44 -98t114 -38q43 0 80 16t60 45q20 24 32.5 67.5t27.5 145.5l14 102q9 66 13 97t4 40q0 30 -13.5 42t-46.5 12 h-9l8 42q11 0 31 -2q60 -4 82 -4q23 0 52.5 1.5t64.5 4.5l-6 -42h-10q-29 0 -42 -7t-21 -25q-12 -29 -31 -156q-15 -101 -26 -164q-14 -82 -31.5 -125.5t-46.5 -75.5q-41 -45 -100 -69t-130 -24q-114 0 -179 55.5t-65 152.5q0 37 25 167l14 70q12 64 18.5 105.5t6.5 56.5 q0 21 -14 30t-45 9h-5z" />
<glyph unicode="V" horiz-adv-x="715" d="M219 -18q-2 26 -4.5 48.5t-5.5 41.5l-73 467l-1 5q-13 81 -65 81h-14l6 42q38 -2 73 -3.5t68 -1.5q27 0 61.5 1t72.5 3l-6 -42h-12q-34 0 -48.5 -10t-14.5 -33q0 -8 0.5 -16t2.5 -18l61 -426l243 446q4 8 6.5 14.5t2.5 11.5q0 17 -12 24t-42 7h-8l7 43q45 -3 70 -4t43 -1 q34 0 111 4h14l-7 -41q-2 0 -5.5 0.5t-9.5 0.5q-52 0 -129 -136q-27 -48 -44 -76q-105 -177 -176.5 -301.5t-71.5 -130.5h-93z" />
<glyph unicode="W" horiz-adv-x="1000" d="M205 -16q-5 67 -17 145q-1 11 -2 15l-51 364q-10 76 -25 96t-50 20h-10l7 43q38 -4 73 -6t67 -2q26 0 59 1t71 3l-6 -40q-3 0 -7 0.5t-12 0.5q-29 0 -42 -11t-13 -36q0 -7 0.5 -11t0.5 -8l57 -412l196 366l-8 51q-7 36 -20 48t-42 12h-7l10 44q41 -3 72 -4.5t51 -1.5 q29 0 63.5 1.5t74.5 4.5l-8 -45q-3 0 -7.5 0.5t-12.5 0.5q-31 0 -44 -10.5t-13 -35.5q0 -5 0.5 -13t2.5 -20l58 -398l193 396q10 21 13.5 32t3.5 19q0 16 -11.5 23t-35.5 7h-12t-8 -1l10 45q38 -3 66.5 -4.5t46.5 -1.5q26 0 56 1.5t65 4.5l-9 -44h-10q-51 0 -95 -84 q-6 -12 -10 -19l-194 -371l-11 -22q-42 -78 -71 -143h-83q-1 27 -4 54.5t-9 63.5l-46 311l-176 -323q-15 -26 -27.5 -52.5t-23.5 -53.5h-84z" />
<glyph unicode="X" horiz-adv-x="696" d="M481 543q14 18 23.5 35t9.5 24q0 12 -7 17.5t-23 5.5l-7 -1h-14l8 43q32 -2 59.5 -3t44.5 -1q36 0 114 4h9l-7 -42q-2 0 -6.5 0.5t-5.5 0.5q-44 0 -98 -61l-3 -3l-174 -195l125 -259q21 -43 37.5 -55t45.5 -12h12l-8 -41q-49 3 -85 4.5t-60 1.5q-22 0 -57 -1.5t-81 -4.5 l7 41q3 0 8.5 -0.5t13.5 -0.5q23 0 32 7t9 24q0 7 -3.5 17.5t-9.5 23.5l-75 161l-137 -163q-12 -14 -18.5 -26t-6.5 -20q0 -13 7 -18.5t24 -5.5h24l-6 -41q-53 3 -80.5 4t-45.5 1q-25 0 -55 -1t-63 -3l8 40q2 0 6.5 -0.5t7.5 -0.5q44 0 104 65l7 7l196 217l-100 218 q-23 52 -38.5 65t-41.5 13q-2 0 -7 -0.5t-8 -0.5l8 43q36 -2 69 -3.5t62 -1.5q31 0 65 1.5t70 3.5l-7 -42h-10q-21 0 -32 -5t-11 -15q0 -20 14 -51l1 -2l57 -130z" />
<glyph unicode="Y" horiz-adv-x="633" d="M57 667q47 -3 81.5 -4.5t57.5 -1.5t57.5 1.5t79.5 4.5l-7 -41h-11q-30 0 -44 -8.5t-14 -27.5q0 -7 2 -15t6 -19l76 -218l156 220q7 10 11.5 22t4.5 19q0 14 -10.5 21t-30.5 7q-2 0 -6 -0.5t-6 -0.5l8 41q8 0 25 -2q59 -4 79 -4q24 0 90 5q17 1 25 1l-8 -42h-6 q-23 0 -39.5 -9t-38.5 -38l-230 -302l-26 -160q-2 -11 -3 -19.5t-1 -12.5q0 -23 13.5 -33.5t44.5 -10.5q8 0 12.5 0.5t7.5 0.5l-7 -42q-62 4 -94.5 6t-50.5 2q-22 0 -53.5 -1.5t-98.5 -5.5l8 42q4 0 8.5 -0.5t13.5 -0.5q36 0 51.5 14.5t23.5 61.5l26 156l-107 285 q-17 45 -31 57t-40 12q-2 0 -6 -0.5t-7 -0.5z" />
<glyph unicode="Z" horiz-adv-x="664" d="M-4 41q23 18 57 55t106 127l303 378q-11 0 -41 0.5t-48 0.5h-30q-126 0 -162 -22t-49 -84l-47 11q13 43 22.5 83.5t15.5 79.5q20 -5 58 -7t123 -2h56q107 0 169 2t97 7l18 -42q-43 -40 -127 -149q-36 -46 -55 -69l-273 -342q30 -1 61 -1.5t78 -0.5h36q110 0 144 24.5 t49 92.5l46 -11q-14 -46 -24.5 -89.5t-16.5 -84.5q-97 4 -161 5.5t-115 1.5q-57 0 -122 -2t-150 -5z" />
<glyph unicode="[" horiz-adv-x="389" d="M46 -178l158 930q24 -2 56 -3t106 -1h87l-7 -46h-37q-28 0 -55.5 -3t-57.5 -9l-137 -806q30 -5 56 -7.5t46 -2.5q4 0 20 0.5t27 0.5l-8 -45h-71q-36 0 -80.5 -2t-102.5 -6z" />
<glyph unicode="\" horiz-adv-x="365" d="M127 675q78 -352 112 -504t58 -253l-57 -11q-40 192 -82.5 381t-88.5 375z" />
<glyph unicode="]" horiz-adv-x="389" d="M329 752l-158 -930q-58 3 -101 5t-61 2h-87l8 46h43q25 0 51.5 2.5t54.5 8.5l137 807q-33 4 -61.5 6.5t-49.5 2.5h-17.5t-20.5 -1l8 46l71 1q86 0 122 1t61 3z" />
<glyph unicode="^" horiz-adv-x="1000" d="M552 714l245 -276h-51l-247 194l-247 -194h-51l246 276h105z" />
<glyph unicode="_" horiz-adv-x="500" d="M500 -152v-84h-500v84h500z" />
<glyph unicode="`" horiz-adv-x="500" d="M283 747l72 -204l-44 -13l-117 179z" />
<glyph unicode="a" horiz-adv-x="523" d="M338 391q-18 12 -33.5 17.5t-32.5 5.5q-56 0 -102 -82t-46 -187q0 -34 9 -51t26 -17q15 0 50 26t92 81q7 35 16 83.5t21 123.5zM464 484q-32 -163 -46.5 -252t-14.5 -122q0 -15 5 -23t15 -8q7 0 18.5 8t44.5 37l16 -39l-33 -31q-41 -38 -66 -53.5t-44 -15.5 q-31 0 -48 23.5t-17 67.5q0 8 0.5 20t2.5 27q-87 -82 -128 -108.5t-72 -26.5q-41 0 -64.5 35.5t-23.5 97.5t20 119.5t58 107.5q46 60 102.5 92.5t113.5 32.5q19 0 38 -4t40 -13z" />
<glyph unicode="b" horiz-adv-x="518" d="M152 92q16 -20 34 -30t38 -10q57 0 96.5 72.5t39.5 180.5q0 42 -11.5 63.5t-33.5 21.5q-18 0 -46 -18t-87 -70l-17 -106l-9 -66t-4 -38zM262 762q-11 -56 -21.5 -112.5t-20.5 -114.5l-31 -173l52 48q44 40 71 54.5t54 14.5q51 0 81.5 -42t30.5 -113q0 -59 -20 -115.5 t-57 -104.5q-45 -58 -103 -88.5t-122 -30.5q-42 0 -80 19.5t-65 56.5l96 559q2 14 3.5 26t1.5 19q0 16 -8 23t-27 7q-7 0 -23 -2h-5l-5 37q48 5 97.5 13t100.5 19z" />
<glyph unicode="c" horiz-adv-x="404" d="M351 372l-31 -27q-26 33 -45.5 46t-38.5 13q-48 0 -78 -61t-30 -161q0 -53 17 -81.5t48 -28.5q21 0 51.5 20t71.5 59l22 -45q-62 -65 -108.5 -93.5t-88.5 -28.5q-58 0 -95 49.5t-37 129.5q0 63 25.5 125t70.5 109q38 40 82.5 59.5t96.5 19.5q40 0 66.5 -17.5t26.5 -43.5 q0 -12 -6 -21.5t-20 -21.5z" />
<glyph unicode="d" horiz-adv-x="538" d="M307 177l34 206q-27 18 -46 25t-35 7q-55 0 -93 -73.5t-38 -183.5q0 -41 9.5 -61t29.5 -20q16 0 51 25.5t88 74.5zM306 120l-74 -67q-39 -36 -66 -50t-52 -14q-45 0 -73.5 39.5t-28.5 104.5q0 140 77 241t180 101q22 0 43 -5.5t43 -16.5l23 146q3 19 4.5 33t1.5 21 q0 25 -8 34t-31 9q-3 0 -12 -1t-15 -1l-3 40q53 4 104 11t99 17q-47 -234 -75.5 -412t-28.5 -225q0 -25 4.5 -35t15.5 -10q4 0 13 5t19 13l29 24l16 -37l-58 -53q-27 -26 -47.5 -37.5t-38.5 -11.5q-30 0 -47 27.5t-17 75.5q0 6 1.5 17.5t1.5 16.5z" />
<glyph unicode="e" horiz-adv-x="420" d="M126 227l5 2q157 79 157 128q0 23 -17 41t-40 18q-37 0 -65 -49.5t-40 -139.5zM270 249l-146 -70v-13q0 -46 18.5 -72t50.5 -26q24 0 56.5 18.5t82.5 61.5l19 -41q-67 -63 -118 -92.5t-93 -29.5q-60 0 -96.5 47t-36.5 125q0 51 19.5 109t51.5 102q38 52 86 80t98 28 q53 0 89.5 -32t36.5 -77q0 -61 -116 -117z" />
<glyph unicode="f" horiz-adv-x="347" d="M96 403q-19 0 -37.5 -1t-37.5 -2l8 46q27 3 45.5 10t32.5 18q31 128 107 205t169 77q42 0 67.5 -17t25.5 -43q0 -11 -6 -22t-17 -21l-28 -24q-22 26 -43.5 38.5t-44.5 12.5q-49 0 -76 -49.5t-43 -175.5h30q15 0 32.5 0.5t44.5 1.5l-10 -56q-16 0 -31 0.5t-32 0.5h-41 l-1 -4q-61 -442 -130 -549q-33 -50 -74 -78t-81 -28q-29 0 -50 15.5t-21 37.5q0 8 4.5 16.5t13.5 17.5l24 22q16 -19 30.5 -27.5t30.5 -8.5q40 0 60.5 43.5t35.5 172.5z" />
<glyph unicode="g" horiz-adv-x="498" d="M157 -14q-66 -34 -88 -55.5t-22 -45.5q0 -33 40 -57.5t99 -24.5q58 0 95 23t37 58q0 39 -118 85q-28 11 -43 17zM245 430q-44 0 -74 -50.5t-30 -124.5q0 -39 16 -59.5t47 -20.5q47 0 77 48t30 122q0 42 -17 63.5t-49 21.5zM494 472l-19 -63q-6 0 -12.5 -0.5t-20.5 -0.5 q-18 0 -36 2t-35 5q25 -18 37 -41t12 -54q0 -56 -34 -97.5t-104 -70.5q-17 -6 -45 -18q-66 -25 -66 -37q0 -18 89 -50q12 -4 17 -6q91 -33 120 -59.5t29 -66.5q0 -70 -86 -123t-206 -53q-87 0 -142 34.5t-55 87.5q0 39 32.5 67.5t146.5 76.5q-47 19 -64.5 32t-17.5 29 q0 28 110 74q15 6 23 9q-1 0 -5 -1q-15 -1 -22 -1q-49 0 -79.5 34t-30.5 89q0 85 66.5 145.5t160.5 60.5q31 0 83.5 -7t74.5 -7q17 0 36.5 2.5t42.5 7.5z" />
<glyph unicode="h" horiz-adv-x="543" d="M271 761q-27 -137 -35 -175.5t-10 -48.5l-37 -196l68 64q43 41 68.5 55t48.5 14q39 0 62.5 -28t23.5 -76q0 -45 -22 -135.5t-22 -128.5q0 -14 5 -21.5t14 -7.5q5 0 12.5 4t17.5 12l31 28l17 -36l-56 -51q-25 -23 -48.5 -35t-41.5 -12q-29 0 -46.5 23t-17.5 62 q0 46 22.5 142t22.5 134q0 16 -6.5 25t-17.5 9q-22 0 -110 -74q-23 -20 -36 -30l-30 -165q-6 -35 -9.5 -58t-5.5 -44l-121 -24q23 101 60 299l3 18l16 91q20 104 31.5 178t11.5 91q0 14 -8 22t-23 8q-7 0 -24 -2h-6l-4 38q52 5 102.5 12.5t99.5 18.5z" />
<glyph unicode="i" horiz-adv-x="306" d="M225 752l36 -36q12 -12 18 -23t6 -23q0 -14 -9.5 -26t-30.5 -23l-49 -27l-34 37l-2 2q-23 25 -23 43q0 15 9.5 27t28.5 22zM243 122l17 -38q-62 -58 -94.5 -78t-59.5 -20q-30 0 -47 21t-17 58q0 32 27 139q3 14 5 20q14 54 20.5 87.5t6.5 48.5q0 12 -6.5 19.5t-16.5 7.5 q-8 0 -21 -5.5t-33 -17.5l-16 34l67 44q23 16 43.5 23.5t36.5 7.5q30 0 47.5 -19t17.5 -51q0 -24 -22 -111q-9 -35 -13 -55q-14 -56 -19.5 -86t-5.5 -43q0 -14 5 -21.5t14 -7.5t24 10t40 33z" />
<glyph unicode="j" horiz-adv-x="308" d="M227 752l35 -36q14 -15 19 -24.5t5 -20.5q0 -15 -9.5 -27t-29.5 -23l-50 -27l-34 37l-3 3q-21 23 -22 42q0 15 9.5 26.5t29.5 22.5zM225 349l-41 -250q-15 -93 -29.5 -142.5t-35.5 -83.5q-37 -61 -93.5 -97.5t-110.5 -36.5q-38 0 -61.5 16t-23.5 42q0 10 5.5 19.5 t16.5 18.5l26 23q21 -25 40.5 -38t38.5 -13q37 0 58 39t43 167l18 102q17 95 26.5 160.5t9.5 82.5q0 14 -4.5 21t-13.5 7q-6 0 -17.5 -5t-39.5 -21l-16 37l59 34q39 23 62 32.5t40 9.5q24 0 37 -15.5t13 -45.5q0 -9 -1.5 -21.5t-5.5 -41.5z" />
<glyph unicode="k" horiz-adv-x="537" d="M170 216q86 10 136.5 45t50.5 84q0 22 -12 34.5t-32 12.5q-28 0 -112 -68l-15 -13zM16 -14q16 69 31 147t31 172l15 90q26 154 34 205.5t8 63.5q0 14 -8.5 22t-23.5 8q-5 0 -20 -1q-5 0 -8 -1l-4 38q52 4 102 11.5t99 19.5q-4 -22 -20 -100t-25 -124l-33 -170l10 9 q109 101 164 101q38 0 65 -30.5t27 -72.5q0 -55 -37 -94t-114 -65q54 -83 83.5 -115.5t49.5 -32.5q9 0 22 8t33 27l17 -34q-54 -52 -78 -66.5t-48 -14.5q-41 0 -82.5 46t-94.5 149q-13 -3 -25.5 -5.5t-23.5 -3.5l-7 -40q-4 -22 -15 -105l-2 -16z" />
<glyph unicode="l" horiz-adv-x="295" d="M252 84l-41 -37q-35 -31 -59.5 -45t-45.5 -14q-30 0 -49 27t-19 70q0 32 22 139q12 60 18 94l14 79q23 122 33.5 186t10.5 82q0 14 -8.5 22t-23.5 8q-5 0 -20 -1q-5 0 -8 -1l-5 37q47 5 97 13t103 19q-77 -394 -98 -510.5t-21 -140.5q0 -16 6 -25t16 -9q5 0 14 5t21 15 l28 23z" />
<glyph unicode="m" horiz-adv-x="796" d="M25 -13q9 39 17.5 83.5t20.5 112.5l10 56q6 36 9.5 62t3.5 40q0 20 -6 28.5t-19 8.5q-9 0 -21 -5t-27 -14l-15 35q17 11 45 31q71 51 96 51q26 0 43.5 -22.5t17.5 -57.5q0 -15 -6 -54q-1 -10 -2 -15q9 9 25 27q117 123 159 122q35 0 55.5 -29.5t20.5 -80.5 q0 -10 -0.5 -19.5t-2.5 -20.5l19 21q121 129 167 129q37 0 58.5 -26t21.5 -70q0 -47 -23.5 -142t-23.5 -133q0 -13 5.5 -21t13.5 -8t24 11.5t39 33.5l16 -37l-5 -4q-100 -93 -135 -93q-33 0 -51 24.5t-18 67.5q0 46 21 137.5t21 130.5q0 14 -5.5 22.5t-14.5 8.5 q-22 0 -103 -76q-21 -20 -33 -31q-3 -19 -9 -54q-26 -149 -32 -206l-119 -24q40 208 50.5 271.5t10.5 88.5q0 14 -6 22.5t-16 8.5q-22 0 -101 -74q-23 -21 -36 -33q-17 -86 -27 -148.5t-15 -110.5z" />
<glyph unicode="n" horiz-adv-x="551" d="M198 342l67 62q48 45 71.5 57.5t48.5 12.5q39 0 61.5 -27t22.5 -73t-21.5 -138t-21.5 -130q0 -14 4.5 -21t13.5 -7q6 0 13.5 4t15.5 11l31 28l17 -36l-45 -41q-32 -29 -55.5 -42.5t-41.5 -13.5q-31 0 -49 23.5t-18 65.5t21 132.5t21 131.5q0 16 -8.5 25.5t-21.5 9.5 q-25 0 -105 -69q-20 -17 -31 -27l-31 -168q-7 -37 -10 -59t-5 -42l-122 -23q31 133 48.5 227.5t17.5 125.5q0 20 -6.5 31t-18.5 11q-9 0 -45 -21l-3 -2l-15 35q13 9 37 25q77 54 109 54q25 0 42 -23t17 -59q0 -10 -1.5 -22.5t-3.5 -27.5z" />
<glyph unicode="o" horiz-adv-x="507" d="M210 43q56 0 94 74.5t38 184.5q0 56 -19 85t-56 29q-58 0 -96.5 -73t-38.5 -184q0 -57 20 -86.5t58 -29.5zM11 168q0 66 27.5 128t78.5 109q38 35 82 53t91 18q81 0 127 -48.5t46 -132.5q0 -126 -82 -218.5t-196 -92.5q-81 0 -127.5 49.5t-46.5 134.5z" />
<glyph unicode="p" horiz-adv-x="527" d="M153 80q22 -16 44 -24.5t39 -8.5q54 0 91 75t37 185q0 39 -11 59t-33 20q-28 0 -123 -88l-12 -11zM182 523l46 -16q-8 -26 -15 -56t-14 -67l-8 -41l17 17q107 112 163 112q50 0 80.5 -44t30.5 -119q0 -58 -23.5 -121t-62.5 -109q-38 -44 -81.5 -67.5t-88.5 -23.5 q-21 0 -41.5 5.5t-42.5 17.5l-23 -148q-1 -10 -2 -18t-1 -14q0 -24 12 -33t47 -9h18l-8 -41q-49 2 -81.5 3.5t-54.5 1.5q-21 0 -49 -1t-76 -4l7 41h21q27 0 39 14t19 55l68 417q5 35 12 65t15 58l-90 -57l-10 39q50 34 94 69.5t83 73.5z" />
<glyph unicode="q" horiz-adv-x="511" d="M300 180l35 210q-25 14 -42.5 20t-32.5 6q-32 0 -54.5 -19t-41.5 -62q-18 -39 -28 -88t-10 -92q0 -39 9.5 -59t26.5 -20q16 0 44.5 21t93.5 83zM291 117q-67 -70 -111 -99t-80 -29q-41 0 -66 40t-25 106q0 71 25.5 136t72.5 117q40 43 85.5 65.5t95.5 22.5q24 0 46.5 -6 t46.5 -18l82 35q-19 -87 -39 -212q-2 -14 -3 -20l-30 -183l-6 -39q-29 -180 -29 -200q0 -24 11 -33.5t41 -9.5h11l-9 -41q-4 0 -12 1q-83 3 -120 3q-20 0 -52.5 -1.5t-75.5 -4.5l9 43h15q62 0 77 89q0 4 1 7z" />
<glyph unicode="r" horiz-adv-x="411" d="M27 -13q31 126 49.5 225.5t18.5 133.5q0 17 -6.5 27t-18.5 10q-11 0 -47 -23q-5 -3 -8 -5l-17 36l2 1q111 82 143 82q27 0 40.5 -19t13.5 -57q0 -18 -3 -42.5t-9 -58.5q66 108 98.5 142t61.5 34q20 0 32.5 -14t12.5 -37q0 -13 -9 -33.5t-29 -53.5q-11 13 -21.5 19.5 t-21.5 6.5q-21 0 -47.5 -26.5t-70.5 -92.5q-16 -66 -27 -123t-17 -109z" />
<glyph unicode="s" horiz-adv-x="413" d="M340 372l-31 -26q-30 37 -53.5 53t-47.5 16q-23 0 -38.5 -13.5t-15.5 -33.5t16 -38t64 -51l8 -5q97 -64 97 -116q0 -69 -62 -120.5t-147 -51.5q-55 0 -91 21t-36 52q0 12 5.5 21.5t17.5 19.5l31 25q32 -43 58.5 -61.5t55.5 -18.5q27 0 44.5 15.5t17.5 38.5q0 35 -85 92 l-9 6q-53 35 -72 61.5t-19 59.5q0 63 61 110t147 47q43 0 73.5 -19.5t30.5 -46.5q0 -10 -5 -19.5t-15 -17.5z" />
<glyph unicode="t" horiz-adv-x="362" d="M253 594q-14 -54 -21.5 -84t-12.5 -55h20q23 0 48 1t54 2l-13 -58q-15 0 -32 0.5t-52 0.5h-36q-21 -95 -32.5 -165.5t-11.5 -104.5q0 -28 8 -43.5t22 -15.5q8 0 26 13t59 49l18 -39l-2 -2q-118 -112 -160 -112q-39 0 -62.5 35.5t-23.5 94.5q0 40 13 111.5t39 179.5 q-7 0 -19.5 -0.5t-18.5 -0.5h-35l8 42q24 2 43.5 9.5t37.5 21.5q4 15 10 32t16 48z" />
<glyph unicode="u" horiz-adv-x="549" d="M519 84l-63 -55q-24 -21 -43 -30.5t-37 -9.5q-29 0 -47 23t-18 61q0 13 1 26t3 26q-87 -84 -127.5 -112t-67.5 -28q-33 0 -55 29t-22 75q0 40 28 149q3 13 5 20q12 48 17.5 72t5.5 31q0 13 -5 20t-14 7q-7 0 -24 -6.5t-37 -18.5l-13 34l16 10q101 65 128 65t44 -20.5 t17 -54.5q0 -42 -26 -135t-26 -132q0 -20 7 -29.5t21 -9.5q16 0 50 24.5t85 73.5q12 56 23 119t24 140l122 24q-5 -20 -15 -64.5t-24 -113.5l-12 -59q-10 -52 -15 -83t-5 -46q0 -14 4.5 -21t13.5 -7q8 0 25 11t41 32z" />
<glyph unicode="v" horiz-adv-x="485" d="M113 -19q2 36 3 71t1 71q0 164 -9.5 218.5t-34.5 54.5q-8 0 -22 -9t-32 -26l-16 37q57 52 80.5 65t46.5 13q49 0 67.5 -52.5t18.5 -211.5q0 -17 -0.5 -56.5t-0.5 -61.5q65 106 102 182t37 102q0 13 -6.5 23t-19.5 17l24 29q13 16 25.5 22.5t26.5 6.5q21 0 33 -13t12 -36 q0 -26 -26.5 -79t-98.5 -169l-112 -179z" />
<glyph unicode="w" horiz-adv-x="735" d="M102 -16q1 26 2 52.5t1 52.5q0 188 -9 244.5t-33 56.5q-8 0 -20 -7.5t-33 -27.5l-17 35q44 43 79 65.5t59 22.5q41 0 57 -45.5t16 -185.5q0 -5 -0.5 -51.5t-1.5 -87.5q14 28 40 81q108 222 111 265l105 24v-32q0 -40 7 -117l3 -39l4 -60q0 -6 2 -18q6 -70 6 -118 q60 105 94 181t34 103q0 14 -7.5 24.5t-21.5 16.5l23 30q11 15 23.5 22t28.5 7q21 0 33.5 -12.5t12.5 -33.5q0 -29 -24.5 -83t-91.5 -169l-106 -182l-91 -14q0 10 0.5 18.5t0.5 18.5q0 14 -1.5 36t-4.5 54l-10 108q0 4 -1 14q-6 65 -8 102l-162 -330z" />
<glyph unicode="x" horiz-adv-x="578" d="M244 176q-85 -121 -123 -156t-72 -35q-27 0 -45 15.5t-18 38.5q0 11 5.5 21.5t17.5 20.5l26 23q13 -18 23.5 -26t20.5 -8q26 0 121 120q16 20 24 31l-10 25q-55 146 -81 146q-9 0 -22 -7.5t-41 -28.5l-21 34q7 6 21 17q85 69 126 69q48 0 101 -149l7 -18l13 18 q112 152 166 152q25 0 42 -14t17 -35q0 -13 -6.5 -24t-21.5 -25l-18 -17q-10 14 -21.5 21.5t-20.5 7.5q-28 0 -109 -102q-13 -16 -20 -25q5 -13 14 -38q58 -158 86 -158q15 0 61 44l7 6l20 -36q-60 -63 -88.5 -81.5t-55.5 -18.5q-54 0 -123 188z" />
<glyph unicode="y" horiz-adv-x="479" d="M-47 -139q16 -21 32.5 -31.5t35.5 -10.5q47 0 81 66t34 168q0 145 -18 232t-47 87q-7 0 -18 -10t-33 -40l-25 31q54 76 80 99.5t50 23.5q50 0 77 -85.5t27 -244.5q0 -20 -1 -46t-3 -56q83 169 105.5 227.5t22.5 87.5q0 18 -6.5 30t-19.5 21l31 36q14 16 26 23t25 7 q18 0 28.5 -13.5t10.5 -37.5q0 -42 -52.5 -155t-141.5 -259q-86 -143 -153 -207.5t-127 -64.5q-32 0 -52.5 15.5t-20.5 40.5q0 10 5 19t18 21z" />
<glyph unicode="z" horiz-adv-x="479" d="M-30 9q78 81 158 168.5t164 182.5q-7 1 -20 2q-101 13 -134 13q-32 0 -48.5 -16t-22.5 -52l-40 7l9 42q14 65 39.5 92.5t68.5 27.5q42 0 111 -14.5t94 -14.5q26 0 44 9.5t36 32.5l34 -32q-119 -126 -192.5 -207.5t-124.5 -140.5q54 -9 97.5 -14t67.5 -5q42 0 61.5 17.5 t27.5 65.5l39 -6q-12 -101 -41.5 -141t-87.5 -40q-39 0 -112 16t-102 16q-30 0 -52 -9.5t-40 -31.5z" />
<glyph unicode="{" horiz-adv-x="398" d="M38 286h13q58 0 86 31t44 120l16 85q23 125 78 175.5t165 50.5q6 0 18 -0.5t17 -0.5l-7 -45q-5 0 -10.5 0.5t-12.5 0.5q-110 0 -142 -170q-3 -17 -5 -25l-6 -31q-22 -115 -59.5 -157t-111.5 -54l-2 -7q55 -6 82 -38t27 -89q0 -11 -2 -30t-5 -41l-4 -33q-7 -49 -9.5 -73.5 t-2.5 -40.5q0 -46 24 -68t76 -22h14l-7 -46q-9 0 -19.5 -0.5t-24.5 -0.5q-85 0 -127 33t-42 99q0 13 2.5 38.5t6.5 55.5l11 81q4 29 6.5 50t2.5 33q0 40 -22.5 58.5t-70.5 18.5h-4z" />
<glyph unicode="|" horiz-adv-x="500" d="M294 764v-1000h-87v1000h87z" />
<glyph unicode="}" horiz-adv-x="398" d="M-93 -176q5 0 10.5 -0.5t11.5 -0.5q113 0 146 186l2 10l5 28q20 110 58.5 155t113.5 56l1 7q-54 6 -81 38t-27 92q0 16 1.5 33t4.5 35l6 35q5 34 8 64t3 51q0 48 -24 69t-78 21h-2q-5 0 -11 -1l8 44q9 0 19.5 0.5t24.5 0.5q85 0 127 -33t42 -101q0 -13 -2.5 -37.5 t-6.5 -53.5l-12 -82q-4 -33 -6.5 -53.5t-2.5 -29.5q0 -39 22.5 -57.5t70.5 -18.5h4l-7 -42h-22q-50 0 -77.5 -32.5t-43.5 -118.5l-15 -85q-23 -125 -78.5 -176t-165.5 -51h-19.5t-15.5 1z" />
<glyph unicode="~" horiz-adv-x="833" d="M747 293q-50 -35 -96.5 -52t-89.5 -17q-21 0 -45 4t-48 13q-12 4 -37 13q-104 36 -156 36q-40 0 -85 -18.5t-103 -59.5v91q52 35 98.5 52.5t90.5 17.5q30 0 61 -6t82 -23q6 -2 21 -8q80 -28 122 -28t86.5 18t98.5 57v-90z" />
<glyph unicode="&#xa0;" />
<glyph unicode="&#xa1;" horiz-adv-x="332" d="M34 -14q17 99 83 310q34 110 51 168l59 14q-20 -124 -35.5 -240.5t-26.5 -227.5zM205 530l-34 33q-14 14 -20 26t-6 24q0 18 10.5 30.5t34.5 25.5l47 24l34 -34q16 -16 21 -25.5t5 -21.5q0 -18 -10.5 -31.5t-35.5 -26.5z" />
<glyph unicode="&#xa2;" d="M280 493q-44 -8 -73.5 -56t-29.5 -114q0 -41 14 -67t43 -38zM310 679h47l-25 -134q45 -2 72.5 -19t27.5 -42q0 -9 -4 -16t-18 -19l-26 -21q-12 26 -27 40t-35 20l-47 -273q22 3 49 20t57 47l16 -41q-35 -40 -68 -63t-64 -30l-25 -161h-48l28 157q-68 1 -107.5 43 t-39.5 113q0 92 61.5 162.5t154.5 82.5z" />
<glyph unicode="&#xa3;" d="M169 300h-32h-71l8 47q15 0 40 -1q42 -1 55 -1q1 155 75.5 252t187.5 97q46 0 75.5 -19t29.5 -47q0 -11 -5.5 -21t-16.5 -20l-23 -19q-26 32 -50 47.5t-47 15.5q-65 0 -96 -194q-9 -59 -15 -93q47 1 141 2l-10 -47q-24 0 -53.5 0.5t-86.5 0.5q-10 -54 -33.5 -98 t-61.5 -81l117 -21q19 -3 36 -4.5t32 -1.5q44 0 64.5 21.5t31.5 78.5l49 -10q-20 -103 -55 -149.5t-92 -46.5q-35 0 -107.5 20t-108.5 20q-26 0 -54 -9.5t-66 -30.5l-23 45q88 39 127 97t39 146q0 3 -0.5 11.5t-0.5 12.5z" />
<glyph unicode="&#xa4;" d="M608 645l-2 -5q-26 -98 -31 -153l-44 6q1 8 1.5 16t0.5 16q0 50 -36.5 78.5t-99.5 28.5q-69 0 -119 -52.5t-72 -147.5h141q40 0 74 0.5t56 0.5l-15 -45q-52 1 -102.5 1.5t-89.5 0.5h-71q-3 -19 -4.5 -39.5t-2.5 -45.5h155q23 0 45.5 0.5t45.5 0.5l-15 -45q-11 0 -32 1 q-73 1 -121 1h-77q0 -104 39 -158.5t113 -54.5q57 0 99 36t57 97l42 -9q-12 -41 -19 -74t-10 -60q-43 -27 -91 -41t-102 -14q-112 0 -181 74t-75 204h-6q-10 0 -36 -1q-19 -1 -30 -1l15 45l45 -1h6h6q0 19 2.5 39.5t7.5 45.5h-6q-9 0 -30.5 -1t-33.5 -1l15 45 q17 0 28.5 -0.5t22.5 -0.5h15q37 121 127 192t206 71q54 0 101.5 -12.5t87.5 -37.5z" />
<glyph unicode="&#xa5;" horiz-adv-x="574" d="M85 1l7 41q4 0 8.5 -0.5t12.5 -0.5q36 0 50 13.5t24 71.5l19 108h-66q-21 0 -45 -0.5t-51 -1.5l8 43q6 0 17 -1q76 -1 108 -1h38l-24 83h-62q-2 0 -23 -0.5t-40 -0.5l8 45q5 0 18 -1q54 -2 88 -2l-41 140l-2 6q-23 83 -61 84q-5 0 -7.5 -0.5t-4.5 -0.5l8 42 q45 -2 74 -3.5t49 -1.5q24 0 53.5 1t62.5 3l-8 -41h-12q-22 0 -31.5 -6.5t-9.5 -22.5q0 -12 12 -58q3 -11 4 -17l47 -176l99 177l5 10q31 55 31 73q0 11 -6.5 15t-26.5 4h-12l8 42q14 0 38 -2q43 -2 56 -2q29 0 97 4h6l-9 -41q-2 0 -5.5 0.5t-4.5 0.5q-19 0 -32.5 -9 t-34.5 -42l-114 -178q16 0 30 -0.5t30 -0.5h23t26 1l-8 -44q-33 1 -65 2t-64 1l-53 -84h43q38 0 118 2h6l-7 -43q-28 0 -83.5 0.5t-81.5 1.5l-14 -92q0 -4 -2 -12q-5 -37 -5 -45q0 -24 13 -33.5t48 -9.5h13l-8 -42q-50 3 -84.5 4.5t-54.5 1.5q-24 0 -58 -1.5t-85 -3.5z" />
<glyph unicode="&#xa6;" horiz-adv-x="500" d="M294 199v-370h-87v370h87zM294 699v-370h-87v370h87z" />
<glyph unicode="&#xa7;" horiz-adv-x="537" d="M273 621q-52 -32 -79 -78t-27 -101q0 -33 13.5 -70.5t49.5 -94.5q5 -8 14 -23q71 -116 71 -182q0 -33 -14 -65t-40 -58q49 31 78.5 79.5t29.5 99.5q0 31 -13 66t-45 88q-7 11 -21 34q-71 114 -71 177q0 35 13.5 67.5t40.5 60.5zM467 581l-30 -18q-14 31 -34 47.5 t-43 16.5q-37 0 -61 -27.5t-24 -69.5q0 -29 15 -66.5t55 -101.5q2 -4 9 -14q72 -117 72 -189q0 -52 -24.5 -101.5t-69.5 -91.5q-42 -38 -92.5 -59.5t-98.5 -21.5q-52 0 -88 23t-36 54q0 12 6 21.5t20 18.5l32 22q21 -41 45.5 -61t51.5 -20q38 0 63 26.5t25 66.5 q0 24 -11.5 53.5t-51.5 97.5q-4 7 -10 18q-77 129 -77 207q0 59 28.5 114t81.5 96q39 31 83.5 47t91.5 16q41 0 68.5 -19t27.5 -45q0 -13 -6 -23t-18 -17z" />
<glyph unicode="&#xa8;" horiz-adv-x="500" d="M412 680q21 0 40.5 -22t19.5 -45q0 -19 -24 -38t-48 -19q-21 0 -40.5 21.5t-19.5 42.5t24 40.5t48 19.5zM203 680q21 0 40.5 -22t19.5 -45q0 -19 -24 -38t-48 -19q-21 0 -40.5 21.5t-19.5 42.5t24.5 40.5t47.5 19.5z" />
<glyph unicode="&#xa9;" horiz-adv-x="821" d="M569 537l1 -156h-23q-16 65 -50 99t-84 34q-57 0 -86 -46t-29 -134q0 -90 31.5 -137.5t92.5 -47.5q40 0 73.5 21t61.5 64l21 -13q-31 -53 -73.5 -78.5t-97.5 -25.5q-86 0 -145 60.5t-59 149.5q0 90 58.5 151t144.5 61q39 0 75 -16t38 -16q14 0 20.5 7t9.5 23h20zM715 331 q0 61 -23.5 118t-66.5 100q-42 42 -97.5 65t-115.5 23q-62 0 -118 -23.5t-98 -66.5q-43 -44 -66 -99.5t-23 -116.5q0 -62 23 -117t67 -99t98 -66.5t116 -22.5t117 23t97 66q43 43 66.5 99.5t23.5 116.5zM412 684q68 0 133 -27t114 -76q49 -50 76.5 -115t27.5 -135 q0 -69 -27 -133.5t-77 -115.5q-49 -50 -112.5 -76t-135.5 -26q-71 0 -134 26t-114 76q-51 51 -77.5 114.5t-26.5 134.5q0 70 26.5 134t76.5 115q50 50 115 77t135 27z" />
<glyph unicode="&#xaa;" horiz-adv-x="393" d="M254 606q-15 9 -26.5 12.5t-23.5 3.5q-42 0 -76.5 -57.5t-34.5 -130.5q0 -24 6.5 -36t19.5 -12q11 0 37 18t70 57q4 21 10 51t18 94zM348 671q-24 -116 -35 -178t-11 -84q0 -10 4 -16t11 -6q10 0 46 30l2 2l12 -27l-25 -22q-29 -26 -48.5 -37t-34.5 -11q-23 0 -35.5 16.5 t-12.5 46.5q0 11 0.5 18.5t1.5 14.5q-64 -57 -95 -75.5t-55 -18.5q-31 0 -48.5 24.5t-17.5 68.5q0 43 14.5 83.5t43.5 75.5q35 42 77.5 64.5t84.5 22.5q15 0 29.5 -3t29.5 -9z" />
<glyph unicode="&#xab;" horiz-adv-x="426" d="M284 46q-9 20 -26 60q-38 88 -56 130q29 35 63.5 77t80.5 101l40 -21q-23 -43 -45 -84t-42 -81q5 -35 12 -77t15 -91zM131 46q-41 72 -66 114.5t-47 78.5l82 82t93 95l36 -24l-20 -31q-57 -87 -84 -129l5 -20q27 -98 42 -147z" />
<glyph unicode="&#xac;" horiz-adv-x="833" d="M709 421v-245h-81v164h-504v81h585z" />
<glyph unicode="&#xad;" horiz-adv-x="326" d="M3 191q1 5 6 16q18 50 26 77h9q74 -1 108 -2q25 0 53 0.5t85 1.5q-9 -25 -16.5 -48.5t-13.5 -45.5q-50 1 -82 2t-42 1q-24 0 -52 -0.5t-81 -1.5z" />
<glyph unicode="&#xae;" horiz-adv-x="821" d="M365 479v-126q7 0 13.5 -0.5t12.5 -0.5q49 0 75.5 21.5t26.5 61.5q0 34 -22.5 55.5t-59.5 21.5q-23 0 -34.5 -8.5t-11.5 -24.5zM423 535q71 0 113.5 -27t42.5 -69q0 -41 -32 -65t-106 -37q47 -12 72 -35.5t34 -62.5q3 -12 5 -32q4 -44 26 -45q14 0 21.5 16.5t7.5 48.5h24 v-11q0 -42 -21 -63.5t-62 -21.5q-22 0 -39 7t-26 21q-12 19 -13.5 54.5t-3.5 45.5q-8 36 -29.5 53.5t-59.5 17.5h-12v-120q0 -24 11 -34t42 -13v-23h-190v23q31 2 43 12t12 35v254q0 25 -11.5 35t-43.5 12v24h195zM715 331q0 60 -24 117.5t-66 100.5q-42 42 -97.5 65 t-115.5 23q-62 0 -118 -23.5t-98 -66.5q-43 -44 -66 -99t-23 -117t23 -117t67 -99t98 -66.5t116 -22.5t117 23t97 66q43 44 66.5 100t23.5 116zM412 684q70 0 136 -28t115 -78q48 -50 74 -115t26 -136q0 -67 -29 -133t-81 -117q-49 -49 -111.5 -73t-137.5 -24 q-66 0 -129 26.5t-112 75.5q-51 51 -77.5 114.5t-26.5 134.5q0 70 26.5 134.5t76.5 114.5t115 77t135 27z" />
<glyph unicode="&#xaf;" horiz-adv-x="500" d="M157 644h299l-13 -75h-300z" />
<glyph unicode="&#xb0;" horiz-adv-x="329" d="M255 569q0 38 -26 64t-64 26t-64.5 -26.5t-26.5 -63.5t26.5 -64t64.5 -27t64 26.5t26 64.5zM165 713q60 0 102 -42.5t42 -102.5q0 -59 -42.5 -101.5t-102.5 -42.5t-101.5 41.5t-41.5 102.5t42 103t102 42z" />
<glyph unicode="&#xb1;" horiz-adv-x="833" d="M709 89v-82h-585v82h585zM458 589v-163h251v-81h-251v-163h-83v163h-251v81h251v163h83z" />
<glyph unicode="&#xb2;" horiz-adv-x="382" d="M135 360l-35 -24h128q42 0 54.5 9.5t20.5 36.5l28 -7q-10 -29 -17 -54.5t-11 -48.5q-41 2 -78.5 3t-73.5 1q-66 0 -95 -1.5t-51 -3.5l-13 32q129 85 190.5 151.5t61.5 120.5q0 31 -19 51t-49 20q-26 0 -45 -16t-30 -47l-19 8q-12 5 -17.5 11.5t-5.5 16.5q0 27 34.5 46.5 t86.5 19.5q65 0 105 -31t40 -81q0 -77 -176 -203z" />
<glyph unicode="&#xb3;" horiz-adv-x="382" d="M207 491q51 -2 79 -24t28 -60q0 -57 -59 -99.5t-141 -42.5q-48 0 -80.5 15.5t-32.5 36.5q0 6 4 11.5t13 12.5l26 18q20 -27 42.5 -41t48.5 -14q39 0 66 27t27 65q0 35 -23.5 54t-67.5 19q-8 0 -15 -0.5t-14 -0.5l7 30q56 0 91.5 25t35.5 64q0 28 -18 46t-46 18 q-26 0 -43.5 -15t-28.5 -45l-18 8q-11 4 -16 11.5t-5 17.5q0 24 36 42t88 18q61 0 97.5 -25t36.5 -66q0 -36 -30 -63t-88 -43z" />
<glyph unicode="&#xb4;" horiz-adv-x="500" d="M342 747l86 -42l-174 -175l-39 17z" />
<glyph unicode="&#xb5;" horiz-adv-x="578" d="M33 182l53 250h101l-49 -228q-5 -22 -7.5 -40t-2.5 -28q0 -31 18 -49t50 -18q42 0 67.5 26t37.5 82l54 255h102l-55 -260q0 -2 -2 -7q-7 -34 -7 -54q0 -21 11 -32.5t31 -11.5t35 10.5t28 33.5q4 8 11 24q12 29 25 29q5 0 8 -3.5t3 -11.5q0 -14 -8.5 -42t-19.5 -49 q-20 -35 -46.5 -52.5t-60.5 -17.5q-41 0 -63 27t-23 76q-21 -51 -54 -77t-76 -26q-48 0 -76.5 28t-33.5 82q-11 -61 -23 -154q-19 -149 -66 -149q-23 0 -35.5 13t-12.5 36q0 25 33.5 138t52.5 200z" />
<glyph unicode="&#xb6;" horiz-adv-x="500" d="M473 674h-57v-674h-63v674h-82v-674h-64v383q-82 3 -131 49.5t-49 119.5q0 77 52 123.5t139 46.5h255v-48z" />
<glyph unicode="&#xb7;" horiz-adv-x="291" d="M145 424q33 0 56 -23t23 -56t-23 -56t-56 -23q-32 0 -55.5 23.5t-23.5 55.5t23 55.5t56 23.5z" />
<glyph unicode="&#xb8;" horiz-adv-x="500" d="M226 23h62l-91 -95q28 -9 42 -25.5t14 -39.5q0 -44 -48.5 -77.5t-130.5 -43.5l-17 39q46 7 74.5 25t28.5 40q0 20 -14 31t-48 17z" />
<glyph unicode="&#xb9;" horiz-adv-x="382" d="M57 298h19q21 0 30.5 5t15.5 17q4 10 10 32t18 82l11 53q19 97 27 146h-13q-14 0 -39.5 -1.5t-32.5 -1.5l-1 27q44 3 87.5 9t86.5 15q-4 -20 -12 -56q-21 -98 -27 -129l-12 -64q-10 -49 -13.5 -72t-3.5 -31q0 -19 10.5 -25.5t41.5 -6.5h6l-5 -25q-30 2 -56 3t-46 1 t-76 -3q-21 -1 -33 -1z" />
<glyph unicode="&#xba;" horiz-adv-x="380" d="M158 362q42 0 70.5 52.5t28.5 128.5q0 40 -14.5 60t-42.5 20q-43 0 -72 -51t-29 -129q0 -40 15 -60.5t44 -20.5zM8 450q0 45 21 89t59 77q29 24 62 36.5t68 12.5q61 0 95 -33.5t34 -92.5q0 -88 -61 -153t-147 -65q-61 0 -96 34.5t-35 94.5z" />
<glyph unicode="&#xbb;" horiz-adv-x="426" d="M163 70l64.5 99t39.5 61l-9 31q-24 89 -38 136l41 19q25 -45 53 -92.5t60 -99.5q-55 -56 -168 -173l-6 -6zM5 69l6 11q62 114 82 153q-3 21 -13 78t-15 90l44 15q26 -65 44.5 -108.5t35.5 -80.5l-4 -6q-85 -104 -140 -173z" />
<glyph unicode="&#xbc;" horiz-adv-x="898" d="M597 156h133l34 167zM649 27h16q23 0 32 7t16 38l10 47h-101q-2 0 -24 -0.5t-40 -1.5l-15 36q15 12 28.5 24t26.5 25l111 110l9 9q37 36 53 57l72 9l-47 -231h50.5t31.5 1l-17 -40h-3q-47 2 -69 2l-8 -49q-2 -7 -2.5 -11.5t-0.5 -6.5q0 -15 9 -20t39 -5l-4 -24 q-25 2 -47 3t-37 1q-21 0 -45.5 -1t-49.5 -3zM671 697l49 -25q-84 -112 -184.5 -253.5t-305.5 -437.5l-50 24q104 145 267.5 377t223.5 315zM54 324q3 0 9.5 -0.5t8.5 -0.5q20 0 29.5 4.5t15.5 16.5q4 9 10 32.5t16 73.5l10 50q18 90 27 136h-14q-12 0 -36.5 -1.5 t-31.5 -1.5l-1 26q44 2 85.5 7.5t80.5 14.5l-6 -26q-25 -114 -31 -147l-12 -59l-1 -6q-15 -81 -15 -91q0 -18 9.5 -23.5t40.5 -5.5h6l-5 -24q-29 2 -53.5 3t-43.5 1t-76 -3q-18 -1 -28 -1z" />
<glyph unicode="&#xbd;" horiz-adv-x="898" d="M662 82l-33 -23h121q40 0 52 9t20 34l27 -6q-9 -24 -15.5 -48t-11.5 -48q-38 2 -74.5 3t-70.5 1q-48 0 -81.5 -1.5t-58.5 -3.5l-12 30q124 80 182.5 141.5t58.5 112.5q0 29 -18.5 47.5t-46.5 18.5q-25 0 -43 -15t-29 -43l-18 7q-11 5 -16 11t-5 15q0 25 33 43.5t82 18.5 q62 0 100 -29t38 -76q0 -71 -166 -188zM671 697l49 -25q-84 -112 -184.5 -253.5t-305.5 -437.5l-50 24q104 145 267.5 377t223.5 315zM54 324q3 0 9.5 -0.5t8.5 -0.5q20 0 29.5 4.5t15.5 16.5q4 9 10 32.5t16 73.5l10 50q18 90 27 136h-14q-12 0 -36.5 -1.5t-31.5 -1.5 l-1 26q44 2 85.5 7.5t80.5 14.5l-6 -26q-25 -114 -31 -147l-12 -59l-1 -6q-15 -81 -15 -91q0 -18 9.5 -23.5t40.5 -5.5h6l-5 -24q-29 2 -53.5 3t-43.5 1t-76 -3q-18 -1 -28 -1z" />
<glyph unicode="&#xbe;" horiz-adv-x="898" d="M597 156h133l34 167zM649 27h16q23 0 32 7t16 38l10 47h-101q-2 0 -24 -0.5t-40 -1.5l-15 36q15 12 28.5 24t26.5 25l111 110l9 9q37 36 53 57l72 9l-47 -231h50.5t31.5 1l-17 -40h-3q-47 2 -69 2l-8 -49q-2 -7 -2.5 -11.5t-0.5 -6.5q0 -15 9 -20t39 -5l-4 -24 q-25 2 -47 3t-37 1q-21 0 -45.5 -1t-49.5 -3zM671 697l49 -25q-84 -112 -184.5 -253.5t-305.5 -437.5l-50 24q104 145 267.5 377t223.5 315zM198 503q48 -1 74.5 -22t26.5 -56q0 -53 -56.5 -93t-134.5 -40q-45 0 -76 14.5t-31 34.5q0 5 4.5 11t12.5 11l24 17 q19 -25 40.5 -38t46.5 -13q37 0 62.5 25t25.5 60q0 33 -22.5 51t-64.5 18q-7 0 -13.5 -0.5t-13.5 -0.5l7 28q54 1 87.5 24.5t33.5 58.5q0 26 -17 42.5t-44 16.5q-24 0 -41 -13.5t-28 -41.5l-17 7q-10 4 -15 11t-5 16q0 22 34.5 39.5t84.5 17.5q57 0 92 -23.5t35 -62.5 q0 -33 -28.5 -58t-83.5 -41z" />
<glyph unicode="&#xbf;" horiz-adv-x="436" d="M311 530l-34 32q-14 14 -20 26t-6 24q0 19 10.5 32t34.5 25l46 24l35 -34q15 -15 20 -25t5 -23q0 -18 -10 -31t-36 -27zM277 467l53 14q-11 -53 -17.5 -93.5t-9.5 -75.5q-104 -42 -150 -83t-46 -88q0 -38 25.5 -64t63.5 -26q29 0 55.5 16.5t56.5 52.5l27 -24 q10 -10 15.5 -20t5.5 -19q0 -32 -37 -55t-92 -23q-84 0 -144 59.5t-60 142.5q0 54 32.5 96t101.5 78q13 7 35 18q85 42 85 90v4z" />
<glyph unicode="&#xc0;" horiz-adv-x="738" d="M246 297h58h86t53 1l-41 269zM-45 41q8 -1 11 -1.5t6 -0.5q49 0 118 116q18 31 29 48l134 220q52 86 90.5 153.5t55.5 101.5h108q4 -41 10 -83t18 -110l48 -278q2 -14 6 -38q21 -129 69 -129q6 0 9 0.5t6 0.5l-6 -41q-45 3 -79.5 4.5t-56.5 1.5q-26 0 -61.5 -1.5 t-81.5 -4.5l7 41h13q38 0 51.5 11t13.5 41q0 6 -0.5 11.5t-1.5 11.5l-19 126q-31 0 -71.5 1t-47.5 1h-59.5t-59.5 -1l-60 -109q-12 -21 -17.5 -36t-5.5 -26q0 -15 13.5 -23t38.5 -8h11l-7 -41q-40 3 -70 4.5t-50 1.5t-49.5 -1.5t-69.5 -4.5zM453 966l72 -204l-44 -13 l-117 179z" />
<glyph unicode="&#xc1;" horiz-adv-x="738" d="M246 297h58h86t53 1l-41 269zM-45 41q8 -1 11 -1.5t6 -0.5q49 0 118 116q18 31 29 48l134 220q52 86 90.5 153.5t55.5 101.5h108q4 -41 10 -83t18 -110l48 -278q2 -14 6 -38q21 -129 69 -129q6 0 9 0.5t6 0.5l-6 -41q-45 3 -79.5 4.5t-56.5 1.5q-26 0 -61.5 -1.5 t-81.5 -4.5l7 41h13q38 0 51.5 11t13.5 41q0 6 -0.5 11.5t-1.5 11.5l-19 126q-31 0 -71.5 1t-47.5 1h-59.5t-59.5 -1l-60 -109q-12 -21 -17.5 -36t-5.5 -26q0 -15 13.5 -23t38.5 -8h11l-7 -41q-40 3 -70 4.5t-50 1.5t-49.5 -1.5t-69.5 -4.5zM512 966l86 -42l-174 -175 l-39 17z" />
<glyph unicode="&#xc2;" horiz-adv-x="738" d="M246 297h58h86t53 1l-41 269zM-45 41q8 -1 11 -1.5t6 -0.5q49 0 118 116q18 31 29 48l134 220q52 86 90.5 153.5t55.5 101.5h108q4 -41 10 -83t18 -110l48 -278q2 -14 6 -38q21 -129 69 -129q6 0 9 0.5t6 0.5l-6 -41q-45 3 -79.5 4.5t-56.5 1.5q-26 0 -61.5 -1.5 t-81.5 -4.5l7 41h13q38 0 51.5 11t13.5 41q0 6 -0.5 11.5t-1.5 11.5l-19 126q-31 0 -71.5 1t-47.5 1h-59.5t-59.5 -1l-60 -109q-12 -21 -17.5 -36t-5.5 -26q0 -15 13.5 -23t38.5 -8h11l-7 -41q-40 3 -70 4.5t-50 1.5t-49.5 -1.5t-69.5 -4.5zM457 930h58l105 -160l-41 -19 l-107 90l-147 -92l-38 26z" />
<glyph unicode="&#xc3;" horiz-adv-x="738" d="M246 297h58h86t53 1l-41 269zM-45 41q8 -1 11 -1.5t6 -0.5q49 0 118 116q18 31 29 48l134 220q52 86 90.5 153.5t55.5 101.5h108q4 -41 10 -83t18 -110l48 -278q2 -14 6 -38q21 -129 69 -129q6 0 9 0.5t6 0.5l-6 -41q-45 3 -79.5 4.5t-56.5 1.5q-26 0 -61.5 -1.5 t-81.5 -4.5l7 41h13q38 0 51.5 11t13.5 41q0 6 -0.5 11.5t-1.5 11.5l-19 126q-31 0 -71.5 1t-47.5 1h-59.5t-59.5 -1l-60 -109q-12 -21 -17.5 -36t-5.5 -26q0 -15 13.5 -23t38.5 -8h11l-7 -41q-40 3 -70 4.5t-50 1.5t-49.5 -1.5t-69.5 -4.5zM629 919l31 -20 q-23 -40 -52.5 -69.5t-67.5 -52.5q-28 6 -74.5 20.5t-63.5 14.5q-22 0 -43 -12.5t-46 -42.5l-28 22q27 39 57 68.5t65 50.5q28 -6 72.5 -20t61.5 -14q24 0 46 13.5t42 41.5z" />
<glyph unicode="&#xc4;" horiz-adv-x="738" d="M246 297h58h86t53 1l-41 269zM-45 41q8 -1 11 -1.5t6 -0.5q49 0 118 116q18 31 29 48l134 220q52 86 90.5 153.5t55.5 101.5h108q4 -41 10 -83t18 -110l48 -278q2 -14 6 -38q21 -129 69 -129q6 0 9 0.5t6 0.5l-6 -41q-45 3 -79.5 4.5t-56.5 1.5q-26 0 -61.5 -1.5 t-81.5 -4.5l7 41h13q38 0 51.5 11t13.5 41q0 6 -0.5 11.5t-1.5 11.5l-19 126q-31 0 -71.5 1t-47.5 1h-59.5t-59.5 -1l-60 -109q-12 -21 -17.5 -36t-5.5 -26q0 -15 13.5 -23t38.5 -8h11l-7 -41q-40 3 -70 4.5t-50 1.5t-49.5 -1.5t-69.5 -4.5zM582 899q21 0 40.5 -22t19.5 -45 q0 -19 -24 -38t-48 -19q-21 0 -40.5 21.5t-19.5 42.5t24 40.5t48 19.5zM373 899q21 0 40.5 -22t19.5 -45q0 -19 -24 -38t-48 -19q-21 0 -40.5 21.5t-19.5 42.5t24.5 40.5t47.5 19.5z" />
<glyph unicode="&#xc5;" horiz-adv-x="738" d="M468 781q25 0 42.5 17.5t17.5 41.5q0 26 -17.5 44t-41.5 18q-26 0 -44 -17.5t-18 -42.5t18 -43t43 -18zM468 725q-48 0 -82 34t-34 84q0 46 34 80t82 34t81.5 -34t33.5 -82t-33.5 -82t-81.5 -34zM246 297h58h86t53 1l-41 269zM-45 41q8 -1 11 -1.5t6 -0.5q49 0 118 116 q18 31 29 48l134 220q52 86 90.5 153.5t55.5 101.5h108q4 -41 10 -83t18 -110l48 -278q2 -14 6 -38q21 -129 69 -129q6 0 9 0.5t6 0.5l-6 -41q-45 3 -79.5 4.5t-56.5 1.5q-26 0 -61.5 -1.5t-81.5 -4.5l7 41h13q38 0 51.5 11t13.5 41q0 6 -0.5 11.5t-1.5 11.5l-19 126 q-31 0 -71.5 1t-47.5 1h-59.5t-59.5 -1l-60 -109q-12 -21 -17.5 -36t-5.5 -26q0 -15 13.5 -23t38.5 -8h11l-7 -41q-40 3 -70 4.5t-50 1.5t-49.5 -1.5t-69.5 -4.5z" />
<glyph unicode="&#xc6;" horiz-adv-x="1008" d="M316 300q24 0 45 -0.5t40 -0.5q11 0 21 -1h5q20 0 72 1q14 0 21 1l58 314zM-50 43q2 0 6.5 -0.5t6.5 -0.5q50 0 114 74q8 10 13 15l361 420q19 23 26 34t7 18q0 14 -14 19t-64 5l8 40q83 -2 172 -3.5t183 -1.5q62 0 118 1.5t111 3.5q-9 -39 -15.5 -77t-9.5 -76l-43 -2 q0 4 0.5 8.5t0.5 12.5q0 40 -25.5 55.5t-95.5 15.5h-47q-29 0 -43.5 -0.5t-26.5 -1.5l-25.5 -139.5t-15.5 -86.5q26 -1 51.5 -1.5t60.5 -0.5q63 0 81 13t25 50l41 -6q-13 -44 -20.5 -89.5t-10.5 -92.5l-42 -1q0 5 1 14t1 11q0 27 -19.5 36.5t-100.5 9.5h-23h-54 q-11 -61 -21.5 -123.5t-20.5 -127.5q29 -3 63 -4.5t84 -1.5q84 0 114 22t46 88l43 -7q-11 -40 -19.5 -81t-14.5 -84q-81 3 -150 4.5t-127 1.5q-84 0 -143.5 -1.5t-108.5 -4.5l9 43q3 -1 6.5 -2t10.5 -1q34 0 50 19t27 82l18 101q-29 1 -63.5 1h-105.5h-73l-22 -28 q-104 -130 -105 -146q0 -14 11 -19.5t43 -5.5q5 0 8 -0.5t5 -0.5l-9 -43q-44 3 -77 4.5t-55 1.5q-18 0 -49.5 -1.5t-75.5 -4.5z" />
<glyph unicode="&#xc7;" horiz-adv-x="679" d="M570 43q-64 -33 -120 -48.5t-110 -15.5q-135 0 -218 82.5t-83 216.5q0 82 33.5 159.5t93.5 135.5q58 55 132 84.5t157 29.5q55 0 106 -12t103 -38q-13 -43 -21.5 -85t-13.5 -83l-44 6q1 12 2 20t1 12q0 52 -41.5 79.5t-118.5 27.5q-114 0 -181.5 -88t-67.5 -237 q0 -111 50.5 -173.5t140.5 -62.5q70 0 119 35t68 98l42 -9q-11 -37 -18 -70t-11 -64zM358 23h62l-91 -95q28 -9 42 -25.5t14 -39.5q0 -44 -48.5 -77.5t-130.5 -43.5l-17 39q46 7 74.5 25t28.5 40q0 20 -14 31t-48 17z" />
<glyph unicode="&#xc8;" horiz-adv-x="611" d="M-14 41q3 0 7.5 -0.5t11.5 -0.5q36 0 52.5 24.5t35.5 137.5l52 308q6 33 8 50t2 27q0 20 -14.5 29t-43.5 9h-9l7 42q38 -2 83.5 -3.5t139.5 -1.5q85 0 151.5 1.5t134.5 3.5q-9 -39 -15.5 -77t-9.5 -76l-44 -2q0 4 0.5 8.5t0.5 12.5q0 41 -25.5 57t-94.5 16h-132 q-5 -27 -19 -105.5t-22 -124.5q28 -1 56 -1.5t71 -0.5q63 0 81 13t25 50l41 -6q-13 -46 -21 -91.5t-11 -90.5l-41 -1q0 6 0.5 12.5t0.5 12.5q0 27 -18.5 36.5t-91.5 9.5h-43h-31h-27q-11 -61 -21.5 -123.5t-20.5 -127.5q34 -3 71 -4.5t86 -1.5q86 0 115.5 21.5t46.5 88.5 l44 -7q-12 -43 -20.5 -84t-14.5 -81q-76 3 -148.5 4.5t-141.5 1.5q-56 0 -118.5 -1.5t-133.5 -4.5zM373 966l72 -204l-44 -13l-117 179z" />
<glyph unicode="&#xc9;" horiz-adv-x="611" d="M-14 41q3 0 7.5 -0.5t11.5 -0.5q36 0 52.5 24.5t35.5 137.5l52 308q6 33 8 50t2 27q0 20 -14.5 29t-43.5 9h-9l7 42q38 -2 83.5 -3.5t139.5 -1.5q85 0 151.5 1.5t134.5 3.5q-9 -39 -15.5 -77t-9.5 -76l-44 -2q0 4 0.5 8.5t0.5 12.5q0 41 -25.5 57t-94.5 16h-132 q-5 -27 -19 -105.5t-22 -124.5q28 -1 56 -1.5t71 -0.5q63 0 81 13t25 50l41 -6q-13 -46 -21 -91.5t-11 -90.5l-41 -1q0 6 0.5 12.5t0.5 12.5q0 27 -18.5 36.5t-91.5 9.5h-43h-31h-27q-11 -61 -21.5 -123.5t-20.5 -127.5q34 -3 71 -4.5t86 -1.5q86 0 115.5 21.5t46.5 88.5 l44 -7q-12 -43 -20.5 -84t-14.5 -81q-76 3 -148.5 4.5t-141.5 1.5q-56 0 -118.5 -1.5t-133.5 -4.5zM432 966l86 -42l-174 -175l-39 17z" />
<glyph unicode="&#xca;" horiz-adv-x="611" d="M-14 41q3 0 7.5 -0.5t11.5 -0.5q36 0 52.5 24.5t35.5 137.5l52 308q6 33 8 50t2 27q0 20 -14.5 29t-43.5 9h-9l7 42q38 -2 83.5 -3.5t139.5 -1.5q85 0 151.5 1.5t134.5 3.5q-9 -39 -15.5 -77t-9.5 -76l-44 -2q0 4 0.5 8.5t0.5 12.5q0 41 -25.5 57t-94.5 16h-132 q-5 -27 -19 -105.5t-22 -124.5q28 -1 56 -1.5t71 -0.5q63 0 81 13t25 50l41 -6q-13 -46 -21 -91.5t-11 -90.5l-41 -1q0 6 0.5 12.5t0.5 12.5q0 27 -18.5 36.5t-91.5 9.5h-43h-31h-27q-11 -61 -21.5 -123.5t-20.5 -127.5q34 -3 71 -4.5t86 -1.5q86 0 115.5 21.5t46.5 88.5 l44 -7q-12 -43 -20.5 -84t-14.5 -81q-76 3 -148.5 4.5t-141.5 1.5q-56 0 -118.5 -1.5t-133.5 -4.5zM377 930h58l105 -160l-41 -19l-107 90l-147 -92l-38 26z" />
<glyph unicode="&#xcb;" horiz-adv-x="611" d="M-14 41q3 0 7.5 -0.5t11.5 -0.5q36 0 52.5 24.5t35.5 137.5l52 308q6 33 8 50t2 27q0 20 -14.5 29t-43.5 9h-9l7 42q38 -2 83.5 -3.5t139.5 -1.5q85 0 151.5 1.5t134.5 3.5q-9 -39 -15.5 -77t-9.5 -76l-44 -2q0 4 0.5 8.5t0.5 12.5q0 41 -25.5 57t-94.5 16h-132 q-5 -27 -19 -105.5t-22 -124.5q28 -1 56 -1.5t71 -0.5q63 0 81 13t25 50l41 -6q-13 -46 -21 -91.5t-11 -90.5l-41 -1q0 6 0.5 12.5t0.5 12.5q0 27 -18.5 36.5t-91.5 9.5h-43h-31h-27q-11 -61 -21.5 -123.5t-20.5 -127.5q34 -3 71 -4.5t86 -1.5q86 0 115.5 21.5t46.5 88.5 l44 -7q-12 -43 -20.5 -84t-14.5 -81q-76 3 -148.5 4.5t-141.5 1.5q-56 0 -118.5 -1.5t-133.5 -4.5zM502 899q21 0 40.5 -22t19.5 -45q0 -19 -24 -38t-48 -19q-21 0 -40.5 21.5t-19.5 42.5t24 40.5t48 19.5zM293 899q21 0 40.5 -22t19.5 -45q0 -19 -24 -38t-48 -19 q-21 0 -40.5 21.5t-19.5 42.5t24.5 40.5t47.5 19.5z" />
<glyph unicode="&#xcc;" horiz-adv-x="365" d="M-13 43q1 0 3 -1q15 -1 21 -1q57 0 81 140q2 14 4 21l55 309q5 26 7.5 45.5t2.5 30.5q0 20 -14.5 29t-47.5 9h-11l7 42q43 -3 76.5 -4.5t56.5 -1.5q41 0 78 1.5t73 3.5l-9 -41q-3 0 -8.5 0.5t-7.5 0.5q-34 0 -49 -17t-28 -88l-53 -291q-11 -58 -15 -89t-4 -47 q0 -30 13.5 -40.5t52.5 -10.5h7l-8 -43q-68 4 -97.5 5.5t-50.5 1.5q-29 0 -133 -7h-10zM254 966l72 -204l-44 -13l-117 179z" />
<glyph unicode="&#xcd;" horiz-adv-x="365" d="M-13 43q1 0 3 -1q15 -1 21 -1q57 0 81 140q2 14 4 21l55 309q5 26 7.5 45.5t2.5 30.5q0 20 -14.5 29t-47.5 9h-11l7 42q43 -3 76.5 -4.5t56.5 -1.5q41 0 78 1.5t73 3.5l-9 -41q-3 0 -8.5 0.5t-7.5 0.5q-34 0 -49 -17t-28 -88l-53 -291q-11 -58 -15 -89t-4 -47 q0 -30 13.5 -40.5t52.5 -10.5h7l-8 -43q-68 4 -97.5 5.5t-50.5 1.5q-29 0 -133 -7h-10zM313 966l86 -42l-174 -175l-39 17z" />
<glyph unicode="&#xce;" horiz-adv-x="365" d="M-13 43q1 0 3 -1q15 -1 21 -1q57 0 81 140q2 14 4 21l55 309q5 26 7.5 45.5t2.5 30.5q0 20 -14.5 29t-47.5 9h-11l7 42q43 -3 76.5 -4.5t56.5 -1.5q41 0 78 1.5t73 3.5l-9 -41q-3 0 -8.5 0.5t-7.5 0.5q-34 0 -49 -17t-28 -88l-53 -291q-11 -58 -15 -89t-4 -47 q0 -30 13.5 -40.5t52.5 -10.5h7l-8 -43q-68 4 -97.5 5.5t-50.5 1.5q-29 0 -133 -7h-10zM258 930h58l105 -160l-41 -19l-107 90l-147 -92l-38 26z" />
<glyph unicode="&#xcf;" horiz-adv-x="365" d="M-13 43q1 0 3 -1q15 -1 21 -1q57 0 81 140q2 14 4 21l55 309q5 26 7.5 45.5t2.5 30.5q0 20 -14.5 29t-47.5 9h-11l7 42q43 -3 76.5 -4.5t56.5 -1.5q41 0 78 1.5t73 3.5l-9 -41q-3 0 -8.5 0.5t-7.5 0.5q-34 0 -49 -17t-28 -88l-53 -291q-11 -58 -15 -89t-4 -47 q0 -30 13.5 -40.5t52.5 -10.5h7l-8 -43q-68 4 -97.5 5.5t-50.5 1.5q-29 0 -133 -7h-10zM383 899q21 0 40.5 -22t19.5 -45q0 -19 -24 -38t-48 -19q-21 0 -40.5 21.5t-19.5 42.5t24 40.5t48 19.5zM174 899q21 0 40.5 -22t19.5 -45q0 -19 -24 -38t-48 -19q-21 0 -40.5 21.5 t-19.5 42.5t24.5 40.5t47.5 19.5z" />
<glyph unicode="&#xd0;" horiz-adv-x="769" d="M203 71q34 -6 54.5 -8t36.5 -2q75 0 124 16t85 52q41 42 65 110.5t24 144.5q0 108 -56.5 163.5t-165.5 55.5q-19 0 -65 -3q-7 0 -11 -1q-12 -65 -26.5 -140.5t-16.5 -87.5h48q47 0 71.5 0.5t45.5 0.5l-11 -53q-31 0 -59.5 0.5t-53.5 0.5h-50q-5 -29 -13 -82t-26 -167z M-8 41q3 0 6.5 -0.5t11.5 -0.5q37 0 54 26.5t36 140.5l19 112q-19 0 -41 1h-8h-9q-26 -1 -48 -1l10 53q21 0 44.5 -0.5t60.5 -0.5l27 155q3 16 4.5 28.5t1.5 21.5q0 27 -13.5 38t-47.5 11h-6l8 41q39 -2 66 -3.5t49 -1.5q46 0 105.5 2.5t72.5 2.5q164 0 249.5 -70t85.5 -203 q0 -80 -31 -154t-87 -129t-132 -82.5t-173 -27.5q-23 0 -92.5 3t-115.5 3q-9 0 -37 -1.5t-78 -4.5z" />
<glyph unicode="&#xd1;" horiz-adv-x="751" d="M-32 44q3 0 7 -0.5t12 -0.5q38 0 56.5 24.5t36.5 124.5l61 319q4 23 6.5 43t2.5 33q0 21 -14.5 30t-46.5 9q-2 0 -8 -0.5t-9 -0.5l7 42q28 -1 52 -2t44 -1q25 0 51 1t56 2q2 -19 14.5 -47t38.5 -71l227 -383l52 324q5 30 8 54.5t3 37.5q0 21 -14.5 31t-46.5 10h-10l8 45 q31 -2 58.5 -3t51.5 -1q27 0 56 1t61 2l-6 -44q-4 0 -8.5 0.5t-12.5 0.5q-31 0 -44.5 -15t-25.5 -81q-52 -268 -69.5 -374t-17.5 -147v-11h-94q-19 46 -53 101q-3 5 -4 7l-250 422l-60 -368q-4 -26 -6.5 -44t-2.5 -28q0 -25 11 -34.5t40 -9.5h12.5t8.5 1l-5 -45q-38 3 -70 5 t-54 2q-27 0 -56.5 -1.5t-60.5 -3.5zM618 919l31 -20q-23 -40 -52.5 -69.5t-67.5 -52.5q-28 6 -74.5 20.5t-63.5 14.5q-22 0 -43 -12.5t-46 -42.5l-28 22q27 39 57 68.5t65 50.5q28 -6 72.5 -20t61.5 -14q24 0 46 13.5t42 41.5z" />
<glyph unicode="&#xd2;" horiz-adv-x="765" d="M423 620q-113 0 -179.5 -98t-66.5 -265q0 -101 43 -154t125 -53q111 0 177.5 101t66.5 271q0 98 -42 148t-124 50zM38 259q0 87 34 169.5t96 144.5q55 55 127.5 84.5t152.5 29.5q130 0 204 -74.5t74 -205.5q0 -86 -33.5 -169t-92.5 -144q-55 -56 -127.5 -85.5 t-155.5 -29.5q-130 0 -204.5 75t-74.5 205zM449 966l72 -204l-44 -13l-117 179z" />
<glyph unicode="&#xd3;" horiz-adv-x="765" d="M423 620q-113 0 -179.5 -98t-66.5 -265q0 -101 43 -154t125 -53q111 0 177.5 101t66.5 271q0 98 -42 148t-124 50zM38 259q0 87 34 169.5t96 144.5q55 55 127.5 84.5t152.5 29.5q130 0 204 -74.5t74 -205.5q0 -86 -33.5 -169t-92.5 -144q-55 -56 -127.5 -85.5 t-155.5 -29.5q-130 0 -204.5 75t-74.5 205zM508 966l86 -42l-174 -175l-39 17z" />
<glyph unicode="&#xd4;" horiz-adv-x="765" d="M423 620q-113 0 -179.5 -98t-66.5 -265q0 -101 43 -154t125 -53q111 0 177.5 101t66.5 271q0 98 -42 148t-124 50zM38 259q0 87 34 169.5t96 144.5q55 55 127.5 84.5t152.5 29.5q130 0 204 -74.5t74 -205.5q0 -86 -33.5 -169t-92.5 -144q-55 -56 -127.5 -85.5 t-155.5 -29.5q-130 0 -204.5 75t-74.5 205zM453 930h58l105 -160l-41 -19l-107 90l-147 -92l-38 26z" />
<glyph unicode="&#xd5;" horiz-adv-x="765" d="M423 620q-113 0 -179.5 -98t-66.5 -265q0 -101 43 -154t125 -53q111 0 177.5 101t66.5 271q0 98 -42 148t-124 50zM38 259q0 87 34 169.5t96 144.5q55 55 127.5 84.5t152.5 29.5q130 0 204 -74.5t74 -205.5q0 -86 -33.5 -169t-92.5 -144q-55 -56 -127.5 -85.5 t-155.5 -29.5q-130 0 -204.5 75t-74.5 205zM625 919l31 -20q-23 -40 -52.5 -69.5t-67.5 -52.5q-28 6 -74.5 20.5t-63.5 14.5q-22 0 -43 -12.5t-46 -42.5l-28 22q27 39 57 68.5t65 50.5q28 -6 72.5 -20t61.5 -14q24 0 46 13.5t42 41.5z" />
<glyph unicode="&#xd6;" horiz-adv-x="765" d="M423 620q-113 0 -179.5 -98t-66.5 -265q0 -101 43 -154t125 -53q111 0 177.5 101t66.5 271q0 98 -42 148t-124 50zM38 259q0 87 34 169.5t96 144.5q55 55 127.5 84.5t152.5 29.5q130 0 204 -74.5t74 -205.5q0 -86 -33.5 -169t-92.5 -144q-55 -56 -127.5 -85.5 t-155.5 -29.5q-130 0 -204.5 75t-74.5 205zM578 899q21 0 40.5 -22t19.5 -45q0 -19 -24 -38t-48 -19q-21 0 -40.5 21.5t-19.5 42.5t24 40.5t48 19.5zM369 899q21 0 40.5 -22t19.5 -45q0 -19 -24 -38t-48 -19q-21 0 -40.5 21.5t-19.5 42.5t24.5 40.5t47.5 19.5z" />
<glyph unicode="&#xd7;" horiz-adv-x="833" d="M421 356l225 224l57 -57l-224 -225l224 -224l-57 -58l-225 225l-224 -225l-57 58l224 224l-224 225l57 57z" />
<glyph unicode="&#xd8;" horiz-adv-x="765" d="M535 586q-21 19 -49 28.5t-64 9.5q-114 0 -181 -98t-67 -265q0 -42 6 -74t19 -57q55 70 141 186.5t195 269.5zM568 546q-64 -83 -142.5 -188t-196.5 -267q20 -21 49.5 -32t67.5 -11q114 0 180.5 101t66.5 276q0 43 -6 71.5t-19 49.5zM658 751l42 -29l-68 -92 q47 -35 71 -92.5t24 -133.5q0 -85 -35.5 -169.5t-97.5 -145.5q-54 -53 -125.5 -81t-152.5 -28q-42 0 -78 8t-68 25l-76 -103l-41 31l76 98q-47 42 -69 94t-22 121q0 81 26.5 156.5t76.5 134.5q55 66 135 104t166 38q46 0 82 -7.5t65 -22.5z" />
<glyph unicode="&#xd9;" horiz-adv-x="737" d="M88 667h1q102 -7 129 -7q23 0 54.5 1.5t85.5 5.5l-8 -42q-3 0 -8.5 0.5t-7.5 0.5q-58 0 -77 -120q-4 -26 -7 -40l-26 -149q-7 -39 -10.5 -68t-3.5 -55q0 -60 44 -98t114 -38q43 0 80 16t60 45q20 24 32.5 67.5t27.5 145.5l14 102q9 66 13 97t4 40q0 30 -13.5 42t-46.5 12 h-9l8 42q11 0 31 -2q60 -4 82 -4q23 0 52.5 1.5t64.5 4.5l-6 -42h-10q-29 0 -42 -7t-21 -25q-12 -29 -31 -156q-15 -101 -26 -164q-14 -82 -31.5 -125.5t-46.5 -75.5q-41 -45 -100 -69t-130 -24q-114 0 -179 55.5t-65 152.5q0 37 25 167l14 70q12 64 18.5 105.5t6.5 56.5 q0 21 -14 30t-45 9h-5zM445 966l72 -204l-44 -13l-117 179z" />
<glyph unicode="&#xda;" horiz-adv-x="737" d="M88 667h1q102 -7 129 -7q23 0 54.5 1.5t85.5 5.5l-8 -42q-3 0 -8.5 0.5t-7.5 0.5q-58 0 -77 -120q-4 -26 -7 -40l-26 -149q-7 -39 -10.5 -68t-3.5 -55q0 -60 44 -98t114 -38q43 0 80 16t60 45q20 24 32.5 67.5t27.5 145.5l14 102q9 66 13 97t4 40q0 30 -13.5 42t-46.5 12 h-9l8 42q11 0 31 -2q60 -4 82 -4q23 0 52.5 1.5t64.5 4.5l-6 -42h-10q-29 0 -42 -7t-21 -25q-12 -29 -31 -156q-15 -101 -26 -164q-14 -82 -31.5 -125.5t-46.5 -75.5q-41 -45 -100 -69t-130 -24q-114 0 -179 55.5t-65 152.5q0 37 25 167l14 70q12 64 18.5 105.5t6.5 56.5 q0 21 -14 30t-45 9h-5zM504 966l86 -42l-174 -175l-39 17z" />
<glyph unicode="&#xdb;" horiz-adv-x="737" d="M88 667h1q102 -7 129 -7q23 0 54.5 1.5t85.5 5.5l-8 -42q-3 0 -8.5 0.5t-7.5 0.5q-58 0 -77 -120q-4 -26 -7 -40l-26 -149q-7 -39 -10.5 -68t-3.5 -55q0 -60 44 -98t114 -38q43 0 80 16t60 45q20 24 32.5 67.5t27.5 145.5l14 102q9 66 13 97t4 40q0 30 -13.5 42t-46.5 12 h-9l8 42q11 0 31 -2q60 -4 82 -4q23 0 52.5 1.5t64.5 4.5l-6 -42h-10q-29 0 -42 -7t-21 -25q-12 -29 -31 -156q-15 -101 -26 -164q-14 -82 -31.5 -125.5t-46.5 -75.5q-41 -45 -100 -69t-130 -24q-114 0 -179 55.5t-65 152.5q0 37 25 167l14 70q12 64 18.5 105.5t6.5 56.5 q0 21 -14 30t-45 9h-5zM449 930h58l105 -160l-41 -19l-107 90l-147 -92l-38 26z" />
<glyph unicode="&#xdc;" horiz-adv-x="737" d="M88 667h1q102 -7 129 -7q23 0 54.5 1.5t85.5 5.5l-8 -42q-3 0 -8.5 0.5t-7.5 0.5q-58 0 -77 -120q-4 -26 -7 -40l-26 -149q-7 -39 -10.5 -68t-3.5 -55q0 -60 44 -98t114 -38q43 0 80 16t60 45q20 24 32.5 67.5t27.5 145.5l14 102q9 66 13 97t4 40q0 30 -13.5 42t-46.5 12 h-9l8 42q11 0 31 -2q60 -4 82 -4q23 0 52.5 1.5t64.5 4.5l-6 -42h-10q-29 0 -42 -7t-21 -25q-12 -29 -31 -156q-15 -101 -26 -164q-14 -82 -31.5 -125.5t-46.5 -75.5q-41 -45 -100 -69t-130 -24q-114 0 -179 55.5t-65 152.5q0 37 25 167l14 70q12 64 18.5 105.5t6.5 56.5 q0 21 -14 30t-45 9h-5zM574 899q21 0 40.5 -22t19.5 -45q0 -19 -24 -38t-48 -19q-21 0 -40.5 21.5t-19.5 42.5t24 40.5t48 19.5zM365 899q21 0 40.5 -22t19.5 -45q0 -19 -24 -38t-48 -19q-21 0 -40.5 21.5t-19.5 42.5t24.5 40.5t47.5 19.5z" />
<glyph unicode="&#xdd;" horiz-adv-x="633" d="M57 667q47 -3 81.5 -4.5t57.5 -1.5t57.5 1.5t79.5 4.5l-7 -41h-11q-30 0 -44 -8.5t-14 -27.5q0 -7 2 -15t6 -19l76 -218l156 220q7 10 11.5 22t4.5 19q0 14 -10.5 21t-30.5 7q-2 0 -6 -0.5t-6 -0.5l8 41q8 0 25 -2q59 -4 79 -4q24 0 90 5q17 1 25 1l-8 -42h-6 q-23 0 -39.5 -9t-38.5 -38l-230 -302l-26 -160q-2 -11 -3 -19.5t-1 -12.5q0 -23 13.5 -33.5t44.5 -10.5q8 0 12.5 0.5t7.5 0.5l-7 -42q-62 4 -94.5 6t-50.5 2q-22 0 -53.5 -1.5t-98.5 -5.5l8 42q4 0 8.5 -0.5t13.5 -0.5q36 0 51.5 14.5t23.5 61.5l26 156l-107 285 q-17 45 -31 57t-40 12q-2 0 -6 -0.5t-7 -0.5zM447 966l86 -42l-174 -175l-39 17z" />
<glyph unicode="&#xde;" horiz-adv-x="613" d="M213 193q17 -1 30.5 -2t25.5 -1q87 0 137 44.5t50 122.5q0 58 -35.5 89.5t-99.5 31.5q-12 0 -27.5 -0.5t-31.5 -2.5q-6 -32 -22.5 -128.5t-26.5 -153.5zM202 128q-1 -8 -2 -16.5t-1 -18.5q0 -30 13 -41t48 -11q3 0 9.5 0.5t10.5 0.5l-6 -42q-47 3 -86 5t-69 2 q-17 0 -44.5 -1.5t-96.5 -5.5l6 41q3 0 7 -0.5t10 -0.5q62 0 89 153q2 11 3 16l56 317q3 15 4.5 28.5t1.5 22.5q0 27 -12 37.5t-45 10.5h-11l8 43q38 -3 73 -5t66 -2q36 0 68 2t66 5l-9 -43q-2 0 -7 0.5t-8 0.5q-34 0 -48 -14t-22 -62l-3 -16q13 0 43 2t45 2 q109 0 167 -44.5t58 -128.5q0 -106 -84.5 -167.5t-232.5 -61.5q-13 0 -29 1t-34 3z" />
<glyph unicode="&#xdf;" horiz-adv-x="578" d="M229 90l28 22q26 -35 48.5 -51t45.5 -16q28 0 48.5 19t20.5 46q0 33 -60 103q-13 15 -19 23q-46 56 -58 81.5t-12 52.5q0 17 10.5 35.5t32.5 41.5l29 29q81 80 81 133q0 33 -22 54t-57 21q-34 0 -61.5 -19.5t-44.5 -57.5q-27 -57 -60 -291q-12 -87 -19 -136 q-24 -158 -52 -237.5t-74 -130.5q-30 -33 -62 -50.5t-63 -17.5q-32 0 -52 14.5t-20 37.5q0 9 4.5 17.5t13.5 16.5l24 22q16 -19 30.5 -27.5t30.5 -8.5q76 0 110 355l11 110q16 162 42.5 242t76.5 136q42 47 94.5 72.5t106.5 25.5q63 0 103.5 -35.5t40.5 -89.5 q0 -31 -16.5 -59.5t-74.5 -80.5q-6 -5 -17 -15q-53 -47 -53 -74q0 -16 11.5 -35t40.5 -49l20 -20q83 -83 83 -141q0 -69 -61 -122t-142 -53q-47 0 -77.5 19.5t-30.5 48.5q0 11 5 20.5t16 18.5z" />
<glyph unicode="&#xe0;" horiz-adv-x="523" d="M338 391q-18 12 -33.5 17.5t-32.5 5.5q-56 0 -102 -82t-46 -187q0 -34 9 -51t26 -17q15 0 50 26t92 81q7 35 16 83.5t21 123.5zM464 484q-32 -163 -46.5 -252t-14.5 -122q0 -15 5 -23t15 -8q7 0 18.5 8t44.5 37l16 -39l-33 -31q-41 -38 -66 -53.5t-44 -15.5 q-31 0 -48 23.5t-17 67.5q0 8 0.5 20t2.5 27q-87 -82 -128 -108.5t-72 -26.5q-41 0 -64.5 35.5t-23.5 97.5t20 119.5t58 107.5q46 60 102.5 92.5t113.5 32.5q19 0 38 -4t40 -13zM295 747l72 -204l-44 -13l-117 179z" />
<glyph unicode="&#xe1;" horiz-adv-x="523" d="M338 391q-18 12 -33.5 17.5t-32.5 5.5q-56 0 -102 -82t-46 -187q0 -34 9 -51t26 -17q15 0 50 26t92 81q7 35 16 83.5t21 123.5zM464 484q-32 -163 -46.5 -252t-14.5 -122q0 -15 5 -23t15 -8q7 0 18.5 8t44.5 37l16 -39l-33 -31q-41 -38 -66 -53.5t-44 -15.5 q-31 0 -48 23.5t-17 67.5q0 8 0.5 20t2.5 27q-87 -82 -128 -108.5t-72 -26.5q-41 0 -64.5 35.5t-23.5 97.5t20 119.5t58 107.5q46 60 102.5 92.5t113.5 32.5q19 0 38 -4t40 -13zM354 747l86 -42l-174 -175l-39 17z" />
<glyph unicode="&#xe2;" horiz-adv-x="523" d="M338 391q-18 12 -33.5 17.5t-32.5 5.5q-56 0 -102 -82t-46 -187q0 -34 9 -51t26 -17q15 0 50 26t92 81q7 35 16 83.5t21 123.5zM464 484q-32 -163 -46.5 -252t-14.5 -122q0 -15 5 -23t15 -8q7 0 18.5 8t44.5 37l16 -39l-33 -31q-41 -38 -66 -53.5t-44 -15.5 q-31 0 -48 23.5t-17 67.5q0 8 0.5 20t2.5 27q-87 -82 -128 -108.5t-72 -26.5q-41 0 -64.5 35.5t-23.5 97.5t20 119.5t58 107.5q46 60 102.5 92.5t113.5 32.5q19 0 38 -4t40 -13zM299 711h58l105 -160l-41 -19l-107 90l-147 -92l-38 26z" />
<glyph unicode="&#xe3;" horiz-adv-x="523" d="M338 391q-18 12 -33.5 17.5t-32.5 5.5q-56 0 -102 -82t-46 -187q0 -34 9 -51t26 -17q15 0 50 26t92 81q7 35 16 83.5t21 123.5zM464 484q-32 -163 -46.5 -252t-14.5 -122q0 -15 5 -23t15 -8q7 0 18.5 8t44.5 37l16 -39l-33 -31q-41 -38 -66 -53.5t-44 -15.5 q-31 0 -48 23.5t-17 67.5q0 8 0.5 20t2.5 27q-87 -82 -128 -108.5t-72 -26.5q-41 0 -64.5 35.5t-23.5 97.5t20 119.5t58 107.5q46 60 102.5 92.5t113.5 32.5q19 0 38 -4t40 -13zM471 700l31 -20q-23 -40 -52.5 -69.5t-67.5 -52.5q-28 6 -74.5 20.5t-63.5 14.5 q-22 0 -43 -12.5t-46 -42.5l-28 22q27 39 57 68.5t65 50.5q28 -6 72.5 -20t61.5 -14q24 0 46 13.5t42 41.5z" />
<glyph unicode="&#xe4;" horiz-adv-x="523" d="M338 391q-18 12 -33.5 17.5t-32.5 5.5q-56 0 -102 -82t-46 -187q0 -34 9 -51t26 -17q15 0 50 26t92 81q7 35 16 83.5t21 123.5zM464 484q-32 -163 -46.5 -252t-14.5 -122q0 -15 5 -23t15 -8q7 0 18.5 8t44.5 37l16 -39l-33 -31q-41 -38 -66 -53.5t-44 -15.5 q-31 0 -48 23.5t-17 67.5q0 8 0.5 20t2.5 27q-87 -82 -128 -108.5t-72 -26.5q-41 0 -64.5 35.5t-23.5 97.5t20 119.5t58 107.5q46 60 102.5 92.5t113.5 32.5q19 0 38 -4t40 -13zM424 680q21 0 40.5 -22t19.5 -45q0 -19 -24 -38t-48 -19q-21 0 -40.5 21.5t-19.5 42.5t24 40.5 t48 19.5zM215 680q21 0 40.5 -22t19.5 -45q0 -19 -24 -38t-48 -19q-21 0 -40.5 21.5t-19.5 42.5t24.5 40.5t47.5 19.5z" />
<glyph unicode="&#xe5;" horiz-adv-x="523" d="M319 582q26 0 44.5 18.5t18.5 43.5q0 26 -18.5 45t-43.5 19q-26 0 -45 -18.5t-19 -43.5q0 -26 18.5 -45t44.5 -19zM319 527q-48 0 -83 35t-35 83q0 49 35 83.5t85 34.5q47 0 81.5 -35t34.5 -83q0 -49 -34.5 -83.5t-83.5 -34.5zM301 184q7 35 16 83.5t21 123.5 q-18 12 -33.5 17.5t-32.5 5.5q-56 0 -102 -82t-46 -187q0 -34 9 -51t26 -17q15 0 50.5 26.5t91.5 80.5zM502 85l-33 -31q-41 -38 -66 -53.5t-44 -15.5q-31 0 -48 23.5t-17 67.5q0 8 0.5 20t2.5 27q-87 -82 -128 -108.5t-72 -26.5q-41 0 -64.5 35.5t-23.5 97.5t20 119.5 t58 107.5q46 60 102.5 92.5t113.5 32.5q19 0 38 -4t40 -13l83 28q-32 -163 -46.5 -252t-14.5 -122q0 -15 5 -23t15 -8q7 0 18.5 8t44.5 37z" />
<glyph unicode="&#xe6;" horiz-adv-x="692" d="M289 155q3 39 11.5 84.5t19.5 93.5l13 53q-14 15 -28 22.5t-29 7.5q-59 0 -106.5 -85t-47.5 -194q0 -27 10 -42.5t27 -15.5q12 0 42 17t88 59zM399 216l105 69q37 24 48.5 38.5t11.5 30.5q0 23 -19 41t-44 18q-41 0 -66 -49t-36 -148zM291 105q-17 -12 -46 -34 q-115 -86 -154 -86q-36 0 -59 38t-23 100q0 64 24.5 126.5t69.5 116.5q44 51 95.5 80t98.5 29q21 0 39 -5.5t34 -16.5l78 40l-14 -65q28 24 54.5 35.5t54.5 11.5q49 0 83 -31t34 -74q0 -27 -16 -46.5t-79 -55.5l-165 -94v-15q0 -46 17 -69t51 -23q24 0 57.5 19t83.5 61 l15 -42q-70 -62 -120 -90.5t-89 -28.5q-51 0 -85 32.5t-39 86.5z" />
<glyph unicode="&#xe7;" horiz-adv-x="404" d="M351 372l-31 -27q-26 33 -45.5 46t-38.5 13q-48 0 -78 -61t-30 -161q0 -53 17 -81.5t48 -28.5q21 0 51.5 20t71.5 59l22 -45q-62 -65 -108.5 -93.5t-88.5 -28.5q-58 0 -95 49.5t-37 129.5q0 63 25.5 125t70.5 109q38 40 82.5 59.5t96.5 19.5q40 0 66.5 -17.5t26.5 -43.5 q0 -12 -6 -21.5t-20 -21.5zM179 23h62l-91 -95q28 -9 42 -25.5t14 -39.5q0 -44 -48.5 -77.5t-130.5 -43.5l-17 39q46 7 74.5 25t28.5 40q0 20 -14 31t-48 17z" />
<glyph unicode="&#xe8;" horiz-adv-x="420" d="M126 227l5 2q157 79 157 128q0 23 -17 41t-40 18q-37 0 -65 -49.5t-40 -139.5zM270 249l-146 -70v-13q0 -46 18.5 -72t50.5 -26q24 0 56.5 18.5t82.5 61.5l19 -41q-67 -63 -118 -92.5t-93 -29.5q-60 0 -96.5 47t-36.5 125q0 51 19.5 109t51.5 102q38 52 86 80t98 28 q53 0 89.5 -32t36.5 -77q0 -61 -116 -117zM244 747l72 -204l-44 -13l-117 179z" />
<glyph unicode="&#xe9;" horiz-adv-x="420" d="M126 227l5 2q157 79 157 128q0 23 -17 41t-40 18q-37 0 -65 -49.5t-40 -139.5zM270 249l-146 -70v-13q0 -46 18.5 -72t50.5 -26q24 0 56.5 18.5t82.5 61.5l19 -41q-67 -63 -118 -92.5t-93 -29.5q-60 0 -96.5 47t-36.5 125q0 51 19.5 109t51.5 102q38 52 86 80t98 28 q53 0 89.5 -32t36.5 -77q0 -61 -116 -117zM303 747l86 -42l-174 -175l-39 17z" />
<glyph unicode="&#xea;" horiz-adv-x="420" d="M126 227l5 2q157 79 157 128q0 23 -17 41t-40 18q-37 0 -65 -49.5t-40 -139.5zM270 249l-146 -70v-13q0 -46 18.5 -72t50.5 -26q24 0 56.5 18.5t82.5 61.5l19 -41q-67 -63 -118 -92.5t-93 -29.5q-60 0 -96.5 47t-36.5 125q0 51 19.5 109t51.5 102q38 52 86 80t98 28 q53 0 89.5 -32t36.5 -77q0 -61 -116 -117zM248 711h58l105 -160l-41 -19l-107 90l-147 -92l-38 26z" />
<glyph unicode="&#xeb;" horiz-adv-x="420" d="M126 227l5 2q157 79 157 128q0 23 -17 41t-40 18q-37 0 -65 -49.5t-40 -139.5zM270 249l-146 -70v-13q0 -46 18.5 -72t50.5 -26q24 0 56.5 18.5t82.5 61.5l19 -41q-67 -63 -118 -92.5t-93 -29.5q-60 0 -96.5 47t-36.5 125q0 51 19.5 109t51.5 102q38 52 86 80t98 28 q53 0 89.5 -32t36.5 -77q0 -61 -116 -117zM373 680q21 0 40.5 -22t19.5 -45q0 -19 -24 -38t-48 -19q-21 0 -40.5 21.5t-19.5 42.5t24 40.5t48 19.5zM164 680q21 0 40.5 -22t19.5 -45q0 -19 -24 -38t-48 -19q-21 0 -40.5 21.5t-19.5 42.5t24.5 40.5t47.5 19.5z" />
<glyph unicode="&#xec;" horiz-adv-x="306" d="M243 122l17 -38q-62 -58 -94.5 -78t-59.5 -20q-30 0 -47 21t-17 58q0 32 27 139q3 14 5 20q14 54 20.5 87.5t6.5 48.5q0 12 -6.5 19.5t-16.5 7.5q-8 0 -21 -5.5t-33 -17.5l-16 34l67 44q23 16 43.5 23.5t36.5 7.5q30 0 47.5 -19t17.5 -51q0 -24 -22 -111q-9 -35 -13 -55 q-14 -56 -19.5 -86t-5.5 -43q0 -14 5 -21.5t14 -7.5t24 10t40 33zM186 747l72 -204l-44 -13l-117 179z" />
<glyph unicode="&#xed;" horiz-adv-x="306" d="M243 122l17 -38q-62 -58 -94.5 -78t-59.5 -20q-30 0 -47 21t-17 58q0 32 27 139q3 14 5 20q14 54 20.5 87.5t6.5 48.5q0 12 -6.5 19.5t-16.5 7.5q-8 0 -21 -5.5t-33 -17.5l-16 34l67 44q23 16 43.5 23.5t36.5 7.5q30 0 47.5 -19t17.5 -51q0 -24 -22 -111q-9 -35 -13 -55 q-14 -56 -19.5 -86t-5.5 -43q0 -14 5 -21.5t14 -7.5t24 10t40 33zM245 747l86 -42l-174 -175l-39 17z" />
<glyph unicode="&#xee;" horiz-adv-x="306" d="M243 122l17 -38q-62 -58 -94.5 -78t-59.5 -20q-30 0 -47 21t-17 58q0 32 27 139q3 14 5 20q14 54 20.5 87.5t6.5 48.5q0 12 -6.5 19.5t-16.5 7.5q-8 0 -21 -5.5t-33 -17.5l-16 34l67 44q23 16 43.5 23.5t36.5 7.5q30 0 47.5 -19t17.5 -51q0 -24 -22 -111q-9 -35 -13 -55 q-14 -56 -19.5 -86t-5.5 -43q0 -14 5 -21.5t14 -7.5t24 10t40 33zM190 711h58l105 -160l-41 -19l-107 90l-147 -92l-38 26z" />
<glyph unicode="&#xef;" horiz-adv-x="306" d="M243 122l17 -38q-62 -58 -94.5 -78t-59.5 -20q-30 0 -47 21t-17 58q0 32 27 139q3 14 5 20q14 54 20.5 87.5t6.5 48.5q0 12 -6.5 19.5t-16.5 7.5q-8 0 -21 -5.5t-33 -17.5l-16 34l67 44q23 16 43.5 23.5t36.5 7.5q30 0 47.5 -19t17.5 -51q0 -24 -22 -111q-9 -35 -13 -55 q-14 -56 -19.5 -86t-5.5 -43q0 -14 5 -21.5t14 -7.5t24 10t40 33zM315 680q21 0 40.5 -22t19.5 -45q0 -19 -24 -38t-48 -19q-21 0 -40.5 21.5t-19.5 42.5t24 40.5t48 19.5zM106 680q21 0 40.5 -22t19.5 -45q0 -19 -24 -38t-48 -19q-21 0 -40.5 21.5t-19.5 42.5t24.5 40.5 t47.5 19.5z" />
<glyph unicode="&#xf0;" horiz-adv-x="501" d="M346 397q-15 13 -30.5 19.5t-31.5 6.5q-67 0 -109.5 -73t-42.5 -189q0 -56 20 -86t57 -30q59 0 98.5 89.5t39.5 224.5q0 15 -0.5 23t-0.5 15zM215 774q24 -16 52.5 -40.5t59.5 -54.5q20 12 43 27t51 33l26 -39q-21 -13 -44 -26.5t-47 -28.5q55 -68 81.5 -140.5 t26.5 -152.5q0 -153 -84.5 -260t-200.5 -107q-77 0 -122 51.5t-45 140.5q0 49 15.5 95.5t46.5 87.5q41 55 94 85.5t108 30.5q14 0 29.5 -2.5t34.5 -7.5q-8 32 -23 64t-39 69q-27 -16 -50 -30.5t-44 -27.5l-25 37q24 14 47 28.5t45 28.5q-23 27 -50.5 52t-59.5 50z" />
<glyph unicode="&#xf1;" horiz-adv-x="551" d="M198 342l67 62q48 45 71.5 57.5t48.5 12.5q39 0 61.5 -27t22.5 -73t-21.5 -138t-21.5 -130q0 -14 4.5 -21t13.5 -7q6 0 13.5 4t15.5 11l31 28l17 -36l-45 -41q-32 -29 -55.5 -42.5t-41.5 -13.5q-31 0 -49 23.5t-18 65.5t21 132.5t21 131.5q0 16 -8.5 25.5t-21.5 9.5 q-25 0 -105 -69q-20 -17 -31 -27l-31 -168q-7 -37 -10 -59t-5 -42l-122 -23q31 133 48.5 227.5t17.5 125.5q0 20 -6.5 31t-18.5 11q-9 0 -45 -21l-3 -2l-15 35q13 9 37 25q77 54 109 54q25 0 42 -23t17 -59q0 -10 -1.5 -22.5t-3.5 -27.5zM460 700l31 -20 q-23 -40 -52.5 -69.5t-67.5 -52.5q-28 6 -74.5 20.5t-63.5 14.5q-22 0 -43 -12.5t-46 -42.5l-28 22q27 39 57 68.5t65 50.5q28 -6 72.5 -20t61.5 -14q24 0 46 13.5t42 41.5z" />
<glyph unicode="&#xf2;" horiz-adv-x="507" d="M210 43q56 0 94 74.5t38 184.5q0 56 -19 85t-56 29q-58 0 -96.5 -73t-38.5 -184q0 -57 20 -86.5t58 -29.5zM11 168q0 66 27.5 128t78.5 109q38 35 82 53t91 18q81 0 127 -48.5t46 -132.5q0 -126 -82 -218.5t-196 -92.5q-81 0 -127.5 49.5t-46.5 134.5zM287 747l72 -204 l-44 -13l-117 179z" />
<glyph unicode="&#xf3;" horiz-adv-x="507" d="M210 43q56 0 94 74.5t38 184.5q0 56 -19 85t-56 29q-58 0 -96.5 -73t-38.5 -184q0 -57 20 -86.5t58 -29.5zM11 168q0 66 27.5 128t78.5 109q38 35 82 53t91 18q81 0 127 -48.5t46 -132.5q0 -126 -82 -218.5t-196 -92.5q-81 0 -127.5 49.5t-46.5 134.5zM346 747l86 -42 l-174 -175l-39 17z" />
<glyph unicode="&#xf4;" horiz-adv-x="507" d="M210 43q56 0 94 74.5t38 184.5q0 56 -19 85t-56 29q-58 0 -96.5 -73t-38.5 -184q0 -57 20 -86.5t58 -29.5zM11 168q0 66 27.5 128t78.5 109q38 35 82 53t91 18q81 0 127 -48.5t46 -132.5q0 -126 -82 -218.5t-196 -92.5q-81 0 -127.5 49.5t-46.5 134.5zM291 711h58 l105 -160l-41 -19l-107 90l-147 -92l-38 26z" />
<glyph unicode="&#xf5;" horiz-adv-x="507" d="M210 43q56 0 94 74.5t38 184.5q0 56 -19 85t-56 29q-58 0 -96.5 -73t-38.5 -184q0 -57 20 -86.5t58 -29.5zM11 168q0 66 27.5 128t78.5 109q38 35 82 53t91 18q81 0 127 -48.5t46 -132.5q0 -126 -82 -218.5t-196 -92.5q-81 0 -127.5 49.5t-46.5 134.5zM463 700l31 -20 q-23 -40 -52.5 -69.5t-67.5 -52.5q-28 6 -74.5 20.5t-63.5 14.5q-22 0 -43 -12.5t-46 -42.5l-28 22q27 39 57 68.5t65 50.5q28 -6 72.5 -20t61.5 -14q24 0 46 13.5t42 41.5z" />
<glyph unicode="&#xf6;" horiz-adv-x="507" d="M210 43q56 0 94 74.5t38 184.5q0 56 -19 85t-56 29q-58 0 -96.5 -73t-38.5 -184q0 -57 20 -86.5t58 -29.5zM11 168q0 66 27.5 128t78.5 109q38 35 82 53t91 18q81 0 127 -48.5t46 -132.5q0 -126 -82 -218.5t-196 -92.5q-81 0 -127.5 49.5t-46.5 134.5zM416 680 q21 0 40.5 -22t19.5 -45q0 -19 -24 -38t-48 -19q-21 0 -40.5 21.5t-19.5 42.5t24 40.5t48 19.5zM207 680q21 0 40.5 -22t19.5 -45q0 -19 -24 -38t-48 -19q-21 0 -40.5 21.5t-19.5 42.5t24.5 40.5t47.5 19.5z" />
<glyph unicode="&#xf7;" horiz-adv-x="833" d="M417 179q28 0 47.5 -19.5t19.5 -47.5q0 -27 -19.5 -46.5t-47.5 -19.5t-47.5 19t-19.5 47t20 47.5t47 19.5zM709 339v-81h-585v81h585zM417 551q28 0 47.5 -20t19.5 -48q0 -27 -19.5 -46.5t-47.5 -19.5t-47.5 19t-19.5 47t20 48t47 20z" />
<glyph unicode="&#xf8;" horiz-adv-x="507" d="M326 391q-11 14 -26 21t-33 7q-60 0 -100 -72t-40 -182q0 -15 1.5 -29t5.5 -29q69 102 111.5 164.5t80.5 119.5zM344 351q-43 -61 -92 -133t-101 -151q8 -12 23.5 -19t34.5 -7q61 0 100 74t39 188q0 20 -1 30t-3 18zM419 529l37 -23l-50 -70q29 -25 43 -60t14 -81 q0 -57 -22 -115t-60 -103q-40 -46 -90 -69.5t-110 -23.5q-22 0 -41 4t-35 12l-47 -70l-36 23l49 69q-30 27 -45 62.5t-15 82.5q0 124 85 216.5t196 92.5q24 0 44 -4.5t35 -12.5z" />
<glyph unicode="&#xf9;" horiz-adv-x="549" d="M519 84l-63 -55q-24 -21 -43 -30.5t-37 -9.5q-29 0 -47 23t-18 61q0 13 1 26t3 26q-87 -84 -127.5 -112t-67.5 -28q-33 0 -55 29t-22 75q0 40 28 149q3 13 5 20q12 48 17.5 72t5.5 31q0 13 -5 20t-14 7q-7 0 -24 -6.5t-37 -18.5l-13 34l16 10q101 65 128 65t44 -20.5 t17 -54.5q0 -42 -26 -135t-26 -132q0 -20 7 -29.5t21 -9.5q16 0 50 24.5t85 73.5q12 56 23 119t24 140l122 24q-5 -20 -15 -64.5t-24 -113.5l-12 -59q-10 -52 -15 -83t-5 -46q0 -14 4.5 -21t13.5 -7q8 0 25 11t41 32zM308 747l72 -204l-44 -13l-117 179z" />
<glyph unicode="&#xfa;" horiz-adv-x="549" d="M519 84l-63 -55q-24 -21 -43 -30.5t-37 -9.5q-29 0 -47 23t-18 61q0 13 1 26t3 26q-87 -84 -127.5 -112t-67.5 -28q-33 0 -55 29t-22 75q0 40 28 149q3 13 5 20q12 48 17.5 72t5.5 31q0 13 -5 20t-14 7q-7 0 -24 -6.5t-37 -18.5l-13 34l16 10q101 65 128 65t44 -20.5 t17 -54.5q0 -42 -26 -135t-26 -132q0 -20 7 -29.5t21 -9.5q16 0 50 24.5t85 73.5q12 56 23 119t24 140l122 24q-5 -20 -15 -64.5t-24 -113.5l-12 -59q-10 -52 -15 -83t-5 -46q0 -14 4.5 -21t13.5 -7q8 0 25 11t41 32zM367 747l86 -42l-174 -175l-39 17z" />
<glyph unicode="&#xfb;" horiz-adv-x="549" d="M519 84l-63 -55q-24 -21 -43 -30.5t-37 -9.5q-29 0 -47 23t-18 61q0 13 1 26t3 26q-87 -84 -127.5 -112t-67.5 -28q-33 0 -55 29t-22 75q0 40 28 149q3 13 5 20q12 48 17.5 72t5.5 31q0 13 -5 20t-14 7q-7 0 -24 -6.5t-37 -18.5l-13 34l16 10q101 65 128 65t44 -20.5 t17 -54.5q0 -42 -26 -135t-26 -132q0 -20 7 -29.5t21 -9.5q16 0 50 24.5t85 73.5q12 56 23 119t24 140l122 24q-5 -20 -15 -64.5t-24 -113.5l-12 -59q-10 -52 -15 -83t-5 -46q0 -14 4.5 -21t13.5 -7q8 0 25 11t41 32zM312 711h58l105 -160l-41 -19l-107 90l-147 -92l-38 26z " />
<glyph unicode="&#xfc;" horiz-adv-x="549" d="M519 84l-63 -55q-24 -21 -43 -30.5t-37 -9.5q-29 0 -47 23t-18 61q0 13 1 26t3 26q-87 -84 -127.5 -112t-67.5 -28q-33 0 -55 29t-22 75q0 40 28 149q3 13 5 20q12 48 17.5 72t5.5 31q0 13 -5 20t-14 7q-7 0 -24 -6.5t-37 -18.5l-13 34l16 10q101 65 128 65t44 -20.5 t17 -54.5q0 -42 -26 -135t-26 -132q0 -20 7 -29.5t21 -9.5q16 0 50 24.5t85 73.5q12 56 23 119t24 140l122 24q-5 -20 -15 -64.5t-24 -113.5l-12 -59q-10 -52 -15 -83t-5 -46q0 -14 4.5 -21t13.5 -7q8 0 25 11t41 32zM437 680q21 0 40.5 -22t19.5 -45q0 -19 -24 -38t-48 -19 q-21 0 -40.5 21.5t-19.5 42.5t24 40.5t48 19.5zM228 680q21 0 40.5 -22t19.5 -45q0 -19 -24 -38t-48 -19q-21 0 -40.5 21.5t-19.5 42.5t24.5 40.5t47.5 19.5z" />
<glyph unicode="&#xfd;" horiz-adv-x="479" d="M-47 -139q16 -21 32.5 -31.5t35.5 -10.5q47 0 81 66t34 168q0 145 -18 232t-47 87q-7 0 -18 -10t-33 -40l-25 31q54 76 80 99.5t50 23.5q50 0 77 -85.5t27 -244.5q0 -20 -1 -46t-3 -56q83 169 105.5 227.5t22.5 87.5q0 18 -6.5 30t-19.5 21l31 36q14 16 26 23t25 7 q18 0 28.5 -13.5t10.5 -37.5q0 -42 -52.5 -155t-141.5 -259q-86 -143 -153 -207.5t-127 -64.5q-32 0 -52.5 15.5t-20.5 40.5q0 10 5 19t18 21zM332 747l86 -42l-174 -175l-39 17z" />
<glyph unicode="&#xfe;" horiz-adv-x="521" d="M150 80q22 -16 44 -24.5t39 -8.5q54 0 91 75t37 185q0 39 -11 59t-33 20q-28 0 -123 -88l-12 -11zM194 349q74 80 107 101.5t67 21.5q50 0 80.5 -44t30.5 -119q0 -58 -23.5 -121t-62.5 -109q-38 -44 -81.5 -67.5t-88.5 -23.5q-21 0 -41.5 5.5t-42.5 17.5l-23 -148 q-1 -10 -2 -18t-1 -14q0 -24 12 -33t47 -9h18l-8 -41q-49 2 -81.5 3.5t-54.5 1.5q-21 0 -49 -1t-76 -4l7 41h21q26 0 38.5 14t19.5 55l91 539l3 19q38 228 38 249q0 14 -8 22t-23 8q-6 0 -23 -2h-6l-4 37q46 5 95.5 13t103.5 19q-18 -88 -38 -193t-42 -220z" />
<glyph unicode="&#xff;" horiz-adv-x="479" d="M-47 -139q16 -21 32.5 -31.5t35.5 -10.5q47 0 81 66t34 168q0 145 -18 232t-47 87q-7 0 -18 -10t-33 -40l-25 31q54 76 80 99.5t50 23.5q50 0 77 -85.5t27 -244.5q0 -20 -1 -46t-3 -56q83 169 105.5 227.5t22.5 87.5q0 18 -6.5 30t-19.5 21l31 36q14 16 26 23t25 7 q18 0 28.5 -13.5t10.5 -37.5q0 -42 -52.5 -155t-141.5 -259q-86 -143 -153 -207.5t-127 -64.5q-32 0 -52.5 15.5t-20.5 40.5q0 10 5 19t18 21zM402 680q21 0 40.5 -22t19.5 -45q0 -19 -24 -38t-48 -19q-21 0 -40.5 21.5t-19.5 42.5t24 40.5t48 19.5zM193 680q21 0 40.5 -22 t19.5 -45q0 -19 -24 -38t-48 -19q-21 0 -40.5 21.5t-19.5 42.5t24.5 40.5t47.5 19.5z" />
<glyph unicode="&#x131;" horiz-adv-x="306" d="M243 122l17 -38q-62 -58 -94.5 -78t-59.5 -20q-30 0 -47 21t-17 58q0 32 27 139q3 14 5 20q14 54 20.5 87.5t6.5 48.5q0 12 -6.5 19.5t-16.5 7.5q-8 0 -21 -5.5t-33 -17.5l-16 34l67 44q23 16 43.5 23.5t36.5 7.5q30 0 47.5 -19t17.5 -51q0 -24 -22 -111q-9 -35 -13 -55 q-14 -56 -19.5 -86t-5.5 -43q0 -14 5 -21.5t14 -7.5t24 10t40 33z" />
<glyph unicode="&#x152;" horiz-adv-x="1025" d="M411 614q-105 0 -169.5 -98.5t-64.5 -259.5q0 -96 42.5 -149t119.5 -53q59 0 101 29.5t73 91.5q24 51 39 119.5t15 134.5q0 91 -39.5 138t-116.5 47zM1021 667q-10 -42 -16.5 -80.5t-9.5 -74.5l-43 -2v11v12q0 46 -35.5 60t-210.5 14h-16h-48h-42q50 -34 73 -81.5 t23 -121.5q0 -6 -0.5 -13.5t-0.5 -15.5q15 0 40 -1q41 -1 52 -1h18q59 0 75 12.5t23 48.5l41 -6q-12 -44 -20 -88.5t-12 -92.5l-42 -3q0 6 1 15.5t1 11.5q0 28 -19 37.5t-87 9.5h-39h-40q-15 -88 -56.5 -152t-109.5 -104q72 -1 122.5 -2t77.5 -1q122 0 155 22.5t47 87.5 l44 -8q-13 -44 -22 -85t-15 -80q-75 4 -149.5 6t-149.5 2q-83 0 -188 -7.5t-128 -7.5q-127 0 -202 74.5t-75 201.5q0 85 38 168t105 144q54 49 118.5 72.5t146.5 23.5q9 0 130 -5.5t234 -5.5q83 0 127.5 1.5t83.5 3.5z" />
<glyph unicode="&#x153;" horiz-adv-x="729" d="M271 416q-57 0 -99 -74t-42 -178q0 -51 18.5 -78t51.5 -27q29 0 55 23.5t47 69.5q20 42 30.5 90t10.5 87q0 42 -19 64.5t-53 22.5zM548 287q29 17 40.5 33t11.5 37q0 24 -16 41.5t-38 17.5q-39 0 -67.5 -50t-42.5 -143zM416 386q34 44 72 67.5t78 23.5q56 0 93 -32.5 t37 -79.5q0 -30 -17.5 -52.5t-57.5 -42.5l-189 -95q0 -3 -0.5 -6.5t-0.5 -11.5q0 -42 20.5 -67.5t54.5 -25.5q20 0 50.5 18.5t85.5 64.5l17 -41q-72 -67 -118 -94t-86 -27q-43 0 -74 27.5t-41 73.5q-41 -53 -82 -77.5t-89 -24.5q-72 0 -114.5 50.5t-42.5 136.5 q0 59 20.5 112.5t60.5 99.5q39 45 87.5 69.5t97.5 24.5q50 0 85.5 -23.5t52.5 -67.5z" />
<glyph unicode="&#x178;" horiz-adv-x="633" d="M57 667q47 -3 81.5 -4.5t57.5 -1.5t57.5 1.5t79.5 4.5l-7 -41h-11q-30 0 -44 -8.5t-14 -27.5q0 -7 2 -15t6 -19l76 -218l156 220q7 10 11.5 22t4.5 19q0 14 -10.5 21t-30.5 7q-2 0 -6 -0.5t-6 -0.5l8 41q8 0 25 -2q59 -4 79 -4q24 0 90 5q17 1 25 1l-8 -42h-6 q-23 0 -39.5 -9t-38.5 -38l-230 -302l-26 -160q-2 -11 -3 -19.5t-1 -12.5q0 -23 13.5 -33.5t44.5 -10.5q8 0 12.5 0.5t7.5 0.5l-7 -42q-62 4 -94.5 6t-50.5 2q-22 0 -53.5 -1.5t-98.5 -5.5l8 42q4 0 8.5 -0.5t13.5 -0.5q36 0 51.5 14.5t23.5 61.5l26 156l-107 285 q-17 45 -31 57t-40 12q-2 0 -6 -0.5t-7 -0.5zM517 899q21 0 40.5 -22t19.5 -45q0 -19 -24 -38t-48 -19q-21 0 -40.5 21.5t-19.5 42.5t24 40.5t48 19.5zM308 899q21 0 40.5 -22t19.5 -45q0 -19 -24 -38t-48 -19q-21 0 -40.5 21.5t-19.5 42.5t24.5 40.5t47.5 19.5z" />
<glyph unicode="&#x2c6;" horiz-adv-x="500" d="M287 711h58l105 -160l-41 -19l-107 90l-147 -92l-38 26z" />
<glyph unicode="&#x2dc;" horiz-adv-x="500" d="M459 700l31 -20q-23 -40 -52.5 -69.5t-67.5 -52.5q-28 6 -74.5 20.5t-63.5 14.5q-22 0 -43 -12.5t-46 -42.5l-28 22q27 39 57 68.5t65 50.5q28 -6 72.5 -20t61.5 -14q24 0 46 13.5t42 41.5z" />
<glyph unicode="&#x2013;" horiz-adv-x="500" d="M-6 267h499l-20 -60h-500z" />
<glyph unicode="&#x2014;" horiz-adv-x="1000" d="M-3 267h1005l-21 -60h-1005z" />
<glyph unicode="&#x2018;" horiz-adv-x="292" d="M255 714l31 -34q-52 -36 -70 -57.5t-18 -44.5q0 -17 19.5 -43.5t19.5 -41.5q0 -16 -8.5 -27.5t-28.5 -21.5l-51 -27l-32 31q-18 18 -25.5 33.5t-7.5 33.5q0 45 46.5 100.5t124.5 98.5z" />
<glyph unicode="&#x2019;" horiz-adv-x="292" d="M203 714l32 -31q17 -16 24.5 -32t7.5 -35q0 -46 -46.5 -101t-123.5 -98l-31 34q49 34 68 56.5t19 45.5q0 17 -19.5 43.5t-19.5 39.5q0 17 8.5 28.5t29.5 22.5z" />
<glyph unicode="&#x201a;" horiz-adv-x="292" d="M118 148l32 -31q17 -17 24.5 -32.5t7.5 -34.5q0 -45 -46.5 -100t-123.5 -99l-31 34q50 35 69 57t19 45q0 17 -19.5 43.5t-19.5 39.5q0 16 8.5 27.5t29.5 23.5z" />
<glyph unicode="&#x201c;" horiz-adv-x="519" d="M481 714l32 -34q-52 -36 -70 -57.5t-18 -44.5q0 -17 19.5 -43.5t19.5 -41.5q0 -16 -9 -27t-29 -22l-51 -27l-32 31q-18 18 -25 33t-7 34q0 46 46 101t124 98zM255 714l31 -34q-52 -36 -70 -57.5t-18 -44.5q0 -17 19.5 -43.5t19.5 -41.5q0 -16 -9 -27t-29 -22l-50 -27 l-32 31q-19 18 -26 33.5t-7 33.5q0 46 46.5 100.5t124.5 98.5z" />
<glyph unicode="&#x201d;" horiz-adv-x="519" d="M430 714l32 -31q18 -18 25 -33t7 -34q0 -46 -46.5 -101t-123.5 -98l-32 34q52 36 70 58t18 44q0 17 -19.5 43.5t-19.5 39.5q0 16 8.5 27.5t29.5 23.5zM203 714l32 -31q17 -16 24.5 -32t7.5 -35q0 -46 -46.5 -101t-123.5 -98l-31 34q49 34 68 56.5t19 45.5 q0 17 -19.5 43.5t-19.5 39.5q0 17 8.5 28.5t29.5 22.5z" />
<glyph unicode="&#x201e;" horiz-adv-x="519" d="M345 148l32 -31q18 -18 25 -33.5t7 -33.5q0 -45 -46.5 -100t-123.5 -99l-32 34q50 35 69 57t19 45q0 17 -19.5 43.5t-19.5 39.5q0 16 8.5 27.5t29.5 23.5zM118 148l32 -31q17 -16 24.5 -32t7.5 -35q0 -45 -46.5 -100.5t-123.5 -98.5l-31 34q50 35 69 57t19 45 q0 17 -20 43.5t-20 39.5q0 17 8.5 28.5t29.5 22.5z" />
<glyph unicode="&#x2022;" horiz-adv-x="589" d="M150 372q0 60 42.5 102t102.5 42t102 -42t42 -102t-42.5 -102.5t-102.5 -42.5t-102 42.5t-42 102.5z" />
<glyph unicode="&#x2026;" horiz-adv-x="1000" d="M145 171l34 -34q14 -14 20.5 -25.5t6.5 -25.5q0 -19 -10.5 -31.5t-37.5 -26.5l-46 -28l-35 38q-17 17 -22 27t-5 22q0 19 11 33t35 26zM478 171l34 -34q14 -14 20.5 -25.5t6.5 -25.5q0 -19 -10.5 -31.5t-37.5 -26.5l-46 -28l-35 38q-17 17 -22 27t-5 22q0 19 11 33t35 26 zM812 171l34 -34q14 -14 20.5 -25.5t6.5 -25.5q0 -19 -10.5 -31.5t-37.5 -26.5l-46 -28l-35 38q-17 17 -22 27t-5 22q0 19 11 33t35 26z" />
<glyph unicode="&#x2039;" horiz-adv-x="264" d="M131 45q-23 42 -50.5 88.5t-62.5 103.5q45 45 88 89.5t85 89.5l38 -25q-41 -61 -63.5 -95.5t-40.5 -63.5q9 -36 20.5 -77.5t26.5 -90.5z" />
<glyph unicode="&#x203a;" horiz-adv-x="264" d="M99 416l9 -15q67 -116 104 -177q-51 -51 -94 -95t-80 -84l-37 25q26 39 52.5 79t51.5 81q-14 52 -25 91t-22 76z" />
<glyph unicode="&#x20ac;" d="M608 645l-2 -5q-26 -98 -31 -153l-44 6q1 8 1.5 16t0.5 16q0 50 -36.5 78.5t-99.5 28.5q-69 0 -119 -52.5t-72 -147.5h141q40 0 74 0.5t56 0.5l-15 -45q-52 1 -102.5 1.5t-89.5 0.5h-71q-3 -19 -4.5 -39.5t-2.5 -45.5h155q23 0 45.5 0.5t45.5 0.5l-15 -45q-11 0 -32 1 q-73 1 -121 1h-77q0 -104 39 -158.5t113 -54.5q57 0 99 36t57 97l42 -9q-12 -41 -19 -74t-10 -60q-43 -27 -91 -41t-102 -14q-112 0 -181 74t-75 204h-6q-10 0 -36 -1q-19 -1 -30 -1l15 45l45 -1h6h6q0 19 2.5 39.5t7.5 45.5h-6q-9 0 -30.5 -1t-33.5 -1l15 45 q17 0 28.5 -0.5t22.5 -0.5h15q37 121 127 192t206 71q54 0 101.5 -12.5t87.5 -37.5z" />
<glyph unicode="&#x2122;" horiz-adv-x="821" d="M473 707l66 -186l67 186h92v-13l-13 -1q-9 -1 -14.5 -8t-5.5 -18v-183q0 -11 5 -18t15 -8l13 -2v-14h-120v14l15 2q10 1 14.5 7.5t4.5 18.5v183l-80 -226h-13l-83 229v-186q0 -12 5 -19t14 -7l17 -2v-14h-96v14l16 2q10 1 15 7.5t5 17.5v182q0 11 -5.5 18t-14.5 8l-16 1 v15h97zM338 707l5 -92h-15q-4 39 -19.5 57t-45.5 18h-5v-206q0 -11 5 -18t14 -8l15 -2v-14h-127v14l16 2q9 1 13.5 7.5t4.5 18.5v206h-7q-29 0 -44.5 -18.5t-19.5 -56.5h-14l5 92h219z" />
<glyph unicode="&#x25fc;" horiz-adv-x="478" d="M0 479h479v-479h-479v479z" />
</font>
</defs>
</svg>
