<svg xmlns="http://www.w3.org/2000/svg" width="184.086" height="123.218" enable-background="new"><defs><mask id="c"><g><path fill="#fff" d="M195.5 372.362h292v168h-292z"/><path d="M363.895 428.606c.503 10.304 9.78 15.348 22.588 19.217 15.074 4.553 25.09 10.103 24.965 21.706" stroke="#000" stroke-width="1.8" stroke-linecap="round" fill="none"/><path d="M263.315 410.158v77.58" stroke="#000" stroke-width="1.8" stroke-linecap="round" fill="none"/></g></mask><mask id="a"><g><path fill="#fff" d="M-62.225-36.582h1111.572v1284.106H-62.225z"/><g stroke="#000" stroke-width="2" fill="none"><path d="M323.535 441.588c.667 3.6 1.205 10.9.375 17.954"/><path d="M340.47 441.155c.665 3.952.85 10.88.02 17.93"/></g></g></mask><mask id="b"><g><path fill="#fff" d="M224.458 383.588h210.364v146.725H224.458z"/><path d="M295.003 437.236v24.727" stroke="#000" stroke-width=".577" stroke-linecap="round" enable-background="new" fill="none"/></g></mask></defs><text x="242.87" y="516.992" style="line-height:125%;-inkscape-font-specification:Iowan Old Style" font-size="40" letter-spacing="0" word-spacing="0" font-family="Iowan Old Style" transform="translate(-241.335 -399.343)"><tspan x="242.87" y="516.992" style="-inkscape-font-specification:Iowan Old Style Bold" font-size="14" font-weight="bold" fill="#394165">Producer - Sound Engineer</tspan></text><g><path d="M114.575 70.144c-3.49-14.99-9.042-20.127-27.106-20.844-2.76-.11-12.21.03-15.49.016" mask="url(#a)" stroke="#394165" stroke-width="3.62" fill="none"/><path d="M33.28 13.647l19.888 21.776 16.892.013v29.642l-16.892.012-19.89 21.777z" mask="url(#b)" fill="#698cdd"/></g><path d="M136.387 99.435c-5.462-.335-11.63-1.595-18.95-3.87l-2.215-.687v-2.982c-.002-4.946-.77-13.567-1.556-17.448l-.387-1.913 1.753-.44 1.753-.44.252 1.272c2.95 14.898 10.72 21.567 25.114 21.556 7.816-.006 13.086-2.12 17.855-7.157 3.2-3.38 4.79-7.42 4.79-12.174 0-6.947-3.92-12.207-12.168-16.323-2.735-1.366-4.544-2.078-10.697-4.21-9.318-3.228-13.71-5.386-17.71-8.702-3.18-2.634-5.714-6.653-6.72-10.653-1.057-4.194-1.06-9.124-.01-13.13 2.406-9.182 11.748-17 23.108-19.336 7.376-1.52 17.488-.853 27.614 1.818l2.625.693.144 3.546c.146 3.575.704 8 1.496 11.862.236 1.152.412 2.106.39 2.12-.156.102-2.954.98-2.985.937-.022-.03-.32-.92-.665-1.98-.693-2.13-2.26-5.404-3.333-6.964-3.974-5.774-10.503-8.46-19.766-8.132-2.614.092-3.915.254-5.658.702-5.315 1.367-9.214 4.32-11.31 8.56-1.12 2.267-1.476 3.72-1.625 6.628-.23 4.498.91 7.76 3.794 10.848 3.29 3.52 7.44 5.657 18.262 9.396 6.47 2.235 8.104 2.887 11.48 4.577 3.924 1.964 6.273 3.596 8.72 6.06 2.222 2.237 3.624 4.278 4.618 6.723 2.496 6.143 2.446 14.288-.126 20.34-4.4 10.358-16.5 17.945-29.964 18.79-4.15.26-5.268.275-7.923.112zm147.845 398.734c-.996-.04-4.613-.28-8.036-.54-8.264-.62-16.35-.778-23.48-.455-3.21.145-6.217.32-6.684.39l-.85.126v-2.7l2.774-.097c2.44-.086 2.943-.174 4.19-.74 1.608-.727 2.816-1.927 3.465-3.44.644-1.5 1.287-4.988 1.558-8.444.308-3.93.323-62.467.016-66.112-.488-5.803-1.29-8.137-3.246-9.445-1.532-1.024-2.38-1.237-5.416-1.36l-2.66-.108v-2.556l2.207.155c6.122.432 18.175.465 26.994.074 9.476-.422 13.836-.366 19.24.244 12.26 1.384 22.43 5.433 30.448 12.123 8.588 7.166 13.534 16.352 15.095 28.036.425 3.18.355 11.278-.125 14.567-1.54 10.544-5.664 18.95-12.846 26.18-8.422 8.48-19.624 13.122-33.848 14.03-3.424.218-4.684.228-8.796.07zm10.073-5.6c8.02-.97 14.19-3.676 19.265-8.45 8.17-7.684 12.117-19.284 11.678-34.306-.183-6.257-.898-10.41-2.663-15.465-3.233-9.26-10.213-17.262-19-21.78-6.55-3.37-13.108-4.816-21.802-4.808-3.854.004-9.77.434-11.318.823l-.56.14-.156 4.34c-.528 14.58-.57 31.447-.12 48.254.117 4.357.268 10.927.336 14.6.07 3.673.184 8.322.257 10.332l.133 3.654 2.75.797c4.12 1.194 5.51 1.46 10.673 2.05 1.818.207 8.213.095 10.525-.184z" mask="url(#c)" fill="#394165"/></svg>